<svg width="900" height="66" viewBox="0 0 900 66" fill="none" xmlns="http://www.w3.org/2000/svg">
<path d="M0.0183387 10.2157C0.0183387 10.8799 0.0183387 11.5626 0.0183387 12.2268C2.37994 10.9998 14.5478 7.57736 15.7378 8.21389C16.4204 8.57366 18.0625 17.937 17.4075 19.9204C17.2322 20.4647 13.7821 19.9204 15.3965 22.2636C27.2967 22.4204 20.8576 28.3613 30.1195 32.6325C18.5237 36.1749 27.5827 37.6416 34.1324 46.0179C34.9442 47.0511 36.7154 54.1913 46.8444 61.4052L16.4019 62.4108L0.00916101 43.0106C0.00916101 43.6748 0.00916101 44.3574 0.00916101 45.0216C3.02574 51.5529 8.15481 56.0086 12.7212 61.4145L0.00916101 62.42C0.00916101 63.0842 0.00916101 63.7668 0.00916101 64.431L899.253 65.086C899.253 64.4218 899.253 63.7392 899.253 63.075L321.51 62.4015C303.512 53.1212 292.073 31.507 295.412 52.3647C286.141 30.7506 288.134 42.3556 285.375 42.3279C284.102 42.3187 285.744 37.78 261.289 36.9774C260.302 36.9405 258.78 41.4977 242.553 35.6398C234.601 32.7616 220.339 21.4056 213.78 20.9167L174.97 23.592C166.788 17.0699 157.766 11.3596 151.557 2.85416C149.094 3.85969 138.523 5.43716 137.508 6.86704C136.945 7.66039 139.445 14.2101 122.785 16.9038C108.818 -3.96311 105.294 11.2674 103.385 11.5533C102.859 11.6364 101.254 8.11241 98.6982 8.20466C97.213 8.26001 91.6226 16.2396 71.2631 18.2415C65.2945 15.6861 39.1139 0.529462 37.1398 0.178912C29.7321 -1.14949 22.8041 5.32646 19.7414 6.20284C14.1787 7.79876 5.92238 6.85781 -7.29961e-05 10.2157H0.0183387Z" fill="#060605"/>
<path d="M38.1637 34.9756C43.7818 38.804 57.5639 44.7357 55.5621 50.0308C64.455 58.9422 62.4347 62.706 49.5382 61.0731C53.4404 62.1248 91.3828 63.5639 91.6872 61.4052C82.8773 46.3131 72.0841 45.0401 68.9383 33.3059C64.3351 28.3613 57.5362 25.9443 52.5455 21.5994C34.6674 6.02756 37.7302 -5.75276 18.0901 9.21941C21.0606 13.6935 18.8374 18.6658 19.4278 19.9204C26.1989 21.9499 26.0144 27.6325 30.4701 30.9627C30.8206 31.221 33.1084 31.5347 38.1637 34.9756Z" fill="#5F6952"/>
<path d="M170.303 22.2636C164.269 42.9737 150.856 28.6104 149.897 38.6564C149.085 47.0973 176.077 45.1508 162.609 61.4052L203.753 62.4108C205.145 60.7779 192.922 55.123 191.373 51.3684C190.782 49.9478 189.758 37.5955 190.035 35.9811C191.769 25.9351 206.64 29.9757 204.085 24.6067C203.107 22.5495 184.648 23.7857 184.011 24.6067C186.308 28.6565 185.588 34.1823 182 37.3188C180.256 44.339 192.627 50.3998 189.694 53.7116C170.137 38.3151 185.718 34.5605 183.338 27.282C181.769 22.485 172.24 26.8023 170.293 22.2636H170.303Z" fill="#7F816A"/>
<path d="M210.109 62.4015C201.668 50.4275 220.062 57.2448 222.156 62.4015C224.084 62.3831 235.662 62.7336 236.206 62.0694C223.937 50.7227 231.667 45.4275 224.158 33.2967C219.241 35.3723 211.252 30.1878 214.453 29.6159C227.249 37.2542 227.71 20.8614 207.092 22.9278C206.299 36.0365 196.502 24.3023 192.037 37.983C195.994 43.8685 192.461 45.6028 192.71 48.0198C193.162 52.5585 206.382 61.8019 210.109 62.4015Z" fill="#5F6952"/>
<path d="M39.1601 2.86339L38.1545 3.19549C47.4164 16.3503 58.9015 24.2193 72.2778 32.6325C72.2132 43.8501 83.9382 45.4275 87.6651 50.0308C90.3034 53.2872 90.7185 60.9717 98.034 62.4108C116.281 65.9808 94.8421 55.6581 101.041 39.3298C99.879 33.6195 47.1489 8.18621 39.1508 2.86339H39.1601Z" fill="#7F816A"/>
<path d="M106.401 37.6509C105.322 37.7247 103.597 37.1988 103.052 38.3243L119.445 43.6748C139.648 42.6969 129.74 50.0585 137.508 62.4108C144.307 60.5658 162.332 65.1875 163.937 56.0547C165.349 48.0474 145.967 43.4257 138.181 35.649C132.139 29.6067 138.467 18.1953 128.144 24.948C124.51 27.3281 124.39 39.6711 115.1 38.6656C118.292 33.7671 113.311 37.2081 106.401 37.6601V37.6509Z" fill="#5F6952"/>
<path d="M227.839 29.6251C220.819 29.4222 232.322 36.7468 231.52 54.0437C232.802 55.2614 239.961 62.2355 240.551 62.4108C242.175 62.872 266.805 62.7152 266.981 61.4052C257.866 52.5492 265.292 58.6008 264.305 50.7042C264.112 49.1544 259.103 43.1028 257.949 40.3353C244.536 40.3722 229.453 29.6805 227.839 29.6343V29.6251Z" fill="#7F816A"/>
<path d="M271.335 39.6619C269.757 39.5881 260.754 39.4128 260.293 39.994C270.191 50.7873 263.337 60.3905 269.997 62.4108C271.206 62.7798 286.99 62.6598 287.054 61.4052C284.213 58.3518 277.645 59.2466 276.012 58.3979C269.601 55.0584 284.49 54.4035 290.735 62.4108L317.165 61.4052C303.936 54.7171 293.078 38.2597 297.764 52.0419C305.172 55.5935 309.655 57.4569 299.434 55.7226C291.418 54.3666 284.397 31.5808 289.065 48.029C282.322 50.3352 291.242 40.5752 271.335 39.6619Z" fill="#7F816A"/>
<path d="M129.15 17.5773L131.825 21.5901C144.989 19.3023 129.233 31.507 146.88 38.9885C150.137 30.6306 150.017 33.6011 155.247 32.3004C145.995 20.8706 158.532 21.2211 166.622 24.9388C169.316 16.6179 158.661 16.8485 150.902 5.53864C133.458 6.83936 145.395 11.3965 129.159 17.5865L129.15 17.5773Z" fill="#70755F"/>
<path d="M103.062 38.3151C103.597 37.1896 105.331 37.7154 106.41 37.6416C116.502 28.2229 116.373 35.2616 118.79 34.9664C121.539 34.6251 121.705 23.3429 131.834 21.5809L129.159 17.568C115.432 22.7986 120.727 18.0477 119.796 16.5625C108.643 -1.14949 103.855 13.9703 106.078 15.557C107.259 14.4408 114.528 13.0201 114.445 14.5515C103.754 16.3134 100.728 21.9038 92.3699 27.9369L103.071 38.3058L103.062 38.3151Z" fill="#5F6952"/>
<path d="M104.067 40.9995C98.6705 42.125 105.903 60.1137 110.091 62.4108L135.183 61.4052L130.165 47.0235C124.805 48.1489 107.407 40.3077 104.067 40.9995Z" fill="#5F6952"/>
<path d="M38.1637 34.9756C38.4497 42.7338 32.3981 29.7727 30.138 37.983L49.5382 61.0639C62.4255 62.6967 64.4458 58.9329 55.5621 50.0216C57.5639 44.7264 43.7818 38.7948 38.1637 34.9664V34.9756Z" fill="#5F6952"/>
<path d="M100.045 10.8891C97.6558 10.5017 92.5359 15.8614 89.344 16.9131C85.8478 18.057 74.1966 18.0108 74.2888 19.9204C77.3884 21.3411 87.3422 27.4665 90.0083 26.9499C90.8293 26.793 102.849 17.3835 103.052 16.581C103.569 14.5515 102.13 11.2305 100.045 10.8984V10.8891Z" fill="#70755F"/>
<path d="M155.247 32.3004C155.949 32.1251 164.186 32.4572 166.622 24.9388C158.532 21.2211 145.995 20.8706 155.247 32.3004Z" fill="#5F6952"/>
<path d="M210.109 62.4015C214.112 62.3646 218.144 62.4477 222.156 62.4015C220.062 57.2448 201.677 50.4275 210.109 62.4015Z" fill="#70755F"/>
</svg>
