<svg width="1032" height="738" viewBox="0 0 1032 738" fill="none" xmlns="http://www.w3.org/2000/svg">
<rect width="1105.16" height="738.922" fill="url(#paint0_linear_414_1915)"/>
<rect x="-0.922852" y="484.312" width="1132.83" height="378.225" fill="url(#paint1_linear_414_1915)"/>
<g opacity="0.5">
<path d="M1109.77 484.312C1109.77 485.637 1109.77 486.989 1109.77 488.313C1108.21 488.984 1107.99 490.529 1109.77 490.318C1109.77 492.755 1109.77 495.219 1109.77 497.656L1100.86 497.988L1109.77 499.652C1109.77 505.427 1109.77 511.221 1109.77 516.996C1105.82 517.282 1099.5 516.527 1100.27 512.325C1100.91 510.807 1093.17 510.596 1089.29 510.32C1076.83 509.455 1051.29 510.973 1061.08 512.325C1055.93 529.733 1023.97 507.451 1018.93 517.99C1018.89 518.1 1021.19 519.792 1019.53 520.326C1019.57 519.921 1018.81 519.029 1018.64 518.992C1009.24 517.199 976.424 521.236 963.13 520.326C962.835 517.41 967.084 520.464 967.878 517.99C968.795 515.12 959.307 504.333 959.569 500.314C968.402 500.323 1023.78 500.903 1026.96 499.643C1027.41 499.468 1028.36 498.098 1027.55 497.638C1004.09 499.597 928.372 496.59 914.75 498.972C905.361 500.618 930.001 500.277 939.98 500.305C939.513 507.138 927.504 515.691 933.447 518.983C925.278 520.381 876.472 520.859 873.779 522.321C873.099 522.689 874.426 523.498 874.074 523.655C872.649 524.317 872.944 525.531 872.592 525.659C872.142 525.816 863.514 525.908 863.096 525.659C862.564 525.338 859.118 514.624 858.643 512.987C865.511 510.256 842.983 513.41 838.161 513.658C816.133 514.789 793.981 514.421 771.96 515.663L770.774 504.995C774.032 504.931 777.306 505.041 780.572 504.995V503.662C745.331 504.14 710.123 502.926 674.89 502.99C674.292 503.174 675.176 504.213 675.488 504.324C676.797 504.802 698.589 504.241 703.099 504.324C704.303 517.751 700.038 509.345 695.977 513.658C654.941 514.072 613.789 513.778 572.777 512.325C568.577 512.178 563.175 511.745 562.978 513.658C564.419 507.984 560.989 508.021 560.604 502.99C568.643 501.859 552.713 501.501 542.497 501.657C495.689 502.365 449.052 509.943 402.081 506.991C399.338 506.54 402.572 506.402 402.678 505.988C403.137 504.057 402.081 502.181 402.081 500.323C403.906 500.351 412.903 501.022 406.534 498.99C398.389 496.397 328.169 503.965 311.805 502.319C311.805 496.553 311.805 490.75 311.805 484.984L1109.77 484.312Z" fill="#5A969D"/>
<path d="M402.048 500.323C371.989 499.91 341.889 504.131 311.805 503.652C311.805 503.211 311.805 502.76 311.805 502.319C328.169 503.965 398.389 496.397 406.501 498.981C412.87 501.013 403.874 500.342 402.048 500.314V500.323Z" fill="#060605"/>
<path d="M1109.77 497.656C1109.77 498.319 1109.77 498.999 1109.77 499.661L1100.86 497.997L1109.77 497.666L1109.77 497.656Z" fill="#060605"/>
<path d="M1109.77 490.318C1107.99 490.538 1108.21 488.993 1109.77 488.313C1109.77 488.975 1109.77 489.656 1109.77 490.318Z" fill="#060605"/>
<path d="M959.553 500.323C953.028 500.323 946.479 500.342 939.963 500.323C929.985 500.296 905.336 500.627 914.734 498.99C928.356 496.608 1004.08 499.615 1027.54 497.656C1028.36 498.116 1027.39 499.477 1026.94 499.661C1023.76 500.921 968.385 500.342 959.553 500.333V500.323Z" fill="#060605"/>
<path d="M560.571 502.99C553.965 503.919 530.709 503.11 519.903 503.662C501.533 504.6 483.025 507.579 464.688 508.333C457.329 508.637 404.782 509.308 401.753 508.333C400.992 508.085 402.228 507.469 402.048 507C449.02 509.952 495.656 502.374 542.464 501.666C552.68 501.51 568.618 501.868 560.571 503V502.99Z" fill="#060605"/>
<path d="M695.945 513.658C701.814 513.603 707.585 512.959 713.463 512.987V514.32C663.323 515.948 613.101 514.504 562.954 513.649C563.15 511.736 568.553 512.168 572.752 512.315C613.765 513.769 654.908 514.063 695.953 513.649L695.945 513.658Z" fill="#1A2022"/>
<path d="M770.749 504.986C748.188 505.418 725.603 504.747 703.066 504.315C698.556 504.232 676.773 504.793 675.455 504.315C675.144 504.204 674.268 503.165 674.857 502.981C710.09 502.917 745.298 504.131 780.539 503.653V504.986C777.273 505.032 773.999 504.922 770.741 504.986H770.749Z" fill="#1A2022"/>
<path d="M858.618 512.996C853.829 514.9 814.504 516.104 805.482 516.334C800.62 516.463 770.421 517.64 768.67 517.006C765.543 515.865 770.929 515.727 771.936 515.672C793.956 514.431 816.108 514.799 838.137 513.667C842.958 513.419 865.495 510.265 858.618 512.996Z" fill="#060605"/>
<path d="M933.431 518.992L933.136 520.326C913.457 521.558 893.712 521.907 874.057 523.664C874.401 523.507 873.083 522.698 873.763 522.33C876.456 520.868 925.261 520.39 933.431 518.992Z" fill="#060605"/>
<path d="M1019.52 520.335C1004.17 519.305 988.802 521.447 973.51 521.668C967.862 521.751 959.504 521.972 963.122 520.335C976.416 521.245 1009.24 517.208 1018.63 519.001C1018.8 519.038 1019.56 519.93 1019.52 520.335Z" fill="#060605"/>
<path d="M1100.26 512.325C1090.51 511.479 1066.29 513.042 1061.08 512.325C1051.28 510.973 1076.82 509.465 1089.28 510.32C1093.17 510.587 1100.9 510.807 1100.26 512.325Z" fill="#060605"/>
<path d="M872.576 493.647C874.025 493.628 882.03 493.178 881.777 494.649C835.648 496.424 788.693 497.05 742.253 496.654C785.689 495.183 829.132 494.309 872.576 493.656V493.647Z" fill="#060605"/>
<path d="M612.528 490.98C620.019 490.833 630.276 490.824 626.183 492.313L516.645 494.649C548.538 492.727 580.586 491.587 612.528 490.98Z" fill="#060605"/>
<path d="M652.305 498.319C657.339 498.217 669.282 497.85 672.491 498.319C680.276 499.468 669.659 500.167 667.146 500.323C649.235 501.399 627.894 500.765 609.852 499.992L652.305 498.328V498.319Z" fill="#060605"/>
<path d="M1036.44 493.647C1049.15 494.088 1062.3 492.387 1074.74 495.983C1062.08 495.523 1048.7 495.964 1036.44 493.647Z" fill="#060605"/>
<path d="M817.36 488.984C827.961 487.89 828.092 491.329 812.613 490.318C813.153 489.803 816.763 489.049 817.36 488.984Z" fill="#0E272E"/>
</g>
<g opacity="0.75">
<path d="M56.2725 696.436C56.2725 695.459 56.2725 694.455 56.2725 693.478C64.8095 695.445 73.961 692.718 82.0669 696.924L56.2725 696.436Z" fill="#1B373D"/>
<path d="M1107 693.478C1107 694.129 1107 694.794 1107 695.445L1103.09 693.966L1107 693.478Z" fill="#766348"/>
<path d="M624.246 719.066C632.266 718.483 641.202 719.229 636.75 721.033C634.12 722.105 581.636 726.04 581.636 722.512C590.734 720.721 600.187 722.621 609.392 722.024C614.114 721.712 619.6 719.405 624.246 719.066Z" fill="#1B373D"/>
<path d="M211.46 698.403C289.123 699.977 293.273 703.002 212.246 700.37L211.46 698.403Z" fill="#1B373D"/>
<path d="M322.474 681.674L365.084 684.13C356.633 683.94 330.008 686.029 324.824 684.618C324.403 684.51 320.997 683.153 322.474 681.661V681.674Z" fill="#1B373D"/>
<path d="M471.797 692.487L514.407 693.966C514.374 696.748 470.708 697.399 470.622 693.966L471.797 692.487Z" fill="#1B373D"/>
<path d="M825.945 686.586C842.34 686.423 808.688 695.391 790.374 690.032C799.978 689.57 818.788 686.667 825.945 686.586Z" fill="#1B373D"/>
<path d="M1098.79 723.001C1118.94 720.586 1091.29 731.453 1070.25 729.391C1078.45 728.184 1091.41 723.883 1098.79 723.001Z" fill="#1B373D"/>
<path d="M739.949 706.272C745.188 706.068 753.229 705.404 757.541 707.751C757.552 709.447 732.878 710.369 730.571 710.207C713.098 709.026 733.018 706.543 739.949 706.272Z" fill="#1B373D"/>
<path d="M518.708 690.52C553.837 688.77 551.045 695.309 518.708 692.487V690.52Z" fill="#1B373D"/>
<path d="M807.179 732.837C817.042 732.688 795.731 741.656 779.422 736.283C785.394 734.872 791.754 736.351 797.79 735.795C799.191 735.659 805.68 732.864 807.168 732.837H807.179Z" fill="#1B373D"/>
<path d="M169.248 695.445C170.305 694.97 188.392 697.25 191.529 698.891C191.906 701.238 162.609 698.403 169.248 695.445Z" fill="#1B373D"/>
<path d="M1060.48 690.52L1085.11 692.976C1076.9 693.22 1062.34 695.527 1060.48 690.52Z" fill="#1B373D"/>
<path d="M82.4657 705.282C93.5898 708.226 125.658 704.847 109.823 708.239C106.999 708.836 83.8993 708.226 82.4657 707.249V705.282Z" fill="#1B373D"/>
<path d="M986.996 688.553C987.837 688.553 990.079 688.159 990.51 689.041C990.973 690.14 988.171 691.388 987.772 691.497C974.751 695.323 952.363 688.471 986.985 688.539L986.996 688.553Z" fill="#1B373D"/>
<path d="M1037.03 694.468C1060.28 694.143 1027.51 700.696 1021 696.924L1037.03 694.468Z" fill="#1B373D"/>
<path d="M274.787 701.347L298.63 704.793C292.066 705.322 278.064 704.752 274.787 701.347Z" fill="#1B373D"/>
<path d="M886.923 699.38C892.636 699.38 893.811 701.238 887.71 702.337C869.73 705.553 868.436 699.434 886.923 699.38Z" fill="#1B373D"/>
<path d="M815.004 674.782C848.355 674.388 821.03 680.195 815.004 677.74C813.711 677.21 813.743 675.65 815.004 674.782Z" fill="#1B373D"/>
<path d="M105.921 675.759C110.912 673.71 132.696 680.399 105.921 678.716C104.66 677.848 104.628 676.301 105.921 675.759Z" fill="#1B373D"/>
<path d="M241.954 678.716C249.165 675.772 269.71 682.298 241.167 680.684C240.38 680.412 241.544 678.879 241.954 678.716Z" fill="#1B373D"/>
<path d="M64.4861 703.314C83.0478 704.725 83.3496 707.412 64.4861 705.282V703.314Z" fill="#1B373D"/>
<path d="M589.85 665.922C592.825 665.827 597.514 667.971 592.2 668.88C583.124 670.413 579.62 666.261 589.85 665.922Z" fill="#AD9678"/>
<path d="M545.278 666.913C555.658 664.755 555.885 667.971 542.152 670.847C540.654 668.826 544.653 667.048 545.278 666.913Z" fill="#AD9678"/>
<path d="M517.134 679.707C529.131 678.811 529.013 682.244 517.134 681.674V679.707Z" fill="#1B373D"/>
<path d="M82.4657 670.847C85.4623 669.531 94.9156 674.307 85.5917 673.805C83.8994 673.71 79.6092 672.109 82.4657 670.847Z" fill="#AD9678"/>
<path d="M668.807 691.511C685.288 691.606 669.4 694.807 668.807 693.478C668.538 692.881 667.858 692.515 668.807 691.511Z" fill="#3D3024"/>
<path d="M911.941 672.815C919.443 672.055 923.431 675.447 915.854 674.782C915.649 674.768 911.359 673.669 911.941 672.815Z" fill="#9B8262"/>
<path d="M1048.75 671.824C1061.15 672.068 1060.57 672.882 1048.75 673.791V671.824Z" fill="#897355"/>
<path d="M217.711 668.88C217.808 668.812 219.706 670.223 219.662 670.359C219.091 672.068 215.89 670.074 217.711 668.88Z" fill="#AD9678"/>
<path d="M175.102 552.769C135.521 552.172 95.8857 558.386 56.2725 557.694C56.2725 557.043 56.2725 556.378 56.2725 555.727C77.8199 558.156 170.283 546.989 180.965 550.802C189.352 553.8 177.505 552.81 175.102 552.769Z" fill="#1B373D"/>
<path d="M1107 548.821C1107 549.798 1107 550.802 1107 551.779L1095.27 549.323L1107 548.835V548.821Z" fill="#1B373D"/>
<path d="M1107 538.008C1104.66 538.333 1104.95 536.054 1107 535.05C1107 536.027 1107 537.031 1107 538.008Z" fill="#1B373D"/>
<path d="M909.203 552.769C900.612 552.769 891.989 552.796 883.409 552.769C870.269 552.729 837.813 553.217 850.187 550.802C868.124 547.288 967.831 551.725 998.724 548.835C999.802 549.513 998.53 551.521 997.937 551.792C993.755 553.651 920.834 552.796 909.203 552.783V552.769Z" fill="#1B373D"/>
<path d="M383.839 556.704C375.141 558.074 344.517 556.88 330.289 557.694C306.1 559.078 281.729 563.474 257.583 564.587C247.893 565.034 178.702 566.025 174.714 564.587C173.711 564.22 175.339 563.311 175.102 562.619C236.952 566.974 298.361 555.795 359.996 554.75C373.448 554.519 394.435 555.049 383.839 556.717V556.704Z" fill="#1B373D"/>
<path d="M562.094 572.442C569.822 572.361 577.422 571.411 585.161 571.452V573.419C519.139 575.82 453.009 573.69 386.976 572.429C387.235 569.606 394.349 570.244 399.879 570.461C453.882 572.605 508.058 573.039 562.104 572.429L562.094 572.442Z" fill="#1B373D"/>
<path d="M660.593 559.648C630.886 560.286 601.146 559.295 571.471 558.658C565.532 558.535 536.849 559.363 535.113 558.658C534.704 558.495 533.55 556.962 534.327 556.69C580.72 556.595 627.081 558.386 673.485 557.681V559.648C669.184 559.716 664.873 559.553 660.582 559.648H660.593Z" fill="#1B373D"/>
<path d="M776.296 571.465C769.991 574.274 718.208 576.051 706.329 576.39C699.926 576.58 660.162 578.317 657.855 577.381C653.738 575.698 660.83 575.495 662.156 575.413C691.152 573.582 720.32 574.124 749.327 572.456C755.676 572.089 785.351 567.436 776.296 571.465Z" fill="#1B373D"/>
<path d="M874.807 580.311L874.419 582.279C848.506 584.097 822.507 584.612 796.626 587.204C797.079 586.973 795.343 585.779 796.238 585.236C799.784 583.079 864.049 582.374 874.807 580.311Z" fill="#1B373D"/>
<path d="M988.171 582.279C967.96 580.759 947.717 583.92 927.581 584.246C920.144 584.368 909.138 584.694 913.903 582.279C931.408 583.622 974.632 577.666 986.996 580.311C987.222 580.366 988.225 581.682 988.171 582.279Z" fill="#1B373D"/>
<path d="M1094.49 570.475C1081.65 569.227 1049.75 571.533 1042.89 570.475C1029.98 568.48 1063.61 566.255 1080.02 567.517C1085.14 567.911 1095.33 568.236 1094.49 570.475Z" fill="#1B373D"/>
<path d="M794.675 542.919C796.583 542.892 807.125 542.227 806.791 544.398C746.05 547.017 684.221 547.939 623.071 547.356C680.265 545.185 737.47 543.896 794.675 542.933V542.919Z" fill="#1B373D"/>
<path d="M452.254 538.985C462.117 538.768 475.623 538.754 470.234 540.952L325.999 544.398C367.994 541.562 410.194 539.88 452.254 538.985Z" fill="#1B373D"/>
<path d="M504.63 549.811C511.259 549.662 526.986 549.12 531.211 549.811C541.462 551.507 527.482 552.539 524.173 552.769C500.588 554.357 472.487 553.42 448.73 552.281L504.63 549.825V549.811Z" fill="#1B373D"/>
<path d="M1010.45 542.919C1027.18 543.57 1044.5 541.06 1060.88 546.365C1044.2 545.687 1026.59 546.338 1010.45 542.919Z" fill="#1B373D"/>
<path d="M721.97 536.04C735.929 534.426 736.101 539.5 715.718 538.008C716.429 537.248 721.183 536.135 721.97 536.04Z" fill="#1B373D"/>
<path d="M1107 632.465C1107 633.767 1107 635.097 1107 636.399C1091.26 640.252 1075.69 641.609 1059.7 643.292C1059.03 639.94 1071.99 641.691 1069.08 638.367C1039.86 641.012 1009.61 642.288 981.908 632.465C982.199 632.505 983.493 630.864 987.772 631.474C998.778 633.062 1014.33 639.167 1031.56 639.343C1046.48 639.493 1057.77 634.839 1065.18 635.409C1073.01 636.006 1079.49 644.499 1107 632.451V632.465Z" fill="#1B373D"/>
<path d="M56.2725 623.619C56.2725 622.642 56.2725 621.638 56.2725 620.661C92.9107 619.481 128.838 628.937 165.336 630.497C178.874 633.93 166.079 633.74 151.258 632.465C119.697 629.738 87.9846 621.285 56.2725 623.605V623.619Z" fill="#1B373D"/>
<path d="M112.561 612.792C93.6437 617.663 75.2545 609.441 56.2725 609.834C56.2725 609.183 56.2725 608.518 56.2725 607.867L80.9028 608.857L91.0675 612.792C98.1278 613.457 105.598 611.869 112.572 612.792H112.561Z" fill="#1B373D"/>
<path d="M739.561 636.399C739.205 641.596 725.494 635.572 723.533 635.409C708.938 634.256 700.099 639.981 693.038 631.474C672.493 640.117 661.208 626.319 656.292 625.572C651.614 624.867 625.378 629.941 617.983 632.465L582.8 627.54C541.872 631.298 501.45 620.783 460.845 627.54C445.194 620.715 428.821 618.612 412.372 616.713C386.76 623.035 361.192 617.5 335.754 619.671C330.245 615.505 323.95 616.903 317.774 616.713C315.079 617.608 308.105 619.63 306.046 619.671C255.19 620.593 204.367 620.39 153.597 624.596C140.705 619.209 125.324 622.642 114.113 612.792L156.723 621.651C172.277 618.87 187.961 620.932 203.634 620.661C210.78 620.539 222.497 614.311 231.778 619.671C249.747 614.963 268.265 622.004 285.717 615.736C300.527 620.58 311.21 614.149 325.589 613.769C325.912 613.769 331.464 615.722 331.841 615.736C343.418 615.994 353.216 614.569 364.674 618.694C396.203 616.631 428.605 611.001 459.272 624.596L504.619 622.628C532.225 628.774 560.994 624.148 589.052 625.586C613.78 636.562 629.172 624.568 646.128 623.619C669.324 622.33 670.672 637.241 693.815 629.521C708.129 637.987 724.363 630.877 739.55 636.413L739.561 636.399Z" fill="#1B373D"/>
<path d="M866.992 625.586C837.49 628.096 807.89 634.378 778.258 629.521C767.188 634.066 755.353 631.759 744.638 637.39L741.9 636.399C753.596 629.141 767.08 633.279 779.034 626.563C790.6 629.982 810.542 632.492 821.256 626.563C831.992 628.774 843.515 626.387 854.089 623.605C858.25 623.347 865.332 625.667 866.992 625.572V625.586Z" fill="#1B373D"/>
<path d="M967.055 630.497C967.82 635.246 957.612 625.695 949.463 622.628C924.186 621.692 899.782 625.966 874.807 625.586C884.034 625.016 897.357 623.103 906.465 620.661C921.567 619.087 936.172 624.623 951.026 620.661C956.782 622.533 961.665 628.096 967.055 630.497Z" fill="#1B373D"/>
<path d="M918.193 631.488C932.518 629.507 959.854 632.221 974.869 634.934C966.171 633.794 916.425 635.626 913.504 634.446C910.011 633.035 916.921 631.664 918.193 631.488Z" fill="#1B373D"/>
<path d="M633.624 635.422C655.15 635.558 676.255 642.871 697.339 647.728C681.516 648.013 666.306 641.189 650.827 638.38C644.942 637.308 635.553 638.624 633.624 635.422Z" fill="#1B373D"/>
<path d="M498.378 647.226C499.165 647.226 499.941 647.226 500.728 647.226V649.193L494.476 650.184L422.159 649.695C447.479 649.193 473.08 647.565 498.378 647.24V647.226Z" fill="#1B373D"/>
<path d="M767.307 641.324C814.95 640.592 801.315 644.323 762.618 643.292L767.307 641.324Z" fill="#1B373D"/>
<path d="M858.002 632.465C881.199 631.854 854.995 636.576 850.963 635.422C846.091 634.025 854.995 633.591 858.002 632.465Z" fill="#1B373D"/>
<path d="M346.705 635.422C348.009 635.422 349.314 635.409 350.618 635.422C359.101 635.545 352.397 637.905 346.705 635.422Z" fill="#1B373D"/>
</g>
<defs>
<linearGradient id="paint0_linear_414_1915" x1="335.79" y1="88.2295" x2="1107.24" y2="549.875" gradientUnits="userSpaceOnUse">
<stop stop-color="#71A6B6"/>
<stop offset="0.991566" stop-color="#ADD7D7"/>
</linearGradient>
<linearGradient id="paint1_linear_414_1915" x1="343.276" y1="529.474" x2="784.124" y2="1057.77" gradientUnits="userSpaceOnUse">
<stop stop-color="#204D5B"/>
<stop offset="0.991566" stop-color="#5CB2BC"/>
</linearGradient>
</defs>
</svg>
