<svg width="546" height="265" viewBox="0 0 546 265" fill="none" xmlns="http://www.w3.org/2000/svg">
<path d="M153.763 83.1066C158.521 103.549 165.509 123.217 173.227 142.798C174.16 145.169 179.572 156.205 179.714 156.962C180.561 161.391 176.884 168.01 176.007 168.814C172.961 171.606 162.457 154.887 161.023 152.482C162.939 159.408 166.485 165.779 170.137 171.994C162.933 168.161 167.227 173.878 165.04 173.873C164.415 173.873 161.054 168.987 155.153 166.935L150.21 157.396C152.651 167.664 157.909 177.133 159.633 187.603C156.815 184.551 148.035 182.198 147.43 181.677C147.195 181.475 144.575 176.619 144.495 176.33C144.365 175.861 144.507 172.387 143.877 169.97C142.042 162.958 139.663 156.061 138.625 148.869C138.52 148.568 138.026 149.065 138.007 149.158C137.896 149.805 139.027 158.044 136.617 162.021L126.576 154.361C124.747 149.707 121.707 119.251 120.706 117.65C120.552 117.407 120.268 117.407 120.088 117.65C121.139 121.275 121.75 131.924 120.706 134.704C120.62 134.93 120.292 134.849 120.088 134.849C119.681 130.663 119.353 126.455 118.853 122.275C118.439 118.829 115.324 108.105 117.771 105.654C118.803 104.624 130.926 100.277 133.373 99.2941L155.617 145.689C149.426 128.114 143.265 110.527 139.243 92.3566C141.041 90.6858 151.588 83.4939 153.763 83.1066Z" fill="#605757"/>
<path d="M235.942 211.162C241.342 211.179 246.755 211.15 252.161 211.162C234.082 215.602 215.107 215.012 196.552 216.365L229.918 217.521C218.653 220.857 206.5 222.626 194.698 223.592C184.744 224.407 165.114 223.979 163.804 224.748C162.716 225.39 164.014 226.164 164.731 226.482C167.937 227.905 199.814 227.737 206.129 227.35L205.82 227.928C152.558 235.825 97.863 234.645 44.5518 227.639L44.2429 227.06C59.1154 225.095 82.5209 224.881 95.2184 223.303C108.793 221.614 92.5121 220.626 88.1128 220.412C68.7791 219.458 49.2972 220.585 30.0315 218.389V217.81C41.4562 217.273 52.8562 216.024 64.3242 215.787V215.209C47.9873 214.966 31.465 215.307 15.2022 213.764C-1.95026 212.139 -7.35676 210.509 13.6575 211.162L14.4299 210.584L14.5844 211.162C88.3661 211.312 162.16 210.96 235.942 211.162Z" fill="#777173"/>
<path d="M94.755 159.13C95.6633 155.812 92.8643 149.308 94.1371 145.4C94.3843 144.585 103.202 135.497 105.568 132.247C112.828 145.267 121.268 157.766 128.43 170.838C130.265 174.185 142.394 197.68 142.95 199.166C143.395 200.363 143.982 201.605 143.877 202.924C134.942 204.6 130.395 197.934 125.495 204.224C122.195 201.056 122.14 196.368 120.397 192.517C116.325 183.516 101.669 167.554 94.755 159.13Z" fill="#605757"/>
<path d="M66.3323 187.17C68.532 179.128 73.4998 148.545 77.1453 143.521L78.3811 143.665C81.0503 155.396 83.3365 167.299 86.4136 178.931C87.4022 182.672 93.4204 200.033 93.5193 201.189C93.6367 202.583 92.7593 206.126 90.8932 206.248C86.4259 206.537 80.1544 182.123 79.1534 178.209L78.9989 200.322C74.9271 204.704 76.7684 205.936 70.3485 202.635L66.3323 187.17Z" fill="#605757"/>
<path d="M51.503 172.427C50.7863 181.51 52.677 193.408 51.503 202.056C51.0025 205.751 50.6627 201.27 49.9583 200.322C48.6731 203.721 47.6721 207.381 44.8608 210.006C44.2058 205.93 34.3814 206.196 30.3404 206.537C25.9843 211.393 22.5242 206.184 21.999 206.248C21.3996 206.323 21.0969 207.994 20.4543 207.982C19.1135 207.965 17.3278 203.062 18.7551 201.912C19.8302 200.247 20.2689 198.755 22.3079 197.287C26.0585 196.223 28.4126 193.257 31.7307 191.506C31.9902 194.812 34.5359 205.363 34.2022 196.131C35.3639 192.315 38.7622 180.024 40.999 177.486C41.4377 176.989 51.5277 170.681 51.503 172.427Z" fill="#605757"/>
<path d="M211.844 168.67C210.924 172.133 215.175 203.126 213.235 203.646C209.466 200.946 205.944 197.807 203.503 193.963C202.632 187.355 197.015 181.111 198.869 174.451C199.66 173.769 200.29 172.745 201.186 172.138C202.805 171.04 210.528 167.201 211.844 168.67Z" fill="#605757"/>
<path d="M133.373 99.2941C134.497 98.8432 135.844 98.8721 136.771 97.9934C136.567 94.9697 137.228 94.224 139.243 92.3566C143.265 110.527 149.426 128.114 155.617 145.689L133.373 99.2941Z" fill="#0E0B0A"/>
<path d="M224.202 187.17C223.121 191.98 226.538 198.299 223.893 202.635C221.595 206.404 216.411 202.715 216.17 202.345C215.842 201.848 214.538 191.361 214.625 190.783C215.187 187.112 220.946 186.574 222.966 184.568C223.566 184.759 223.899 186.464 224.202 187.17Z" fill="#605757"/>
<path d="M31.7307 191.506C31.9902 194.812 34.5359 205.363 34.2022 196.131C34.159 194.893 33.3681 189.181 31.7307 191.506Z" fill="#0E0B0A"/>
<path d="M198.869 174.451C197.015 181.111 202.632 187.355 203.503 193.963C205.944 197.807 209.466 200.946 213.235 203.646C215.175 203.126 210.924 172.133 211.844 168.67C212.629 169.548 215.385 182.175 216.17 184.713C217.133 185.875 221.514 184.516 222.966 184.568C220.946 186.574 215.187 187.112 214.625 190.783C214.538 191.361 215.842 201.848 216.17 202.345C216.411 202.715 221.595 206.404 223.893 202.635C226.538 198.299 223.121 191.98 224.202 187.17C225.697 190.667 226.606 196.223 227.909 199.455C228.187 200.149 231.363 206.629 231.617 206.971C232.55 208.237 235.652 209.034 235.942 211.162C162.16 210.96 88.3661 211.312 14.5844 211.162L14.4299 210.584C15.5668 207.578 16.9941 204.635 18.7551 201.912C17.3278 203.062 19.1135 207.965 20.4543 207.982C21.0969 207.994 21.3996 206.323 21.999 206.248C22.5242 206.184 25.9843 211.393 30.3404 206.537C34.3814 206.196 44.2058 205.93 44.8608 210.006C47.6721 207.381 48.6731 203.721 49.9583 200.322C50.6627 201.27 51.0025 205.751 51.503 202.056C52.677 193.408 50.7863 181.51 51.503 172.427C54.784 180.382 59.1648 187.754 63.3973 195.263C64.1635 192.575 65.5908 189.887 66.3323 187.17L70.3485 202.635C76.7684 205.936 74.9271 204.704 78.9989 200.322L79.1534 178.209C80.1544 182.123 86.4259 206.537 90.8932 206.248C92.7593 206.126 93.6367 202.583 93.5193 201.189C93.4204 200.033 87.4022 182.672 86.4136 178.931C83.3365 167.299 81.0503 155.396 78.3811 143.665L77.1453 143.521C77.4728 143.064 77.4048 142.521 77.9176 142.654C80.5498 146.66 87.5011 152.037 88.2672 153.205C89.8799 155.667 91.2022 164.125 92.129 164.044C92.4688 162.784 94.6809 159.396 94.755 159.13C101.669 167.554 116.325 183.516 120.397 192.517C122.14 196.368 122.195 201.056 125.495 204.224C130.395 197.934 134.942 204.6 143.877 202.924C143.982 201.605 143.395 200.363 142.95 199.166C142.394 197.68 130.265 174.185 128.43 170.838C121.268 157.766 112.828 145.267 105.568 132.247C106.371 131.149 109.689 124.934 110.202 124.587H110.82C114.188 132.473 116.653 140.59 120.861 148.146C121.701 143.642 120.515 139.243 120.088 134.849C120.292 134.849 120.62 134.93 120.706 134.704C121.75 131.924 121.139 121.275 120.088 117.65C120.268 117.407 120.552 117.407 120.706 117.65C121.707 119.251 124.747 149.707 126.576 154.361L136.617 162.021C139.027 158.044 137.896 149.805 138.007 149.158C138.026 149.065 138.52 148.568 138.625 148.869C139.663 156.061 142.042 162.958 143.877 169.97C144.507 172.387 144.365 175.861 144.495 176.33C144.575 176.619 147.195 181.475 147.43 181.677C148.035 182.198 156.815 184.551 159.633 187.603C157.909 177.133 152.651 167.664 150.21 157.396L155.153 166.935C161.054 168.987 164.415 173.873 165.04 173.873C167.227 173.878 162.933 168.161 170.137 171.994C166.485 165.779 162.939 159.408 161.023 152.482C162.457 154.887 172.961 171.606 176.007 168.814C176.884 168.01 180.561 161.391 179.714 156.962C179.572 156.205 174.16 145.169 173.227 142.798C165.509 123.217 158.521 103.549 153.763 83.1066C156.136 82.6845 158.873 83.9795 161.023 85.13C171.867 90.9344 170.57 102.231 171.064 103.197C173.776 104.74 179.245 112.597 180.641 115.337C185.238 124.368 188.464 136.578 186.511 146.556C189.353 150.632 189.891 155.985 193.926 159.275C194.389 164.912 194.445 170.722 197.787 175.607C197.874 175.607 198.226 175 198.869 174.451Z" fill="#0E0B0A"/>
<path d="M190.682 162.599C192.789 168.086 199.116 192.939 198.56 196.564C198.418 197.507 194.822 203.831 194.389 203.935C193.957 204.039 192.369 202.132 191.3 202.201C189.668 202.305 187.067 208.057 181.722 201.623C178.392 205.797 175.173 202.999 175.08 202.635C174.969 202.201 177.064 198.247 178.17 194.252C180.542 185.672 182.569 176.948 184.348 168.236L190.682 162.599Z" fill="#605757"/>
<path d="M91.8201 167.802C93.89 167.6 113.31 192.876 113.601 194.541C113.94 196.483 111.216 200.964 110.048 202.779C107.613 199.808 106.909 201.895 105.105 200.756C103.702 201.027 104.376 207.635 97.9989 203.935C92.9446 201.004 91.956 177.451 89.1941 171.416C88.4526 169.988 91.5667 167.825 91.8201 167.802Z" fill="#605757"/>
<path d="M262.618 0.0816547C267.375 20.5243 274.364 40.1922 282.081 59.7734C283.014 62.1437 288.427 73.1802 288.569 73.9375C289.415 78.366 285.739 84.9855 284.861 85.7891C281.815 88.5815 271.311 71.862 269.878 69.457C271.793 76.383 275.34 82.754 278.992 88.9689C271.787 85.1359 276.081 90.8535 273.894 90.8478C273.27 90.8478 269.909 85.9626 264.008 83.9102L259.065 74.3711C261.505 84.6387 266.764 94.1084 268.488 104.578C265.67 101.526 256.89 99.1728 256.284 98.6525C256.049 98.4501 253.43 93.5939 253.349 93.3048C253.22 92.8365 253.362 89.362 252.731 86.9454C250.896 79.9327 248.517 73.0356 247.479 65.8437C247.374 65.5431 246.88 66.0403 246.862 66.1328C246.75 66.7803 247.881 75.0186 245.471 78.9961L235.431 71.3359C233.602 66.682 230.562 36.2262 229.561 34.6248C229.406 34.382 229.122 34.382 228.943 34.6248C229.993 38.2497 230.605 48.8988 229.561 51.6796C229.474 51.9051 229.147 51.8241 228.943 51.8241C228.535 47.6385 228.208 43.4297 227.707 39.2498C227.293 35.8042 224.179 25.0799 226.626 22.6286C227.658 21.5996 239.781 17.2521 242.227 16.2692L264.471 62.664C258.28 45.0889 252.12 27.5023 248.097 9.3317C249.895 7.66091 260.443 0.469001 262.618 0.0816547Z" fill="#605757"/>
<path d="M344.796 128.137C350.197 128.154 355.609 128.125 361.016 128.137C342.937 132.577 323.961 131.987 305.406 133.34L338.772 134.496C327.508 137.832 315.354 139.601 303.553 140.567C293.598 141.382 273.968 140.954 272.658 141.723C271.571 142.365 272.868 143.139 273.585 143.457C276.792 144.88 308.669 144.712 314.983 144.325L314.674 144.903C261.413 152.8 206.717 151.621 153.406 144.614L153.097 144.036C167.97 142.07 191.375 141.856 204.073 140.278C217.648 138.59 201.367 137.601 196.967 137.387C177.634 136.433 158.152 137.561 138.886 135.364V134.786C150.311 134.248 161.711 132.999 173.179 132.762V132.184C156.842 131.941 140.319 132.282 124.057 130.739C106.904 129.114 101.498 127.484 122.512 128.137L123.284 127.559L123.439 128.137C197.221 128.287 271.015 127.935 344.796 128.137Z" fill="#777173"/>
<path d="M203.61 76.1055C204.518 72.787 201.719 66.2831 202.992 62.375C203.239 61.5598 212.056 52.4716 214.423 49.2225C221.683 62.242 230.123 74.7411 237.284 87.8126C239.119 91.16 251.248 114.655 251.805 116.141C252.249 117.338 252.836 118.581 252.731 119.899C243.797 121.575 239.249 114.909 234.349 121.199C231.05 118.031 230.994 113.343 229.252 109.492C225.18 100.491 210.524 84.5288 203.61 76.1055Z" fill="#605757"/>
<path d="M175.187 104.145C177.386 96.103 182.354 65.52 186 60.496L187.236 60.6406C189.905 72.3708 192.191 84.2744 195.268 95.9064C196.257 99.6469 202.275 117.008 202.374 118.164C202.491 119.558 201.614 123.102 199.748 123.223C195.28 123.512 189.009 99.0977 188.008 95.1837L187.853 117.297C183.782 121.679 185.623 122.911 179.203 119.61L175.187 104.145Z" fill="#605757"/>
<path d="M160.358 89.4024C159.641 98.4848 161.531 110.383 160.358 119.032C159.857 122.726 159.517 118.245 158.813 117.297C157.528 120.697 156.527 124.356 153.715 126.981C153.06 122.905 143.236 123.171 139.195 123.512C134.839 128.368 131.379 123.159 130.853 123.223C130.254 123.298 129.951 124.969 129.309 124.957C127.968 124.94 126.182 120.037 127.61 118.887C128.685 117.222 129.123 115.73 131.162 114.262C134.913 113.198 137.267 110.232 140.585 108.481C140.845 111.788 143.39 122.338 143.057 113.106C144.218 109.29 147.617 96.999 149.853 94.4611C150.292 93.9639 160.382 87.6565 160.358 89.4024Z" fill="#605757"/>
<path d="M320.699 85.6446C319.778 89.1076 324.029 120.101 322.089 120.621C318.32 117.922 314.798 114.782 312.357 110.938C311.486 104.33 305.87 98.086 307.723 91.4259C308.514 90.7437 309.144 89.7204 310.04 89.1134C311.659 88.015 319.383 84.1762 320.699 85.6446Z" fill="#605757"/>
<path d="M242.227 16.2692C243.352 15.8183 244.699 15.8472 245.626 14.9685C245.422 11.9448 246.083 11.1991 248.097 9.3317C252.12 27.5023 258.28 45.0889 264.471 62.664L242.227 16.2692Z" fill="#0E0B0A"/>
<path d="M333.057 104.145C331.975 108.955 335.392 115.274 332.748 119.61C330.449 123.379 325.265 119.691 325.024 119.321C324.697 118.823 323.393 108.336 323.479 107.758C324.042 104.087 329.8 103.549 331.821 101.543C332.42 101.734 332.754 103.439 333.057 104.145Z" fill="#605757"/>
<path d="M140.585 108.481C140.845 111.788 143.39 122.338 143.057 113.106C143.013 111.868 142.223 106.157 140.585 108.481Z" fill="#0E0B0A"/>
<path d="M307.723 91.4259C305.87 98.086 311.486 104.33 312.357 110.938C314.798 114.782 318.32 117.922 322.089 120.621C324.029 120.101 319.778 89.1076 320.699 85.6446C321.484 86.5234 324.239 99.1497 325.024 101.688C325.988 102.85 330.369 101.491 331.821 101.543C329.8 103.549 324.042 104.087 323.479 107.758C323.393 108.336 324.697 118.823 325.024 119.321C325.265 119.691 330.449 123.379 332.748 119.61C335.392 115.274 331.975 108.955 333.057 104.145C334.552 107.642 335.46 113.198 336.764 116.43C337.042 117.124 340.218 123.605 340.471 123.946C341.404 125.212 344.506 126.01 344.796 128.137C271.015 127.935 197.221 128.287 123.439 128.137L123.284 127.559C124.421 124.553 125.849 121.61 127.61 118.887C126.182 120.037 127.968 124.94 129.309 124.957C129.951 124.969 130.254 123.298 130.853 123.223C131.379 123.159 134.839 128.368 139.195 123.512C143.236 123.171 153.06 122.905 153.715 126.981C156.527 124.356 157.528 120.697 158.813 117.297C159.517 118.245 159.857 122.726 160.358 119.032C161.531 110.383 159.641 98.4848 160.358 89.4024C163.638 97.3575 168.019 104.729 172.252 112.239C173.018 109.55 174.445 106.862 175.187 104.145L179.203 119.61C185.623 122.911 183.782 121.679 187.853 117.297L188.008 95.1837C189.009 99.0977 195.28 123.512 199.748 123.223C201.614 123.102 202.491 119.558 202.374 118.164C202.275 117.008 196.257 99.6469 195.268 95.9064C192.191 84.2744 189.905 72.3708 187.236 60.6406L186 60.496C186.327 60.0393 186.259 59.4959 186.772 59.6288C189.404 63.6353 196.356 69.0119 197.122 70.1797C198.734 72.6425 200.057 81.1005 200.984 81.0196C201.323 79.7593 203.535 76.3714 203.61 76.1055C210.524 84.5288 225.18 100.491 229.252 109.492C230.994 113.343 231.05 118.031 234.349 121.199C239.249 114.909 243.797 121.575 252.731 119.899C252.836 118.581 252.249 117.338 251.805 116.141C251.248 114.655 239.119 91.16 237.284 87.8126C230.123 74.7411 221.683 62.242 214.423 49.2225C215.226 48.1241 218.544 41.9092 219.057 41.5623H219.675C223.042 49.448 225.507 57.5649 229.715 65.1211C230.556 60.6174 229.369 56.2179 228.943 51.8241C229.147 51.8241 229.474 51.9051 229.561 51.6796C230.605 48.8988 229.993 38.2497 228.943 34.6248C229.122 34.382 229.406 34.382 229.561 34.6248C230.562 36.2262 233.602 66.682 235.431 71.3359L245.471 78.9961C247.881 75.0186 246.75 66.7803 246.862 66.1328C246.88 66.0403 247.374 65.5431 247.479 65.8437C248.517 73.0356 250.896 79.9327 252.731 86.9454C253.362 89.362 253.22 92.8365 253.349 93.3048C253.43 93.5939 256.049 98.4501 256.284 98.6525C256.89 99.1728 265.67 101.526 268.488 104.578C266.764 94.1084 261.505 84.6387 259.065 74.3711L264.008 83.9102C269.909 85.9626 273.27 90.8478 273.894 90.8478C276.081 90.8535 271.787 85.1359 278.992 88.9689C275.34 82.754 271.793 76.383 269.878 69.457C271.311 71.862 281.815 88.5815 284.861 85.7891C285.739 84.9855 289.415 78.366 288.569 73.9375C288.427 73.1802 283.014 62.1437 282.081 59.7734C274.364 40.1922 267.375 20.5243 262.618 0.0816547C264.99 -0.340379 267.728 0.954621 269.878 2.1051C280.722 7.9095 279.424 19.2061 279.918 20.1716C282.631 21.7152 288.099 29.572 289.496 32.3123C294.093 41.3427 297.318 53.5527 295.366 63.5312C298.208 67.607 298.745 72.9605 302.78 76.25C303.244 81.8868 303.299 87.697 306.642 92.5822C306.728 92.5822 307.081 91.9751 307.723 91.4259Z" fill="#0E0B0A"/>
<path d="M299.536 79.5743C301.643 85.0607 307.97 109.914 307.414 113.539C307.272 114.482 303.676 120.806 303.244 120.91C302.811 121.014 301.223 119.107 300.154 119.176C298.523 119.28 295.922 125.032 290.577 118.598C287.247 122.772 284.027 119.974 283.935 119.61C283.823 119.176 285.918 115.222 287.024 111.227C289.397 102.647 291.423 93.9234 293.203 85.211L299.536 79.5743Z" fill="#605757"/>
<path d="M200.675 84.7774C202.744 84.5751 222.165 109.851 222.455 111.516C222.795 113.458 220.07 117.939 218.902 119.754C216.468 116.783 215.763 118.87 213.959 117.731C212.557 118.002 213.23 124.61 206.853 120.91C201.799 117.979 200.81 94.4264 198.049 88.3907C197.307 86.9628 200.421 84.8006 200.675 84.7774Z" fill="#605757"/>
<path d="M416.696 139.567C412.139 142.454 383.587 160.166 382.24 161.698C380.275 163.939 390.377 160.775 395.321 159.179C396.032 159.456 395.229 160.48 394.814 160.692C391.982 162.168 372.969 167.574 366.641 171.255C356.844 182.952 329.796 207.324 322.628 216.024C318.597 215.756 314.529 214.963 310.553 214.511C313.634 210.71 315.498 206.033 319.612 203.192C320.156 188.81 336.484 183.579 345.774 174.52C354.289 158.33 365.119 143.248 377.72 130C358.864 134.927 363.551 136.356 355.331 145.342C352.102 148.875 338.209 163.967 336.466 165.212C332.73 167.888 323.145 171.07 320.368 173.256C316.798 176.07 303.145 196.061 298.994 201.679C317.296 191.928 298.92 203.441 295.977 211.485C295.156 212.564 293.385 212.804 292.204 212.998C284.778 214.188 248.146 214.354 245.923 215.009C244.982 215.286 245.295 216.928 244.917 217.02C240.424 217.61 235.978 216.19 231.587 216.014C237.805 200.138 245.037 195.692 255.231 183.57C253.256 148.506 268.644 153.681 284.907 132.261C291.863 123.091 303.911 97.8975 309.557 90.0101C312.675 85.6559 328.173 69.5214 333.2 62.8425C350.239 40.1859 351.355 28.0089 337.222 67.8701C328.606 78.7279 317.758 88.3127 312.075 101.071L312.832 101.827L333.957 85.2315L334.206 85.988C328.763 90.5175 324.999 98.1189 320.627 103.091C314.953 109.539 302.5 119.742 300 123.211C296.715 127.768 284.585 153.58 281.134 161.19C283.395 162.242 295.341 144.115 297.232 141.569C291.974 167.5 273.487 187.998 260.766 210.738L269.566 210.987C274.741 203.118 278.588 193.994 283.902 186.088C290.156 176.78 305.249 160.637 310.064 151.882C313.828 145.028 317.093 132.021 320.627 125.72C324.307 119.152 346.66 92.8514 350.811 85.9788C359.427 71.6985 359.713 55.8868 363.892 43.7283C366.217 36.9663 378.44 13.0551 382.508 3.7379C387.711 4.0331 388.689 8.19357 389.547 13.0459C390.368 17.7138 392.037 43.3869 391.558 47.7504C391.281 50.278 389.445 54.7337 388.541 57.3075L389.298 58.0639C403.246 48.9404 400.469 48.9865 404.39 64.6044L413.19 59.8259C415.441 62.1321 410.358 99.1336 410.174 105.102L423.753 101.08L416.714 139.558L416.696 139.567Z" fill="#0B090A"/>
<path d="M195.868 198.422C188.497 200.959 184.447 201.347 195.36 200.941C197.528 200.858 200.48 200.646 202.399 201.448C202.178 202.509 200.102 209.188 200.637 209.492L216.984 209.741C196.32 217.961 210.166 214.714 224.53 215.525C226.836 215.655 229.188 215.931 231.568 216.033C235.96 216.208 240.406 217.629 244.899 217.038C245.277 216.946 244.963 215.304 245.904 215.027C248.127 214.363 284.76 214.206 292.186 213.016C293.367 212.832 295.138 212.583 295.959 211.503C299.345 214.123 305.931 213.994 310.544 214.52C314.51 214.972 318.588 215.756 322.619 216.033C321.697 217.149 320.405 219.686 319.095 220.811C319.252 221.319 324.769 222.011 325.636 222.066C328.274 224.132 328.505 226.559 330.663 229.105C333.957 232.998 334.935 233.413 339.215 235.138C339.289 235.165 338.929 235.95 339.971 236.651C350.839 237.444 361.742 236.226 372.665 236.651C374.528 235.276 376.669 234.086 378.449 232.629C378.403 233.21 382.287 231.466 383.984 230.618C383.237 233.071 388.375 236.079 388.762 236.153C391.438 236.614 434.205 234.76 443.089 235.645C445.349 234.843 439.915 232.324 441.077 231.116C448.799 229.529 455.764 225.636 463.208 223.071C471.105 224.741 504.831 218.431 510.496 216.033C515.625 213.865 496.261 211.448 495.653 210.747C493.623 203.736 492.876 196.503 491.63 189.373C503.457 190.978 569.849 211.079 536.15 227.103C509.684 239.686 427.019 241.881 421.963 244.713C421.493 244.972 420.985 245.617 421.456 245.719C422.434 247.601 443.873 249.603 417.434 257.794C386.567 267.361 325.636 265.47 292.684 262.324C269.437 260.101 216.615 253.56 260.489 242.702V241.697C235.056 238.634 155.112 235.83 136.745 223.588C112.363 207.343 187.805 187.823 196.855 187.371C196.735 188.063 197.925 187.786 197.86 188.127C197.242 191.577 196.44 194.963 195.849 198.441L195.868 198.422Z" fill="#3D3737"/>
<path d="M382.489 3.74712C378.43 13.0644 366.198 36.9756 363.873 43.7375C359.704 55.9053 359.409 71.7169 350.792 85.988C346.641 92.8606 324.289 119.161 320.608 125.729C317.075 132.03 313.809 145.037 310.046 151.891C305.23 160.646 290.138 176.79 283.883 186.098C278.57 194.004 274.723 203.127 269.548 210.996L260.747 210.747C273.478 188.016 291.955 167.509 297.214 141.578C295.322 144.115 283.376 162.242 281.116 161.199C284.566 153.589 296.697 127.777 299.981 123.22C302.481 119.751 314.935 109.539 320.608 103.1C324.981 98.1281 328.745 90.5267 334.187 85.9972L333.938 85.2408L312.813 101.837L312.057 101.08C317.748 88.3219 328.597 78.7464 337.204 67.8793C351.337 28.0089 350.22 40.1951 333.182 62.8517C328.163 69.5306 312.656 85.6651 309.538 90.0193C303.892 97.9067 291.845 123.109 284.889 132.27C268.625 153.69 253.238 148.515 255.212 183.579C245.019 195.71 237.786 200.147 231.568 216.024C229.188 215.931 226.836 215.655 224.53 215.516L253.708 135.028C256.024 133.248 267.804 119.659 268.293 118.681C269.566 116.145 274.133 95.7019 275.839 90.0101C281.66 82.9161 316.088 31.6804 319.603 30.3981C312.13 82.1688 299.391 99.5672 327.149 42.4737C328.938 38.7837 339.067 17.9167 340.479 16.8189C354.298 11.8928 367.231 2.8892 382.489 3.74712Z" fill="#776B68"/>
<path d="M491.649 189.363C492.894 196.494 493.642 203.736 495.671 210.738C496.28 211.439 515.634 213.846 510.514 216.024C504.85 218.422 471.133 224.732 463.227 223.062C455.773 225.627 448.817 229.52 441.096 231.106C439.943 232.315 445.367 234.833 443.107 235.636C434.223 234.75 391.456 236.605 388.781 236.143C388.393 236.079 383.255 233.062 384.002 230.608C392.702 226.245 406.751 213.044 414.685 206.208C400.331 203.911 383.227 228.708 378.467 232.619C376.687 234.086 374.547 235.267 372.683 236.641C361.752 236.217 350.857 237.435 339.99 236.641C338.947 235.94 339.316 235.165 339.233 235.129C351.577 227.97 359.584 215.775 369.667 205.95C373.818 215.858 370.349 229.031 378.467 220.286C381.678 216.835 387.711 200.996 395.82 197.896C405.838 196.218 420.294 192.417 424.998 182.804C393.393 183.183 406.41 182.103 427.009 177.777C429.611 175.111 445.404 165.609 446.124 164.696C447.969 162.362 445.173 158.238 445.367 155.388C453.439 151.384 489.536 121.892 492.147 117.657C492.258 117.482 492.092 116.883 492.147 116.403L493.153 117.159C493.263 137.51 491.603 157.906 488.623 178.026C488.697 181.882 491.538 188.754 491.64 189.345L491.649 189.363Z" fill="#0B090A"/>
<path d="M492.147 116.43C492.092 116.91 492.258 117.51 492.147 117.685C489.536 121.919 453.439 151.412 445.367 155.415C445.173 158.257 447.969 162.389 446.124 164.723C445.404 165.627 429.611 175.138 427.009 177.804C406.41 182.131 393.384 183.21 424.998 182.832C420.294 192.444 405.838 196.245 395.82 197.924C387.711 201.015 381.668 216.854 378.467 220.313C370.349 229.059 373.818 215.876 369.667 205.978C359.584 215.802 351.577 227.988 339.233 235.156C334.953 233.431 333.975 233.016 330.682 229.123L342.25 221.826C336.706 220.867 331.18 222.444 325.654 222.075C324.787 222.02 319.271 221.319 319.114 220.821C320.424 219.695 321.715 217.158 322.638 216.042C329.815 207.343 356.853 182.97 366.65 171.273C372.979 167.592 391.991 162.177 394.823 160.71C395.229 160.498 396.041 159.474 395.331 159.198C390.395 160.794 380.285 163.948 382.25 161.716C383.606 160.175 412.157 142.473 416.705 139.585C425.247 134.17 433.541 128.368 442.111 122.989L492.166 116.449L492.147 116.43Z" fill="#776B68"/>
<path d="M253.708 135.037L224.53 215.525C210.166 214.714 196.32 217.961 216.984 209.741L200.637 209.492C200.102 209.188 202.178 202.509 202.399 201.448C203.451 196.402 207.833 173.967 208.432 172.528C208.626 172.066 209.696 169.659 210.443 170.517L215.471 181.587C216.735 176.236 226.402 149.17 226.541 147.38C226.605 146.532 226.67 145.978 225.784 146.126C210.333 161.624 217.196 149.557 226.033 139.336C230.037 134.705 235.194 131.716 236.098 130.277C238.976 120.831 243.376 111.883 243.644 101.855C246.319 108.202 249.465 125.692 253.708 135.056V135.037Z" fill="#0B090A"/>
<path d="M243.653 101.837C243.386 111.864 238.985 120.812 236.107 130.259C235.203 131.698 230.046 134.687 226.043 139.318C217.196 149.548 210.342 161.605 225.794 146.107C226.67 145.96 226.615 146.522 226.55 147.362C226.412 149.152 216.744 176.218 215.48 181.568L210.452 170.498C209.705 169.64 208.635 172.048 208.441 172.509C207.833 173.948 203.46 196.393 202.408 201.43C200.48 200.627 197.528 200.848 195.37 200.922C195.093 199.317 195.803 198.801 195.877 198.404C196.467 194.926 197.27 191.54 197.888 188.09C197.943 187.758 196.763 188.026 196.882 187.334C196.91 187.177 197.943 187.085 198.395 184.566C201.274 168.45 203.349 152.15 207.454 136.273C219.548 124.355 231.485 112.307 242.417 99.2997C243.745 99.272 243.487 101.385 243.672 101.818L243.653 101.837Z" fill="#776B68"/>
<path d="M327.158 42.4829C299.4 99.5764 312.14 82.1873 319.612 30.4074C323.588 28.9683 325.94 39.8907 327.158 42.4829Z" fill="#0B090A"/>
<path d="M310.553 214.52C305.931 213.994 299.354 214.123 295.968 211.503C298.92 203.459 317.296 191.946 298.985 201.697C303.145 196.079 316.798 176.089 320.359 173.275C323.136 171.079 332.721 167.906 336.457 165.231C338.2 163.985 352.093 148.893 355.322 145.36C363.532 136.375 358.855 134.945 377.711 130.019C365.119 143.257 354.279 158.349 345.765 174.539C336.475 183.598 320.147 188.828 319.603 203.21C315.498 206.051 313.634 210.728 310.544 214.529L310.553 214.52Z" fill="#776B68"/>
<path d="M383.993 230.618C382.296 231.466 378.412 233.21 378.458 232.629C383.218 228.717 400.321 203.92 414.676 206.217C406.742 213.053 392.692 226.254 383.993 230.618Z" fill="#776B68"/>
<path d="M330.673 229.105C328.514 226.559 328.283 224.132 325.645 222.066C331.18 222.426 336.697 220.848 342.241 221.817L330.673 229.114V229.105Z" fill="#0B090A"/>
<path d="M262.618 0.0816547C267.375 20.5243 274.364 40.1922 282.081 59.7734C283.014 62.1437 288.427 73.1802 288.569 73.9375C289.415 78.366 285.739 84.9855 284.861 85.7891C281.815 88.5815 271.311 71.862 269.878 69.457C271.793 76.383 275.34 82.754 278.992 88.9689C271.787 85.1359 276.081 90.8535 273.894 90.8478C273.27 90.8478 269.909 85.9626 264.008 83.9102L259.065 74.3711C261.505 84.6387 266.764 94.1084 268.488 104.578C265.67 101.526 256.89 99.1728 256.284 98.6525C256.049 98.4501 253.43 93.5939 253.349 93.3048C253.22 92.8365 253.362 89.362 252.731 86.9454C250.896 79.9327 248.517 73.0356 247.479 65.8437C247.374 65.5431 246.88 66.0403 246.862 66.1328C246.75 66.7803 247.881 75.0186 245.471 78.9961L235.431 71.3359C233.602 66.682 230.562 36.2262 229.561 34.6248C229.406 34.382 229.122 34.382 228.943 34.6248C229.993 38.2497 230.605 48.8988 229.561 51.6796C229.474 51.9051 229.147 51.8241 228.943 51.8241C228.535 47.6385 228.208 43.4297 227.707 39.2498C227.293 35.8042 224.179 25.0799 226.626 22.6286C227.658 21.5996 239.781 17.2521 242.227 16.2692L264.471 62.664C258.28 45.0889 252.12 27.5023 248.097 9.3317C249.895 7.66091 260.443 0.469001 262.618 0.0816547Z" fill="#605757"/>
<path d="M344.796 128.137C350.197 128.154 355.609 128.125 361.016 128.137C342.937 132.577 323.961 131.987 305.406 133.34L338.772 134.496C327.508 137.832 315.354 139.601 303.553 140.567C293.598 141.382 273.968 140.954 272.658 141.723C271.571 142.365 272.868 143.139 273.585 143.457C276.792 144.88 308.669 144.712 314.983 144.325L314.674 144.903C261.413 152.8 206.717 151.621 153.406 144.614L153.097 144.036C167.97 142.07 191.375 141.856 204.073 140.278C217.648 138.59 201.367 137.601 196.967 137.387C177.634 136.433 158.152 137.561 138.886 135.364V134.786C150.311 134.248 161.711 132.999 173.179 132.762V132.184C156.842 131.941 140.319 132.282 124.057 130.739C106.904 129.114 101.498 127.484 122.512 128.137L123.284 127.559L123.439 128.137C197.221 128.287 271.015 127.935 344.796 128.137Z" fill="#777173"/>
<path d="M203.61 76.1055C204.518 72.787 201.719 66.2831 202.992 62.375C203.239 61.5598 212.056 52.4716 214.423 49.2225C221.683 62.242 230.123 74.7411 237.284 87.8126C239.119 91.16 251.248 114.655 251.805 116.141C252.249 117.338 252.836 118.581 252.731 119.899C243.797 121.575 239.249 114.909 234.349 121.199C231.05 118.031 230.994 113.343 229.252 109.492C225.18 100.491 210.524 84.5288 203.61 76.1055Z" fill="#605757"/>
<path d="M175.187 104.145C177.386 96.103 182.354 65.52 186 60.496L187.236 60.6406C189.905 72.3708 192.191 84.2744 195.268 95.9064C196.257 99.6469 202.275 117.008 202.374 118.164C202.491 119.558 201.614 123.102 199.748 123.223C195.28 123.512 189.009 99.0977 188.008 95.1837L187.853 117.297C183.782 121.679 185.623 122.911 179.203 119.61L175.187 104.145Z" fill="#605757"/>
<path d="M160.358 89.4024C159.641 98.4848 161.531 110.383 160.358 119.032C159.857 122.726 159.517 118.245 158.813 117.297C157.528 120.697 156.527 124.356 153.715 126.981C153.06 122.905 143.236 123.171 139.195 123.512C134.839 128.368 131.379 123.159 130.853 123.223C130.254 123.298 129.951 124.969 129.309 124.957C127.968 124.94 126.182 120.037 127.61 118.887C128.685 117.222 129.123 115.73 131.162 114.262C134.913 113.198 137.267 110.232 140.585 108.481C140.845 111.788 143.39 122.338 143.057 113.106C144.218 109.29 147.617 96.999 149.853 94.4611C150.292 93.9639 160.382 87.6565 160.358 89.4024Z" fill="#605757"/>
<path d="M320.699 85.6446C319.778 89.1076 324.029 120.101 322.089 120.621C318.32 117.922 314.798 114.782 312.357 110.938C311.486 104.33 305.87 98.086 307.723 91.4259C308.514 90.7437 309.144 89.7204 310.04 89.1134C311.659 88.015 319.383 84.1762 320.699 85.6446Z" fill="#605757"/>
<path d="M242.227 16.2692C243.352 15.8183 244.699 15.8472 245.626 14.9685C245.422 11.9448 246.083 11.1991 248.097 9.3317C252.12 27.5023 258.28 45.0889 264.471 62.664L242.227 16.2692Z" fill="#0E0B0A"/>
<path d="M333.057 104.145C331.975 108.955 335.392 115.274 332.748 119.61C330.449 123.379 325.265 119.691 325.024 119.321C324.697 118.823 323.393 108.336 323.479 107.758C324.042 104.087 329.8 103.549 331.821 101.543C332.42 101.734 332.754 103.439 333.057 104.145Z" fill="#605757"/>
<path d="M140.585 108.481C140.845 111.788 143.39 122.338 143.057 113.106C143.013 111.868 142.223 106.157 140.585 108.481Z" fill="#0E0B0A"/>
<path d="M307.723 91.4259C305.87 98.086 311.486 104.33 312.357 110.938C314.798 114.782 318.32 117.922 322.089 120.621C324.029 120.101 319.778 89.1076 320.699 85.6446C321.484 86.5234 324.239 99.1497 325.024 101.688C325.988 102.85 330.369 101.491 331.821 101.543C329.8 103.549 324.042 104.087 323.479 107.758C323.393 108.336 324.697 118.823 325.024 119.321C325.265 119.691 330.449 123.379 332.748 119.61C335.392 115.274 331.975 108.955 333.057 104.145C334.552 107.642 335.46 113.198 336.764 116.43C337.042 117.124 340.218 123.605 340.471 123.946C341.404 125.212 344.506 126.01 344.796 128.137C271.015 127.935 197.221 128.287 123.439 128.137L123.284 127.559C124.421 124.553 125.849 121.61 127.61 118.887C126.182 120.037 127.968 124.94 129.309 124.957C129.951 124.969 130.254 123.298 130.853 123.223C131.379 123.159 134.839 128.368 139.195 123.512C143.236 123.171 153.06 122.905 153.715 126.981C156.527 124.356 157.528 120.697 158.813 117.297C159.517 118.245 159.857 122.726 160.358 119.032C161.531 110.383 159.641 98.4848 160.358 89.4024C163.638 97.3575 168.019 104.729 172.252 112.239C173.018 109.55 174.445 106.862 175.187 104.145L179.203 119.61C185.623 122.911 183.782 121.679 187.853 117.297L188.008 95.1837C189.009 99.0977 195.28 123.512 199.748 123.223C201.614 123.102 202.491 119.558 202.374 118.164C202.275 117.008 196.257 99.6469 195.268 95.9064C192.191 84.2744 189.905 72.3708 187.236 60.6406L186 60.496C186.327 60.0393 186.259 59.4959 186.772 59.6288C189.404 63.6353 196.356 69.0119 197.122 70.1797C198.734 72.6425 200.057 81.1005 200.984 81.0196C201.323 79.7593 203.535 76.3714 203.61 76.1055C210.524 84.5288 225.18 100.491 229.252 109.492C230.994 113.343 231.05 118.031 234.349 121.199C239.249 114.909 243.797 121.575 252.731 119.899C252.836 118.581 252.249 117.338 251.805 116.141C251.248 114.655 239.119 91.16 237.284 87.8126C230.123 74.7411 221.683 62.242 214.423 49.2225C215.226 48.1241 218.544 41.9092 219.057 41.5623H219.675C223.042 49.448 225.507 57.5649 229.715 65.1211C230.556 60.6174 229.369 56.2179 228.943 51.8241C229.147 51.8241 229.474 51.9051 229.561 51.6796C230.605 48.8988 229.993 38.2497 228.943 34.6248C229.122 34.382 229.406 34.382 229.561 34.6248C230.562 36.2262 233.602 66.682 235.431 71.3359L245.471 78.9961C247.881 75.0186 246.75 66.7803 246.862 66.1328C246.88 66.0403 247.374 65.5431 247.479 65.8437C248.517 73.0356 250.896 79.9327 252.731 86.9454C253.362 89.362 253.22 92.8365 253.349 93.3048C253.43 93.5939 256.049 98.4501 256.284 98.6525C256.89 99.1728 265.67 101.526 268.488 104.578C266.764 94.1084 261.505 84.6387 259.065 74.3711L264.008 83.9102C269.909 85.9626 273.27 90.8478 273.894 90.8478C276.081 90.8535 271.787 85.1359 278.992 88.9689C275.34 82.754 271.793 76.383 269.878 69.457C271.311 71.862 281.815 88.5815 284.861 85.7891C285.739 84.9855 289.415 78.366 288.569 73.9375C288.427 73.1802 283.014 62.1437 282.081 59.7734C274.364 40.1922 267.375 20.5243 262.618 0.0816547C264.99 -0.340379 267.728 0.954621 269.878 2.1051C280.722 7.9095 279.424 19.2061 279.918 20.1716C282.631 21.7152 288.099 29.572 289.496 32.3123C294.093 41.3427 297.318 53.5527 295.366 63.5312C298.208 67.607 298.745 72.9605 302.78 76.25C303.244 81.8868 303.299 87.697 306.642 92.5822C306.728 92.5822 307.081 91.9751 307.723 91.4259Z" fill="#0E0B0A"/>
<path d="M299.536 79.5743C301.643 85.0607 307.97 109.914 307.414 113.539C307.272 114.482 303.676 120.806 303.244 120.91C302.811 121.014 301.223 119.107 300.154 119.176C298.523 119.28 295.922 125.032 290.577 118.598C287.247 122.772 284.027 119.974 283.935 119.61C283.823 119.176 285.918 115.222 287.024 111.227C289.397 102.647 291.423 93.9234 293.203 85.211L299.536 79.5743Z" fill="#605757"/>
<path d="M200.675 84.7774C202.744 84.5751 222.165 109.851 222.455 111.516C222.795 113.458 220.07 117.939 218.902 119.754C216.468 116.783 215.763 118.87 213.959 117.731C212.557 118.002 213.23 124.61 206.853 120.91C201.799 117.979 200.81 94.4264 198.049 88.3907C197.307 86.9628 200.421 84.8006 200.675 84.7774Z" fill="#605757"/>
<path d="M416.696 139.567C412.139 142.454 383.587 160.166 382.24 161.698C380.275 163.939 390.377 160.775 395.321 159.179C396.032 159.456 395.229 160.48 394.814 160.692C391.982 162.168 372.969 167.574 366.641 171.255C356.844 182.952 329.796 207.324 322.628 216.024C318.597 215.756 314.529 214.963 310.553 214.511C313.634 210.71 315.498 206.033 319.612 203.192C320.156 188.81 336.484 183.579 345.774 174.52C354.289 158.33 365.119 143.248 377.72 130C358.864 134.927 363.551 136.356 355.331 145.342C352.102 148.875 338.209 163.967 336.466 165.212C332.73 167.888 323.145 171.07 320.368 173.256C316.798 176.07 303.145 196.061 298.994 201.679C317.296 191.928 298.92 203.441 295.977 211.485C295.156 212.564 293.385 212.804 292.204 212.998C284.778 214.188 248.146 214.354 245.923 215.009C244.982 215.286 245.295 216.928 244.917 217.02C240.424 217.61 235.978 216.19 231.587 216.014C237.805 200.138 245.037 195.692 255.231 183.57C253.256 148.506 268.644 153.681 284.907 132.261C291.863 123.091 303.911 97.8975 309.557 90.0101C312.675 85.6559 328.173 69.5214 333.2 62.8425C350.239 40.1859 351.355 28.0089 337.222 67.8701C328.606 78.7279 317.758 88.3127 312.075 101.071L312.832 101.827L333.957 85.2315L334.206 85.988C328.763 90.5175 324.999 98.1189 320.627 103.091C314.953 109.539 302.5 119.742 300 123.211C296.715 127.768 284.585 153.58 281.134 161.19C283.395 162.242 295.341 144.115 297.232 141.569C291.974 167.5 273.487 187.998 260.766 210.738L269.566 210.987C274.741 203.118 278.588 193.994 283.902 186.088C290.156 176.78 305.249 160.637 310.064 151.882C313.828 145.028 317.093 132.021 320.627 125.72C324.307 119.152 346.66 92.8514 350.811 85.9788C359.427 71.6985 359.713 55.8868 363.892 43.7283C366.217 36.9663 378.44 13.0551 382.508 3.7379C387.711 4.0331 388.689 8.19357 389.547 13.0459C390.368 17.7138 392.037 43.3869 391.558 47.7504C391.281 50.278 389.445 54.7337 388.541 57.3075L389.298 58.0639C403.246 48.9404 400.469 48.9865 404.39 64.6044L413.19 59.8259C415.441 62.1321 410.358 99.1336 410.174 105.102L423.753 101.08L416.714 139.558L416.696 139.567Z" fill="#0B090A"/>
<path d="M195.868 198.422C188.497 200.959 184.447 201.347 195.36 200.941C197.528 200.858 200.48 200.646 202.399 201.448C202.178 202.509 200.102 209.188 200.637 209.492L216.984 209.741C196.32 217.961 210.166 214.714 224.53 215.525C226.836 215.655 229.188 215.931 231.568 216.033C235.96 216.208 240.406 217.629 244.899 217.038C245.277 216.946 244.963 215.304 245.904 215.027C248.127 214.363 284.76 214.206 292.186 213.016C293.367 212.832 295.138 212.583 295.959 211.503C299.345 214.123 305.931 213.994 310.544 214.52C314.51 214.972 318.588 215.756 322.619 216.033C321.697 217.149 320.405 219.686 319.095 220.811C319.252 221.319 324.769 222.011 325.636 222.066C328.274 224.132 328.505 226.559 330.663 229.105C333.957 232.998 334.935 233.413 339.215 235.138C339.289 235.165 338.929 235.95 339.971 236.651C350.839 237.444 361.742 236.226 372.665 236.651C374.528 235.276 376.669 234.086 378.449 232.629C378.403 233.21 382.287 231.466 383.984 230.618C383.237 233.071 388.375 236.079 388.762 236.153C391.438 236.614 434.205 234.76 443.089 235.645C445.349 234.843 439.915 232.324 441.077 231.116C448.799 229.529 455.764 225.636 463.208 223.071C471.105 224.741 504.831 218.431 510.496 216.033C515.625 213.865 496.261 211.448 495.653 210.747C493.623 203.736 492.876 196.503 491.63 189.373C503.457 190.978 569.849 211.079 536.15 227.103C509.684 239.686 427.019 241.881 421.963 244.713C421.493 244.972 420.985 245.617 421.456 245.719C422.434 247.601 443.873 249.603 417.434 257.794C386.567 267.361 325.636 265.47 292.684 262.324C269.437 260.101 216.615 253.56 260.489 242.702V241.697C235.056 238.634 155.112 235.83 136.745 223.588C112.363 207.343 187.805 187.823 196.855 187.371C196.735 188.063 197.925 187.786 197.86 188.127C197.242 191.577 196.44 194.963 195.849 198.441L195.868 198.422Z" fill="#3D3737"/>
<path d="M382.489 3.74712C378.43 13.0644 366.198 36.9756 363.873 43.7375C359.704 55.9053 359.409 71.7169 350.792 85.988C346.641 92.8606 324.289 119.161 320.608 125.729C317.075 132.03 313.809 145.037 310.046 151.891C305.23 160.646 290.138 176.79 283.883 186.098C278.57 194.004 274.723 203.127 269.548 210.996L260.747 210.747C273.478 188.016 291.955 167.509 297.214 141.578C295.322 144.115 283.376 162.242 281.116 161.199C284.566 153.589 296.697 127.777 299.981 123.22C302.481 119.751 314.935 109.539 320.608 103.1C324.981 98.1281 328.745 90.5267 334.187 85.9972L333.938 85.2408L312.813 101.837L312.057 101.08C317.748 88.3219 328.597 78.7464 337.204 67.8793C351.337 28.0089 350.22 40.1951 333.182 62.8517C328.163 69.5306 312.656 85.6651 309.538 90.0193C303.892 97.9067 291.845 123.109 284.889 132.27C268.625 153.69 253.238 148.515 255.212 183.579C245.019 195.71 237.786 200.147 231.568 216.024C229.188 215.931 226.836 215.655 224.53 215.516L253.708 135.028C256.024 133.248 267.804 119.659 268.293 118.681C269.566 116.145 274.133 95.7019 275.839 90.0101C281.66 82.9161 316.088 31.6804 319.603 30.3981C312.13 82.1688 299.391 99.5672 327.149 42.4737C328.938 38.7837 339.067 17.9167 340.479 16.8189C354.298 11.8928 367.231 2.8892 382.489 3.74712Z" fill="#776B68"/>
<path d="M491.649 189.363C492.894 196.494 493.642 203.736 495.671 210.738C496.28 211.439 515.634 213.846 510.514 216.024C504.85 218.422 471.133 224.732 463.227 223.062C455.773 225.627 448.817 229.52 441.096 231.106C439.943 232.315 445.367 234.833 443.107 235.636C434.223 234.75 391.456 236.605 388.781 236.143C388.393 236.079 383.255 233.062 384.002 230.608C392.702 226.245 406.751 213.044 414.685 206.208C400.331 203.911 383.227 228.708 378.467 232.619C376.687 234.086 374.547 235.267 372.683 236.641C361.752 236.217 350.857 237.435 339.99 236.641C338.947 235.94 339.316 235.165 339.233 235.129C351.577 227.97 359.584 215.775 369.667 205.95C373.818 215.858 370.349 229.031 378.467 220.286C381.678 216.835 387.711 200.996 395.82 197.896C405.838 196.218 420.294 192.417 424.998 182.804C393.393 183.183 406.41 182.103 427.009 177.777C429.611 175.111 445.404 165.609 446.124 164.696C447.969 162.362 445.173 158.238 445.367 155.388C453.439 151.384 489.536 121.892 492.147 117.657C492.258 117.482 492.092 116.883 492.147 116.403L493.153 117.159C493.263 137.51 491.603 157.906 488.623 178.026C488.697 181.882 491.538 188.754 491.64 189.345L491.649 189.363Z" fill="#0B090A"/>
<path d="M492.147 116.43C492.092 116.91 492.258 117.51 492.147 117.685C489.536 121.919 453.439 151.412 445.367 155.415C445.173 158.257 447.969 162.389 446.124 164.723C445.404 165.627 429.611 175.138 427.009 177.804C406.41 182.131 393.384 183.21 424.998 182.832C420.294 192.444 405.838 196.245 395.82 197.924C387.711 201.015 381.668 216.854 378.467 220.313C370.349 229.059 373.818 215.876 369.667 205.978C359.584 215.802 351.577 227.988 339.233 235.156C334.953 233.431 333.975 233.016 330.682 229.123L342.25 221.826C336.706 220.867 331.18 222.444 325.654 222.075C324.787 222.02 319.271 221.319 319.114 220.821C320.424 219.695 321.715 217.158 322.638 216.042C329.815 207.343 356.853 182.97 366.65 171.273C372.979 167.592 391.991 162.177 394.823 160.71C395.229 160.498 396.041 159.474 395.331 159.198C390.395 160.794 380.285 163.948 382.25 161.716C383.606 160.175 412.157 142.473 416.705 139.585C425.247 134.17 433.541 128.368 442.111 122.989L492.166 116.449L492.147 116.43Z" fill="#776B68"/>
<path d="M253.708 135.037L224.53 215.525C210.166 214.714 196.32 217.961 216.984 209.741L200.637 209.492C200.102 209.188 202.178 202.509 202.399 201.448C203.451 196.402 207.833 173.967 208.432 172.528C208.626 172.066 209.696 169.659 210.443 170.517L215.471 181.587C216.735 176.236 226.402 149.17 226.541 147.38C226.605 146.532 226.67 145.978 225.784 146.126C210.333 161.624 217.196 149.557 226.033 139.336C230.037 134.705 235.194 131.716 236.098 130.277C238.976 120.831 243.376 111.883 243.644 101.855C246.319 108.202 249.465 125.692 253.708 135.056V135.037Z" fill="#0B090A"/>
<path d="M243.653 101.837C243.386 111.864 238.985 120.812 236.107 130.259C235.203 131.698 230.046 134.687 226.043 139.318C217.196 149.548 210.342 161.605 225.794 146.107C226.67 145.96 226.615 146.522 226.55 147.362C226.412 149.152 216.744 176.218 215.48 181.568L210.452 170.498C209.705 169.64 208.635 172.048 208.441 172.509C207.833 173.948 203.46 196.393 202.408 201.43C200.48 200.627 197.528 200.848 195.37 200.922C195.093 199.317 195.803 198.801 195.877 198.404C196.467 194.926 197.27 191.54 197.888 188.09C197.943 187.758 196.763 188.026 196.882 187.334C196.91 187.177 197.943 187.085 198.395 184.566C201.274 168.45 203.349 152.15 207.454 136.273C219.548 124.355 231.485 112.307 242.417 99.2997C243.745 99.272 243.487 101.385 243.672 101.818L243.653 101.837Z" fill="#776B68"/>
<path d="M327.158 42.4829C299.4 99.5764 312.14 82.1873 319.612 30.4074C323.588 28.9683 325.94 39.8907 327.158 42.4829Z" fill="#0B090A"/>
<path d="M310.553 214.52C305.931 213.994 299.354 214.123 295.968 211.503C298.92 203.459 317.296 191.946 298.985 201.697C303.145 196.079 316.798 176.089 320.359 173.275C323.136 171.079 332.721 167.906 336.457 165.231C338.2 163.985 352.093 148.893 355.322 145.36C363.532 136.375 358.855 134.945 377.711 130.019C365.119 143.257 354.279 158.349 345.765 174.539C336.475 183.598 320.147 188.828 319.603 203.21C315.498 206.051 313.634 210.728 310.544 214.529L310.553 214.52Z" fill="#776B68"/>
<path d="M383.993 230.618C382.296 231.466 378.412 233.21 378.458 232.629C383.218 228.717 400.321 203.92 414.676 206.217C406.742 213.053 392.692 226.254 383.993 230.618Z" fill="#776B68"/>
<path d="M330.673 229.105C328.514 226.559 328.283 224.132 325.645 222.066C331.18 222.426 336.697 220.848 342.241 221.817L330.673 229.114V229.105Z" fill="#0B090A"/>
</svg>
