<svg width="460" height="63" viewBox="0 0 460 63" fill="none" xmlns="http://www.w3.org/2000/svg">
<g filter="url(#filter0_bd_502_22)">
<rect width="454.4" height="55.2" fill="#FFF16F" shape-rendering="crispEdges"/>
<rect x="0.6" y="0.6" width="453.2" height="54" stroke="black" stroke-width="1.2" shape-rendering="crispEdges"/>
<path d="M28.4109 38.3148C26.0984 38.3148 24.1297 37.6508 22.5047 36.3227C20.7703 34.9008 19.9031 33.0609 19.9031 30.8031C19.9031 28.1469 20.7352 25.725 22.3992 23.5375C24.2664 21.0766 26.618 19.8461 29.4539 19.8461C32.1805 19.8461 34.2234 20.4711 35.5828 21.7211C36.9422 22.9711 37.6219 24.85 37.6219 27.3578C37.6219 30.0141 36.8563 32.4203 35.325 34.5766C33.5594 37.0687 31.2547 38.3148 28.4109 38.3148ZM29.4539 23.0219C27.7117 23.0219 26.2195 23.8656 24.9774 25.5531C23.8133 27.1312 23.2313 28.8812 23.2313 30.8031C23.2313 32.1 23.7352 33.1547 24.743 33.9672C25.7117 34.7484 26.9344 35.1391 28.4109 35.1391C30.1297 35.1391 31.5633 34.2953 32.7117 32.6078C33.7664 31.0687 34.2938 29.3187 34.2938 27.3578C34.2938 25.7172 33.9266 24.5766 33.1922 23.9359C32.4891 23.3266 31.243 23.0219 29.4539 23.0219ZM48.7313 37.143C46.9109 37.8227 44.6102 38.1625 41.8289 38.1625C41.3602 38.1625 40.9383 37.9672 40.5633 37.5766C40.1961 37.1859 40.0125 36.768 40.0125 36.3227V23.9008C39.9891 23.3695 39.9695 22.8383 39.9539 22.307C39.9305 21.7055 39.95 21.1977 40.0125 20.7836C40.1219 20.0492 40.8055 19.6039 42.0633 19.4477C42.657 19.2758 43.6414 19.1898 45.0164 19.1898C46.493 19.1898 47.907 19.6664 49.2586 20.6195C50.8445 21.7289 51.6375 23.1156 51.6375 24.7797C51.6375 25.6781 51.4734 26.4359 51.1453 27.0531C50.8875 27.5531 50.4383 28.0883 49.7977 28.6586C50.5555 29.0258 51.2274 29.5805 51.8133 30.3227C52.4774 31.1508 52.8094 31.975 52.8094 32.7953C52.8094 33.8344 52.243 34.8187 51.1102 35.7484C50.3524 36.3656 49.5594 36.8305 48.7313 37.143ZM45.0164 22.3656C44.0086 22.3656 43.4031 22.3734 43.2 22.3891L43.2117 24.8734L43.2 27.3344C43.9109 27.4203 44.4461 27.4477 44.8055 27.4164C47.1961 27.2289 48.3914 26.35 48.3914 24.7797C48.3914 24.225 48.0399 23.6898 47.3367 23.1742C46.6102 22.6352 45.8367 22.3656 45.0164 22.3656ZM46.3875 30.6508C45.6766 30.6508 44.6141 30.6234 43.2 30.5687V34.9516C44.5438 34.8812 46.0008 34.6234 47.5711 34.1781C48.9461 33.7875 49.6258 33.3656 49.6102 32.9125C49.5867 32.3109 49.1453 31.7758 48.2859 31.307C47.6141 30.932 46.9813 30.7133 46.3875 30.6508ZM67.5399 23.2094C67.3992 23.2094 67.1766 23.1977 66.8719 23.1742C66.5672 23.143 66.3211 23.1273 66.1336 23.1273H65.2195C65.2117 22.9945 65.2078 23.2719 65.2078 23.9594C65.2078 29.5531 64.8133 33.6273 64.0242 36.182C63.4461 38.0648 62.3953 39.0062 60.8719 39.0062C59.4188 39.0062 57.9813 38.5062 56.5594 37.5062C54.95 36.3891 54.1453 35.0766 54.1453 33.5687C54.1453 32.35 54.6961 31.7406 55.7977 31.7406C56.8992 31.7406 57.45 32.3422 57.45 33.5453C57.45 34.0062 57.8445 34.5023 58.6336 35.0336C59.4305 35.557 60.1766 35.8187 60.8719 35.8187C61.1531 35.8187 61.3563 35.2992 61.4813 34.2602C61.5125 34.0102 61.5984 32.7953 61.7391 30.6156C61.8563 28.8344 61.9149 26.6156 61.9149 23.9594C61.9149 23.85 61.9031 23.5961 61.8797 23.1977L61.6102 23.2094C61.2664 23.225 60.8055 23.2211 60.2274 23.1977C59.532 23.1664 59.0711 23.1508 58.8445 23.1508C58.3836 23.1508 57.993 23.0102 57.6727 22.7289C57.3289 22.4242 57.157 22.0297 57.157 21.5453C57.157 20.4828 57.8563 19.9516 59.2547 19.9516C59.5203 19.9516 59.9149 19.9633 60.4383 19.9867C60.9617 20.0023 61.3524 20.0102 61.6102 20.0102C62.1024 20.0102 62.8367 19.9828 63.8133 19.9281C64.7977 19.8734 65.5359 19.8461 66.0281 19.8461C68.1219 19.8461 69.1688 20.4281 69.1688 21.5922C69.1688 21.9984 69.0281 22.3617 68.7469 22.682C68.4266 23.0336 68.0242 23.2094 67.5399 23.2094ZM82.4695 22.5766C82.3133 22.5766 82.1492 22.5531 81.9774 22.5062C80.7117 22.1625 79.4813 21.9906 78.2859 21.9906C77.7 21.9906 77.0711 22.0375 76.3992 22.1312C75.7274 22.225 75.0125 22.3656 74.2547 22.5531C74.2547 23.5922 74.2195 25.1352 74.1492 27.182C74.5867 27.1508 76.1141 27.0062 78.7313 26.7484C80.2234 26.6 81.1688 26.5258 81.5672 26.5258C82.0281 26.5258 82.4227 26.6742 82.7508 26.9711C83.0789 27.2602 83.243 27.6469 83.243 28.1312C83.243 29.0609 82.7469 29.5883 81.7547 29.7133C81.1297 29.7602 80.1961 29.8383 78.9539 29.9477C77.8445 30.0727 76.1727 30.225 73.9383 30.4047C73.8836 31.3969 73.8563 32.1977 73.8563 32.807C73.8563 34.3383 73.9461 35.2094 74.1258 35.4203C74.2117 35.5219 74.7039 35.5727 75.6024 35.5727C76.0867 35.5727 76.8172 35.5609 77.7938 35.5375C78.7703 35.5141 79.5008 35.5023 79.9852 35.5023C80.1414 35.5023 80.3719 35.4789 80.6766 35.432C80.9813 35.3852 81.2078 35.3617 81.3563 35.3617C81.8094 35.3617 82.1961 35.4906 82.5164 35.7484C82.8836 36.0375 83.0672 36.4437 83.0672 36.9672C83.0672 37.8422 82.6102 38.3656 81.6961 38.5375C80.9149 38.6859 79.2938 38.7602 76.8328 38.7602C74.2859 38.7602 72.6258 38.4164 71.8524 37.7289C71.0008 36.9711 70.575 35.3305 70.575 32.807C70.575 31.7602 70.6492 30.1898 70.7977 28.0961C70.9539 25.9945 71.032 24.4242 71.032 23.3852C71.032 23.1117 70.993 22.7094 70.9149 22.1781C70.8367 21.6391 70.7977 21.2328 70.7977 20.9594C70.7977 19.7719 71.3445 19.1781 72.4383 19.1781C72.782 19.1781 73.0984 19.2758 73.3875 19.4711C74.2938 19.2445 75.1531 19.0766 75.9656 18.9672C76.7859 18.85 77.5594 18.7914 78.2859 18.7914C80.2547 18.7914 81.8289 19.018 83.0086 19.4711C83.7274 19.7445 84.0867 20.2406 84.0867 20.9594C84.0867 21.3656 83.9461 21.725 83.6649 22.0375C83.3524 22.3969 82.9539 22.5766 82.4695 22.5766ZM97.4109 25.1195C96.7078 25.1195 96.1883 24.7484 95.8524 24.0062C95.6961 23.6547 95.5399 23.4437 95.3836 23.3734C95.2664 23.3187 94.9578 23.2914 94.4578 23.2914C93.4734 23.2914 92.3367 24.057 91.0477 25.5883C89.243 27.7289 88.3406 29.7328 88.3406 31.6C88.3406 32.4516 88.6258 33.182 89.1961 33.7914C89.7664 34.4008 90.45 34.7055 91.2469 34.7055C92.0203 34.7055 92.8055 34.5023 93.6024 34.0961C93.8836 33.9477 94.4774 33.5648 95.3836 32.9477C95.993 32.5414 96.4539 32.3383 96.7664 32.3383C97.2352 32.3383 97.6336 32.5102 97.9617 32.8539C98.2664 33.1742 98.4188 33.5414 98.4188 33.9555C98.4188 34.4164 98.2156 34.8187 97.8094 35.1625C95.6609 36.975 93.4734 37.8812 91.2469 37.8812C89.4891 37.8812 88.0047 37.2406 86.7938 35.9594C85.6375 34.725 85.0594 33.2719 85.0594 31.6C85.0594 28.9828 86.2039 26.3109 88.493 23.5844C90.4383 21.2719 92.4266 20.1156 94.4578 20.1156C94.8016 20.1156 95.1102 20.1273 95.3836 20.1508C95.6649 20.1742 95.9109 20.2094 96.1219 20.2562C96.4656 19.9203 96.8797 19.7523 97.3641 19.7523C98.1609 19.7523 98.6531 20.2094 98.8406 21.1234C98.9734 21.7797 99.0399 22.5453 99.0399 23.4203C99.0399 23.8109 98.9266 24.1664 98.7 24.4867C98.4031 24.9086 97.9734 25.1195 97.4109 25.1195ZM114.52 23.5492C113.911 23.5492 112.962 23.5062 111.673 23.4203C110.43 23.3344 109.481 23.2953 108.825 23.3031C108.856 24.1937 108.962 25.7797 109.141 28.0609C109.305 30.0766 109.388 31.6703 109.388 32.8422C109.388 33.1078 109.415 33.5023 109.47 34.0258C109.524 34.5492 109.552 34.9437 109.552 35.2094C109.552 35.7953 109.427 36.3227 109.177 36.7914C108.856 37.393 108.399 37.6937 107.805 37.6937C107.376 37.6937 106.997 37.557 106.669 37.2836C106.302 36.9789 106.118 36.5961 106.118 36.1352C106.118 36.0258 106.138 35.8617 106.177 35.643C106.216 35.4164 106.235 35.2445 106.235 35.1273C106.235 34.768 106.208 34.225 106.153 33.4984C106.106 32.7719 106.083 32.225 106.083 31.8578C106.083 30.8109 106.001 29.393 105.837 27.6039C105.649 25.5492 105.54 24.1312 105.509 23.35H104.899C103.157 23.35 101.774 23.225 100.751 22.975C99.8836 22.7641 99.45 22.2523 99.45 21.4398C99.45 21.0414 99.5906 20.682 99.8719 20.3617C100.2 19.9789 100.63 19.807 101.161 19.8461C101.434 19.8617 102.055 19.9281 103.024 20.0453C103.798 20.1312 104.423 20.1742 104.899 20.1742C105.376 20.1742 106.087 20.1664 107.032 20.1508C107.985 20.1352 108.7 20.1273 109.177 20.1273C109.77 20.1273 110.661 20.1703 111.848 20.2562C113.036 20.3344 113.927 20.3734 114.52 20.3734C114.989 20.3734 115.38 20.5258 115.692 20.8305C116.013 21.1352 116.173 21.5102 116.173 21.9555C116.173 22.4008 116.013 22.7797 115.692 23.0922C115.38 23.3969 114.989 23.5492 114.52 23.5492ZM127.259 23.7484C126.852 23.7484 125.739 23.6391 123.919 23.4203C123.809 24.8578 123.755 26.768 123.755 29.1508L123.743 34.4125C124.782 34.3891 125.841 34.3773 126.919 34.3773C127.388 34.3773 127.774 34.5336 128.079 34.8461C128.391 35.1586 128.548 35.5336 128.548 35.9711C128.548 36.4086 128.391 36.7836 128.079 37.0961C127.774 37.4008 127.388 37.5531 126.919 37.5531C126.481 37.5531 125.825 37.5648 124.95 37.5883C124.075 37.6039 123.419 37.6117 122.981 37.6117C122.466 37.6117 121.692 37.6781 120.661 37.8109C119.63 37.9516 118.856 38.0219 118.341 38.0219C117.872 38.0219 117.481 37.8695 117.169 37.5648C116.864 37.2523 116.712 36.8773 116.712 36.4398C116.712 36.0023 116.864 35.6273 117.169 35.3148C117.481 35.0023 117.872 34.8461 118.341 34.8461C118.872 34.8461 119.571 34.7875 120.438 34.6703C120.423 33.7484 120.415 31.9828 120.415 29.3734C120.415 27.2484 120.493 25.2211 120.649 23.2914L118.106 23.3617C117.638 23.3617 117.243 23.2094 116.923 22.9047C116.61 22.6 116.454 22.2211 116.454 21.768C116.454 21.307 116.61 20.932 116.923 20.643C117.212 20.3773 117.567 20.225 117.989 20.1859C118.677 20.1234 119.872 20.0922 121.575 20.0922C123.106 20.0922 125.079 20.2562 127.493 20.5844C128.454 20.7172 128.934 21.2562 128.934 22.2016C128.934 22.7016 128.739 23.0961 128.348 23.3852C128.028 23.6273 127.665 23.7484 127.259 23.7484ZM136.598 32.6781C137.778 29.7094 138.692 27.3461 139.341 25.5883C139.684 24.6586 140.024 23.725 140.36 22.7875C140.821 21.6781 141.317 20.8227 141.848 20.2211C142.2 19.8227 142.622 19.6234 143.114 19.6234C143.559 19.6234 143.95 19.7797 144.286 20.0922C144.622 20.3969 144.79 20.7719 144.79 21.2172C144.79 21.5297 144.684 21.8383 144.473 22.143C144.052 22.7523 143.665 23.4867 143.313 24.3461C143.298 24.3773 143.009 25.1508 142.446 26.6664C141.743 28.4711 140.696 31.1781 139.305 34.7875C138.946 35.7328 138.505 36.6781 137.981 37.6234C137.645 38.2328 137.157 38.5375 136.516 38.5375C135.704 38.5375 135.138 38.1547 134.817 37.3891C133.864 35.1156 132.805 31.8383 131.641 27.557C131.321 26.5023 130.997 25.4477 130.669 24.393C130.231 22.9242 130.013 21.9047 130.013 21.3344C130.013 20.8734 130.184 20.4906 130.528 20.1859C130.856 19.9047 131.239 19.7641 131.677 19.7641C132.427 19.7641 132.95 20.1547 133.247 20.9359C133.403 21.6156 133.559 22.2914 133.716 22.9633C133.973 23.807 134.345 25.0727 134.829 26.7602C135.438 28.9945 136.028 30.9672 136.598 32.6781ZM158.36 22.5766C158.204 22.5766 158.04 22.5531 157.868 22.5062C156.602 22.1625 155.372 21.9906 154.177 21.9906C153.591 21.9906 152.962 22.0375 152.29 22.1312C151.618 22.225 150.903 22.3656 150.145 22.5531C150.145 23.5922 150.11 25.1352 150.04 27.182C150.477 27.1508 152.005 27.0062 154.622 26.7484C156.114 26.6 157.059 26.5258 157.458 26.5258C157.919 26.5258 158.313 26.6742 158.641 26.9711C158.97 27.2602 159.134 27.6469 159.134 28.1312C159.134 29.0609 158.638 29.5883 157.645 29.7133C157.02 29.7602 156.087 29.8383 154.845 29.9477C153.735 30.0727 152.063 30.225 149.829 30.4047C149.774 31.3969 149.747 32.1977 149.747 32.807C149.747 34.3383 149.837 35.2094 150.016 35.4203C150.102 35.5219 150.595 35.5727 151.493 35.5727C151.977 35.5727 152.708 35.5609 153.684 35.5375C154.661 35.5141 155.391 35.5023 155.876 35.5023C156.032 35.5023 156.263 35.4789 156.567 35.432C156.872 35.3852 157.098 35.3617 157.247 35.3617C157.7 35.3617 158.087 35.4906 158.407 35.7484C158.774 36.0375 158.958 36.4437 158.958 36.9672C158.958 37.8422 158.501 38.3656 157.587 38.5375C156.805 38.6859 155.184 38.7602 152.723 38.7602C150.177 38.7602 148.516 38.4164 147.743 37.7289C146.891 36.9711 146.466 35.3305 146.466 32.807C146.466 31.7602 146.54 30.1898 146.688 28.0961C146.845 25.9945 146.923 24.4242 146.923 23.3852C146.923 23.1117 146.884 22.7094 146.805 22.1781C146.727 21.6391 146.688 21.2328 146.688 20.9594C146.688 19.7719 147.235 19.1781 148.329 19.1781C148.673 19.1781 148.989 19.2758 149.278 19.4711C150.184 19.2445 151.044 19.0766 151.856 18.9672C152.677 18.85 153.45 18.7914 154.177 18.7914C156.145 18.7914 157.72 19.018 158.899 19.4711C159.618 19.7445 159.977 20.2406 159.977 20.9594C159.977 21.3656 159.837 21.725 159.555 22.0375C159.243 22.3969 158.845 22.5766 158.36 22.5766ZM165.684 28.225C165.2 28.225 164.798 28.0805 164.477 27.7914C164.165 27.5023 164.009 27.1352 164.009 26.6898C164.009 26.6039 163.989 26.4711 163.95 26.2914C163.919 26.1117 163.903 25.975 163.903 25.8812C163.903 25.4437 164.067 25.0844 164.395 24.8031C164.731 24.5141 165.13 24.3695 165.591 24.3695C166.763 24.3695 167.348 25.143 167.348 26.6898C167.348 27.1352 167.188 27.5023 166.868 27.7914C166.555 28.0805 166.161 28.225 165.684 28.225ZM165.872 36.1586C164.661 36.1586 164.055 35.2445 164.055 33.4164C164.055 32.9789 164.231 32.6117 164.583 32.3148C164.919 32.0414 165.313 31.9047 165.766 31.9047C166.954 31.9047 167.548 32.807 167.548 34.6117C167.548 35.057 167.388 35.4281 167.067 35.725C166.747 36.0141 166.348 36.1586 165.872 36.1586ZM191.536 37.143C189.716 37.8227 187.415 38.1625 184.634 38.1625C184.165 38.1625 183.743 37.9672 183.368 37.5766C183.001 37.1859 182.817 36.768 182.817 36.3227V23.9008C182.794 23.3695 182.774 22.8383 182.759 22.307C182.735 21.7055 182.755 21.1977 182.817 20.7836C182.927 20.0492 183.61 19.6039 184.868 19.4477C185.462 19.2758 186.446 19.1898 187.821 19.1898C189.298 19.1898 190.712 19.6664 192.063 20.6195C193.649 21.7289 194.442 23.1156 194.442 24.7797C194.442 25.6781 194.278 26.4359 193.95 27.0531C193.692 27.5531 193.243 28.0883 192.602 28.6586C193.36 29.0258 194.032 29.5805 194.618 30.3227C195.282 31.1508 195.614 31.975 195.614 32.7953C195.614 33.8344 195.048 34.8187 193.915 35.7484C193.157 36.3656 192.364 36.8305 191.536 37.143ZM187.821 22.3656C186.813 22.3656 186.208 22.3734 186.005 22.3891L186.016 24.8734L186.005 27.3344C186.716 27.4203 187.251 27.4477 187.61 27.4164C190.001 27.2289 191.196 26.35 191.196 24.7797C191.196 24.225 190.845 23.6898 190.141 23.1742C189.415 22.6352 188.641 22.3656 187.821 22.3656ZM189.192 30.6508C188.481 30.6508 187.419 30.6234 186.005 30.5687V34.9516C187.348 34.8812 188.805 34.6234 190.376 34.1781C191.751 33.7875 192.43 33.3656 192.415 32.9125C192.391 32.3109 191.95 31.7758 191.091 31.307C190.419 30.932 189.786 30.7133 189.192 30.6508ZM209.513 37.7406C209.091 37.7406 208.704 37.5766 208.352 37.2484C205.985 35.0297 203.384 33.4906 200.548 32.6312C200.634 34.9047 200.677 36.1664 200.677 36.4164C200.677 36.8617 200.52 37.2406 200.208 37.5531C199.895 37.8578 199.505 38.0102 199.036 38.0102C198.567 38.0102 198.177 37.8578 197.864 37.5531C197.552 37.2406 197.395 36.8617 197.395 36.4164C197.395 35.8305 197.403 34.9555 197.419 33.7914C197.434 32.6195 197.442 31.7406 197.442 31.1547L197.466 21.6977C197.466 21.1898 197.618 20.7289 197.923 20.3148C198.321 19.7836 198.872 19.5453 199.575 19.6C201.473 19.7406 202.446 19.8148 202.493 19.8227C203.587 19.9555 204.516 20.2172 205.282 20.6078C208.618 22.2875 210.286 24.3695 210.286 26.8539C210.286 27.8773 209.934 28.7836 209.231 29.5727C208.536 30.3539 207.489 31.0141 206.091 31.5531C208.161 32.7094 209.72 33.8891 210.766 35.0922C211.04 35.4047 211.177 35.7523 211.177 36.1352C211.177 36.5727 211.013 36.9516 210.684 37.2719C210.356 37.5844 209.966 37.7406 209.513 37.7406ZM202.001 22.9984C201.938 22.9906 201.481 22.9594 200.63 22.9047V29.1273C200.825 29.1352 200.997 29.1391 201.145 29.1391C203.059 29.1391 204.477 28.9008 205.399 28.4242C205.798 28.2211 206.161 27.9516 206.489 27.6156C206.825 27.2797 206.993 27.0258 206.993 26.8539C206.993 25.9789 206.438 25.1352 205.329 24.3227C204.274 23.557 203.165 23.1156 202.001 22.9984ZM225.216 35.5727C224.645 36.3461 223.958 36.9906 223.153 37.5062C222.169 38.1312 221.157 38.4437 220.118 38.4437C218.126 38.4437 216.645 38.0609 215.677 37.2953C213.63 35.6781 212.606 32.8695 212.606 28.8695C212.606 28.4867 212.626 27.9164 212.665 27.1586C212.704 26.4008 212.723 25.8305 212.723 25.4477C212.723 25.143 212.731 24.6898 212.747 24.0883C212.763 23.4789 212.77 23.0219 212.77 22.7172C212.77 22.0922 212.884 21.5023 213.11 20.9477C213.415 20.2133 213.841 19.8461 214.388 19.8461C214.817 19.8461 215.196 19.9867 215.524 20.268C215.884 20.5648 216.063 20.9477 216.063 21.4164C216.063 21.8617 216.055 22.5375 216.04 23.4437C216.032 24.3422 216.028 25.018 216.028 25.4711C216.028 25.8461 216.009 26.4125 215.97 27.1703C215.93 27.9281 215.911 28.4945 215.911 28.8695C215.911 30.0805 216.052 31.2055 216.333 32.2445C216.661 33.4867 217.141 34.3539 217.774 34.8461C218.102 35.1039 218.884 35.2406 220.118 35.2562C222.18 35.2875 223.571 33.5297 224.29 29.9828C224.665 28.1469 224.852 25.5687 224.852 22.2484C224.852 21.8109 224.981 21.3891 225.239 20.9828C225.591 20.4437 226.091 20.1742 226.739 20.1742C227.27 20.1742 227.669 20.3695 227.934 20.7602C228.138 21.0492 228.239 21.3695 228.239 21.7211C228.239 24.807 228.095 27.2133 227.805 28.9398C227.368 31.6039 226.505 33.8148 225.216 35.5727ZM236.079 38.3148C234.095 38.3148 232.532 37.8734 231.391 36.9906C230.43 36.2562 229.95 35.4086 229.95 34.4477C229.95 33.9555 230.098 33.5492 230.395 33.2289C230.692 32.9008 231.102 32.7367 231.626 32.7367C232.329 32.7367 232.845 33.0961 233.173 33.8148C233.618 34.7758 234.626 35.2562 236.196 35.2562C237.54 35.2562 238.841 34.9633 240.098 34.3773C241.403 33.7758 242.055 33.1156 242.055 32.3969C242.055 31.4125 241.649 30.7641 240.837 30.4516C240.259 30.225 239.098 30.0922 237.356 30.0531C236.005 30.0219 234.794 29.768 233.723 29.2914C232.278 28.643 231.567 27.7133 231.591 26.5023C231.614 24.9789 232.427 23.5844 234.028 22.3187C235.63 21.0453 237.395 20.4086 239.325 20.4086C240.091 20.4086 241.036 20.5844 242.161 20.9359C243.559 21.3734 244.259 21.8773 244.259 22.4477C244.259 22.8539 244.118 23.2133 243.837 23.5258C243.524 23.8773 243.122 24.0531 242.63 24.0531C242.263 24.0531 241.712 23.975 240.977 23.8187C240.251 23.6625 239.7 23.5844 239.325 23.5844C238.317 23.5922 237.36 23.8344 236.454 24.3109C235.516 24.7953 235.048 25.3227 235.048 25.893C235.048 26.1898 235.188 26.4359 235.47 26.6312C235.759 26.8187 236.188 26.9516 236.759 27.0297C237.759 27.0844 238.755 27.1391 239.747 27.1937C241.481 27.3266 242.852 27.8148 243.86 28.6586C244.97 29.5961 245.524 30.893 245.524 32.5492C245.524 34.5648 244.376 36.0922 242.079 37.1312C240.329 37.9203 238.329 38.3148 236.079 38.3148ZM263.618 21.3461C263.462 21.9164 263.384 22.4125 263.384 22.8344C263.384 23.0531 263.36 23.393 263.313 23.8539C263.274 24.307 263.255 24.643 263.255 24.8617C263.255 25.6039 263.216 26.7055 263.138 28.1664C263.059 29.6273 263.02 30.7289 263.02 31.4711C263.02 32.0414 263.063 32.893 263.149 34.0258C263.235 35.1586 263.278 36.0102 263.278 36.5805C263.278 37.0102 263.126 37.3734 262.821 37.6703C262.516 37.9672 262.138 38.1156 261.684 38.1156C261.223 38.1156 260.825 37.9672 260.489 37.6703C260.153 37.3812 259.985 37.0258 259.985 36.6039C259.985 36.0336 259.958 35.1781 259.903 34.0375C259.856 32.8969 259.833 32.0414 259.833 31.4711C259.833 31.0258 259.841 30.6312 259.856 30.2875C258.63 30.3422 257.114 30.5336 255.309 30.8617C253.809 31.1352 252.309 31.4125 250.809 31.6937C250.794 32.225 250.739 33.1117 250.645 34.3539C250.567 35.4477 250.528 36.3422 250.528 37.0375C250.528 37.4672 250.376 37.8305 250.071 38.1273C249.766 38.4242 249.388 38.5727 248.934 38.5727C248.481 38.5727 248.102 38.4242 247.798 38.1273C247.493 37.8305 247.341 37.4672 247.341 37.0375C247.341 36.2484 247.407 35.0687 247.54 33.4984C247.68 31.9281 247.751 30.7484 247.751 29.9594C247.751 28.9594 247.774 27.4555 247.821 25.4477C247.868 23.432 247.891 21.9242 247.891 20.9242C247.891 20.4945 248.044 20.1312 248.348 19.8344C248.653 19.5375 249.032 19.3891 249.485 19.3891C249.938 19.3891 250.317 19.5375 250.622 19.8344C250.927 20.1312 251.079 20.4945 251.079 20.9242C251.079 21.518 251.055 22.4125 251.009 23.6078C250.97 24.7953 250.95 25.6859 250.95 26.2797C250.95 26.475 250.923 26.85 250.868 27.4047C250.821 27.9203 250.802 28.3148 250.809 28.5883L255.309 27.7445C257.067 27.432 258.583 27.2523 259.856 27.2055C259.888 26.682 259.938 25.2758 260.009 22.9867C260.024 22.3852 260.208 21.6937 260.559 20.9125C260.997 19.9516 261.493 19.4711 262.048 19.4711C262.462 19.4711 262.829 19.6078 263.149 19.8812C263.493 20.1781 263.665 20.5492 263.665 20.9945C263.665 21.1117 263.649 21.2289 263.618 21.3461ZM289.024 23.1391C288.626 23.9594 287.825 25.7328 286.622 28.4594C285.622 30.7406 284.77 32.5297 284.067 33.8266C282.848 36.0766 282.196 37.268 282.11 37.4008C281.649 38.0805 281.118 38.4203 280.516 38.4203C280.087 38.4203 279.708 38.2797 279.38 37.9984C279.02 37.6859 278.841 37.2992 278.841 36.8383C278.841 36.4555 279.657 34.8461 281.29 32.0102C280.688 31.143 279.825 29.8266 278.7 28.0609C277.856 26.7641 276.618 24.807 274.985 22.1898C274.829 21.9242 274.751 21.6469 274.751 21.3578C274.751 20.9047 274.927 20.5219 275.278 20.2094C275.606 19.9203 275.989 19.7758 276.427 19.7758C276.942 19.7758 277.411 20.0375 277.833 20.5609L278.712 21.9672C278.766 22.0609 279.438 23.2016 280.727 25.3891C281.54 26.7875 282.259 27.893 282.884 28.7055C283.477 27.5102 284.333 25.7016 285.45 23.2797C285.684 22.7406 286.036 21.9242 286.505 20.8305C286.802 20.1273 287.309 19.7758 288.028 19.7758C288.458 19.7758 288.837 19.9164 289.165 20.1977C289.524 20.5023 289.704 20.8852 289.704 21.3461C289.704 21.6117 289.477 22.2094 289.024 23.1391ZM299.348 38.3148C297.036 38.3148 295.067 37.6508 293.442 36.3227C291.708 34.9008 290.841 33.0609 290.841 30.8031C290.841 28.1469 291.673 25.725 293.337 23.5375C295.204 21.0766 297.555 19.8461 300.391 19.8461C303.118 19.8461 305.161 20.4711 306.52 21.7211C307.88 22.9711 308.559 24.85 308.559 27.3578C308.559 30.0141 307.794 32.4203 306.263 34.5766C304.497 37.0687 302.192 38.3148 299.348 38.3148ZM300.391 23.0219C298.649 23.0219 297.157 23.8656 295.915 25.5531C294.751 27.1312 294.169 28.8812 294.169 30.8031C294.169 32.1 294.673 33.1547 295.68 33.9672C296.649 34.7484 297.872 35.1391 299.348 35.1391C301.067 35.1391 302.501 34.2953 303.649 32.6078C304.704 31.0687 305.231 29.3187 305.231 27.3578C305.231 25.7172 304.864 24.5766 304.13 23.9359C303.427 23.3266 302.18 23.0219 300.391 23.0219ZM322.833 35.5727C322.263 36.3461 321.575 36.9906 320.77 37.5062C319.786 38.1312 318.774 38.4437 317.735 38.4437C315.743 38.4437 314.263 38.0609 313.294 37.2953C311.247 35.6781 310.223 32.8695 310.223 28.8695C310.223 28.4867 310.243 27.9164 310.282 27.1586C310.321 26.4008 310.341 25.8305 310.341 25.4477C310.341 25.143 310.348 24.6898 310.364 24.0883C310.38 23.4789 310.388 23.0219 310.388 22.7172C310.388 22.0922 310.501 21.5023 310.727 20.9477C311.032 20.2133 311.458 19.8461 312.005 19.8461C312.434 19.8461 312.813 19.9867 313.141 20.268C313.501 20.5648 313.68 20.9477 313.68 21.4164C313.68 21.8617 313.673 22.5375 313.657 23.4437C313.649 24.3422 313.645 25.018 313.645 25.4711C313.645 25.8461 313.626 26.4125 313.587 27.1703C313.548 27.9281 313.528 28.4945 313.528 28.8695C313.528 30.0805 313.669 31.2055 313.95 32.2445C314.278 33.4867 314.759 34.3539 315.391 34.8461C315.72 35.1039 316.501 35.2406 317.735 35.2562C319.798 35.2875 321.188 33.5297 321.907 29.9828C322.282 28.1469 322.47 25.5687 322.47 22.2484C322.47 21.8109 322.598 21.3891 322.856 20.9828C323.208 20.4437 323.708 20.1742 324.356 20.1742C324.888 20.1742 325.286 20.3695 325.552 20.7602C325.755 21.0492 325.856 21.3695 325.856 21.7211C325.856 24.807 325.712 27.2133 325.423 28.9398C324.985 31.6039 324.122 33.8148 322.833 35.5727ZM340.2 37.7406C339.778 37.7406 339.391 37.5766 339.04 37.2484C336.673 35.0297 334.071 33.4906 331.235 32.6312C331.321 34.9047 331.364 36.1664 331.364 36.4164C331.364 36.8617 331.208 37.2406 330.895 37.5531C330.583 37.8578 330.192 38.0102 329.723 38.0102C329.255 38.0102 328.864 37.8578 328.552 37.5531C328.239 37.2406 328.083 36.8617 328.083 36.4164C328.083 35.8305 328.091 34.9555 328.106 33.7914C328.122 32.6195 328.13 31.7406 328.13 31.1547L328.153 21.6977C328.153 21.1898 328.305 20.7289 328.61 20.3148C329.009 19.7836 329.559 19.5453 330.263 19.6C332.161 19.7406 333.134 19.8148 333.18 19.8227C334.274 19.9555 335.204 20.2172 335.97 20.6078C339.305 22.2875 340.973 24.3695 340.973 26.8539C340.973 27.8773 340.622 28.7836 339.919 29.5727C339.223 30.3539 338.177 31.0141 336.778 31.5531C338.848 32.7094 340.407 33.8891 341.454 35.0922C341.727 35.4047 341.864 35.7523 341.864 36.1352C341.864 36.5727 341.7 36.9516 341.372 37.2719C341.044 37.5844 340.653 37.7406 340.2 37.7406ZM332.688 22.9984C332.626 22.9906 332.169 22.9594 331.317 22.9047V29.1273C331.513 29.1352 331.684 29.1391 331.833 29.1391C333.747 29.1391 335.165 28.9008 336.087 28.4242C336.485 28.2211 336.848 27.9516 337.177 27.6156C337.513 27.2797 337.68 27.0258 337.68 26.8539C337.68 25.9789 337.126 25.1352 336.016 24.3227C334.962 23.557 333.852 23.1156 332.688 22.9984ZM367.973 23.5492C367.364 23.5492 366.415 23.5062 365.126 23.4203C363.884 23.3344 362.934 23.2953 362.278 23.3031C362.309 24.1937 362.415 25.7797 362.595 28.0609C362.759 30.0766 362.841 31.6703 362.841 32.8422C362.841 33.1078 362.868 33.5023 362.923 34.0258C362.977 34.5492 363.005 34.9437 363.005 35.2094C363.005 35.7953 362.88 36.3227 362.63 36.7914C362.309 37.393 361.852 37.6937 361.259 37.6937C360.829 37.6937 360.45 37.557 360.122 37.2836C359.755 36.9789 359.571 36.5961 359.571 36.1352C359.571 36.0258 359.591 35.8617 359.63 35.643C359.669 35.4164 359.688 35.2445 359.688 35.1273C359.688 34.768 359.661 34.225 359.606 33.4984C359.559 32.7719 359.536 32.225 359.536 31.8578C359.536 30.8109 359.454 29.393 359.29 27.6039C359.102 25.5492 358.993 24.1312 358.962 23.35H358.352C356.61 23.35 355.227 23.225 354.204 22.975C353.337 22.7641 352.903 22.2523 352.903 21.4398C352.903 21.0414 353.044 20.682 353.325 20.3617C353.653 19.9789 354.083 19.807 354.614 19.8461C354.888 19.8617 355.509 19.9281 356.477 20.0453C357.251 20.1312 357.876 20.1742 358.352 20.1742C358.829 20.1742 359.54 20.1664 360.485 20.1508C361.438 20.1352 362.153 20.1273 362.63 20.1273C363.223 20.1273 364.114 20.1703 365.302 20.2562C366.489 20.3344 367.38 20.3734 367.973 20.3734C368.442 20.3734 368.833 20.5258 369.145 20.8305C369.466 21.1352 369.626 21.5102 369.626 21.9555C369.626 22.4008 369.466 22.7797 369.145 23.0922C368.833 23.3969 368.442 23.5492 367.973 23.5492ZM382.493 22.5766C382.337 22.5766 382.173 22.5531 382.001 22.5062C380.735 22.1625 379.505 21.9906 378.309 21.9906C377.723 21.9906 377.095 22.0375 376.423 22.1312C375.751 22.225 375.036 22.3656 374.278 22.5531C374.278 23.5922 374.243 25.1352 374.173 27.182C374.61 27.1508 376.138 27.0062 378.755 26.7484C380.247 26.6 381.192 26.5258 381.591 26.5258C382.052 26.5258 382.446 26.6742 382.774 26.9711C383.102 27.2602 383.266 27.6469 383.266 28.1312C383.266 29.0609 382.77 29.5883 381.778 29.7133C381.153 29.7602 380.22 29.8383 378.977 29.9477C377.868 30.0727 376.196 30.225 373.962 30.4047C373.907 31.3969 373.88 32.1977 373.88 32.807C373.88 34.3383 373.97 35.2094 374.149 35.4203C374.235 35.5219 374.727 35.5727 375.626 35.5727C376.11 35.5727 376.841 35.5609 377.817 35.5375C378.794 35.5141 379.524 35.5023 380.009 35.5023C380.165 35.5023 380.395 35.4789 380.7 35.432C381.005 35.3852 381.231 35.3617 381.38 35.3617C381.833 35.3617 382.22 35.4906 382.54 35.7484C382.907 36.0375 383.091 36.4437 383.091 36.9672C383.091 37.8422 382.634 38.3656 381.72 38.5375C380.938 38.6859 379.317 38.7602 376.856 38.7602C374.309 38.7602 372.649 38.4164 371.876 37.7289C371.024 36.9711 370.598 35.3305 370.598 32.807C370.598 31.7602 370.673 30.1898 370.821 28.0961C370.977 25.9945 371.055 24.4242 371.055 23.3852C371.055 23.1117 371.016 22.7094 370.938 22.1781C370.86 21.6391 370.821 21.2328 370.821 20.9594C370.821 19.7719 371.368 19.1781 372.462 19.1781C372.805 19.1781 373.122 19.2758 373.411 19.4711C374.317 19.2445 375.177 19.0766 375.989 18.9672C376.809 18.85 377.583 18.7914 378.309 18.7914C380.278 18.7914 381.852 19.018 383.032 19.4711C383.751 19.7445 384.11 20.2406 384.11 20.9594C384.11 21.3656 383.97 21.725 383.688 22.0375C383.376 22.3969 382.977 22.5766 382.493 22.5766ZM397.493 22.5766C397.337 22.5766 397.173 22.5531 397.001 22.5062C395.735 22.1625 394.505 21.9906 393.309 21.9906C392.723 21.9906 392.095 22.0375 391.423 22.1312C390.751 22.225 390.036 22.3656 389.278 22.5531C389.278 23.5922 389.243 25.1352 389.173 27.182C389.61 27.1508 391.138 27.0062 393.755 26.7484C395.247 26.6 396.192 26.5258 396.591 26.5258C397.052 26.5258 397.446 26.6742 397.774 26.9711C398.102 27.2602 398.266 27.6469 398.266 28.1312C398.266 29.0609 397.77 29.5883 396.778 29.7133C396.153 29.7602 395.22 29.8383 393.977 29.9477C392.868 30.0727 391.196 30.225 388.962 30.4047C388.907 31.3969 388.88 32.1977 388.88 32.807C388.88 34.3383 388.97 35.2094 389.149 35.4203C389.235 35.5219 389.727 35.5727 390.626 35.5727C391.11 35.5727 391.841 35.5609 392.817 35.5375C393.794 35.5141 394.524 35.5023 395.009 35.5023C395.165 35.5023 395.395 35.4789 395.7 35.432C396.005 35.3852 396.231 35.3617 396.38 35.3617C396.833 35.3617 397.22 35.4906 397.54 35.7484C397.907 36.0375 398.091 36.4437 398.091 36.9672C398.091 37.8422 397.634 38.3656 396.72 38.5375C395.938 38.6859 394.317 38.7602 391.856 38.7602C389.309 38.7602 387.649 38.4164 386.876 37.7289C386.024 36.9711 385.598 35.3305 385.598 32.807C385.598 31.7602 385.673 30.1898 385.821 28.0961C385.977 25.9945 386.055 24.4242 386.055 23.3852C386.055 23.1117 386.016 22.7094 385.938 22.1781C385.86 21.6391 385.821 21.2328 385.821 20.9594C385.821 19.7719 386.368 19.1781 387.462 19.1781C387.805 19.1781 388.122 19.2758 388.411 19.4711C389.317 19.2445 390.177 19.0766 390.989 18.9672C391.809 18.85 392.583 18.7914 393.309 18.7914C395.278 18.7914 396.852 19.018 398.032 19.4711C398.751 19.7445 399.11 20.2406 399.11 20.9594C399.11 21.3656 398.97 21.725 398.688 22.0375C398.376 22.3969 397.977 22.5766 397.493 22.5766ZM414.684 23.5492C414.075 23.5492 413.126 23.5062 411.837 23.4203C410.595 23.3344 409.645 23.2953 408.989 23.3031C409.02 24.1937 409.126 25.7797 409.305 28.0609C409.47 30.0766 409.552 31.6703 409.552 32.8422C409.552 33.1078 409.579 33.5023 409.634 34.0258C409.688 34.5492 409.716 34.9437 409.716 35.2094C409.716 35.7953 409.591 36.3227 409.341 36.7914C409.02 37.393 408.563 37.6937 407.97 37.6937C407.54 37.6937 407.161 37.557 406.833 37.2836C406.466 36.9789 406.282 36.5961 406.282 36.1352C406.282 36.0258 406.302 35.8617 406.341 35.643C406.38 35.4164 406.399 35.2445 406.399 35.1273C406.399 34.768 406.372 34.225 406.317 33.4984C406.27 32.7719 406.247 32.225 406.247 31.8578C406.247 30.8109 406.165 29.393 406.001 27.6039C405.813 25.5492 405.704 24.1312 405.673 23.35H405.063C403.321 23.35 401.938 23.225 400.915 22.975C400.048 22.7641 399.614 22.2523 399.614 21.4398C399.614 21.0414 399.755 20.682 400.036 20.3617C400.364 19.9789 400.794 19.807 401.325 19.8461C401.598 19.8617 402.22 19.9281 403.188 20.0453C403.962 20.1312 404.587 20.1742 405.063 20.1742C405.54 20.1742 406.251 20.1664 407.196 20.1508C408.149 20.1352 408.864 20.1273 409.341 20.1273C409.934 20.1273 410.825 20.1703 412.013 20.2562C413.2 20.3344 414.091 20.3734 414.684 20.3734C415.153 20.3734 415.544 20.5258 415.856 20.8305C416.177 21.1352 416.337 21.5102 416.337 21.9555C416.337 22.4008 416.177 22.7797 415.856 23.0922C415.544 23.3969 415.153 23.5492 414.684 23.5492ZM433.798 21.3461C433.641 21.9164 433.563 22.4125 433.563 22.8344C433.563 23.0531 433.54 23.393 433.493 23.8539C433.454 24.307 433.434 24.643 433.434 24.8617C433.434 25.6039 433.395 26.7055 433.317 28.1664C433.239 29.6273 433.2 30.7289 433.2 31.4711C433.2 32.0414 433.243 32.893 433.329 34.0258C433.415 35.1586 433.458 36.0102 433.458 36.5805C433.458 37.0102 433.305 37.3734 433.001 37.6703C432.696 37.9672 432.317 38.1156 431.864 38.1156C431.403 38.1156 431.005 37.9672 430.669 37.6703C430.333 37.3812 430.165 37.0258 430.165 36.6039C430.165 36.0336 430.138 35.1781 430.083 34.0375C430.036 32.8969 430.013 32.0414 430.013 31.4711C430.013 31.0258 430.02 30.6312 430.036 30.2875C428.809 30.3422 427.294 30.5336 425.489 30.8617C423.989 31.1352 422.489 31.4125 420.989 31.6937C420.973 32.225 420.919 33.1117 420.825 34.3539C420.747 35.4477 420.708 36.3422 420.708 37.0375C420.708 37.4672 420.555 37.8305 420.251 38.1273C419.946 38.4242 419.567 38.5727 419.114 38.5727C418.661 38.5727 418.282 38.4242 417.977 38.1273C417.673 37.8305 417.52 37.4672 417.52 37.0375C417.52 36.2484 417.587 35.0687 417.72 33.4984C417.86 31.9281 417.93 30.7484 417.93 29.9594C417.93 28.9594 417.954 27.4555 418.001 25.4477C418.048 23.432 418.071 21.9242 418.071 20.9242C418.071 20.4945 418.223 20.1312 418.528 19.8344C418.833 19.5375 419.212 19.3891 419.665 19.3891C420.118 19.3891 420.497 19.5375 420.802 19.8344C421.106 20.1312 421.259 20.4945 421.259 20.9242C421.259 21.518 421.235 22.4125 421.188 23.6078C421.149 24.7953 421.13 25.6859 421.13 26.2797C421.13 26.475 421.102 26.85 421.048 27.4047C421.001 27.9203 420.981 28.3148 420.989 28.5883L425.489 27.7445C427.247 27.432 428.763 27.2523 430.036 27.2055C430.067 26.682 430.118 25.2758 430.188 22.9867C430.204 22.3852 430.388 21.6937 430.739 20.9125C431.177 19.9516 431.673 19.4711 432.227 19.4711C432.641 19.4711 433.009 19.6078 433.329 19.8812C433.673 20.1781 433.845 20.5492 433.845 20.9945C433.845 21.1117 433.829 21.2289 433.798 21.3461Z" fill="#353535"/>
</g>
<defs>
<filter id="filter0_bd_502_22" x="-4.8" y="-4.8" width="464" height="67.2" filterUnits="userSpaceOnUse" color-interpolation-filters="sRGB">
<feFlood flood-opacity="0" result="BackgroundImageFix"/>
<feGaussianBlur in="BackgroundImageFix" stdDeviation="2.4"/>
<feComposite in2="SourceAlpha" operator="in" result="effect1_backgroundBlur_502_22"/>
<feColorMatrix in="SourceAlpha" type="matrix" values="0 0 0 0 0 0 0 0 0 0 0 0 0 0 0 0 0 0 127 0" result="hardAlpha"/>
<feOffset dx="4.8" dy="7.2"/>
<feComposite in2="hardAlpha" operator="out"/>
<feColorMatrix type="matrix" values="0 0 0 0 0 0 0 0 0 0 0 0 0 0 0 0 0 0 1 0"/>
<feBlend mode="normal" in2="effect1_backgroundBlur_502_22" result="effect2_dropShadow_502_22"/>
<feBlend mode="normal" in="SourceGraphic" in2="effect2_dropShadow_502_22" result="shape"/>
</filter>
</defs>
</svg>
