<svg width="878" height="1129" viewBox="0 0 878 1129" fill="none" xmlns="http://www.w3.org/2000/svg">
<path d="M248.89 908.36C248.96 908.51 252.07 909.49 250.36 911.3C248.36 909.96 249.01 908.47 248.89 908.36C243.66 903.82 242.08 900.5 241.54 900.52C235.75 900.76 249.98 913.12 248.89 914.73C234.83 898.19 241.21 922.72 231.25 902.48C229.93 901.2 226.3 899.62 230.27 899.54C229.95 899.28 230.85 896.25 229.78 895.62C223.85 895.78 218.57 896.15 212.63 895.62C206.91 895.11 185.55 892.12 183.72 892.68C176.65 894.83 183.91 901.52 179.8 903.46C170.32 904.18 161.88 900.36 156.28 909.34C202.58 912.88 248.75 919.86 294.93 924.04C296.07 917.95 306.28 924.7 297.38 913.26C302.04 926.82 295.87 917.26 291.5 908.36C288.63 908.45 296.68 925.54 287.58 915.22C272.22 930.56 291.3 910.14 284.64 910.32C284.22 910.33 280.9 916.49 279.74 917.18C271.8 914.7 271.85 925.16 277.29 908.85C276.7 907.85 271.87 911.9 271.41 912.28C270.56 912.98 270.81 915.63 268.96 915.22C267.35 912.29 271.3 912.43 271.41 912.28C276.16 905.83 276.93 906.15 269.45 896.11C268.84 899.45 271.44 901.68 271.41 901.99C269.71 917.04 266.04 903.51 265.53 902.97C258.99 896.04 268.52 911.48 265.04 914.24C261.87 910.72 257.74 907.48 255.73 902.97C255.41 902.24 255.72 887.6 249.85 894.15C261.51 904.86 246.75 894.35 246.91 897.09L258.18 913.26C256.13 911.01 242.41 892.16 240.05 896.11C243.75 901.4 245.88 901.95 248.87 908.36H248.89Z" fill="#556266"/>
<path d="M659.47 890.72C663.79 896.1 667.81 902.34 671.23 908.36C687.15 905.31 703.28 903.82 719.24 901.01C702.31 888.77 679.46 891.04 659.47 890.72Z" fill="#6F7E7E"/>
<path d="M514.44 566.37C514.39 566.41 514.44 566.63 513.46 567.35C517.31 569.79 514.01 572.04 511.5 574.21C510.4 575.16 510.62 575.51 509.54 576.17C509.28 576.33 508.29 575.88 503.66 578.13C503.42 578.25 502.58 577.92 502.68 579.11C514.17 578.15 519.23 573.34 522.28 560.98C526.14 545.34 521.66 491.89 530.12 460.54L528.16 458.58C526.56 475.93 522.65 493.48 521.3 511C520.27 524.34 523.71 554.86 518.36 564.89C516.47 568.43 514.6 566.23 514.44 566.36V566.37Z" fill="#11110F"/>
<path d="M373.34 899.54H374.32C368.95 884.26 376.07 896.39 383.63 902.48C395.3 911.88 408.32 919.47 417.44 931.88C425.91 931.81 434.96 929.88 443.41 928.94C465.82 932.78 488.12 927.39 502.2 926.98C543.51 925.78 534.23 938.43 589.9 927.96C589.14 923.99 587.39 921.33 585 918.16C580.69 916.3 570.24 907.75 575.2 908.36C569.75 904.19 569.64 905.64 569.32 905.42C581.68 925.8 560.84 897.87 561.48 904.93C583.26 934.3 561.05 904.06 553.15 897.58C550.06 895.05 530.73 884.55 526.69 882.88C526.24 882.69 528.13 887.1 519.83 879.94L538.94 901.01C556.08 927.47 545.93 911.24 535.02 899.05C507.88 868.71 503.59 874.62 479.66 865.24C477.92 864.56 458.46 852.86 459.57 856.91C470.78 862.13 458.28 859.13 456.14 857.4C455.27 856.7 456.35 851.5 452.22 851.52C449.52 851.53 452.93 854.44 451.24 854.46C450.57 854.46 443.58 846.32 439.97 849.56C440.43 850.07 441.87 854.5 447.81 860.83C447.9 860.92 445.82 862.03 447.32 863.28C452.15 867.3 464.76 868.98 465.45 869.65C473.97 877.93 451.89 866.77 450.26 866.22C450.14 866.18 449.53 867.55 448.3 867.2C447.98 867.11 443.3 860.12 444.87 866.71C445.33 868.66 464 877.26 466.43 879.45C444.49 871.43 454.34 878.85 468.39 885.33L452.22 880.92C460.2 892.45 440.25 874.42 438.5 870.14C418.54 860.04 440.24 873.38 453.2 893.66L469.37 901.01L467.9 902.48L453.69 896.11C456.77 903.09 471.63 907.11 465.94 907.38C457.53 907.78 444.33 883.81 438.99 877.49C435.76 873.67 431.28 868.69 427.72 865.24C425.18 862.78 413.13 858.66 425.76 860.34C427.11 865.32 432.56 863.24 436.54 869.16C440.73 868.24 429.43 862.27 429.19 861.81C425.73 855.11 438.7 868.93 440.95 865.73C435.23 859.33 419.25 850.26 415.47 843.68C408.27 839.1 403.71 841.55 396.85 839.27C401.98 845.79 391.19 835.65 385.58 833.88C375.5 830.7 357.4 833.19 364.51 829.96C364.4 826.88 367.18 829.75 368.43 824.08L347.36 817.22C370.13 833.09 332.26 812.19 325.31 810.85L325.8 809.38C335.13 809.31 380.46 829.34 356.18 815.26C318.3 805.07 344.32 805.98 361.57 816.24C364.02 811.79 367.96 810 365.49 804.48C355.85 800.87 346.04 797.36 337.56 791.74C334.52 792.63 330.72 792.78 327.76 791.74C314.16 786.95 339.48 792.02 330.21 788.8L320.41 784.88C319.76 785.01 318.38 782.81 316.49 784.39C327.49 791.06 311.5 783.26 294.44 782.92V784.88C316.47 795.07 296.3 787.23 285.62 783.9C287.51 786.94 300.4 789.91 301.3 790.76C304.16 793.46 283.69 791.71 275.82 784.88C270.16 787.09 290.74 792.19 291.5 792.72C298.9 797.89 284.96 791.62 284.15 793.21C293.04 799.42 273.84 790.17 274.35 794.19C292.87 809.76 302.98 814.98 327.26 819.67C326.94 832.41 311.62 865.64 316.48 875.52C319.37 881.39 343.12 879.28 360.08 886.79C366.13 889.4 369.26 894.83 373.31 899.53L373.34 899.54Z" fill="#6F7E7E"/>
<path d="M416.45 840.74C418.92 846.2 424.17 843.85 428.21 844.66C432.11 845.44 432.2 844.81 437.03 847.6C438.8 848.63 437.81 847.17 439.97 849.56C443.57 846.32 450.57 854.47 451.24 854.46C452.93 854.44 449.52 851.53 452.22 851.52C456.35 851.5 455.27 856.7 456.14 857.4C458.28 859.13 470.78 862.13 459.57 856.91C458.46 852.86 477.92 864.56 479.66 865.24C503.6 874.62 507.88 868.71 535.02 899.05C545.93 911.24 556.08 927.47 538.94 901.01L519.83 879.94C528.13 887.1 526.23 882.69 526.69 882.88C530.73 884.55 550.06 895.05 553.15 897.58C561.05 904.05 583.26 934.3 561.48 904.93C560.84 897.87 581.68 925.8 569.32 905.42C526.47 875.67 489.44 867.42 443.4 845.65C434.83 843.13 424.94 842.93 416.45 840.75V840.74Z" fill="#1D201E"/>
<path d="M368.44 824.09C369.17 820.8 365.05 818.31 361.58 816.25C344.34 805.99 318.31 805.08 356.19 815.27C380.47 829.35 335.14 809.32 325.81 809.39L325.32 810.86C332.26 812.2 370.14 833.1 347.37 817.23L368.44 824.09Z" fill="#454D50"/>
<path d="M364.52 829.96C357.4 833.19 375.51 830.7 385.59 833.88C391.2 835.65 401.99 845.79 396.86 839.27C403.72 841.55 408.27 839.09 415.48 843.68C415.38 843.5 414.73 840.3 414.5 839.76C398.12 835.69 381.54 829.42 364.53 829.96H364.52Z" fill="#1D201E"/>
<path d="M425.76 869.16C423.78 868.79 424.71 870.45 425.27 871.61C426.03 873.18 443.8 892.69 446.83 899.05L456.14 907.38C445.4 894.71 436.44 881.27 425.76 869.16Z" fill="#343B3C"/>
<path d="M533.55 891.7L557.07 921.1C560.36 919.31 536.72 894.1 533.55 891.7Z" fill="#343B3C"/>
<path d="M414 864.26L434.58 894.64C432.51 885.62 420.28 872.52 414 864.26Z" fill="#343B3C"/>
<path d="M540.41 892.68L561.97 917.18C557.69 906.93 548.37 899.92 540.41 892.68Z" fill="#343B3C"/>
<path d="M401.26 862.3C397.38 862.52 404.9 866.91 410.08 872.1C433.48 895.52 413.07 871.25 401.26 862.3Z" fill="#343B3C"/>
<path d="M456.14 858.38C449.89 858.83 471.76 868.34 471.33 865.73C469.16 864.68 456.98 858.32 456.14 858.38Z" fill="#1D201E"/>
<path d="M456.14 888.76C450.36 889.74 469 895.52 469.37 894.15C467.81 892.67 456.85 888.64 456.14 888.76Z" fill="#35352F"/>
<path d="M417.92 851.52C415.99 851.13 416.86 853.28 417.43 853.97C421.74 859.13 421.1 852.16 417.92 851.52Z" fill="#1D201E"/>
<path d="M404.2 844.66C401.8 844.71 402.92 845.2 404.2 846.62C407.56 850.36 409.12 848.66 404.2 844.66Z" fill="#1D201E"/>
<path d="M406.16 842.7C405.55 842.61 404.87 842.59 404.69 843.19C403.86 846 410.61 843.32 406.16 842.7Z" fill="#1D201E"/>
<path d="M445.85 818.21C446.09 818.53 447.06 823.39 450.75 824.58C442.36 828.43 448.67 821.37 438.01 815.27C443.18 822.03 444.62 829.43 453.69 833.4C454.16 837.8 437.13 826.19 425.76 822.13C413.59 817.79 401.42 814.85 388.52 814.29C380.75 811.01 373.38 807.44 365.49 804.49C367.96 810.01 364.02 811.8 361.57 816.25C365.04 818.31 369.16 820.8 368.43 824.09C367.18 829.75 364.4 826.89 364.51 829.97C381.52 829.42 398.1 835.7 414.48 839.77C417.19 840.44 416.33 840.72 416.44 840.75C424.92 842.93 434.82 843.13 443.39 845.65C489.43 867.42 526.45 875.68 569.31 905.42C569.62 905.64 569.74 904.19 575.19 908.36C578.83 911.15 582.19 914.45 584.99 918.16C587.38 921.33 589.13 923.99 589.89 927.96C608.08 924.54 625.79 918.12 643.78 914.24C625.64 910.22 603.01 883.17 633.49 908.36C639.17 909.72 643.43 910.71 648.68 913.26C651.41 912.67 650.53 912.3 650.64 912.28L637.9 903.95C640.2 903.66 643.59 902.67 645.74 902.48C645.94 902.46 647.59 900.21 649.17 900.52C649.56 900.6 652.14 903.86 655.54 905.42C655.79 905.53 660.97 902.78 656.52 906.4C656.28 911.26 653.75 903.48 650.64 904.93L656.52 911.3V912.28C660.78 911.39 664.96 910.18 669.26 909.34C655.49 887.14 626.29 866.21 624.19 863.78C619.64 858.52 614.74 844.16 612.43 841.24C604.03 830.63 582.56 834.47 569.8 831.93C543.88 826.78 520.61 792.04 497.29 795.67C496.98 795.72 495.29 797.3 496.31 797.63L511.01 800.57V802.53H508.07C502.26 801.94 489.47 794.34 488.47 794.69C485.93 795.57 482.93 803.33 497.78 806.94C474.65 803.06 489.03 805.76 500.72 810.86L490.43 808.41L500.23 813.31C488.81 815.38 482.09 800.48 486.51 813.31C504.27 816.49 487.38 815.03 487 815.76C477.65 833.77 527.63 839.6 490.43 826.05C486.14 820.78 514.25 833.35 506.11 835.85C504.22 836.43 492.4 830.91 490.43 830.95C486.33 831.04 468.2 849.18 454.17 821.15L452.7 822.62L460.54 833.4C459.28 837.45 455.33 826.35 445.84 818.21H445.85Z" fill="#8D8B82"/>
<path d="M643.79 914.23C645.4 913.88 647.04 913.61 648.69 913.25C643.44 910.7 639.18 909.71 633.5 908.35C603.02 883.16 625.65 910.21 643.79 914.23Z" fill="#1D201E"/>
<path d="M650.65 912.27C650.94 912.21 652.03 913.21 656.53 912.27V911.29L645.75 902.47C643.61 902.66 640.21 903.65 637.91 903.94L650.65 912.27Z" fill="#78756F"/>
<path d="M584.99 918.15C582.19 914.44 578.83 911.14 575.19 908.35C570.23 907.74 580.68 916.29 584.99 918.15Z" fill="#1D201E"/>
<path d="M578.13 851.52C576.75 849.93 574.92 849 575.68 848.58C593.79 846.7 581.82 845.69 582.54 844.66C583.61 843.11 596.77 842.12 599.69 840.25C599.04 836.06 565.26 848.18 562.45 850.05C581.04 875.94 595.87 880.27 565.39 852.01C573.44 855.08 567.92 850.76 569.8 850.54C571.36 850.36 596.75 871.75 571.27 850.05C573.36 850.1 576.21 850.86 578.13 851.52Z" fill="#1D201E"/>
<path d="M512.97 829.96C496.31 827.72 547.16 849.24 555.6 846.13C548.73 844.52 515.23 830.27 512.97 829.96Z" fill="#11110F"/>
<path d="M578.13 851.52C579.71 853.34 599.32 870.06 603.61 872.59C595.45 865.28 588.91 855.21 578.13 851.52Z" fill="#1D201E"/>
<path d="M597.24 861.32C598.48 864.28 608.56 873.31 610.96 875.04C625.89 885.81 612.76 872.77 597.24 861.32Z" fill="#44453C"/>
<path d="M645.75 902.48L656.53 911.3L650.65 904.93C653.76 903.48 656.29 911.26 656.53 906.4L655.55 905.42C652.15 903.86 649.58 900.6 649.18 900.52C647.6 900.21 645.95 902.46 645.75 902.48Z" fill="#5D5B54"/>
<path d="M582.54 848.58C581.98 848.55 581.32 848.4 581.07 849.07C605.71 865.32 589.55 848.92 582.54 848.58Z" fill="#35352F"/>
<path d="M586.46 862.3C584.53 862.05 585.26 863.28 585.97 864.75C588.12 869.2 596.54 870.64 586.46 862.3Z" fill="#1D201E"/>
<path d="M477.7 843.68C476.54 843.64 475.89 843.86 476.23 845.15C477.47 849.8 486.5 844.01 477.7 843.68Z" fill="#35352F"/>
<path d="M656.53 906.4L655.55 905.42C655.8 905.53 660.98 902.78 656.53 906.4Z" fill="#11110F"/>
<path d="M318.46 925.99C350.02 928.7 381.66 932.7 413.51 931.87L403.22 920.11L406.65 928.44C405.36 931.28 385.44 898.18 397.83 923.54C393.92 928.28 390.59 928.14 395.87 922.56C393.14 919.61 390.45 911.36 388.03 908.84C376.9 897.26 391.62 918.61 391.95 919.62C397.07 935.23 378.21 895.68 374.31 899.53H373.33C376.41 903.1 388.08 919.11 388.03 920.6C388.02 920.91 384.84 923.98 384.6 924.03C383.78 924.19 382.63 904.86 381.17 920.6C378.24 928.46 380.38 915.68 373.82 906.39C368.87 905.87 381.09 916.72 371.86 923.05C370.83 914.84 364.8 900.95 368.43 919.62C367.33 921.4 363.32 903.07 361.57 911.78C361.46 912.35 364.49 915.46 364.51 915.7C365.11 924.86 359.95 912.33 355.2 923.05C361.16 912.18 348.76 902.87 354.22 917.17L348.83 915.7C355.08 912.01 337.07 887.43 335.11 891.2C349.2 906.77 347.23 924.45 343.44 907.37C334.59 919.37 340.96 912.83 334.13 901C333.15 899.3 323.73 887.04 322.86 886.79C316.44 884.93 330.68 899.66 336.09 910.8C335.03 913.58 316 879.94 317.47 892.18C317.58 893.12 328.65 903.38 327.27 907.86C325.62 910.46 316.54 883.43 316 901.49C316.32 892.95 290.05 879.01 300.32 882.87C302.92 883.85 306.17 890.08 308.65 886.3C280.48 857.59 301.97 879.32 304.24 879.93C304.91 880.11 306.29 880.13 306.69 879.44C299.21 867.14 307.28 878.47 313.06 881.89C317.17 879.09 302.79 872.66 312.08 875.03C312.79 874.55 312.72 873.32 312.57 872.58C311.92 869.39 254.69 829.35 312.08 870.13C318.11 866.06 284.11 838.18 312.08 861.31L313.55 859.84L282.19 835.34C286.09 831.09 286.97 832.67 292.97 837.79C290.49 834.5 288.14 830.86 285.13 827.99C284.73 827.73 280.5 826.68 277.29 822.6C279.08 821.28 282.94 825.9 285.13 827.99C308.33 843.11 276.31 818.76 281.7 816.23L297.38 827.99C301.34 823.04 283.47 818.2 276.31 808.88L277.29 807.41C265.1 799.82 290.86 812.27 268.47 797.12L268.96 795.65C284.8 808.21 271.55 796.92 266.02 789.77C256.46 802.96 267.09 816.65 269.45 828.48C271.57 839.12 271.71 850.22 274.35 860.82C273.3 863.74 255.06 864.31 255.73 868.66C272.82 891.74 296.69 907.7 318.44 925.98L318.46 925.99Z" fill="#556266"/>
<path d="M374.32 899.54C378.21 895.69 397.08 935.24 391.96 919.63C391.63 918.62 376.91 897.27 388.04 908.85C390.46 911.37 393.15 919.62 395.88 922.57C390.6 928.14 393.93 928.29 397.84 923.55C385.45 898.19 405.37 931.29 406.66 928.45L403.23 920.12L413.52 931.88C414.82 931.88 416.14 931.89 417.44 931.88C408.33 919.47 395.3 911.89 383.63 902.48C376.07 896.39 368.95 884.26 374.32 899.54Z" fill="#1D201E"/>
<path d="M286.62 821.15C282.85 820.63 293.44 831.29 293.97 826.54C294.02 826.09 287.07 821.21 286.62 821.15Z" fill="#556266"/>
<path d="M292.5 849.56C291.9 849.48 291.24 849.43 291.03 850.05C308.14 866.15 296.5 850.09 292.5 849.56Z" fill="#1D201E"/>
<path d="M285.15 828C282.96 825.91 279.1 821.29 277.31 822.61C280.52 826.69 284.75 827.74 285.15 828Z" fill="#1D201E"/>
<path d="M271.43 912.27C271.32 912.42 267.37 912.28 268.98 915.21C270.83 915.62 270.58 912.97 271.43 912.27Z" fill="#1D201E"/>
<path d="M250.36 911.3C248.36 909.96 249.01 908.47 248.89 908.36C248.96 908.51 252.07 909.49 250.36 911.3Z" fill="#1D201E"/>
<path d="M507.58 482.1C510.95 476.13 508.61 481.65 508.56 483.08C508.17 493.13 513.04 502.3 512.48 511.99C512.16 517.62 506.56 531.85 507.58 535.51C508.06 537.22 521.09 551.95 507.09 536.98C507.83 552.3 517.06 556.85 517.38 558.05C518.02 560.47 508.88 564.08 514.44 566.38C514.6 566.25 516.47 568.45 518.36 564.91C523.71 554.87 520.27 524.35 521.3 511.02C522.65 493.49 526.56 475.95 528.16 458.6C528.65 453.28 530.32 447.23 527.67 442.92C520.51 454.08 526.16 443.09 526.2 441.45C526.49 428.26 522.13 414.69 525.22 401.27C523.9 399.4 504.14 405.07 503.66 407.15C502.5 412.23 508.99 403.76 512.48 406.17C499.27 414.11 510.71 414.33 513.95 426.26C512.72 426.67 498.02 400.95 504.64 420.87C499.16 420.69 504.57 430.98 504.64 434.59C504.66 435.48 502.44 450.15 502.68 452.23C503.18 456.5 505.97 463.08 508.56 465.95C505.01 464.34 502.58 465.86 506.6 467.91L507.58 482.12V482.1Z" fill="#F5CAA9"/>
<path d="M507.58 482.1L508.56 483.08C508.61 481.65 510.95 476.13 507.58 482.1Z" fill="#866B48"/>
<path d="M511.01 543.84C509.64 544.02 511.36 546.86 511.99 546.78C513.36 546.6 511.64 543.76 511.01 543.84Z" fill="#584831"/>
<path d="M509.05 449.77L507.58 450.26L509.05 451.73L509.54 451.24L509.05 449.77Z" fill="#735439"/>
<path d="M655.55 886.8C653.47 884.52 653.17 881.24 648.69 879.94L646.73 880.43C653.61 886.42 657.98 895.38 655.55 886.8Z" fill="#9A8A7D"/>
<path fill-rule="evenodd" clip-rule="evenodd" d="M226.276 895.733C221.707 895.893 217.384 896.043 212.64 895.62H212.7L246.02 891.21C246.131 889.24 246.099 887.162 246.067 885.058C245.949 877.27 245.826 869.119 252.88 864.75C251.338 853.042 254.202 841.708 257.052 830.427C258.453 824.884 259.85 819.355 260.72 813.8C261.436 809.218 261.199 804.977 260.987 801.171C260.16 786.37 259.7 778.14 317.06 781.95C312.639 760.687 333.718 766.316 347.865 770.095C353.944 771.718 358.743 773 359.69 771.66C358.715 740.148 353.901 709.162 349.085 678.155C347.332 666.872 345.579 655.585 344.01 644.27C343.952 643.85 343.401 642.632 342.721 641.132C341.751 638.989 340.519 636.269 340.09 634.47C339.841 627.324 346.542 604.59 350.98 589.533L350.98 589.531C353.144 582.189 354.77 576.673 354.79 575.68C354.852 572.547 352.822 571.388 350.363 569.985C346.519 567.792 341.629 565.002 342.05 553.14C342.229 548.204 345.017 539.047 347.604 530.549C349.487 524.361 351.264 518.523 351.85 514.92C353.593 504.184 354.324 493.253 355.054 482.322L355.054 482.32C355.706 472.563 356.358 462.806 357.73 453.19C358.039 451.039 359.096 447.084 360.389 442.247C363.996 428.758 369.434 408.415 365.57 401.26C365.418 400.979 364.623 400.782 363.592 400.528C361.289 399.96 357.813 399.103 357.73 396.36C360.023 389.366 361.259 377.644 362.518 365.713C364.097 350.743 365.711 335.445 369.49 328.75C374.005 320.752 385.668 316.839 397.369 312.914C413.58 307.476 429.861 302.014 427.3 285.63C420.325 285.055 419.129 277.158 417.54 266.658C416.256 258.175 414.714 247.993 409.66 238.6C412.57 226.841 411.507 226.96 410.246 227.101C409.617 227.171 408.939 227.247 408.68 225.86C408.494 224.86 413.447 219.296 417.275 214.997L417.275 214.996C419.226 212.805 420.883 210.943 421.42 210.18C421.518 210.042 421.326 209.794 421.072 209.464C419.949 208.006 417.6 204.959 433.67 202.83C430.643 197.521 432.465 197.866 435.628 198.465C438.702 199.047 443.044 199.869 445.43 195.97C447.943 200.736 455.034 199.666 460.471 198.846C465.94 198.021 469.737 197.448 465.52 203.32C477.63 207.898 476.134 209.492 474.92 210.786C474.498 211.236 474.11 211.65 474.34 212.14C474.456 212.386 475.024 212.786 475.836 213.359C477.833 214.767 481.305 217.214 483.16 220.96C480.848 225.912 482.327 227.086 482.935 227.569C483.068 227.675 483.16 227.748 483.16 227.82C483.074 234.942 481.104 241.979 479.146 248.973C477.456 255.01 475.774 261.016 475.32 267.02C473.266 272.002 469.544 274.743 467.013 276.608C465.835 277.476 464.915 278.154 464.54 278.78C456.83 291.669 474.581 301.216 493.306 311.286C507.878 319.123 523.04 327.277 527.25 337.57C529.38 342.76 536.98 394.45 536.07 397.34C535.921 397.807 535.295 397.98 534.434 398.219C530.444 399.326 521.391 401.837 531.17 441.43L530.19 460.54L528.23 458.58C528.332 457.467 528.487 456.321 528.642 455.167C529.23 450.804 529.835 446.308 527.74 442.9C522.877 450.479 523.923 447.842 525.107 444.856C525.667 443.445 526.257 441.956 526.27 441.43C526.381 436.378 525.811 431.271 525.238 426.14C524.314 417.865 523.383 409.527 525.29 401.25C523.96 399.38 504.2 405.05 503.73 407.13C503.161 409.642 504.458 408.841 506.337 407.68C508.258 406.494 510.786 404.932 512.55 406.15C504.151 411.198 505.717 413.126 508.804 416.926C510.572 419.103 512.84 421.895 514.02 426.24C513.636 426.368 511.937 423.947 509.985 421.163L509.984 421.162C505.686 415.034 500.158 407.153 504.71 420.85C500.88 420.724 502.369 425.712 503.637 429.959C504.184 431.79 504.689 433.483 504.71 434.57C504.717 434.872 504.465 436.757 504.139 439.199C503.503 443.96 502.585 450.835 502.75 452.21C503.25 456.48 506.04 463.07 508.63 465.93C505.08 464.32 502.65 465.84 506.67 467.89L507.65 482.1L508.63 483.08C508.442 488.062 509.541 492.829 510.629 497.55C511.736 502.354 512.832 507.108 512.55 511.99C512.409 514.466 511.247 518.607 510.076 522.78C508.585 528.097 507.079 533.465 507.65 535.51C507.837 536.175 509.924 538.813 511.58 540.904L511.58 540.905C514.178 544.187 515.711 546.123 507.16 536.98C507.752 549.246 513.779 554.604 516.329 556.871C516.966 557.437 517.386 557.81 517.45 558.05C517.699 558.993 516.463 560.118 515.19 561.275C513.198 563.085 511.117 564.977 514.51 566.38C514.501 566.387 514.495 566.4 514.487 566.421C514.447 566.516 514.342 566.77 513.53 567.36C513.374 567.473 513.059 567.58 512.671 567.71C510.865 568.319 507.503 569.453 511.57 574.22C511.075 574.647 510.848 574.953 510.649 575.22C510.405 575.547 510.204 575.817 509.61 576.18C509.31 569.46 501.36 574.79 503.73 578.14C503.674 578.168 503.585 578.171 503.484 578.176C503.149 578.189 502.673 578.208 502.75 579.12C502.336 579.155 502.033 578.877 501.726 578.595C501.335 578.236 500.938 577.871 500.3 578.14C491.276 606.949 494 636.829 496.711 666.578C497.524 675.502 498.336 684.413 498.83 693.28C491.25 725.4 486.87 758.15 487.07 791.27C487.897 793.125 495.576 793.399 502.855 793.659C507.9 793.839 512.753 794.012 515 794.7C517.096 795.344 523.233 800.222 530.481 805.984L530.482 805.985C540.458 813.914 552.54 823.517 559.09 826.06C567.367 829.274 576.224 830.054 585.08 830.834C593.225 831.551 601.37 832.269 609.06 834.88C611.349 836.185 613.202 839.479 615.741 843.995C620.866 853.108 628.789 867.198 648.75 879.95L646.79 880.44C649.498 882.797 651.817 885.616 653.485 887.645C656.056 890.771 657.084 892.019 655.61 886.81C656.147 887.397 656.699 887.901 657.256 888.408L657.257 888.408C658.017 889.101 658.785 889.801 659.53 890.73C663.85 896.11 667.87 902.35 671.29 908.37C670.833 908.455 670.57 908.657 670.306 908.859C670.045 909.059 669.783 909.26 669.33 909.35C658.364 891.666 637.592 874.776 628.54 867.416L628.54 867.415L628.536 867.412C626.232 865.539 624.688 864.283 624.26 863.79C621.548 860.655 618.712 854.284 616.374 849.031C614.789 845.471 613.433 842.426 612.5 841.25C606.702 833.926 594.676 833.487 583.586 833.083C578.61 832.901 573.822 832.727 569.87 831.94C558.179 829.613 547.028 821.268 536.168 813.141C522.949 803.25 510.162 793.682 497.36 795.68C497.05 795.73 495.36 797.31 496.38 797.64L511.08 800.58V802.54H508.14C504.534 802.174 498.24 799.108 493.744 796.917C490.996 795.579 488.919 794.567 488.54 794.7C486 795.59 483 803.34 497.85 806.95C482.906 804.443 483.62 804.683 489.149 806.542C492.178 807.561 496.652 809.065 500.79 810.87L490.5 808.42L500.3 813.32C494.476 814.376 489.874 811.018 487.349 809.175C484.923 807.404 484.414 807.033 486.58 813.32C498.644 815.48 494.72 815.499 490.842 815.518C489.012 815.527 487.192 815.536 487.07 815.77C477.72 833.79 527.7 839.61 490.5 826.06C486.21 820.79 514.32 833.36 506.18 835.86C505.118 836.186 500.922 834.586 497.099 833.129L497.098 833.128C494.117 831.992 491.363 830.942 490.5 830.96C489.7 830.976 488.366 831.679 486.633 832.593C479.481 836.365 465.532 843.721 454.24 821.16L452.77 822.63L460.61 833.41C459.964 835.483 458.609 833.573 456.162 830.122C453.839 826.847 450.531 822.184 445.91 818.22C445.95 818.275 446.009 818.453 446.098 818.718C446.546 820.056 447.731 823.597 450.81 824.59C446.431 826.599 446.056 825.634 445.184 823.386C444.384 821.327 443.166 818.192 438.07 815.28C439.612 817.299 440.822 819.374 442.002 821.397C444.778 826.154 447.385 830.624 453.75 833.41C454.032 836.049 448.012 832.924 440.698 829.126C435.82 826.593 430.365 823.76 425.82 822.14C413.65 817.8 401.48 814.86 388.58 814.3C385.823 813.136 383.116 811.936 380.417 810.74C375.51 808.565 370.634 806.403 365.55 804.5L363.81 803.85L363.809 803.849C354.733 800.46 345.581 797.042 337.62 791.76C334.57 792.65 330.78 792.8 327.82 791.76C320.34 789.126 324.633 789.474 328.47 789.785C331.608 790.039 334.441 790.269 330.27 788.82C326.654 780.843 322.568 783.555 321.02 784.583C320.761 784.755 320.573 784.88 320.47 784.9C320.269 784.94 320 784.759 319.667 784.535C318.92 784.032 317.857 783.317 316.55 784.41C322.11 787.781 320.774 787.456 315.89 786.265C311.112 785.101 302.937 783.108 294.5 782.94V784.9C310.791 792.436 304.005 790.111 295.044 787.042C291.888 785.961 288.462 784.787 285.68 783.92C286.963 785.973 293.256 787.995 297.483 789.353L297.484 789.353L297.487 789.354C299.516 790.006 301.068 790.504 301.36 790.78C304.21 793.48 283.75 791.73 275.88 784.9C271.45 786.63 283.094 790.13 288.729 791.823C290.293 792.294 291.395 792.625 291.56 792.74C295.747 795.669 293.09 794.926 289.854 794.021C287.377 793.328 284.561 792.541 284.21 793.23C288.596 796.294 286.145 795.594 282.596 794.582C278.952 793.543 274.152 792.173 274.41 794.21C292.93 809.79 303.04 815 327.32 819.69C327.191 824.8 324.646 833.217 321.958 842.1C317.952 855.344 313.631 869.626 316.54 875.54C317.999 878.513 324.81 879.439 333.383 880.604C341.737 881.74 351.764 883.103 360.14 886.81C364.832 888.842 367.774 892.564 370.743 896.32L370.744 896.322C371.603 897.408 372.464 898.498 373.37 899.55C376.45 903.12 388.12 919.13 388.07 920.62C388.06 920.93 384.88 924 384.64 924.05C384.379 924.101 384.084 922.175 383.757 920.035C383.056 915.455 382.205 909.892 381.21 920.62C379.771 924.476 379.555 923.357 378.93 920.118C378.283 916.764 377.198 911.137 373.86 906.41C371.95 906.209 372.596 907.701 373.58 909.973C375.147 913.59 377.569 919.182 371.9 923.07C370.87 914.86 364.84 900.97 368.47 919.64C368.061 920.302 367.25 918.184 366.302 915.709C364.7 911.527 362.709 906.328 361.61 911.8C361.539 912.166 362.763 913.578 363.653 914.607C364.15 915.18 364.543 915.634 364.55 915.72C364.825 919.914 363.892 919.561 362.343 918.974C360.654 918.334 358.233 917.417 355.848 921.825C355.671 922.237 355.469 922.652 355.24 923.07C355.442 922.614 355.645 922.2 355.848 921.825C360.273 911.519 349.01 903.44 354.26 917.19L348.87 915.72C355.12 912.03 337.11 887.45 335.15 891.22C349.25 906.79 347.27 924.47 343.48 907.39C342.624 908.55 341.91 909.536 341.312 910.362C339.508 912.855 338.768 913.878 338.385 913.758C338.12 913.675 338.026 913.041 337.867 911.967C337.546 909.804 336.961 905.853 334.17 901.02C333.19 899.32 323.77 887.06 322.9 886.81C319.156 885.731 322.438 890.29 326.897 896.485C330.085 900.914 333.875 906.18 336.13 910.82C335.713 911.915 332.509 907.361 328.868 902.185C323.262 894.216 316.619 884.774 317.51 892.2C317.54 892.453 318.361 893.379 319.52 894.685C322.672 898.239 328.319 904.604 327.31 907.88C326.729 908.796 325.226 906.037 323.5 902.866C320.329 897.044 316.403 889.833 316.042 901.453C316.162 896.324 306.799 889.278 301.507 885.296C297.981 882.643 296.263 881.35 300.36 882.89C301.225 883.216 302.162 884.124 303.119 885.05C305.038 886.908 307.035 888.842 308.69 886.32C292.152 869.471 292.725 869.994 296.479 873.426C299.122 875.841 303.342 879.698 304.28 879.95C304.95 880.13 306.33 880.15 306.73 879.46C302.293 872.155 303.335 873.185 306.123 875.942C308.03 877.828 310.753 880.521 313.1 881.91C315.214 880.469 312.435 878.068 310.502 876.398C308.679 874.823 307.609 873.899 312.12 875.05C312.83 874.57 312.76 873.34 312.61 872.6C312.214 870.658 290.86 855.067 287.144 852.354C286.789 852.094 286.596 851.952 286.596 851.952C286.596 851.952 286.871 852.147 287.473 852.579L287.508 852.604C289.858 854.288 297.024 859.423 312.12 870.15C315.471 867.888 306.458 858.268 302.59 854.14C301.544 853.024 300.875 852.309 300.928 852.251C301.023 852.146 303.404 854.117 310.023 859.595L312.12 861.33L313.59 859.86L282.23 835.36C285.753 831.52 286.812 832.439 291.407 836.428C291.566 836.566 291.73 836.707 291.897 836.852C292.248 837.156 292.618 837.475 293.01 837.81C292.421 837.029 291.84 836.228 291.255 835.423L291.243 835.406L291.239 835.4C289.366 832.82 287.459 830.192 285.17 828.01C296.946 835.685 294.495 833.187 289.93 828.537C285.502 824.027 279.086 817.491 281.74 816.25L297.42 828.01C299.594 825.286 295.183 822.602 289.58 819.192C284.979 816.392 279.574 813.102 276.35 808.9L277.33 807.43C272.328 804.315 273.716 804.575 275.545 804.918C278.174 805.41 281.712 806.073 268.51 797.14L269 795.67C278.74 803.393 277.481 802.099 273.782 798.294C271.465 795.911 268.19 792.544 266.06 789.79C259.124 799.367 262.816 809.202 266.266 818.394C267.572 821.871 268.842 825.256 269.49 828.5C270.436 833.229 270.987 838.046 271.539 842.868L271.539 842.87L271.539 842.871C272.23 848.908 272.922 854.953 274.39 860.84C273.932 862.113 270.208 862.939 266.207 863.827C261.031 864.975 255.392 866.226 255.77 868.68C268.706 886.152 285.536 899.546 302.394 912.963C307.796 917.261 313.2 921.562 318.48 926C315.269 925.725 312.051 925.466 308.833 925.206C304.204 924.832 299.573 924.459 294.96 924.04C295.415 921.606 297.319 921.223 298.873 920.91C301.208 920.44 302.754 920.129 297.41 913.26C302.07 926.82 295.9 917.26 291.53 908.36C290.405 908.395 290.958 911.044 291.498 913.63C292.336 917.638 293.142 921.493 287.61 915.22C280.244 922.576 280.798 921.709 282.636 918.833C284.63 915.712 288.136 910.226 284.67 910.32C284.489 910.324 283.772 911.466 282.922 912.821C281.794 914.617 280.431 916.787 279.77 917.18C275.943 915.986 273.972 917.791 273.564 918.164L273.563 918.165C273.515 918.209 273.489 918.233 273.484 918.23C273.479 918.225 273.504 918.182 273.559 918.086C273.876 917.534 275.182 915.259 277.32 908.85C276.747 907.88 272.182 911.665 271.492 912.237L271.44 912.28C271.548 912.133 271.654 911.99 271.758 911.85C271.942 911.602 272.12 911.364 272.291 911.135C276.254 905.829 276.488 905.516 269.48 896.11C269.007 898.698 270.462 900.62 271.127 901.498C271.32 901.753 271.447 901.92 271.44 901.99C270.025 914.513 267.247 907.247 266.06 904.144C265.82 903.518 265.646 903.061 265.56 902.97C262.332 899.549 263.019 901.579 264.124 904.843C265.258 908.193 266.832 912.842 265.07 914.24C264.219 913.295 263.299 912.371 262.368 911.437C259.832 908.89 257.223 906.27 255.76 902.97C255.705 902.845 255.669 902.311 255.617 901.544C255.365 897.841 254.744 888.715 249.88 894.15C256.729 900.441 254.462 899.41 251.458 898.044C249.348 897.084 246.874 895.96 246.94 897.09L258.21 913.26C257.839 912.853 257.087 911.903 256.088 910.643C251.568 904.937 242.013 892.875 240.08 896.11C241.478 898.109 242.652 899.432 243.733 900.649C245.513 902.653 247.04 904.373 248.9 908.36C245.562 905.462 243.711 903.062 242.668 901.709C242.077 900.943 241.745 900.513 241.55 900.52C238.017 900.666 241.938 905.326 245.284 909.302C247.422 911.842 249.325 914.102 248.9 914.73C241.826 906.403 239.926 908.478 238.516 910.017C237.124 911.538 236.209 912.537 231.26 902.48C233.45 904.6 236.05 906.65 238.61 908.36C241.048 906.85 235.642 903.211 232.322 900.977L232.321 900.977L232.317 900.974C231.419 900.369 230.674 899.868 230.28 899.54C230.166 899.447 230.207 899.004 230.258 898.444C230.351 897.428 230.479 896.026 229.79 895.62C228.597 895.652 227.431 895.693 226.28 895.733H226.276ZM277.33 807.43C285.98 817.26 295.33 819.59 286.64 812.33C285.644 811.497 283.112 810.29 280.867 809.219L280.863 809.217C279.389 808.514 278.039 807.87 277.33 807.43ZM293.01 837.81C293.925 839.024 294.223 840.061 294.43 840.782C294.764 841.945 294.863 842.289 296.93 841.24C295.244 837.627 293.793 837.767 293.234 837.82C293.121 837.831 293.044 837.839 293.01 837.81ZM445.91 818.22C445.896 818.201 445.882 818.151 445.866 818.075C445.848 817.994 445.828 817.884 445.804 817.752C445.652 816.912 445.337 815.174 444.44 814.3C443.52 813.4 433.87 807.88 445.91 818.22ZM438.061 815.273C438.032 815.255 437.958 815.261 437.849 815.27C437.369 815.309 436.205 815.402 435.13 813.81C436.627 812.38 437.579 814.314 437.932 815.033C437.993 815.157 438.036 815.245 438.061 815.273ZM430.362 591.409C431.766 589.267 433.171 587.126 434.58 584.99V584.98C454.395 647.824 452.381 715.54 450.434 780.956L450.434 780.963C450.376 782.924 450.318 784.883 450.26 786.84L395.88 780.47C398.5 735.19 399.46 688.97 390.98 644.27C406.189 628.255 418.285 609.816 430.359 591.413L430.362 591.409ZM394.41 416.45L387.06 440.46C391.245 462.278 383.536 479.72 375.809 497.203C368.379 514.015 360.932 530.865 364.03 551.68C379.153 525.277 376.573 523.32 374.535 521.773C373.921 521.308 373.356 520.879 373.34 519.83C373.335 519.402 374.962 516.346 376.745 512.997L376.746 512.996C378.632 509.453 380.692 505.584 381.18 504.15C390.83 475.98 397.26 446.33 394.41 416.45ZM490.92 466.91C490.3 453.97 494.87 432.99 499.25 420.37C499.727 426.818 499.856 433.899 499.987 441.081C500.18 451.675 500.377 462.489 501.7 471.81C502.5 477.426 504.068 482.898 505.633 488.363C508.473 498.273 511.306 508.16 509.54 518.84C503.206 530.231 503.417 545.04 502.691 545.086C502.313 545.11 501.681 541.136 499.74 530.6C507.59 528.443 503.043 513.69 498.024 497.403C494.782 486.885 491.344 475.727 490.92 466.91Z" fill="#1D201E"/>
<path d="M381.67 324.34C363.87 322.34 365.7 375.15 364.52 386.56C391.23 377.75 400.34 396.18 400.78 379.7C400.72 379.28 393.59 383.79 401.76 375.78C398.73 372.56 405.26 359.2 398.82 366.96C404 355.92 393.65 325.68 381.67 324.33V324.34Z" fill="#93BBC6"/>
<path d="M454.67 238.11C455.34 237.22 452.61 237.07 452.71 236.64C452.89 235.84 454.57 236.45 454.67 235.66C456.18 224.26 454.3 216.85 459.57 235.66H461.53C459.59 226.31 451.4 216.12 463 229.29L461.04 222.43L466.43 230.76C469.65 267.17 475.24 230.93 461.53 219.98C465.06 219.85 476.9 237.07 470.35 223.9C469.55 222.3 463.81 218.15 463.49 217.04C461.45 210.05 479.82 220.52 462.51 209.2C477.19 211.15 472.27 205.46 452.22 204.79C452.66 198.94 444.43 202.53 440.46 200.87C443.59 203.7 432.95 208.28 430.66 205.77C421.04 216.01 430.79 213.3 431.15 215.08C431.28 215.71 420.1 220.02 420.37 221.94C421.34 228.84 433.87 214.06 422.33 227.82C421.58 228.72 423.98 229.66 422.82 230.27C413.33 229.92 413.32 249.05 422.82 245.95L433.11 257.22C437.37 248.61 448.81 222.55 433.6 246.93L432.62 242.03C424.61 246.16 433.15 238.19 433.11 237.62C433.01 236.31 426.98 233.54 427.23 232.72C428.76 227.8 431.97 234.42 434.09 231.74C438.13 226.62 424.68 227.72 438.5 216.55C443.27 227.28 442.29 225.2 436.05 235.66C453.7 219.31 437.56 231.19 445.85 241.54L440.95 257.22C443.19 259.48 442.45 254.38 445.85 248.4C448.65 243.47 453.29 242.7 449.77 239.58C451.02 238.08 453.94 239.08 454.67 238.11Z" fill="#454D50"/>
<path d="M446.83 797.63C447.63 793.38 447.48 792.64 444.87 788.81C428.61 785.12 412.07 783.36 395.39 783.91C391.54 807.75 433.16 802.53 446.83 797.63Z" fill="#6F7E7E"/>
<path d="M402.24 534.04C415.2 559.56 436.77 552.52 461.03 550.7C488.83 521.77 449.83 552.53 402.24 534.04Z" fill="#556266"/>
<path d="M354.23 779.99L366.97 794.69L374.81 799.59L393.92 799.1L383.14 792.24C380.83 787.18 385.96 791.95 388.04 789.3C374.56 780.22 381.49 791.27 380.69 791.75C379.65 792.37 358.72 788.12 384.61 795.67C382.37 801.72 360.92 786.68 354.23 779.99Z" fill="#454D50"/>
<path d="M465.45 825.07C465.52 825.25 468.93 826.76 467.9 828.01C464.96 827.84 465.59 825.2 465.45 825.07C463.5 823.23 460.93 822.04 460.06 819.19C455.93 818.88 462.47 829.51 471.82 832.91C481.94 830.31 486.25 835.29 484.56 823.11C479.01 823.4 484.32 824.94 480.64 828.01C479.55 825.21 470.88 824.28 472.8 828.99C470.07 826.22 471.68 825.98 468.39 821.15C465.8 821.39 465.42 818.51 464.47 819.68C463.36 821.92 464.38 822.42 465.45 825.07Z" fill="#343B3C"/>
<path d="M428.21 298.87C428.11 299.04 428.42 299.95 427.23 299.85C420.83 303.77 442.44 299.37 447.32 298.87C478.25 302.89 480.09 299.25 458.1 296.91C448.12 295.85 438.06 298.06 428.21 298.87Z" fill="#EEE7E1"/>
<path d="M456.14 798.61C441.07 796.19 453.32 813.67 458.1 818.21C450.93 805.92 460.05 807.57 452.71 804C462.51 806.58 461.08 799.41 456.14 798.61Z" fill="#343B3C"/>
<path d="M321.4 882.88C330.85 891.72 334.24 897.21 339.53 909.34C344.9 909.34 336.54 888.47 321.4 882.88Z" fill="#556266"/>
<path d="M454.67 238.11C450.94 244.74 445.52 249.65 448.3 250.85C450.39 251.17 458.45 238.76 458.59 237.62C459.78 227.75 457.11 233.77 454.67 238.11Z" fill="#454D50"/>
<path d="M348.35 891.7C341.48 888.69 352.01 902.78 356.68 901.99C358.91 911.57 362.59 905.05 358.64 901.01C355.32 897.62 353.48 900.66 353.25 900.52C352.79 900.23 353.15 893.81 348.35 891.7Z" fill="#556266"/>
<path d="M468.39 821.15C471.24 820.88 470.71 817.13 473.78 821.15C477.97 808.55 472.95 818.74 470.84 818.21C467.96 817.48 464.84 808.64 462.02 812.33C461.69 812.76 466.03 817.69 468.39 821.15Z" fill="#343B3C"/>
<path d="M410.08 594.79C407.68 595.22 400.23 602.73 397.83 605.08C399.24 607.7 409.21 598.34 413.51 596.26C409.72 596.89 410.41 594.73 410.08 594.79Z" fill="#556266"/>
<path d="M444.87 788.81C447.48 792.64 447.63 793.38 446.83 797.63C450.28 796.39 454.63 794.7 451.73 789.3C450.52 787.06 445.21 788.89 444.87 788.81Z" fill="#A9AEAB"/>
<path d="M341.49 890.72C339.39 891.85 356.66 916.16 351.78 902.97C351.48 902.15 343.71 893.02 341.49 890.72Z" fill="#556266"/>
<path d="M490.43 669.26C488.72 670.57 483.96 672.1 482.59 673.18C470.77 682.54 487.31 678.98 490.43 669.26Z" fill="#556266"/>
<path d="M253.79 875.04C252.41 876.8 259.88 892.33 261.14 891.7C261.96 886.07 254.42 879.45 257.71 877.49C256.75 876.1 255.1 875.87 253.79 875.04Z" fill="#556266"/>
<path d="M353.25 773.13L351.78 774.6C371.16 796.43 359.7 771.84 353.25 773.13Z" fill="#454D50"/>
<path d="M345.41 792.73C341.3 794.33 365.58 803.13 367.46 803.02L345.41 792.73Z" fill="#6C7475"/>
<path d="M400.28 401.75C399.66 402.6 397.97 403.7 397.83 404.2C396.59 408.46 407.83 433.53 400.28 401.75Z" fill="#89A5AF"/>
<path d="M384.12 628.11C386.36 627.75 390.57 625.68 391.96 624.19C401.08 614.37 382.53 623.01 384.12 628.11Z" fill="#556266"/>
<path d="M453.69 623.21C453.31 618.38 447.9 613.5 445.36 609.49C444.33 614.84 448.05 619.61 453.69 623.21Z" fill="#556266"/>
<path d="M473.78 257.71C472.83 260.97 467.59 267.69 467.41 268.98C465.99 279.33 477.61 259.55 473.78 257.71Z" fill="#CBBAAB"/>
<path d="M253.79 875.04C256.51 871.56 259.63 877.57 254.28 867.2C244.94 876.66 251.51 873.6 253.79 875.04Z" fill="#556266"/>
<path d="M461.04 249.87C459.61 250.75 453.79 258.59 453.69 259.18C452.16 268 460.66 255.73 461.04 249.87Z" fill="#454D50"/>
<path d="M309.65 839.76C309.47 839.69 309.49 841.67 305.73 839.76C306.28 840.32 304.5 846.3 311.12 841.72C315.86 848.61 321.04 844.44 309.65 839.76Z" fill="#556266"/>
<path d="M255.26 888.76C254.34 889.09 255.46 893.54 255.75 894.15C258.42 899.81 268.61 902.05 255.26 888.76Z" fill="#454D50"/>
<path d="M350.31 886.8C345.66 888.96 351.67 889.95 351.78 890.23C351.98 890.75 346.47 889.37 356.19 897.58L350.31 886.8Z" fill="#556266"/>
<path d="M277.31 807.43C285.96 817.26 295.31 819.59 286.62 812.33C284.97 810.95 279.1 808.55 277.31 807.43Z" fill="#556266"/>
<path d="M409.1 612.43C390.14 629.77 410.11 616.84 410.57 614.88C410.86 613.65 409.76 613.16 409.1 612.43Z" fill="#556266"/>
<path d="M304.26 842.7C300.87 842.98 315.75 856.62 316.51 852.99L304.26 842.7Z" fill="#556266"/>
<path d="M231.25 902.48C233.44 904.6 236.04 906.65 238.6 908.36C241.7 906.44 232.12 901.08 230.27 899.54C226.3 899.62 229.93 901.2 231.25 902.48Z" fill="#556266"/>
<path d="M503.17 565.39C501.21 565.15 499.45 572.34 502.19 573.23C506.73 574.71 506.06 565.74 503.17 565.39Z" fill="#E2D0BD"/>
<path d="M387.55 805.47C377 802.29 386.73 810.54 392.45 811.35C392.7 810.07 387.92 805.58 387.55 805.47Z" fill="#78756F"/>
<path d="M320.42 784.89L330.22 788.81C326 779.5 321.14 784.75 320.42 784.89Z" fill="#11110F"/>
<path d="M360.11 896.6C360.38 899.73 359.57 899.86 359.62 900.03C361.84 908.17 373.24 916.59 360.11 896.6Z" fill="#556266"/>
<path d="M513.46 567.35C517.31 569.79 514.01 572.04 511.5 574.21C506.56 568.42 512.58 567.99 513.46 567.35Z" fill="#F5CAA9"/>
<path d="M441.44 807.43C437.82 809.41 449.59 817.24 450.75 814.78C449.54 813.87 441.96 807.15 441.44 807.43Z" fill="#556266"/>
<path d="M309.16 880.92C302.63 879.22 314.92 891.98 315.53 886.31C315.57 885.9 309.56 881.03 309.16 880.92Z" fill="#556266"/>
<path d="M284.66 901.5C280.52 901.5 290.79 916.84 289.07 906.89C289.01 906.55 285.01 901.5 284.66 901.5Z" fill="#556266"/>
<path d="M391.96 624.19C390.57 625.68 386.36 627.75 384.12 628.11C384.25 628.54 383.98 629.19 385.1 629.09C387.74 628.4 391.22 627.62 393.92 627.13C396.56 622.34 392.72 625.63 391.96 624.19Z" fill="#11110F"/>
<path d="M356.19 905.42C350.93 904.86 362.32 921.52 359.62 909.83C359.49 909.27 356.93 907.95 356.19 905.42Z" fill="#556266"/>
<path d="M392.45 611.45C391.92 611.21 384.41 617.04 382.16 616.84C388.19 619.21 395.35 612.77 392.45 611.45Z" fill="#556266"/>
<path d="M261.14 826.04C259.23 825.65 259.4 828.2 259.67 829.47C260.28 832.35 271.1 840.14 261.14 826.04Z" fill="#556266"/>
<path d="M471.82 807.43C471.6 807.35 467.27 808.09 467.41 808.9C468.36 814.35 481.71 811.11 471.82 807.43Z" fill="#343B3C"/>
<path d="M505.62 553.64C498.04 570.24 507.14 560.74 507.58 557.07C508.14 552.35 505.93 553.93 505.62 553.64Z" fill="#CBBAAB"/>
<path d="M420.86 531.1C420.19 530.97 418.66 530.89 418.41 531.59C432.35 541.97 432.41 533.32 420.86 531.1Z" fill="#93BBC6"/>
<path d="M304.26 846.62C300.34 848.44 322.8 865.2 311.61 852.99C311.28 852.63 306.84 850.92 304.26 846.62Z" fill="#556266"/>
<path d="M392.45 789.79C387.4 789.88 391.13 798.16 394.41 795.67C396.21 794.3 393.63 789.77 392.45 789.79Z" fill="#343B3C"/>
<path d="M330.71 882.88C327.25 883.05 333.02 890.64 334.63 889.74C336.76 888.55 332.56 882.79 330.71 882.88Z" fill="#556266"/>
<path d="M509.54 576.17C509.28 576.33 508.29 575.88 503.66 578.13C501.29 574.78 509.24 569.45 509.54 576.17Z" fill="#E2D0BD"/>
<path d="M401.26 617.33C399.73 617.56 393.93 621.95 393.91 622.72C393.89 623.3 399.84 625.44 401.26 617.33Z" fill="#556266"/>
<path d="M269.96 786.85C262.85 785.82 277.66 792.91 278.29 791.26C278.45 789.64 270.46 786.92 269.96 786.85Z" fill="#6F7E7E"/>
<path d="M508.07 561.48C506.26 560.91 502.95 565.38 506.11 566.38C509.59 567.48 510.8 562.34 508.07 561.48Z" fill="#E2D0BD"/>
<path d="M420.86 802.53C416.48 802.75 427.17 809.1 428.21 806.94C428.62 806.09 421.51 802.5 420.86 802.53Z" fill="#6C7475"/>
<path d="M438.5 819.19V822.13C429.22 819.19 448.02 831.28 438.5 819.19Z" fill="#6C7475"/>
<path d="M514.93 367.46L511.99 377.26C514.19 374.62 516.52 370.83 514.93 367.46Z" fill="#93BBC6"/>
<path d="M430.66 803.51C426.9 802.99 428.75 808.14 433.6 808.41C434.23 807.15 431.26 803.59 430.66 803.51Z" fill="#78756F"/>
<path d="M377.75 804.49C372.58 803.02 374.12 807.5 380.69 808.41C381.58 807.76 377.99 804.56 377.75 804.49Z" fill="#78756F"/>
<path d="M282.7 783.91C277.65 785.07 288.46 790.26 289.07 788.32L282.7 783.91Z" fill="#6F7E7E"/>
<path d="M445.85 818.21C445.73 818.04 445.55 815.43 444.38 814.29C443.46 813.39 433.81 807.87 445.85 818.21Z" fill="#8D8B82"/>
<path d="M312.1 888.76C306.44 887.73 317.45 896.35 315.53 891.21C315.33 890.68 312.31 888.8 312.1 888.76Z" fill="#556266"/>
<path d="M268 899.54C266.15 899.51 266.18 904.49 268 904.44C269.86 904.39 269.83 899.57 268 899.54Z" fill="#556266"/>
<path d="M372.85 912.27C370.49 910.87 371.43 917.56 372.85 918.15C374.36 918.78 373.63 912.73 372.85 912.27Z" fill="#6C7475"/>
<path d="M301.81 836.82C301.01 836.29 297.85 831.93 295.93 833.39C299.33 837.88 301.54 836.62 301.81 836.82Z" fill="#556266"/>
<path d="M463 268.49C459.8 266.61 459.36 280.24 463.49 270.94C463.72 270.42 463.65 268.87 463 268.49Z" fill="#343B3C"/>
<path d="M258.2 842.7C258.04 842.7 256.43 844.07 256.73 845.15C258.99 853.18 261.49 842.89 258.2 842.7Z" fill="#556266"/>
<path d="M511.99 557.56C508.98 557.02 510.03 561.32 511.01 561.48C511.53 561.56 514.78 558.07 511.99 557.56Z" fill="#CBBAAB"/>
<path d="M370.89 900.52C369.68 901.22 370.45 905.18 371.87 905.42C374.24 905.81 371.72 900.04 370.89 900.52Z" fill="#556266"/>
<path d="M424.78 815.27C423.79 815.58 425.12 818.56 425.27 818.7C430.04 823.16 426.48 814.75 424.78 815.27Z" fill="#6C7475"/>
<path d="M292.99 837.8C295.38 840.97 293.56 842.93 296.91 841.23C294.88 836.88 293.19 837.97 292.99 837.8Z" fill="#556266"/>
<path d="M468.88 546.78C467.58 546.23 464.89 547.66 465.45 549.23C465.69 549.89 469.87 548.16 468.88 546.78Z" fill="#556266"/>
<path d="M278.78 900.52C277.67 904.19 278.55 909.71 279.27 902.97C279.33 902.46 281.29 902.39 278.78 900.52Z" fill="#6F7E7E"/>
<path d="M301.81 836.82C302.43 837.23 302.47 838.1 305.73 839.76C301.99 835.97 302.01 836.97 301.81 836.82Z" fill="#556266"/>
<path d="M365.01 571.27C362.91 569.76 363.81 574.73 365.01 574.21C365.76 573.88 365.84 571.87 365.01 571.27Z" fill="#78756F"/>
<path d="M309.65 839.76C309.74 839.75 310.67 838.37 310.63 838.29C308.95 834.48 305.99 840.28 309.65 839.76Z" fill="#556266"/>
<path d="M321.4 882.88C321.3 882.84 321.74 881.1 320.91 880.92C315.2 879.71 321.19 882.68 321.4 882.88Z" fill="#556266"/>
<path d="M379.71 910.32C376.03 909.8 380.03 914.39 381.18 911.79C381.22 911.69 379.81 910.33 379.71 910.32Z" fill="#6F7E7E"/>
<path d="M396.37 801.55C396.26 801.54 394.39 802.98 395.39 803.51C397.91 804.85 398.22 801.76 396.37 801.55Z" fill="#556266"/>
<path d="M438.01 815.27C437.87 815.19 436.86 812.09 435.07 813.8C436.42 815.8 437.91 815.14 438.01 815.27Z" fill="#6C7475"/>
<path d="M434.09 817.23C437.52 819.63 435.58 815.16 434.58 815.27C433.76 815.36 434.2 817.16 434.09 817.23Z" fill="#6C7475"/>
<path d="M509.05 550.7C508.44 550.61 507.76 550.59 507.58 551.19C506.75 554 513.5 551.32 509.05 550.7Z" fill="#8D8B82"/>
<path d="M505.62 553.64C504.79 550.5 502.52 552.74 502.68 553.15C503.08 554.15 505.34 553.37 505.62 553.64Z" fill="#CBBAAB"/>
<path d="M303.28 826.04L301.81 826.53L303.28 828L303.77 827.51L303.28 826.04Z" fill="#6C7475"/>
<path d="M263.1 884.84L261.63 885.33L263.1 886.8L263.59 886.31L263.1 884.84Z" fill="#556266"/>
<path d="M266.04 897.58L264.57 898.07L265.06 899.54L265.55 899.05L266.04 897.58Z" fill="#6F7E7E"/>
<path d="M434.09 817.23C430.79 816.68 433.14 819.29 433.6 819.19C434.45 819.01 433.97 817.3 434.09 817.23Z" fill="#6C7475"/>
<path d="M321.89 821.15L320.42 821.64L320.91 823.11L321.4 822.62L321.89 821.15Z" fill="#556266"/>
<path d="M508.07 391.95L506.6 392.44L508.07 393.91L508.56 393.42L508.07 391.95Z" fill="#56726E"/>
<path d="M393.92 627.13C391.22 627.62 387.74 628.4 385.1 629.09C363.62 634.75 367.28 637.12 383.14 624.68C354.38 628.93 394.6 619.82 374.32 618.8C395.45 610.87 396.92 603.18 400.78 599.69C371.18 616.65 401.49 593.67 415.97 582.05C412.58 588.66 398.18 594.13 400.78 599.69C408.25 592.93 416.75 587.22 421.85 578.13C425.37 582.41 404.23 598.56 415.97 592.83C421.92 589.93 449.78 559.07 457.62 553.14C405.03 566.07 397.88 525.71 383.64 525.21C376.12 524.95 365.7 555.74 362.57 561.96C364.09 563.38 369.31 575.35 368.45 576.66C355.66 573.02 358.69 565.54 350.81 594.3C348.69 602.03 342.56 629.25 343.95 635.46C345.31 641.51 370.56 662.02 347.38 643.79C344.46 646.05 354.46 694.91 355.71 702.09C357.53 712.53 358.07 729.83 358.65 732.47C359.69 737.22 368.04 743.34 362.57 745.21C373.14 758.46 368.65 766.49 362.08 746.68C355.92 762.66 375.03 757.73 367.96 764.32C351.38 749.19 372.61 771.76 366.49 777.55C391.11 795.48 374.01 770.92 377.76 757.46C381.08 762.52 377.08 780.05 385.11 780.49C376.82 737.93 380.16 754.88 388.54 782.94C394.74 778.41 389.51 781.03 389.03 779.51C377.7 743.65 382.1 721.83 390.01 778.53H391.97C395.12 756.24 391.43 762.1 390.01 758.93C387.21 747.93 376.16 715.85 382.17 726.59C383.26 728.53 391.59 763.18 393.93 758.93C393.43 746.33 384.95 733.74 385.11 719.73C398.55 766.33 394.38 741.75 387.56 714.34C388.49 713.81 395.61 739.89 393.93 727.57C393.74 726.17 382.37 692.6 389.03 706.01C390.66 709.29 393.81 728.2 394.91 721.69C394.95 721.43 392.95 717.05 392.95 716.79C393.12 706.2 394.78 676.85 391.97 668.78C391.57 667.63 374.32 646.08 390.5 665.35C392.97 650.17 380.61 654.12 379.72 653.59C378.59 652.92 363.79 638.15 360.61 635.46L362.08 633.99C380.12 638.29 376.87 650.62 394.42 635.95C395.56 635 408.1 621.82 403.24 622.23C402.28 622.31 389.02 639.76 397.85 626.64C397.52 625.51 396.09 626.74 393.93 627.13H393.92Z" fill="#556266"/>
<path d="M365.99 771.17C364.78 771.22 363.69 775.17 365.01 776.07C366.69 777.22 368.4 771.07 365.99 771.17Z" fill="#556266"/>
<path d="M400.77 599.69C398.17 594.13 412.57 588.66 415.96 582.05C401.48 593.67 371.17 616.65 400.77 599.69Z" fill="#1D201E"/>
<path d="M368.93 652.6C361.33 651.55 379.95 660.53 386.08 666.81C386.11 662.38 370.1 652.76 368.93 652.6Z" fill="#1D201E"/>
<path d="M453.69 623.21C453.76 624.09 454 626.74 453.2 627.13C453.3 624.98 445.65 616.63 445.85 620.76C445.93 622.36 471.63 650.13 449.28 627.13C442.76 627.56 464.95 648.29 459.08 646.73C442.48 625.95 452.41 642.21 459.57 652.61C459.73 652.77 463.08 652.71 462.02 656.53C459.03 654.29 459.7 652.8 459.57 652.61C456.98 650.05 454.3 647.89 452.22 644.77C451.53 645.25 451.52 647.45 451.73 648.2C452.26 650.06 476.65 682.32 452.22 650.65C448.23 652.59 463.71 668.33 463 672.21C454.53 660.08 447.15 651.38 451.73 662.9C452.66 665.23 461.57 671.75 452.71 668.78C474.07 694.35 455.56 672.55 454.18 672.21C453.5 672.04 452.13 672.01 451.73 672.7C454.74 684.34 452.8 717.34 453.69 721.69C453.76 722.03 457.57 726.28 457.61 726.59C458.08 730.01 451.43 720.98 453.69 729.53C453.76 729.79 455.06 730.85 456.63 733.94C458.49 734.52 463.27 739.55 461.04 740.8C458.61 739.05 457.89 736.41 456.63 733.94C455.46 733.58 454.83 732.13 453.69 733.45C451.87 743.97 457.33 743.19 459.57 750.11C456.02 745.41 451.83 744.12 453.69 749.13C454.59 751.55 474.5 762.81 453.69 755.01C470.7 775.48 458.29 761.38 457.12 761.38C446.42 761.38 474.43 786.64 456.14 770.2L453.69 770.69L463.49 784.41L455.16 776.08C451.62 789.08 456.3 776.86 458.59 782.45C459.07 783.63 457.02 784.34 457.61 785.39C458.95 787.78 469.97 798.68 460.55 792.25L455.16 783.92C449.3 783.3 463.34 795.44 453.69 791.27C455.48 793.25 466.94 805.18 467.9 805.48C472.33 806.85 483.83 804.03 485.05 799.11C485.87 795.78 485.99 750.4 487.99 730.52C489.85 712.05 501.28 683.46 492.4 670.26C484.31 684.76 459.15 689.33 481.62 672.22C490.36 665.56 498.34 671.45 490.93 654.09L486.52 661.44C489 645.76 479.53 662.59 478.68 662.42C476.29 661.96 485.27 655.51 468.39 662.91C495.52 642.36 490.25 620.23 493.87 596.28C496.94 575.94 506.38 551.71 496.32 532.1C471.42 532.94 466.24 551.46 476.72 539.94L477.21 541.41L452.71 563.95C500 559.79 484.57 563.56 449.28 568.36L447.32 571.3C464.82 575.05 459.31 575.3 445.85 573.75C462.89 596.13 438.97 566.89 438.99 578.65C438.99 580.37 453.65 589.44 455.65 593.35C450.79 593.45 439.08 578.37 437.03 581.59C452.04 599.48 466.97 619.86 438.99 587.47C437.56 589.98 460.76 617.88 455.65 615.89C449.85 605.32 432.71 584.7 441.93 603.15C442.77 604.83 464.75 630.29 453.69 623.24V623.21Z" fill="#556266"/>
<path d="M471.82 753.53C465.27 768.03 474.31 817.81 473.29 790.28L475.74 788.81C481.38 802.53 476.26 777.7 474.27 773.62C480.45 773.74 472.34 760.97 471.82 753.53Z" fill="#1D201E"/>
<path d="M473.78 742.75L475.74 759.41C478.25 757 475.69 746.99 473.78 742.75Z" fill="#343B3C"/>
<path d="M461.04 740.8C458.61 739.05 457.89 736.41 456.63 733.94C458.49 734.52 463.27 739.55 461.04 740.8Z" fill="#1D201E"/>
<path d="M459.57 652.6C459.7 652.79 459.03 654.28 462.02 656.52C463.08 652.7 459.73 652.76 459.57 652.6Z" fill="#1D201E"/>
<path d="M391.47 396.85C388.71 396.29 368.35 396.33 367.46 398.32C370.56 431.11 361.49 441.74 359.62 452.21C355.79 473.73 357.42 496.34 353.74 517.86C351.65 530.09 333.3 567.66 356.19 570.28C367.35 571.56 343.77 556.14 358.15 562.44C361.23 563.79 361.16 573.81 360.6 549.21C356.4 547.73 352.15 558.12 354.23 558.52C354.68 558.61 359.83 549.67 359.62 558.03C359.54 561.32 337.66 564.38 361.58 543.33C358.03 504.69 394.13 480.28 383.14 444.36C390.67 429.5 388.52 414.99 395.88 399.29C395.65 398.57 392.04 396.95 391.47 396.84V396.85Z" fill="#F5CAA9"/>
<path d="M381.18 452.71C381.03 448.63 381.97 441.11 380.2 450.26C372.42 457.76 370.97 462.39 381.18 452.71Z" fill="#33251D"/>
<path d="M381.18 452.71C382.09 477.57 384.88 464.65 383.14 457.12C382.95 456.28 381.89 453.02 381.18 452.71Z" fill="#866B48"/>
<path d="M369.91 433.11C368.32 434.16 368.19 436.01 367.46 437.52C361.3 450.19 373.11 434.19 369.91 433.11Z" fill="#735439"/>
<path d="M358.15 531.1C355.99 530.72 356.8 532.9 356.68 535.51C356.17 546.42 359.53 536.38 358.15 531.1Z" fill="#866B48"/>
<path d="M356.19 522.28C353.27 520.55 356.09 530.94 358.15 530.12C358.69 529.91 356.53 524.86 356.19 522.28Z" fill="#735439"/>
<path d="M359.13 540.9C355.31 539.29 356.51 554.98 359.62 543.35C359.79 542.72 359.81 541.19 359.13 540.9Z" fill="#564232"/>
<path d="M360.11 492.88C359.46 492.99 359.19 496.89 360.11 497.78C361.42 499.04 361.06 492.72 360.11 492.88Z" fill="#C7A380"/>
<path d="M359.13 514.44C358.27 514.85 357.94 517.45 360.11 517.38C360.84 517.36 359.27 514.37 359.13 514.44Z" fill="#735439"/>
<path d="M381.67 468.39C380.94 468.35 380.92 471.35 381.67 471.33C382.41 471.31 382.43 468.43 381.67 468.39Z" fill="#80644D"/>
<path d="M360.11 536.98C359.38 536.94 359.36 539.94 360.11 539.92C360.85 539.9 360.87 537.02 360.11 536.98Z" fill="#564232"/>
<path d="M427.23 299.85C428.42 299.95 428.11 299.04 428.21 298.87C429.68 296.37 433.55 287.33 432.13 295.44C439 291.46 429.31 290.33 438.99 289.07C438.39 287.1 430.04 286.95 439.48 286.13C445.44 291.63 441.53 288.74 438.99 289.07C439.78 291.67 437.72 293.53 438.5 293.97C485.07 295.11 455.28 301.84 462.51 274.86C420.76 283.71 424.01 253.2 419.88 253.79C416.53 261.95 424.27 299.45 427.72 271.43C430.37 277.02 428.21 286.65 432.13 287.6L427.23 299.85Z" fill="#DBB89B"/>
<path d="M439.48 286.13C445.44 291.63 441.53 288.74 438.99 289.07C438.39 287.1 430.04 286.95 439.48 286.13Z" fill="#1D201E"/>
<path d="M439.48 277.31C436.72 277.36 438.96 278.37 438.99 278.78C439.44 285.46 442.63 279.94 439.48 277.31Z" fill="#33251D"/>
<path d="M444.38 291.03C440.75 289.7 436.18 292.74 445.36 292.99C446.33 292.73 444.96 291.24 444.38 291.03Z" fill="#564232"/>
<path d="M449.28 278.29C448.43 278.64 448.56 279.57 449.28 280.25C454.25 284.95 451.7 277.28 449.28 278.29Z" fill="#715A35"/>
<path d="M446.34 284.17C442.76 284.36 447.94 287.54 448.79 285.64C448.98 285.21 446.89 285.28 446.34 284.17Z" fill="#866B48"/>
<path d="M452.22 282.21C449.7 280.87 449.39 283.96 451.24 284.17C451.35 284.18 453.22 282.74 452.22 282.21Z" fill="#C7A380"/>
<path d="M447.32 291.03L446.83 292.5L448.3 292.99L448.79 292.5L447.32 291.03Z" fill="#80644D"/>
<path d="M393.43 515.42C391.52 515.15 372.06 514.96 376.77 520.32C378.26 522.01 414.25 534.56 419.4 534.53L410.58 530.61C409.4 528.29 421.19 533.08 415.97 529.14C415.35 528.67 404.25 525.09 401.76 522.77C400.02 519.23 420.1 530.27 414.01 525.22C411.63 523.24 396.34 515.83 393.43 515.42Z" fill="#93BBC6"/>
<path d="M396.37 522.28C384.02 520.16 405.18 528.9 405.68 526.69C403.27 525.75 396.88 522.37 396.37 522.28Z" fill="#454D50"/>
<path d="M386.57 386.08C381.06 385.44 358.34 385.6 363.54 395.39C364.14 396.52 370.16 393.13 372.85 392.94C390.18 391.68 397.32 396.69 398.33 395.88C402.63 392.45 395.82 387.16 386.57 386.08Z" fill="#93BBC6"/>
<path d="M389.51 389.02C372.54 385.93 353.62 392.92 389.51 390.98L396.37 393.92V391.96C394.37 391.58 390.76 389.25 389.51 389.02Z" fill="#0F1C16"/>
<path d="M467.9 828.01C464.96 827.84 465.59 825.2 465.45 825.07C465.52 825.25 468.93 826.76 467.9 828.01Z" fill="#1D201E"/>
<path d="M404.69 424.29C402.18 420.66 396.86 409.79 396.85 414.98C396.85 417.65 423.06 459.98 411.55 445.36C407.34 440.01 402.13 427.63 398.32 421.35C405.99 442.11 420.59 470.95 399.79 430.66C395.07 436.87 399.62 436.25 402.73 442.42C421.68 479.96 410.12 459.9 398.32 438.99C390.68 456.7 407.62 463.98 417.43 475.74C416.13 480.09 400.03 458.86 396.36 456.63C397.47 460.14 392.31 468.25 392.93 470.84C393.46 473.04 430.05 502.86 393.42 473.29C392.21 473.46 390.59 480.42 390.97 481.62C392.28 485.75 440.74 503.13 448.29 503.67C488.13 504.63 500.73 506.95 453.19 506.61C416.81 502.88 393.65 481.95 390.48 483.09C390.01 483.26 387.64 491.16 387.05 492.4C437.17 528.66 391.3 495.86 388.52 495.83C385.49 495.8 382.94 503.65 383.13 504.16C383.73 505.8 397.61 508.58 400.28 508.57C432.8 528.38 387.26 502.8 382.15 507.1C381.88 507.33 379.88 513.43 380.19 513.96C381.67 516.5 392.54 504.95 432.61 536.01C455.89 536.67 478.48 531.04 501.2 527.19C505.64 521.57 482.38 465.29 478.17 456.15L488.95 475.75C487.82 460.34 485.01 427.16 487.97 447.33H489.93L488.95 435.57C490.17 444.81 495.82 420.97 495.81 419.89C495.81 418.68 490.1 404.98 489.93 396.37C492.41 391.85 494.11 422.64 497.77 414.01C501.76 404.59 496.3 394.23 496.79 391.47C498.07 384.2 499.31 403.74 501.69 399.31C503.23 396.45 504.38 379.23 507.57 373.83C507.51 369.68 491.06 363.03 508.06 369.42C512.56 368.44 513.5 340.71 516.39 346.39C513 364.25 518.31 366.78 518.35 367.95C518.43 370.46 512.34 378.91 510.51 381.67C530.03 372.3 508.36 385.62 510.51 389.51C535.08 385.23 506.04 392.37 507.57 396.37C538.97 390.06 526.96 391.93 504.63 401.27C504.4 402.99 532.42 396.75 533.05 395.39C530.44 378.52 530.98 346.14 521.29 332.68C515.61 324.79 474.57 303.15 464.95 301.81C440.07 298.37 404.72 309.35 384.11 321.9C384.16 322.82 392.32 328.13 394.89 331.7C406.81 348.24 401.75 370.23 407.63 362.08L405.67 369.92C425.44 355.58 401.47 376.33 404.2 377.27C428.81 357.99 389.77 390.71 409.59 379.72C403.69 387.4 410.52 383.49 410.57 384.62C410.66 386.6 402.6 382.99 412.53 402.26C400.15 381.01 405.43 396.35 412.53 407.16C399.91 398.09 417.87 421.47 407.63 411.08C404.5 397.46 400.8 383.33 401.75 396.38C402.25 403.25 418.7 436.59 409.59 421.86C408.38 419.91 399.01 397.8 403.71 414.02C405.63 420.65 411.38 431.57 415.47 437.54C414.58 439.85 405.8 425.91 404.69 424.31V424.29Z" fill="#93BBC6"/>
<path d="M404.69 424.29C406.39 427.26 406.58 421.07 405.18 421.35C404.55 421.48 404.47 423.9 404.69 424.29Z" fill="#6F7E7E"/>
<path d="M469.37 472.31C470.86 472.16 471.23 470.45 471.33 470.35L466.43 463.98L472.31 469.37C472.31 469.37 473.4 469.58 473.29 468.39C467.74 461.68 462.64 457.84 460.55 455.16C458.03 451.92 446.95 432.22 456.63 452.22C459.98 459.14 465.55 465.57 469.37 472.31Z" fill="#1D201E"/>
<path d="M438.01 458.59C440.23 459.61 441.42 461.73 442.91 463.49C442.95 463.43 444 463.71 443.89 462.51C439.38 456.5 434.77 454.67 430.17 443.4L441.44 476.23C442.35 471.62 434.46 460.09 438.01 458.59Z" fill="#1D201E"/>
<path d="M392.45 488.96C386.08 488.64 395.17 491.91 394.9 492.39C385.27 494 398.72 493.58 408.62 498.27C406.64 495.75 394.08 489.04 392.45 488.96Z" fill="#454D50"/>
<path d="M397.35 468.39L414.99 487.99C418.82 486.21 401.18 468.76 397.35 468.39Z" fill="#556266"/>
<path d="M442.91 463.49C445.27 466.29 448.23 471.3 449.77 474.76C470.97 499.17 450.14 470.84 443.89 462.51C444 463.71 442.95 463.43 442.91 463.49Z" fill="#556266"/>
<path d="M442.91 463.49C441.42 461.73 440.23 459.61 438.01 458.59L450.26 480.15C450.42 475.15 440.37 467.27 442.91 463.49Z" fill="#556266"/>
<path d="M492.39 354.72C485.82 353.02 503.31 366.48 504.64 364.03C502.52 362.23 493.14 354.91 492.39 354.72Z" fill="#1D201E"/>
<path d="M479.17 485.04C479.68 485.99 480.12 490.16 483.58 492.88C484.37 489.58 480.86 487.1 479.17 485.04Z" fill="#556266"/>
<path d="M399.31 446.83C397.58 447.4 399.53 449.57 399.8 450.26C403.77 460.32 401.78 446.01 399.31 446.83Z" fill="#556266"/>
<path d="M404.2 455.65C403.69 455.4 402.98 455.58 402.73 456.14C400.29 461.6 415.83 461.4 404.2 455.65Z" fill="#425861"/>
<path d="M490.92 495.82C491.09 496.01 490.49 499.04 492.88 497.29C491.79 495.8 490.97 495.93 490.92 495.82Z" fill="#556266"/>
<path d="M471.33 470.35C471.65 470.02 471.98 469.71 472.31 469.37L466.43 463.98L471.33 470.35Z" fill="#93BBC6"/>
<path d="M473.29 468.39C473.4 469.58 472.36 469.32 472.31 469.37C471.98 469.71 471.65 470.02 471.33 470.35C471.23 470.45 470.86 472.16 469.37 472.31C470.77 474.79 480.58 497.63 477.21 484.07C477.16 483.87 474.22 481.58 475.74 480.15C477.91 481.46 477.01 483.85 477.21 484.07C477.31 484.18 479.1 484.97 479.17 485.05C475.3 477.79 471.42 472.55 476.72 476.23C478.67 477.59 484.21 488.55 490.93 495.83C487.18 486.8 480.91 464.4 476.23 458.1C474.99 456.43 474.09 456.08 474.27 458.1L485.05 484.56C480.55 478.92 478 474.09 473.29 468.39Z" fill="#556266"/>
<path d="M474.76 471.33C474.16 471.25 473.5 471.2 473.29 471.82C472 475.59 482.67 472.4 474.76 471.33Z" fill="#93BBC6"/>
<path d="M477.21 484.06C477.01 483.84 477.92 481.45 475.74 480.14C474.22 481.57 477.16 483.86 477.21 484.06Z" fill="#93BBC6"/>
</svg>
