<svg width="1222" height="368" viewBox="0 0 1222 368" fill="none" xmlns="http://www.w3.org/2000/svg">
<g clip-path="url(#clip0_425_209)">
<g opacity="0.7">
<path d="M87.5094 404.978L96.5977 403.593C69.032 400.555 81.6303 383.385 70.6867 377.322C69.3705 376.598 57.7751 375.136 60.6833 373.637C85.4787 375.022 73.269 388.926 85.228 398.522C97.4125 399.284 103.781 403.834 105.235 404.05C112.33 405.143 147.455 402.69 159.789 402.207C161.131 402.182 163.676 404.965 164.34 404.978C189.098 405.181 214.119 402.83 238.889 404.05C243.326 403.529 226.566 398.928 224.348 398.522C223.947 398.445 221.352 400.059 216.162 399.449C215.284 399.348 208.728 393.247 199.79 398.522C191.053 395.014 183.582 398.331 181.15 391.15C190.063 381.644 173.378 377.157 158.423 381.008C156.53 379.75 160.905 379.407 157.972 377.322C141.763 377.348 160.968 351.167 125.241 360.724L118.422 353.81C115.94 332.471 94.2034 348.51 92.5111 348.739C80.1385 350.417 100.709 328.633 84.7892 319.698C85.579 284.481 55.8321 293.301 51.6076 292.5C50.8429 292.36 47.2076 287.264 37.0663 288.815C23.0767 279.359 15.1416 281.863 0.249395 286.972C0.249395 286.057 0.249395 285.116 0.249395 284.201C28.4544 272.636 26.2983 284.036 52.5227 289.73C65.9107 285.459 70.085 291.064 73.8833 291.573C90.2171 305.947 83.6234 313.801 92.9749 325.214C96.2091 335.636 89.277 343.363 91.6086 345.028C114.774 338.483 114.749 338.724 127.974 357.928C167.348 349.146 133.703 381.796 180.711 378.212C191.342 383.118 173.691 392.51 197.985 395.726C199.778 395.967 221.79 396.399 227.983 396.653C249.644 407.139 264.248 402.868 287.539 403.11C391.848 404.19 496.369 400.631 600.753 402.182C601.668 401.928 600.314 400.492 599.838 400.339C598.735 399.97 578.552 395.891 577.111 395.726C572.385 395.192 566.443 396.946 561.654 397.568C553.368 391.239 548.417 399.767 536.195 394.798L518.006 397.568C517.066 397.174 517.83 395.37 517.554 394.798C521.265 396.323 527.056 395.23 531.193 394.798C534.014 394.505 535.932 392.993 536.195 392.955C538.777 392.523 552.065 397.645 550.285 380.512C550.022 377.996 545.759 370.93 545.734 370.37C545.672 368.184 556.164 356.263 541.184 352.857C541.836 347.201 538.79 342.613 534.816 339.029C530.428 307.243 517.855 324.477 510.271 324.744C507.325 313.598 503.966 307.968 491.631 310.001C481.828 286.718 449.01 290.302 445.262 310.929C427.7 293.949 428.853 313.738 412.531 308.158C403.393 305.044 406.539 290.34 398.893 286.959C391.371 283.629 391.259 288.573 389.804 294.33C389.178 286.59 380.252 270.068 372.53 268.518C359.343 265.874 339.061 276.83 340.715 292.488C316.835 300.329 323.792 291.369 319.806 289.717C318.728 289.272 318.352 290.759 317.537 290.645L315.719 288.802C317.988 286.057 344.351 271.288 327.54 244.09C332.066 231.394 318.59 206.763 303.447 208.606C300.326 208.987 293.795 213.105 291.626 215.977C292.328 197.396 264.01 185.627 257.981 205.835C253.744 180.811 235.153 200.129 233.436 200.307C230.803 200.586 229.826 192.605 217.98 194.778C213.567 191.957 237.435 166.119 214.796 150.994C215.297 150.359 216.638 149.342 216.613 149.152C215.059 134.777 222.956 121.674 199.79 105.368C170.683 112.434 184.66 72.4634 140.698 100.754C138.141 78.8181 126.357 84.4611 123.875 84.156C118.585 83.5206 120.29 80.9279 119.325 79.5425C112.681 69.9851 112.317 68.7396 99.7818 74.929C99.7065 64.6345 71.3762 64.7743 69.3203 68.0152C68.6058 69.1463 70.2104 69.3242 70.2354 69.4005C70.4109 69.9978 69.9597 70.4427 69.3203 70.3283C68.0668 69.4259 66.1363 68.066 64.7699 67.5576C72.6924 62.9823 96.1339 62.3722 100.684 72.1711C102.151 72.4507 113.834 59.6524 123.411 81.3854C124.665 82.2115 137.702 78.1318 142.503 96.1282C179.646 77.4836 176.161 97.145 187.054 101.657C194.012 104.542 224.774 99.5725 218.418 150.054C221.54 152.634 226.955 161.378 227.507 164.797C231.267 188.093 208.816 188.551 233.411 196.596C251.424 184.166 257.467 196.354 258.871 196.596C261.44 197.04 282.964 183.785 294.334 210.423C314.792 196.697 334.936 226.081 330.248 244.065C346.256 272.203 321.423 285.815 321.16 288.306C320.771 291.878 331.665 294.572 337.067 290.607C338.421 289.615 337.957 276.652 352.524 269.407C379.362 256.05 385.68 282.18 390.707 284.15C412.055 281.151 403.594 305.006 417.069 306.277C426.835 307.205 428.439 294.394 443.432 305.349C451.254 288.954 483.608 286.832 489.801 305.349C512.891 303.913 508.103 321.91 512.528 321.948C514.609 321.961 529.238 300.139 537.536 339.004C544.92 344.812 541.898 349.87 551.175 356.517C546.762 369.303 556.49 381.3 548.906 392.93C568.737 394.378 590.436 393.146 607.547 403.529C434.218 405.054 260.776 406.376 87.4969 404.914L87.5094 404.978Z" fill="#060605"/>
<path d="M1222.17 74.0521L1208.08 92.4934C1204.73 93.7262 1190.53 86.0243 1189.44 105.864C1171.22 123.504 1195.67 123.199 1170.79 138.59C1168.39 140.077 1167.11 143.865 1166.24 144.119C1160.69 145.784 1159.65 132.121 1136.25 164.403C1123.5 163.005 1118.89 168.724 1113.52 179.146C1101.21 177.659 1098.18 190.864 1092.61 194.816C1078.11 195.96 1081.39 207.831 1078.52 213.715C1073.96 223.056 1067.75 224.95 1067.61 232.156C1057.62 234.241 1058.69 241.599 1053.07 247.827C1047.76 253.699 1038.8 256.774 1035.8 264.883L1034.88 263.955C1036.1 259.532 1034.45 255.834 1034.88 254.271C1043.16 232.601 1053.81 249.123 1053.98 222.929C1059.59 215.329 1068.59 219.841 1072.17 214.63C1073.21 166.436 1099.28 207.411 1094.89 177.303C1095.11 176.871 1095.74 175.536 1095.81 175.46C1101.51 168.012 1104.51 171.584 1112.63 171.774C1115.49 169.715 1103.91 152.24 1130.82 157.946C1130.39 139.988 1142.29 141.335 1151.73 128.448C1182.38 122.335 1155.26 109.371 1181.27 96.6493C1182.48 94.3871 1182.85 85.6557 1183.09 85.1219C1192.12 65.3462 1212.7 82.453 1208.55 57.924C1217.38 44.1343 1205.34 32.8103 1222.19 16.9109C1222.5 35.9241 1222.1 55.0389 1222.19 74.0648L1222.17 74.0521Z" fill="#E2ECE8"/>
<path d="M1222.17 249.2C1216.04 246.759 1211.54 248.297 1207.62 253.343L1222.17 251.042C1222.17 252.262 1222.17 253.508 1222.17 254.728C1219.5 254.652 1216.1 256.901 1213.98 258.414C1191.78 263.027 1202.62 278.914 1187.15 275.012C1170.44 297.482 1162.76 272.483 1153.51 289.755C1142.34 287.988 1132.39 298.296 1138.5 309.111C1138 311.272 1135.48 322.355 1134.87 322.939C1123.67 317.322 1123.74 322.113 1116.68 324.782C1114.52 325.608 1114.96 325.672 1114.86 325.71H1105.77L1105.32 323.867C1108.82 322.774 1115.34 326.612 1113.96 320.181C1111.69 309.582 1089.24 314.805 1083.96 321.109C1083.87 315.784 1082.88 309.658 1088.96 307.281C1098.04 303.723 1109.23 308.743 1111.24 309.124C1117.81 310.382 1117.69 311.818 1118.06 311.895C1119.5 312.162 1123.16 305.794 1128.06 314.665C1131.56 314.475 1120.82 283.832 1147.15 281.481C1147.35 281.469 1149.5 283.502 1150.79 283.324C1154.31 278.012 1168.56 267.018 1174.43 268.581C1178.52 269.662 1167.41 275.305 1188.97 266.738C1192.63 234.571 1208.04 260.6 1222.15 236.325C1222.15 240.621 1222.15 244.942 1222.15 249.225L1222.17 249.2Z" fill="#E2ECE8"/>
<path d="M12.0454 270.399C6.37928 274.466 20.3815 269.649 24.3177 270.399C25.9348 270.704 34.6219 277.173 37.9564 278.698C38.3826 278.889 41.1279 277.808 47.0446 280.541C48.2481 281.1 58.6526 291.077 46.1296 276.855C37.4549 275.063 34.484 272.483 33.8572 272.242C33.7946 271.009 34.6971 271.377 35.6749 271.314C36.5022 271.263 37.7057 271.161 38.4076 271.314C40.6014 271.797 40.0247 271.86 42.9581 272.242C53.3375 273.551 54.7791 271.301 59.7808 283.299C76.077 278.329 76.6536 287.645 77.9699 287.912C80.5021 288.421 97.8011 271.708 105.247 294.369C125.191 288.395 117.219 303.341 117.52 305.426C117.758 307.116 121.468 305.489 119.789 308.196C106.238 312.505 105.285 296.453 94.3288 292.526C91.1447 291.636 78.4086 292.208 73.8708 291.598C70.0599 291.09 65.8981 285.485 52.5102 289.755C26.2732 284.061 28.4419 272.661 0.236859 284.226C0.236859 276.868 0.236859 269.471 0.236859 262.1C5.51433 262.544 16.2824 266.599 12.0579 270.399H12.0454Z" fill="#CDDDDE"/>
<path d="M1222.17 159.777C1211.94 160.933 1208.63 167.364 1203.98 175.447C1202.95 175.193 1198.66 171.609 1198.52 171.304C1197.03 168.038 1200.22 168.203 1200.34 168.076C1200.4 168.012 1200.48 169.995 1202.16 168.533C1191.07 139.149 1220.49 139.416 1221.25 137.192C1219.4 131.88 1216.27 123.58 1222.17 120.136C1222.19 133.328 1222.15 146.572 1222.17 159.777Z" fill="#CDDDDE"/>
<path d="M1222.17 15.0553C1222.18 15.6654 1222.17 16.2881 1222.17 16.8982C1205.32 32.7976 1217.35 44.1216 1208.53 57.9112C1212.69 82.4276 1192.09 65.3208 1183.07 85.1092C1184.94 81.8556 1187.4 74.319 1190.79 72.2093C1195.92 69.0192 1202.75 73.9758 1205.79 68.9811C1209.03 57.5173 1210.03 35.314 1211.25 30.2684C1212.05 26.9513 1218.27 16.2754 1222.15 15.0553H1222.17Z" fill="#060605"/>
<path d="M1222.17 249.2C1222.17 249.81 1222.17 250.432 1222.17 251.042L1207.62 253.343C1211.54 248.297 1216.05 246.759 1222.17 249.2Z" fill="#8F9FA4"/>
<path d="M2.95708 297.126C2.66876 297.444 2.70636 301.499 0.224323 300.812C0.224323 299.287 0.224323 297.737 0.224323 296.199C1.67845 295.754 2.63115 297.482 2.95708 297.126Z" fill="#B3CBD4"/>
<path d="M1095.78 175.447C1093.54 167.771 1105 169.321 1110.32 168.533C1108.88 153.015 1115.11 154.998 1128.05 155.163C1130.39 138.425 1137.12 140.42 1138.95 138.565C1149.76 127.635 1146.56 127.406 1164.87 121.509C1166.27 96.0393 1175.51 100.233 1179.41 94.781C1181.24 92.2265 1181.43 87.918 1183.04 85.0965C1182.8 85.6303 1182.43 94.3489 1181.22 96.6239C1155.21 109.346 1182.33 122.309 1151.68 128.423C1142.24 141.31 1130.34 139.963 1130.77 157.921C1103.86 152.215 1115.45 169.69 1112.58 171.749C1104.47 171.558 1101.46 167.987 1095.76 175.435L1095.78 175.447Z" fill="#060605"/>
<path d="M989.418 289.755C981.897 278.838 964.497 284.099 958.505 281.456C955.284 280.032 955.033 267.717 938.047 275.927C935.164 263.193 917.539 263.548 912.588 275C904.979 260.511 888.269 267.666 886.677 281.456C879.519 279.969 887.053 279.295 884.859 275C901.205 255.173 910.068 270.399 911.685 270.386C913.227 270.386 925.361 255.516 938.047 272.229C955.873 267.793 956.913 277.491 959.872 278.685C971.267 283.299 983.802 274.25 989.418 289.742V289.755Z" fill="#060605"/>
<path d="M64.7825 67.6085C66.1363 68.1168 68.0793 69.464 69.3329 70.3791C71.1756 71.7136 74.673 73.9504 72.9682 75.9077C72.028 76.0093 64.8702 81.4489 62.9648 82.364C57.2486 81.182 49.9278 73.4675 44.7757 78.6783C44.5501 78.5639 43.7729 78.8689 43.8606 77.7505C48.0726 72.044 48.7996 68.8667 57.4993 66.6934C60.5329 66.8459 61.5859 66.4392 64.7699 67.6212L64.7825 67.6085Z" fill="#E2ECE8"/>
<path d="M858.497 301.74C857.82 301.829 857.494 301.854 857.582 302.668C855.739 302.337 855.438 301.854 854.849 301.74C852.63 301.346 842.815 294.102 844.845 307.269C841.135 308.387 839.392 307.535 836.208 308.196C835.343 308.374 833.25 310.586 832.122 310.967C830.58 311.488 829.301 314.335 828.486 311.895C833.964 302.973 840.119 306.722 840.759 306.366C843.304 304.968 842.05 290.009 858.484 301.753L858.497 301.74Z" fill="#494E51"/>
<path d="M400.259 313.712C407.48 313.026 406.577 321.643 409.811 325.697C412.87 326.523 426.346 298.652 437.089 324.769C438.543 324.744 443.193 323.625 443.908 323.842C444.008 323.867 445.625 324.693 445.726 324.769C447.067 325.634 457.998 342.473 463.915 343.211C485.676 337.809 484.222 355.284 487.093 356.111C502.788 349.108 531.444 344.075 526.643 369.481C527.144 370.587 541.936 372.874 537.549 387.922L539.366 387.464C539.253 387.668 539.291 391.226 538 392.078C537.173 392.612 530.366 391.659 531.181 394.849C527.044 395.281 521.252 396.374 517.542 394.849C516.238 392.192 516.89 390.782 516.627 390.235C517.993 368.172 497.159 386.054 479.81 369.036C458.374 374.628 457.083 356.67 455.716 354.751C454.877 353.569 452.232 352.832 450.264 350.137C448.922 348.307 446.089 341.279 445.713 340.923C436.462 332.039 428.326 343.516 421.62 335.852C411.077 341.419 407.906 331.874 393.44 338.622C373.471 317.309 362.627 333.475 358.892 334.009C345.792 335.903 356.497 303.799 312.974 313.725C314.403 311.615 320.583 312.34 321.611 311.882C322.977 311.272 319.116 311.704 322.062 307.269C328.731 303.913 339.549 306.57 340.251 300.812C345.704 298.613 347.547 294.979 348.437 294.356C392.713 271.288 374.799 302.871 394.355 304.498L400.259 313.712Z" fill="#B3CBD4"/>
<path d="M283.892 295.284C284.13 296.961 284.268 300.189 282.976 301.27C298.846 315.606 302.206 302.172 312.974 313.712C356.497 303.786 345.792 335.877 358.892 333.996C362.627 333.463 373.471 317.284 393.44 338.61C407.906 331.861 411.077 341.419 421.62 335.839C428.326 343.503 436.462 332.026 445.713 340.91C446.077 341.266 448.922 348.294 450.264 350.124C452.232 352.819 454.877 353.543 455.716 354.738C457.083 356.657 458.374 374.615 479.81 369.023C497.172 386.041 517.993 368.159 516.627 390.222C511.211 378.593 506.749 377.157 494.351 381.008C490.427 372.938 488.146 383.601 480.712 370.866C468.428 374.59 461.884 366.202 455.253 368.095C457.446 353.988 450.376 357.293 448.433 354.725C447.794 338.572 430.758 334.111 428.427 344.126C423.613 343.007 421.382 331.48 414.337 344.126C409.673 334.949 398.279 337.301 392.512 344.126C382.183 339.817 370.587 349.769 370.236 359.796C370.211 360.394 370.111 361.245 370.236 361.639C352.223 363.152 346.92 373.802 345.228 374.539C345.09 374.603 344.539 373.421 343.862 373.611C346.181 367.956 360.446 360.305 367.04 360.711C372.317 357.712 366.639 342.537 391.133 339.97C370.776 316.559 362.703 341.317 352.499 334.899C347.51 331.759 347.823 319.52 338.86 315.542C331.702 312.365 316.409 313.115 312.498 321.071C310.266 308.921 292.905 305.095 287.953 318.3C291.074 299.516 281.347 308.768 279.316 305.858C277.987 303.951 285.245 288.853 277.498 279.13C277.072 276.83 279.98 272.547 277.498 267.145C271.945 255.046 262.042 274.529 256.589 254.703C254.696 247.852 259.898 234.978 241.584 242.718C236.369 225.077 218.494 233.046 207.487 240.875C196.757 248.513 195.202 253.597 194.3 253.775C193.585 253.915 182.065 250.814 180.21 250.089C197.935 252.021 196.719 243.086 208.854 236.261C237.999 219.879 240.544 242.476 254.308 239.032C258.958 240.71 257.103 258.045 262.493 261.159C285.433 257.435 278.727 274.796 279.316 277.287C279.529 278.202 281.472 278.088 283.866 295.258L283.892 295.284Z" fill="#060605"/>
<path d="M428.452 344.138C428.201 345.206 428.615 346.668 428.452 347.824C424.465 348.726 418.599 354.191 417.997 354.28C413.208 354.929 409.623 344.507 397.088 355.208C383.925 350.379 381.606 363.19 370.262 359.822C370.613 349.794 382.208 339.843 392.537 344.151C398.304 337.326 409.686 334.975 414.362 344.151C421.407 331.505 423.638 343.033 428.452 344.151V344.138Z" fill="#E2ECE8"/>
<path d="M256.614 254.728H255.699C234.564 253.622 235.793 246.315 227.055 243.671C224.385 242.858 213.204 241.892 209.33 242.743L207.512 240.9C218.519 233.071 236.394 225.103 241.609 242.743C259.924 235.003 254.721 247.865 256.614 254.728Z" fill="#E2ECE8"/>
<path d="M370.262 361.652C371.34 365.261 375.852 363.927 376.63 364.422C376.768 364.511 378.385 366.786 378.447 367.193C375.602 374.692 364.708 374.806 349.352 379.178C346.682 377.983 342.031 378.199 343.899 373.649C344.576 373.459 345.128 374.628 345.266 374.577C346.958 373.827 352.261 363.19 370.274 361.677L370.262 361.652Z" fill="#B3CBD4"/>
<path d="M33.8698 272.242C34.5091 272.47 37.48 275.063 46.1421 276.855C58.6651 291.077 48.2606 281.1 47.0572 280.541C41.1404 277.808 38.3826 278.889 37.9689 278.698C34.6344 277.173 25.9473 270.704 24.3302 270.399C20.394 269.649 6.39182 274.466 12.0579 270.399C19.5291 266.268 26.8248 269.674 33.8823 272.242H33.8698Z" fill="#8F9FA4"/>
<path d="M259.347 396.679C254.157 393.794 255.561 389.295 247.526 387.464C247.401 386.6 247.739 385.431 247.526 384.694C254.897 381.936 264.85 388.977 259.347 396.679Z" fill="#E2ECE8"/>
<path d="M178.43 250.115C179.019 250.178 179.658 250.051 180.248 250.115C182.103 250.839 193.623 253.94 194.337 253.8C195.24 253.622 196.794 248.526 207.525 240.9L209.343 242.743C208.051 243.023 206.459 242.87 205.256 243.671C197.496 248.767 213.078 240.468 227.983 246.442C233.724 248.742 236.131 254.665 242.524 256.584C245.307 257.41 257.003 259.202 255.712 254.741H256.627C262.092 274.567 271.983 255.084 277.536 267.183C280.018 272.585 277.11 276.868 277.536 279.168C285.283 288.891 278.025 303.99 279.354 305.896C281.384 308.806 291.112 299.567 287.991 318.338C292.955 305.133 310.304 308.959 312.535 321.109C316.446 313.153 331.74 312.39 338.898 315.58C347.861 319.558 347.547 331.798 352.536 334.937C362.74 341.355 370.813 316.597 391.171 340.008C366.676 342.575 372.355 357.75 367.078 360.749C360.484 360.355 346.218 367.994 343.899 373.649C342.031 378.199 346.695 377.983 349.352 379.178C347.522 379.699 345.203 378.606 342.533 380.106C334.861 384.402 347.447 383.575 350.719 382.876C357.099 381.504 364.245 373.281 372.543 378.263C374.223 375.505 379.011 370.459 378.447 367.206C378.385 366.812 376.768 364.524 376.63 364.435C392.099 350.01 396.047 362.198 405.273 351.535C427.399 362.986 424.19 340.211 441.639 353.378C441.426 347.811 432.363 346.96 428.452 347.849C428.615 346.693 428.201 345.231 428.452 344.164C430.771 334.149 447.807 338.61 448.458 354.763C450.401 357.318 457.471 354.026 455.278 368.134C461.909 366.227 468.453 374.628 480.737 370.904C488.171 383.639 490.453 372.976 494.376 381.046C506.774 377.195 511.237 378.631 516.652 390.261C516.903 390.807 516.251 392.218 517.567 394.874C517.843 395.446 517.078 397.251 518.018 397.645L536.207 394.874C548.43 399.831 553.369 391.315 561.667 397.645C566.456 397.022 572.398 395.268 577.123 395.802C578.565 395.967 598.747 400.047 599.85 400.415C600.327 400.568 601.668 402.004 600.765 402.258C496.382 400.708 391.86 404.266 287.552 403.186C287.727 401.839 289.081 402.703 291.187 401.343C298.17 396.831 268.072 399.551 263.459 395.815C261.14 393.934 267.131 384.745 247.087 381.072C244.517 382.94 246.999 382.838 247.538 384.757C247.752 385.495 247.413 386.651 247.538 387.528C245.984 387.172 240.356 389.053 246.623 386.143C246.924 385.228 244.555 382.978 243.891 381.999C242.324 379.648 236.921 371.438 236.169 370.942L205.707 362.186C212.94 331.315 187.368 329.739 185.7 327.159C184.735 325.659 185.375 319.19 182.516 315.631C170.507 316.292 168.527 308.552 157.057 311.946C144.133 287.671 130.657 306.366 128.877 306.417C121.343 306.62 121.819 285.345 107.052 290.746C98.102 275.482 92.0473 280.744 77.0548 283.375C69.4206 277.008 63.9551 281.697 61.5984 280.604C58.5774 271.809 49.0754 266.942 42.9581 272.305C40.0247 271.937 40.6014 271.86 38.4076 271.377C40.5763 267.247 33.1427 268.009 35.6749 271.377C34.6971 271.441 33.7946 271.06 33.8572 272.305C26.8123 269.738 19.5166 266.332 12.0328 270.462C16.2573 266.662 5.48926 262.608 0.211788 262.163C0.236859 226.844 0.161646 191.474 0.211788 156.154C18.5262 140.306 44.4498 159.459 36.5775 180.582C52.3848 164.365 18.7143 133.824 0.211788 153.384C0.287001 111.57 -0.239492 69.7182 0.224323 27.968C18.1627 27.4088 16.9844 25.083 0.224323 24.2823C0.324608 17.6608 -0.327241 9.12007 0.224323 3.08314C16.0567 3.54067 15.8812 16.3898 16.5958 17.3684C20.7325 23.1004 28.3291 24.9686 26.5991 34.8819C46.4429 41.6687 37.9062 54.1239 40.2378 73.5946C19.8675 113.642 34.8099 87.3969 62.5135 95.2513C69.6087 97.2721 76.5032 106.855 78.885 113.693C91.1949 96.7383 110.475 107.567 100.246 127.063C117.908 128.88 109.961 143.483 111.615 145.034C118.535 144.78 124.865 150.079 127.072 149.647C129.278 149.202 136.172 135.349 145.261 156.104C161.131 137.929 160.504 159.078 161.168 160.247C162.297 162.242 184.735 179.082 157.533 198.044C168.289 208.059 176.387 221.836 160.266 231.229C160.329 232.245 163.55 229.932 167.085 231.686C176.662 236.439 165.744 248.869 178.455 250.127L178.43 250.115Z" fill="#B3CBD4"/>
<path d="M57.4993 66.6807C48.7996 68.8667 48.0726 72.044 43.8606 77.7378C20.369 109.511 58.9158 75.0816 78.8599 108.151C95.3818 99.3818 107.805 104.135 103.868 124.279C116.843 129.084 113.934 140.395 115.238 142.25C133.452 153.333 130.406 132.007 145.236 149.622C164.591 139.798 161.645 154.629 164.779 160.221C165.995 162.382 186.064 179.73 161.143 198.019C172.902 205.695 174.682 217.96 166.596 229.36C176.55 234.902 174.356 245.946 174.782 246.874C175.998 249.543 180.774 246.874 178.417 250.102C165.706 248.844 176.637 236.414 167.048 231.661C163.513 229.907 160.291 232.22 160.228 231.203C176.349 221.811 168.251 208.034 157.495 198.019C184.698 179.057 162.259 162.23 161.131 160.221C160.466 159.039 161.093 137.904 145.223 156.078C136.135 135.324 129.24 149.19 127.034 149.622C124.828 150.067 118.497 144.754 111.578 145.008C109.936 143.458 117.871 128.855 100.208 127.037C110.424 107.541 91.1573 96.7256 78.8474 113.667C76.4656 106.83 69.5836 97.2467 62.4759 95.2259C34.7723 87.3588 19.8299 113.604 40.2002 73.5691C37.8686 54.0984 46.4179 41.6433 26.5615 34.8565C28.304 24.9432 20.6949 23.0749 16.5582 17.343C15.8562 16.3644 16.0317 3.50255 0.186717 3.05772C0.312072 2.19348 0.03629 1.07506 0.224323 0.3125C20.3063 3.26107 17.022 14.064 19.316 17.3684C29.9712 25.0703 27.8402 32.2765 41.1404 43.1811L42.9581 46.8668C40.1376 83.4062 43.1336 65.9435 57.4993 66.6807Z" fill="#060605"/>
<path d="M0.224323 156.091C0.224323 155.176 0.224323 154.235 0.224323 153.32C18.7268 133.761 52.3973 164.288 36.59 180.518C44.4623 159.395 18.5388 140.242 0.224323 156.091Z" fill="#8F9FA4"/>
<path d="M0.224323 27.968C0.236859 26.7479 0.211788 25.5024 0.224323 24.2823C16.9844 25.083 18.1627 27.4088 0.224323 27.968Z" fill="#8F9FA4"/>
<path d="M243.891 381.936C235.517 384.63 238.162 376.56 236.62 374.107C233.687 369.417 212.589 370.548 207.976 365.35C194.375 371.247 209.455 357.953 203.89 342.766C202.548 339.105 186.979 327.972 182.065 328.938C185.55 311.869 174.381 319.393 173.428 319.253C172.237 319.076 164.503 306.15 153.421 319.253C152.644 318.656 154.65 304.803 145.236 302.655C132.738 299.821 131.71 310.853 128.864 310.954C126.683 311.03 125.091 303.583 117.495 305.426C117.194 303.341 125.166 288.395 105.222 294.369C97.7761 271.708 80.477 288.421 77.9448 287.912C76.6286 287.645 76.0519 278.329 59.7557 283.299C54.754 271.288 53.325 273.551 42.933 272.242C49.0378 266.866 58.5523 271.746 61.5734 280.541C63.93 281.621 69.383 276.931 77.0297 283.311C92.0348 280.681 98.0894 275.419 107.027 290.683C121.794 285.281 121.305 306.557 128.852 306.353C130.632 306.303 144.12 287.607 157.032 311.882C168.502 308.489 170.482 316.229 182.491 315.568C185.349 319.114 184.71 325.595 185.675 327.095C187.343 329.675 212.915 331.251 205.682 362.122L236.144 370.879C236.896 371.387 242.299 379.585 243.865 381.936H243.891Z" fill="#060605"/>
<path d="M317.073 340.453C324.005 341.33 328.644 346.464 326.161 347.824C322.138 339.919 289.871 343.185 291.162 354.738C286.925 359.898 269.864 347.824 263.885 373.179C261.867 358.767 274.365 352.336 287.063 353.365C295.85 333.259 301.504 345.702 317.061 340.465L317.073 340.453Z" fill="#8F9FA4"/>
<path d="M91.596 148.719C102.815 147.309 107.04 154.273 112.505 162.547C116.955 163.907 133.728 143.725 147.053 168.076C165.268 164.288 158.172 191.55 155.69 186.975C160.717 175.905 155.778 166.652 143.418 172.689C142.215 151.897 125.843 155.811 112.505 166.233C110.362 165.788 104.984 146.203 91.596 150.562V148.719Z" fill="#8F9FA4"/>
<path d="M376.63 364.422C375.852 363.939 371.352 365.261 370.262 361.652C370.136 361.258 370.236 360.406 370.262 359.809C381.606 363.177 383.913 350.379 397.088 355.196C409.623 344.494 413.208 354.929 417.997 354.268C418.599 354.191 424.465 348.714 428.452 347.811C432.363 346.922 441.426 347.773 441.639 353.34C424.19 340.173 427.399 362.948 405.273 351.497C396.047 362.173 392.099 349.972 376.63 364.397V364.422Z" fill="#8F9FA4"/>
<path d="M33.406 109.079C51.3569 105.317 54.754 120.276 57.048 121.064C68.3802 119.297 82.2947 115.574 86.5943 129.821C76.616 113.553 62.338 124.33 57.048 122.907C54.942 122.348 44.688 98.5049 20.6824 121.064C21.0208 116.908 30.4852 109.689 33.406 109.079Z" fill="#8F9FA4"/>
<path d="M255.712 254.728C257.003 259.189 245.307 257.41 242.524 256.571C236.131 254.665 233.724 248.729 227.983 246.429C213.066 240.456 197.484 248.767 205.256 243.658C206.459 242.87 208.064 243.023 209.343 242.731C213.216 241.879 224.398 242.845 227.068 243.658C235.805 246.302 234.577 253.61 255.712 254.715V254.728Z" fill="#8F9FA4"/>
<path d="M349.352 379.165C364.708 374.793 375.602 374.679 378.447 367.18C378.999 370.434 374.223 375.48 372.543 378.237C364.245 373.255 357.099 381.478 350.719 382.851C347.459 383.55 334.874 384.389 342.533 380.08C345.203 378.581 347.522 379.686 349.352 379.153V379.165Z" fill="#8F9FA4"/>
<path d="M462.548 382.851C468.954 382.419 470.32 382.495 474.369 387.465C481.164 382.546 490.703 383.626 496.194 390.235C510.384 382.482 516.79 400.326 505.282 389.307C500.017 388.278 493.173 394.277 492.559 393.921C489.813 376.509 474.683 391.633 473.467 391.15C472.79 390.883 472.276 383.321 462.561 384.694V382.851H462.548Z" fill="#8F9FA4"/>
<path d="M149.786 241.815C161.845 241.701 163.086 257.448 168.878 261.172C172.689 263.612 181.865 262.951 185.7 268.086C162.447 268.416 165.631 256.901 160.241 249.644C158.034 246.67 153.685 243.404 149.786 243.658V241.815Z" fill="#8F9FA4"/>
<path d="M210.696 268.556C230.365 265.328 239.277 276.741 232.057 285.612C228.434 290.06 233.185 280.35 230.239 274.555C225.551 265.353 203.852 271.721 197.96 277.783C193.786 275.279 208.139 268.988 210.684 268.569L210.696 268.556Z" fill="#8F9FA4"/>
<path d="M291.162 401.292C280.896 397.53 268.886 401.991 259.347 396.679C264.85 388.977 254.897 381.949 247.526 384.694C246.987 382.775 244.505 382.864 247.075 381.008C267.119 384.681 261.127 393.883 263.446 395.751C268.072 399.5 298.157 396.768 291.175 401.28L291.162 401.292Z" fill="#1A2022"/>
<path d="M307.985 322.939C322.739 328.137 329.784 319.902 335.714 327.082C340.816 333.272 337.08 341.38 333.896 337.224C333.169 336.271 340.151 319.787 320.708 329.395C317.336 326.193 312.636 324.477 307.985 324.782V322.939Z" fill="#8F9FA4"/>
<path d="M256.163 277.77C258.369 277.427 264.95 282.905 265.715 285.599C262.694 290.2 276.608 312.39 268.899 314.64C262.531 316.496 275.568 303.367 262.08 295.741C267.62 289.043 263.183 281.456 255.26 279.613C254.308 279.295 255.887 277.808 256.175 277.77H256.163Z" fill="#8F9FA4"/>
<path d="M329.809 377.322C330.85 377.119 338.296 377.132 338.898 377.322C348.65 380.513 328.255 375.746 317.988 391.15C313.576 387.109 326.387 377.996 329.809 377.322Z" fill="#8F9FA4"/>
<path d="M13.4117 35.3394C26.712 32.6196 22.5752 58.3052 22.9638 59.7668C23.1393 60.4531 29.0937 65.7529 27.5142 70.8239C24.8191 79.4282 26.1729 64.6599 21.1462 59.7668C21.447 54.2255 23.202 41.4145 17.9621 38.1101C17.1097 37.5763 6.91831 36.6739 13.4117 35.3394Z" fill="#8F9FA4"/>
<path d="M145.236 204.031C153.835 203.446 162.735 205.988 160.241 216.473C157.483 228.051 159.413 213.334 159.326 212.787C157.759 202.124 135.646 208.225 129.328 210.944C128.726 209.165 142.528 204.221 145.236 204.031Z" fill="#8F9FA4"/>
<path d="M421.632 366.265C431.297 367.943 452.658 365.058 452.996 377.793C446.979 364.092 412.506 371.324 421.632 366.265Z" fill="#8F9FA4"/>
<path d="M223.433 319.253C233.361 325.074 235.141 338.152 226.165 345.981C224.122 338.279 237.548 335.496 223.433 319.253Z" fill="#8F9FA4"/>
<path d="M355.257 341.368C355.996 341.228 358.115 341.139 358.441 341.825C355.77 342.613 353.802 344.901 353.439 345.053C344.376 348.917 346.269 343.02 355.257 341.368Z" fill="#838E90"/>
<path d="M35.6749 271.314C36.5022 271.263 37.7057 271.161 38.4076 271.314C40.5638 267.183 33.1427 267.946 35.6749 271.314Z" fill="#060605"/>
<path d="M361.625 339.525C366.05 337.987 361.712 342.677 360.709 342.295C359.468 341.813 360.885 339.792 361.625 339.525Z" fill="#8F9FA4"/>
<path d="M913.954 335.839C914.054 336.055 913.766 336.856 914.869 336.767C914.28 337.733 913.816 341.901 913.051 344.138C905.856 344.952 902.847 338.165 892.593 340.453C889.171 341.215 886.2 346.185 884.408 346.909C880.409 348.536 866.394 347.417 853.946 356.123C851.364 355.907 848.293 355.818 848.493 357.051C832.36 351.306 827.91 363.152 823.485 366.265C820.764 368.184 808.605 366.481 809.395 381.478C804.882 391.341 781.879 354.179 774.847 381.021C773.267 382.597 772.478 381.733 772.114 381.949C765.533 380.576 751.506 383.448 751.205 391.163C748.71 392.561 747.319 392.752 743.483 393.006C741.853 389.473 743.997 389.714 744.849 388.392C744.987 388.176 747.118 388.863 747.582 387.935C748.184 386.727 744.172 373.649 766.222 375.492C773.581 361.474 788.072 361.817 798.038 372.722C803.867 358.436 807.903 358.563 822.582 360.737C824.387 336.564 843.717 340.402 858.948 351.522C864.175 333.996 877.488 343.376 880.772 342.308C889.008 329.535 901.606 327.044 913.954 335.852V335.839Z" fill="#CDDDDE"/>
<path d="M958.505 281.456C958.957 284.138 957.979 286.845 954.87 286.984C951.699 275.584 937.295 282.663 936.23 282.371C935.891 282.282 933.635 277.618 931.679 276.842C929.673 276.042 892.293 281.113 889.397 282.371C888.093 282.79 887.667 281.659 886.664 281.443C888.256 267.654 904.966 260.511 912.575 274.987C917.527 263.536 935.139 263.167 938.035 275.915C955.02 267.704 955.271 280.02 958.493 281.443L958.505 281.456Z" fill="#E2ECE8"/>
<path d="M773.029 334.924C753.749 335.343 760.193 346.731 747.118 351.522C741.352 366.024 730.208 367.218 724.842 381.021C723.301 380.69 722.436 381.25 721.207 381.949C721.358 368.68 716.632 354.013 737.115 359.822C738.657 352.349 743.032 338.864 752.571 343.223C761.321 327.972 767.626 330.107 769.394 328.48L773.029 334.937V334.924Z" fill="#E2ECE8"/>
<path d="M1019.42 296.199C1015.72 298.613 1012.52 299.529 1008.05 298.969C1004.84 301.104 1004.1 305.21 1003.04 306.341C1002.72 306.697 1002.08 307.98 1000.31 310.026C998.569 312.047 993.78 309.645 991.674 322.011C986.222 309.645 999.622 309.099 1009.4 294.356C1014.35 294.648 1015.49 295.525 1019.4 296.199H1019.42Z" fill="#838E90"/>
<path d="M1049.41 335.839C1052.53 345.93 1043.08 341.965 1035.77 338.61C1043.77 329.828 1044.59 335.127 1049.41 335.839Z" fill="#B3CBD4"/>
<path d="M854.849 301.74C851.727 305.616 849.032 306.01 844.845 307.269C842.815 294.102 852.63 301.333 854.849 301.74Z" fill="#B3CBD4"/>
<path d="M1222.17 116.463C1214.76 120.2 1216.76 128.092 1217.62 135.362C1216.88 137.421 1189.99 140.458 1200.34 168.089C1200.22 168.216 1197.03 168.05 1198.52 171.317C1198.66 171.634 1202.95 175.206 1203.98 175.46C1203.01 177.138 1201.66 178.256 1200.34 179.603C1204.26 184.852 1209.14 161.721 1222.17 162.547C1222.19 185.882 1222.14 209.267 1222.17 232.601C1209.53 254.042 1197.96 239.515 1190.35 252.415C1188.19 256.063 1187.67 263.447 1187.17 263.942C1170.76 267.73 1161.43 266.141 1149.89 280.541C1122.9 276.245 1127.71 308.298 1125.34 309.111C1120.98 307.18 1115.76 309.137 1111.25 308.184C1110.1 307.942 1103.47 300.317 1088.98 303.57C1081.49 305.26 1078.93 317.614 1080.34 323.854C1081.44 329.281 1073.07 327.68 1071.7 328.468C1069.67 329.637 1071.21 338.292 1053.51 335.839C1052 335.623 1037.78 321.973 1029.42 342.753C1028.93 343.986 1026.31 351.7 1028.05 351.51C1033.27 347.405 1030.03 344.914 1035.77 338.61C1043.08 341.978 1052.53 345.93 1049.41 335.839C1076.57 339.906 1068.4 333.742 1074.42 331.226C1079.1 329.268 1077.79 334.187 1083.06 327.54C1084.24 326.053 1083.91 325.773 1083.97 325.697C1084.26 325.328 1086.86 319.863 1089.88 318.326C1095.72 315.352 1108.71 314.996 1113.97 320.168C1115.35 326.599 1108.83 322.761 1105.33 323.854L1105.79 325.697C1114.46 329.586 1114.41 325.85 1114.87 325.697C1114.97 325.659 1114.54 325.595 1116.69 324.769C1117.82 330.654 1121.44 323.384 1123.51 322.926C1126.86 322.177 1132.07 325.583 1134.88 322.926C1135.49 322.342 1138.01 311.272 1138.52 309.099C1140.35 301.168 1135.29 290.784 1155.34 292.5C1163.46 273.779 1168.84 302.096 1188.07 277.757C1200.43 281.456 1197.61 270.183 1213.98 258.401C1216.09 256.876 1219.5 254.639 1222.17 254.715C1222.2 291.878 1222.19 329.09 1222.17 366.253L894.411 369.023C883.806 371.857 879.193 368.388 874.868 380.08C874.342 381.491 875.808 382.266 875.783 382.381C875.106 384.961 873.314 385.558 873.05 387.452C873.013 387.757 873.088 388.075 873.05 388.38C872.637 391.582 873.928 390.998 873.965 391.15C874.241 392.269 873.339 393.934 874.881 393.921C873.94 398.356 874.279 402.449 868.513 401.292C868.513 400.682 868.763 399.704 868.061 399.449C859.086 396.259 702.592 403.758 678.499 398.992C688.301 384.224 740.324 395.992 740.324 390.693C729.368 385.075 694.519 396.653 691.222 381.478C689.254 372.378 693.428 361.398 703.043 359.351C700.423 346.82 701.978 327.07 718.951 332.153C727.989 314.958 736.801 325.062 743.044 326.625C745.401 327.209 745.539 325.646 747.594 325.697C740.374 339.461 754.201 320.041 755.316 319.241C757.498 317.703 761.384 317.271 763.953 316.47C772.666 316.915 769.933 318.313 770.321 318.313C768.391 330.946 762.249 327.197 758.049 330.298C753.574 333.59 754.727 338.165 752.596 339.512C750.127 341.075 740.123 335.75 736.225 357.026C705.851 351.154 721.032 399.068 721.22 381.91C722.448 381.224 723.326 380.652 724.855 380.983C724.993 381.008 725.72 383.448 727.124 382.826C728.917 382.025 729.681 374.92 731.21 373.141C733.417 370.586 741.615 369.519 741.214 367.612C741.026 366.736 738.519 367.549 738.481 366.685C738.444 365.935 744.26 363.063 746.667 354.7C762.374 346.312 756.219 342.804 760.757 339.487C764.029 337.097 772.703 338.851 773.48 338.559C777.843 336.945 776.815 331.62 779.848 329.345C783.684 326.447 788.448 327.883 790.754 326.574C799.291 321.744 779.886 322.609 773.029 334.873L769.394 328.417C772.001 326.002 770.497 315.491 783.935 317.36C783.998 317.372 783.722 318.376 784.85 318.288C790.24 322.634 791.832 311.31 798.489 310.916C799.078 310.98 799.717 310.853 800.307 310.916C811.676 324.871 803.14 304.701 819.85 308.145C821.404 308.463 827.784 312.81 827.571 315.517C800.958 313.305 820.865 326.002 803.478 322.888C791.594 341.393 776.313 342.499 771.199 362.058C774.358 364.206 773.618 356.632 777.567 351.001C779.811 347.799 788.222 339.779 792.572 340.402C802.814 322.672 810.561 328.493 812.579 327.502C815.337 313.534 820.79 321.122 828.486 316.445C828.95 316.165 831.157 317.5 832.122 310.916C833.25 310.535 835.356 308.323 836.208 308.145C839.392 307.485 841.135 308.336 844.845 307.218C849.032 305.959 851.715 305.565 854.849 301.689C855.425 301.791 855.739 302.286 857.581 302.617C874.066 305.54 858.121 280.579 878.491 275.889C880.96 275.482 882.903 277.503 884.859 274.961C887.053 279.257 879.519 279.931 886.677 281.418C887.667 281.621 888.093 282.765 889.409 282.346C887.078 283.362 877.952 294.178 877.588 296.631C876.861 301.549 881.374 305.057 879.857 310.001C884.859 305.121 871.734 295.373 892.581 284.188C943.663 272.674 929.912 284.43 934.399 286.031C937.107 286.997 948.928 276.423 954.406 292.488C955.046 292.094 955.083 287.772 954.857 286.959C957.966 286.819 958.957 284.112 958.493 281.43C964.485 284.074 981.884 278.812 989.406 289.73C990.007 291.407 992.063 289.946 990.321 292.5C977.798 296.453 976.569 306.938 982.599 317.385C980.267 318.516 954.582 305.845 950.783 329.37C941.457 321.833 920.673 327.184 914.869 336.741C913.766 336.83 914.067 336.042 913.954 335.814C908.087 323.842 883.743 327.362 878.955 339.499C861.066 334.467 857.569 348.701 856.228 348.714C849.922 339.69 830.041 336.551 823.949 346.413C821.441 350.48 823.171 354.725 819.862 357.941C800.419 353.238 798.1 368.159 796.22 368.083C774.721 354.052 765.232 371.997 763.49 372.696C758.087 374.831 746.203 370.116 744.849 388.367C743.997 389.676 741.866 389.447 743.483 392.98C747.331 392.726 748.723 392.536 751.205 391.137C754.201 389.46 758.726 381.199 770.748 384.681C772.615 383.397 771.976 381.999 772.114 381.91C772.478 381.694 773.255 382.559 774.847 380.983C776.815 379.025 777.216 371.108 788.937 373.611C794.315 374.755 798.376 386.486 815.299 388.354C806.023 377.983 814.697 370.18 826.205 368.07C832.861 351.561 860.302 361.22 848.481 357.013C848.28 355.793 851.351 355.882 853.934 356.085C854.021 356.085 853.67 358.017 854.385 357.928C855.839 357.737 873.89 346.884 881.662 353.314C899.45 333.094 899.287 348.498 913.026 345.015C913.139 344.99 912.425 347.239 914.393 346.858C918.116 330.4 939.953 321.109 951.673 334.873C954.569 307.103 985.494 314.716 995.31 333.945C998.506 332.014 994.683 327.578 994.858 326.574C996.237 318.618 1008.61 312.378 1015.32 317.36C1024.71 297.495 1046.54 313.102 1035.32 304.46C1010.68 303.379 1020.81 322.189 1003.04 306.303C1004.1 305.171 1004.84 301.066 1008.05 298.931C1012.52 299.49 1015.72 298.588 1019.42 296.161C1022.99 296.783 1027.56 296.097 1035.32 300.774C1049.33 294.559 1050.25 303.545 1053.96 298.474C1051.34 271.873 1071.49 287.95 1077.14 271.276C1063.85 287.175 1054.75 269.42 1050.78 297.088C1028.8 298.626 1030.31 294.61 1025.32 293.403C1023 292.843 1016.7 294.013 1011.68 292.475C1007.41 289.755 1016.24 284.608 1016.68 283.718C1018.56 279.956 1017.85 274.313 1021.23 270.818C1026.8 265.048 1031.56 275.953 1034.87 263.904L1035.79 264.832C1032.57 273.563 1041.3 259.431 1043.51 257.461C1047.11 254.258 1053.5 255.135 1062.6 237.177C1073.71 237.761 1065.55 227.505 1078.51 220.121C1080.18 214.884 1081.74 200.574 1087.15 198.464C1094.79 195.464 1088.42 204.819 1107.15 182.793C1121.72 185.005 1115.19 162.166 1137.15 167.123C1158.35 135.476 1163.2 147.626 1166.24 146.839C1171.63 138.527 1177.49 137.243 1178.07 136.696C1191.57 123.784 1175.06 118.37 1191.25 107.656C1190.75 86.9013 1206.45 96.5731 1208.08 96.1282L1222.17 76.7719C1222.22 89.9642 1222.14 103.207 1222.17 116.412V116.463Z" fill="#B3CBD4"/>
<path d="M1222.17 366.265C1222.17 367.18 1222.17 368.121 1222.17 369.036C1169.49 370.294 912.211 366.71 884.408 373.649C877.814 375.289 878.203 378.784 874.856 380.106C879.193 368.4 883.793 371.87 894.398 369.049L1222.15 366.278L1222.17 366.265Z" fill="#060605"/>
<path d="M1222.17 76.8227L1208.08 96.1791C1206.45 96.6239 1190.75 86.9521 1191.25 107.706C1175.06 118.408 1191.57 123.835 1178.07 136.747C1177.49 137.294 1171.63 138.577 1166.24 146.889C1163.2 147.665 1158.35 135.527 1137.15 167.173C1115.19 162.204 1121.72 185.055 1107.15 182.844C1088.42 204.869 1094.8 195.515 1087.15 198.515C1081.74 200.637 1080.18 214.935 1078.51 220.171C1065.53 227.556 1073.71 237.812 1062.6 237.227C1053.5 255.186 1047.09 254.296 1043.51 257.511C1041.29 259.494 1032.55 273.614 1035.79 264.883C1038.78 256.787 1047.75 253.711 1053.06 247.827C1058.69 241.599 1057.62 234.241 1067.6 232.156C1067.75 224.95 1073.95 223.056 1078.51 213.715C1081.38 207.831 1078.09 195.96 1092.6 194.816C1098.16 190.864 1101.2 177.659 1113.51 179.146C1118.87 168.724 1123.49 163.005 1136.23 164.403C1159.65 132.121 1160.69 145.784 1166.23 144.119C1167.1 143.865 1168.38 140.077 1170.78 138.59C1195.65 123.199 1171.2 123.504 1189.42 105.864C1190.51 86.037 1204.7 93.7262 1208.06 92.4934L1222.15 74.0521C1222.15 74.9672 1222.15 75.9077 1222.15 76.8227H1222.17Z" fill="#8F9FA4"/>
<path d="M1222.17 236.287C1208.05 260.562 1192.64 234.546 1188.98 266.7C1167.42 275.266 1178.52 269.623 1174.44 268.543C1168.58 266.993 1154.32 277.986 1150.8 283.286C1149.51 283.464 1147.37 281.43 1147.17 281.443C1120.83 283.794 1131.57 314.437 1128.07 314.627C1123.19 305.756 1119.51 312.136 1118.07 311.857C1117.71 311.793 1117.82 310.357 1111.25 309.086V308.158C1115.76 309.111 1120.98 307.141 1125.34 309.086C1127.71 308.273 1122.9 276.207 1149.89 280.515C1161.43 266.128 1170.76 267.717 1187.17 263.917C1187.67 263.434 1188.19 256.05 1190.35 252.39C1197.97 239.49 1209.54 254.004 1222.17 232.576C1222.17 233.796 1222.17 235.041 1222.17 236.261V236.287Z" fill="#060605"/>
<path d="M1222.17 120.149C1216.29 123.593 1219.41 131.892 1221.25 137.205C1220.49 139.429 1191.07 139.162 1202.16 168.546C1200.48 170.008 1200.4 168.012 1200.34 168.089C1189.99 140.458 1216.88 137.421 1217.62 135.362C1216.75 128.105 1214.76 120.2 1222.17 116.463C1222.17 117.683 1222.17 118.929 1222.17 120.149Z" fill="#060605"/>
<path d="M1222.17 159.777C1222.17 160.692 1222.17 161.632 1222.17 162.547C1209.14 161.708 1204.26 184.852 1200.34 179.603C1201.66 178.256 1203.01 177.138 1203.98 175.46C1208.63 167.377 1211.92 160.946 1222.17 159.789V159.777Z" fill="#8F9FA4"/>
<path d="M1034.87 263.942C1031.56 275.991 1026.8 265.086 1021.23 270.856C1017.86 274.351 1018.56 280.007 1016.68 283.756C1016.24 284.646 1007.41 289.793 1011.68 292.513C1016.7 294.051 1023 292.869 1025.32 293.441C1030.31 294.648 1028.8 298.664 1050.78 297.126C1054.75 269.458 1063.85 287.213 1077.14 271.314C1071.48 287.988 1051.34 271.898 1053.96 298.512C1050.25 303.596 1049.33 294.597 1035.32 300.812C1027.55 296.135 1022.99 296.821 1019.42 296.199C1015.5 295.525 1014.36 294.648 1009.41 294.356C973.209 292.233 974.601 311.806 993.041 325.697C993.128 325.761 992.752 326.955 994.858 326.625C994.683 327.629 998.506 332.077 995.31 333.996C985.494 314.767 954.557 307.141 951.673 334.924C939.965 321.16 918.116 330.438 914.393 346.909C912.425 347.278 913.139 345.041 913.026 345.066V344.138C913.791 341.889 914.255 337.733 914.844 336.767C920.648 327.21 941.432 321.859 950.758 329.395C954.569 305.871 980.242 318.542 982.574 317.411C976.544 306.964 977.772 296.478 990.295 292.526C994.771 291.115 1003.03 290.95 1008.02 290.683C1023.16 255.084 1028.18 270.5 1032.11 265.328C1034.16 262.646 1029.29 240.328 1049.39 236.757C1052.4 207.881 1065.78 219.18 1069.39 214.63C1074.65 197.117 1067.01 184.229 1091.67 187.432C1093.61 183.251 1092.44 182.183 1094.85 177.29C1099.23 207.411 1073.17 166.436 1072.13 214.617C1068.56 219.828 1059.57 215.304 1053.94 222.917C1053.78 249.111 1043.12 232.588 1034.85 254.258C1034.41 255.808 1036.06 259.52 1034.85 263.942H1034.87Z" fill="#060605"/>
<path d="M743.032 326.625C736.789 325.062 727.976 314.97 718.938 332.153C701.953 327.07 700.398 346.82 703.031 359.351C693.416 361.398 689.242 372.366 691.21 381.478C694.494 396.653 729.355 385.088 740.311 390.693C740.311 395.992 688.289 384.224 678.486 398.992C702.579 403.758 859.073 396.272 868.049 399.449C868.763 399.704 868.5 400.682 868.5 401.292L676.204 402.22C671.541 391.57 686.609 392.65 693.027 389.778C678.724 366.672 699.847 358.691 700.298 356.593C695.785 343.109 700.987 327.553 717.121 329.395C723.514 319.673 735.259 317.843 743.032 326.625Z" fill="#060605"/>
<path d="M783.935 317.411C770.497 315.555 772.001 326.066 769.394 328.468C767.639 330.095 761.321 327.959 752.571 343.211C743.032 338.851 738.657 352.323 737.115 359.809C716.632 354.001 721.358 368.667 721.207 381.936C721.007 399.094 705.839 351.179 736.212 357.051C740.098 335.776 750.102 341.101 752.584 339.538C754.715 338.19 753.561 333.615 758.037 330.323C762.249 327.235 768.378 330.971 770.309 318.338C770.723 318.338 777.63 315.593 778.031 315.568C784.737 315.301 783.647 317.322 783.935 317.411Z" fill="#060605"/>
<path d="M878.491 275.927C858.12 280.617 874.066 305.578 857.581 302.655C857.481 301.842 857.82 301.829 858.497 301.727C865.742 300.736 863.185 289.717 864.865 284.671C868.976 272.292 877.601 276.067 878.503 275.915L878.491 275.927Z" fill="#060605"/>
<path d="M828.486 311.869C829.301 314.322 830.592 311.463 832.122 310.942C831.157 317.538 828.95 316.19 828.486 316.47C828.574 315.682 828.273 315.606 827.571 315.542C827.772 312.835 821.404 308.489 819.85 308.171C803.14 304.714 811.676 324.896 800.307 310.942C801.184 311.043 801.773 308.222 805.308 312.784C810.711 302.668 821.015 304.701 828.486 311.857V311.869Z" fill="#060605"/>
<path d="M763.941 316.483C761.371 317.283 757.485 317.716 755.304 319.253C754.176 320.041 740.349 339.474 747.582 325.71C752.559 316.216 754.226 316 763.953 316.496L763.941 316.483Z" fill="#060605"/>
<path d="M798.489 310.954C791.832 311.361 790.24 322.672 784.85 318.326C790.002 315.987 791.569 308.501 798.038 309.111C798.765 309.073 798.401 310.942 798.489 310.954Z" fill="#060605"/>
<path d="M874.856 393.908C873.314 393.908 874.216 392.269 873.94 391.138C877.124 389.651 874.943 393.476 874.856 393.908Z" fill="#384148"/>
<path d="M873.038 388.38C873.075 388.075 873 387.757 873.038 387.452C874.956 386.232 874.956 386.283 874.856 388.837L873.038 388.38Z" fill="#14141A"/>
<path d="M1187.62 166.233C1187.98 167.161 1188.34 168.864 1188.53 169.919C1182.89 171.075 1181.93 174.469 1169.89 172.689C1163.59 178.637 1161.47 187.661 1157.62 195.274C1157.17 196.151 1151.79 199.671 1150.35 204.488C1149.01 208.974 1149.47 220.515 1148.53 222.002C1147.99 222.84 1144.53 222.84 1141.26 226.145C1139.47 227.95 1137.99 229.78 1138.53 232.601C1129.93 230.822 1129.67 220.692 1115.35 229.83C1113.22 231.19 1103.49 241.307 1106.71 244.116C1079.6 258.579 1096.82 270.729 1088.52 274.072C1072.97 257.829 1083.76 238.765 1103.98 235.817C1099.78 228.191 1107.54 216.511 1115.35 215.075C1127.1 212.914 1129.92 221.887 1142.63 221.531C1144.48 220.54 1128.09 190.915 1156.72 191.575C1142.05 176.273 1163.74 150.334 1187.63 166.22L1187.62 166.233Z" fill="#E2ECE8"/>
<path d="M913.954 335.839C901.606 327.032 889.008 329.523 880.772 342.295C877.488 343.376 864.175 333.984 858.948 351.51C843.717 340.389 824.387 336.551 822.582 360.724C807.903 358.551 803.867 358.424 798.038 372.709C788.072 361.804 773.568 361.448 766.222 375.48C744.172 373.637 748.184 386.715 747.582 387.922C747.118 388.85 745 388.163 744.849 388.38C746.203 370.129 758.087 374.844 763.49 372.709C765.232 372.023 774.721 354.077 796.22 368.095C798.1 368.172 800.407 353.264 819.862 357.953C823.171 354.738 821.441 350.493 823.949 346.426C830.041 336.576 849.922 339.703 856.228 348.726C857.581 348.726 861.066 334.479 878.955 339.512C883.743 327.375 908.087 323.854 913.954 335.826L913.954 335.839Z" fill="#060605"/>
<path d="M1187.62 166.233C1163.73 150.346 1142.04 176.273 1156.71 191.588C1128.07 190.927 1144.47 220.553 1142.62 221.544C1129.9 221.913 1127.08 212.927 1115.34 215.088C1107.54 216.524 1099.78 228.204 1103.97 235.829C1083.75 238.778 1072.96 257.842 1088.51 274.084C1088.59 274.161 1089.29 275.444 1089.43 275.927C1077.43 275.902 1069.63 242.616 1101.25 233.059C1105.52 198.578 1131.23 218.392 1133.53 218.773C1148.46 221.226 1122.77 202.01 1151.25 187.89C1139.56 160.12 1182 151.681 1187.62 166.233Z" fill="#060605"/>
<path d="M1213.98 258.414C1197.61 270.195 1200.43 281.469 1188.07 277.77C1168.84 302.109 1163.46 273.805 1155.34 292.513C1135.29 290.797 1140.35 301.181 1138.52 309.111C1132.4 298.296 1142.35 287.988 1153.52 289.755C1162.77 272.47 1170.44 297.482 1187.17 275.012C1202.62 278.914 1191.78 263.027 1213.99 258.414L1213.98 258.414Z" fill="#8F9FA4"/>
<path d="M954.87 286.984C955.096 287.798 955.045 292.119 954.419 292.513C948.953 276.448 937.132 287.023 934.412 286.057C929.924 284.455 943.676 272.699 892.593 284.214C871.747 295.398 884.871 305.146 879.87 310.026C881.387 305.083 876.861 301.575 877.601 296.656C877.964 294.191 887.09 283.375 889.422 282.371C892.305 281.113 929.686 276.042 931.704 276.842C933.647 277.618 935.904 282.282 936.255 282.371C937.32 282.663 951.724 275.571 954.895 286.984H954.87Z" fill="#8F9FA4"/>
<path d="M848.493 357.038C860.314 361.245 832.874 351.586 826.217 368.095C814.697 370.205 806.035 378.009 815.312 388.38C798.389 386.511 794.315 374.781 788.949 373.637C777.229 371.133 776.827 379.051 774.859 381.008C781.892 354.166 804.895 391.328 809.407 381.466C808.618 366.469 820.79 368.172 823.497 366.253C827.91 363.126 832.372 351.294 848.506 357.038H848.493Z" fill="#8F9FA4"/>
<path d="M724.842 381.008C730.208 367.206 741.352 366.024 747.118 351.51C760.193 346.718 753.749 335.343 773.029 334.911C779.899 322.647 799.304 321.795 790.754 326.612C788.435 327.921 783.684 326.485 779.848 329.383C776.815 331.671 777.843 336.983 773.48 338.597C772.703 338.889 764.016 337.135 760.757 339.525C756.219 342.842 762.374 346.35 746.667 354.738C744.26 363.101 738.456 365.973 738.481 366.723C738.519 367.587 741.026 366.761 741.214 367.651C741.628 369.557 733.417 370.625 731.21 373.179C729.681 374.959 728.917 382.063 727.124 382.864C725.72 383.486 724.993 381.046 724.855 381.021L724.842 381.008Z" fill="#8F9FA4"/>
<path d="M827.584 315.568C828.273 315.631 828.587 315.708 828.499 316.496C820.802 321.173 815.349 313.585 812.591 327.553C810.573 328.544 802.826 322.723 792.585 340.453C788.235 339.83 779.823 347.862 777.58 351.052C773.631 356.682 774.383 364.257 771.211 362.109C776.326 342.537 791.594 341.444 803.491 322.939C820.877 326.053 800.971 313.356 827.584 315.568Z" fill="#8F9FA4"/>
<path d="M1083.06 327.54C1077.79 334.187 1079.1 329.268 1074.42 331.226C1068.42 333.742 1076.57 339.906 1049.41 335.839C1044.59 335.115 1043.77 329.815 1035.77 338.61C1030.03 344.926 1033.25 347.405 1028.05 351.51C1026.3 351.7 1028.92 343.986 1029.42 342.753C1037.78 321.973 1052 335.636 1053.51 335.839C1071.2 338.292 1069.66 329.637 1071.7 328.468C1073.07 327.68 1081.44 329.281 1080.34 323.854C1080.54 324.757 1081.39 328.175 1083.07 327.54L1083.06 327.54Z" fill="#060605"/>
<path d="M1141.25 226.145C1144.52 222.84 1147.99 222.84 1148.52 222.002C1149.46 220.515 1149 208.974 1150.34 204.488C1151.78 199.671 1157.17 196.151 1157.61 195.274C1161.46 187.674 1163.57 178.637 1169.88 172.689C1181.91 174.481 1182.88 171.088 1188.52 169.919C1201.77 167.186 1180.92 176.248 1179.88 176.375C1178.23 176.578 1164.58 167.034 1162.16 196.189C1141.26 202.391 1160.69 230.657 1141.25 226.145Z" fill="#8F9FA4"/>
<path d="M973.498 329.383C986.66 328.048 997.265 343.91 979.866 331.226C963.545 329.662 955.033 344.799 953.504 345.053C951.686 345.358 952.538 330.514 923.042 354.738C921.4 370.358 917.928 361.029 922.127 352.895C925.449 346.477 947.286 334.848 955.309 339.525C957.49 336.182 970.702 329.662 973.498 329.383Z" fill="#8F9FA4"/>
<path d="M913.039 344.138V345.066C899.3 348.548 899.45 333.145 881.675 353.365C873.903 346.922 855.852 357.788 854.397 357.979C853.683 358.068 854.034 356.149 853.946 356.136C866.394 347.417 880.396 348.536 884.408 346.922C886.2 346.197 889.171 341.228 892.593 340.465C902.835 338.178 905.856 344.964 913.051 344.151L913.039 344.138Z" fill="#8F9FA4"/>
<path d="M1138.52 232.601C1131.25 237.164 1129.52 221.392 1115.34 232.601C1111.93 235.296 1107.42 240.532 1109.43 245.044C1080.75 258.376 1099.34 275.94 1089.43 275.927C1089.29 275.444 1088.59 274.161 1088.51 274.084C1096.81 270.742 1079.57 258.592 1106.7 244.129C1103.48 241.32 1113.21 231.203 1115.34 229.843C1129.67 220.705 1129.92 230.835 1138.52 232.614V232.601Z" fill="#8F9FA4"/>
<path d="M994.871 326.625C992.765 326.968 993.128 325.761 993.053 325.697C998.13 313.178 1014.94 313.763 1000.32 310.026C1002.09 307.98 1002.73 306.684 1003.06 306.341C1020.81 322.227 1010.69 303.418 1035.34 304.498C1046.57 313.14 1024.72 297.546 1015.33 317.398C1008.62 312.416 996.25 318.669 994.871 326.612V326.625Z" fill="#8F9FA4"/>
<path d="M734.382 332.153C734.996 332.064 747.043 334.606 745.752 336.297C727.851 333.971 733.53 336.36 725.294 340.44C719.139 343.49 711.517 343.566 710.289 354.725C718.65 367.854 701.576 369.773 705.287 383.766C697.778 376.509 710.765 367.307 711.191 363.024C711.542 359.529 706.628 354.751 711.191 346.426C712.357 344.291 733.016 332.319 734.369 332.141L734.382 332.153Z" fill="#8F9FA4"/>
<path d="M1111.24 308.184V309.111C1109.23 308.73 1098.04 303.71 1088.96 307.269C1082.88 309.645 1083.87 315.771 1083.96 321.096C1083.22 321.973 1080.9 326.866 1083.96 325.71C1083.9 325.786 1084.24 326.066 1083.05 327.553C1081.37 328.188 1080.53 324.769 1080.31 323.867C1078.91 317.627 1081.47 305.273 1088.95 303.583C1103.44 300.317 1110.07 307.955 1111.23 308.196L1111.24 308.184Z" fill="#2E3435"/>
<path d="M835.306 312.797C836.509 312.581 846.45 316.546 854.398 313.725C863.335 321.096 866.457 318.961 867.121 319.253C882.74 325.989 863.035 319.762 858.935 322.939C857.795 316.826 850.925 314.945 848.029 320.169C848.844 316.851 826.23 314.398 835.306 312.797Z" fill="#8F9FA4"/>
<path d="M970.778 287.912C974.451 287.15 978.713 289.196 981.232 292.055C961.815 288.293 975.466 294.038 975.779 296.669C975.942 297.978 972.37 303.684 971.693 303.583C965.776 302.706 979.753 290.568 960.323 296.669C965.638 294.089 968.07 288.484 970.778 287.912Z" fill="#8F9FA4"/>
<path d="M1088.06 333.996C1089.5 333.513 1097.4 334.835 1097.61 336.297C1098.6 343.185 1088.56 326.93 1084.43 345.981C1069.66 341.177 1068.05 345.219 1067.15 345.053C1063.11 344.316 1070.47 338.635 1083.52 343.211C1083.84 340.936 1085.95 334.695 1088.07 333.996H1088.06Z" fill="#8F9FA4"/>
<path d="M1085.33 283.299L1086.69 283.756L1077.14 296.199H1065.32C1055.96 307.599 1059.33 290.302 1077.14 292.513L1085.33 283.299Z" fill="#8F9FA4"/>
<path d="M1113.97 320.168C1108.71 314.996 1095.72 315.352 1089.88 318.326C1086.84 319.863 1084.26 325.328 1083.97 325.697C1080.92 326.854 1083.23 321.961 1083.97 321.084C1089.25 314.792 1111.7 309.556 1113.97 320.156V320.168Z" fill="#8F9FA4"/>
<path d="M1217.16 291.598C1221.9 291.331 1208.89 300.189 1205.34 312.797C1203.55 303.507 1211.59 297.343 1217.16 291.598Z" fill="#8F9FA4"/>
<path d="M772.114 381.936C771.976 382.012 772.628 383.423 770.748 384.707C758.713 381.224 754.188 389.485 751.205 391.163C751.506 383.448 765.533 380.576 772.114 381.949V381.936Z" fill="#8F9FA4"/>
<path d="M1134.88 322.939C1132.09 325.595 1126.87 322.189 1123.51 322.939C1121.46 323.397 1117.82 330.666 1116.69 324.782C1123.74 322.113 1123.69 317.322 1134.88 322.939Z" fill="#8F9FA4"/>
<path d="M1056.23 295.284C1057.91 296.453 1057.91 298.626 1057.6 300.355C1057.14 302.96 1046.47 314.437 1056.23 295.284Z" fill="#8F9FA4"/>
<path d="M1098.06 322.939C1095.81 342.143 1093.26 329.764 1094.88 325.24C1095.33 323.994 1097.36 323.994 1098.06 322.939Z" fill="#8F9FA4"/>
<path d="M1105.79 325.697C1114.46 329.586 1114.41 325.85 1114.87 325.697H1105.79Z" fill="#8F9FA4"/>
<path d="M1125.33 328.468C1127.77 327.921 1128.86 330.069 1126.24 330.311C1126.13 330.311 1124.34 328.849 1125.33 328.468Z" fill="#8F9FA4"/>
<path d="M181.15 391.15C173.905 398.877 168.013 382.305 167.06 381.936C164.566 380.97 161.482 383.042 158.423 381.008C173.378 377.157 190.063 381.644 181.15 391.15Z" fill="#E2ECE8"/>
<path d="M158.423 381.008C161.482 383.042 164.566 380.957 167.06 381.936C168.013 382.305 173.905 398.877 181.15 391.15C183.569 398.331 191.041 395.027 199.79 398.522C208.716 393.235 215.284 399.335 216.162 399.449C221.339 400.072 223.934 398.458 224.348 398.522C226.566 398.928 243.339 403.529 238.889 404.05C214.119 402.817 189.098 405.169 164.34 404.978C163.676 404.978 161.131 402.182 159.789 402.207C147.467 402.69 112.342 405.143 105.235 404.05C103.781 403.821 97.4251 399.284 85.228 398.522C73.269 388.926 85.4787 375.022 60.6833 373.637C57.7751 375.136 69.3705 376.598 70.6867 377.322C81.6303 383.385 69.032 400.555 96.5977 403.593L87.5094 404.978C87.3841 404.978 87.2336 403.338 85.6918 403.135C62.0372 406.973 37.7934 403.313 13.863 405.906C12.1456 405.652 10.165 406.084 8.41002 405.906C9.36273 403.402 9.27498 401.152 9.32512 398.534C9.40033 393.743 9.66358 392.777 7.50746 388.392C6.66758 386.677 2.45563 382.05 0.236837 381.936C0.224302 355.526 0.224302 329.065 0.236837 302.668C10.7416 293.631 11.3183 301.206 26.1478 301.74C35.9757 299.046 58.9033 297.787 36.1512 297.126C27.1131 303.367 9.31258 290.263 2.96959 297.126C3.72172 296.262 3.06987 293.492 0.236837 294.356C0.236837 291.903 0.236837 289.425 0.236837 286.984C15.1291 281.875 23.0641 279.372 37.0538 288.827C47.2076 287.277 50.8429 292.373 51.595 292.513C55.832 293.301 85.5664 284.493 84.7767 319.711C100.709 328.646 80.1385 350.417 92.4986 348.752C94.1909 348.523 115.928 332.484 118.41 353.823L125.229 360.737C160.955 351.167 141.751 377.348 157.959 377.335C160.905 379.419 156.518 379.763 158.411 381.021L158.423 381.008Z" fill="#B3CBD4"/>
<path d="M0.224323 302.655C0.224323 302.045 0.224323 301.422 0.224323 300.812C2.70636 301.499 2.65622 297.444 2.95708 297.126C9.30007 290.263 27.1131 303.367 36.1387 297.126C58.8908 297.775 35.9757 299.046 26.1353 301.74C11.3058 301.193 10.7291 293.631 0.224323 302.668V302.655Z" fill="#8F9FA4"/>
<path d="M7.49495 388.38L0.224323 384.694C0.224323 383.779 0.224323 382.838 0.224323 381.923C2.45565 382.038 6.65507 386.664 7.49495 388.38Z" fill="#1A2022"/>
<path d="M2.95708 297.126C2.64369 297.495 1.69098 295.754 0.224323 296.199C0.224323 295.589 0.224323 294.966 0.224323 294.356C3.05736 293.492 3.70921 296.262 2.95708 297.126Z" fill="#8F9FA4"/>
<path d="M85.6918 403.135C85.6918 403.745 85.955 404.724 85.2405 404.978C77.1927 407.888 24.5182 407.494 13.8755 405.906C37.7934 403.313 62.0372 406.973 85.7043 403.135H85.6918Z" fill="#060605"/>
<path d="M9.31261 398.522C9.275 401.14 9.35021 403.389 8.39751 405.893C6.80549 405.219 6.65507 397.543 9.31261 398.522Z" fill="#1A2022"/>
<path d="M100.697 356.123C113.483 353.365 121.243 366.621 119.337 372.251C117.281 378.339 117.344 360.711 107.967 358.881C97.0866 356.759 92.624 371.235 89.7784 362.567C93.4889 362.491 97.6507 356.771 100.684 356.111L100.697 356.123Z" fill="#8F9FA4"/>
<path d="M135.245 385.622C137.765 385.406 142.127 395.103 155.252 394.836C160.679 401.686 154.951 396.018 153.434 395.764C141.976 393.781 144.759 395.7 132.976 387.935C133.753 387.325 134.944 385.66 135.245 385.634V385.622Z" fill="#8F9FA4"/>
<path d="M27.0504 381.008C36.076 379.051 40.8019 385.495 41.5917 385.622C44.4247 386.054 52.5352 380.08 56.5967 386.079L39.774 387.464C36.6777 382.063 31.839 383.601 27.0504 381.008Z" fill="#8F9FA4"/>
<path d="M127.962 365.338C135.42 364.588 140.76 371.603 138.868 379.165C135.959 368.68 135.282 367.079 123.863 366.723C126.207 366.558 127.736 365.363 127.949 365.338H127.962Z" fill="#838E90"/>
<path d="M56.1455 300.812L62.5135 303.583C74.3972 321.198 64.8827 306.849 56.1455 300.812Z" fill="#8F9FA4"/>
<path d="M86.1431 345.981C86.8952 345.791 88.4747 350.315 87.9607 350.595C86.5567 351.345 84.8143 346.324 86.1431 345.981Z" fill="#525C5B"/>
<path d="M86.1431 356.123C87.71 355.412 88.061 358.436 87.0582 358.894C85.4912 359.606 85.1402 356.581 86.1431 356.123Z" fill="#8F9FA4"/>
<path d="M315.707 288.827C312.172 293.098 315.544 290.391 317.524 290.67C318.352 290.785 318.715 289.297 319.793 289.742C323.78 291.395 316.822 300.342 340.703 292.513C339.061 276.855 359.343 265.9 372.518 268.543C380.24 270.094 389.165 286.616 389.792 294.356C391.246 288.586 391.359 283.655 398.88 286.984C406.527 290.378 403.38 305.07 412.519 308.184C428.84 313.75 427.687 293.975 445.249 310.954C448.997 290.327 481.816 286.743 491.618 310.026C503.941 308.006 507.313 313.636 510.259 324.769C508.441 324.833 508.391 323.981 507.526 323.842C501.91 315.606 489.374 320.918 487.068 320.156C481.678 309.861 471.436 314.144 466.159 307.256C457.998 305.222 444.422 314.5 443.883 323.854C443.168 323.638 438.518 324.757 437.064 324.782C426.321 298.664 412.857 326.536 409.786 325.71C406.565 321.655 407.467 313.039 400.234 313.725C399.432 304.892 396.774 298.944 387.047 299.897C383.737 298.296 387.887 282.269 369.773 283.299C358.227 283.96 350.794 292.704 348.412 294.356C347.522 294.966 345.692 298.613 340.226 300.812C331.339 304.383 326.4 300.711 322.037 307.269C319.091 311.704 322.952 311.272 321.586 311.882C320.558 312.34 314.378 311.615 312.949 313.725C302.168 302.185 298.809 315.619 282.951 301.282C284.243 300.202 284.092 296.961 283.866 295.296C289.871 296.313 290.51 290.505 294.321 287.925C296.477 286.463 305.628 283.693 306.142 283.311C307.809 282.079 321.599 269.102 322.05 268.098C325.447 260.651 318.715 256.291 318.414 255.656C318.013 254.779 320.734 255.44 316.597 252.428C321.172 246.251 320.408 237.634 314.328 232.614C303.936 224.022 296.803 229.792 286.599 232.614C285.734 229.36 282.676 223.082 278.877 221.557C271.757 218.71 271.77 226.679 262.97 219.714C257.04 200.993 238.212 214.986 233.875 209.572C233.624 202.264 215.322 202.721 212.514 201.273C211.937 200.98 204.103 192.211 203.877 191.588C202.598 188.08 205.306 184.255 205.695 182.831C221.464 171.38 209.067 153.041 192.971 157.019C188.02 152.38 198.374 146.406 197.522 137.662C202.536 127.152 192.106 119.297 181.614 121.064C174.569 111.113 173.716 106.029 159.789 108.164C157.069 108.583 143.067 115.256 148.42 114.62C143.744 132.337 139.82 118.306 137.05 117.391C134.292 116.476 128.551 119.03 128.413 116.933C139.632 98.0855 123.073 104.491 120.691 102.648C120.252 102.318 118.347 93.0526 117.507 92.0485C116.241 90.5107 105.849 89.4177 117.056 88.8204C125.918 104.682 121.769 90.1548 123.875 84.2069C126.357 84.4992 138.141 78.8689 140.698 100.805C184.673 72.5143 170.695 112.485 199.79 105.419C222.944 121.725 215.059 134.828 216.613 149.202C216.638 149.393 215.297 150.41 214.796 151.045C237.435 166.169 213.567 192.008 217.98 194.829C229.826 192.656 230.803 200.637 233.436 200.358C235.153 200.18 253.744 180.861 257.981 205.886C263.998 185.678 292.328 197.447 291.626 216.028C293.795 213.143 300.326 209.038 303.447 208.657C318.59 206.814 332.066 231.457 327.54 244.141C344.351 271.327 317.988 286.107 315.719 288.853L315.707 288.827Z" fill="#CDDDDE"/>
<path d="M507.551 323.854C508.416 323.994 508.466 324.833 510.284 324.782C517.88 324.515 530.441 307.281 534.828 339.067C538.802 342.651 541.836 347.227 541.196 352.895C556.164 356.301 545.672 368.223 545.747 370.409C545.759 370.968 550.034 378.021 550.297 380.551C552.077 397.683 538.79 392.561 536.207 392.993C535.944 393.031 534.026 394.544 531.206 394.836C530.391 391.646 537.198 392.612 538.025 392.065C539.316 391.226 539.266 387.668 539.391 387.452C547.351 373.383 528.899 368.922 528.485 367.638C532.647 344.469 501.998 343.579 488.033 353.353C486.078 352.882 481.427 331.035 463.94 343.211C458.036 342.473 447.092 325.646 445.751 324.769C451.041 303.456 465.319 311.602 480.75 315.555C489.136 332.128 488.159 315.377 507.576 323.854H507.551Z" fill="#B3CBD4"/>
<path d="M119.325 79.5807C118.898 79.7078 117.52 81.2964 117.507 81.4235C101.198 74.0394 102.427 93.5864 86.1431 75.895C80.0132 73.531 77.3807 77.7759 70.2354 69.4386C70.2104 69.3624 68.6058 69.1844 69.3203 68.0533C71.3762 64.8124 99.694 64.6726 99.7817 74.9672C112.317 68.7777 112.681 70.0232 119.325 79.5807Z" fill="#E2ECE8"/>
<path d="M315.707 288.827C312.172 293.098 315.544 290.391 317.524 290.67L315.707 288.827Z" fill="#63717D"/>
<path d="M1009.41 294.356C999.634 309.086 986.221 309.645 991.687 322.011C993.793 309.658 998.581 312.047 1000.32 310.026C1014.94 313.763 998.118 313.178 993.053 325.697C974.613 311.806 973.21 292.233 1009.42 294.356H1009.41Z" fill="#E2ECE8"/>
<path d="M117.507 81.4235C117.52 81.2964 118.898 79.7078 119.325 79.5807C120.277 80.9533 118.573 83.5587 123.875 84.1942C121.769 90.1421 125.918 104.669 117.056 88.8076C105.849 89.405 116.241 90.498 117.507 92.0358C118.347 93.0399 120.252 102.305 120.691 102.635C123.085 104.478 139.632 98.0728 128.413 116.921C128.551 119.018 134.292 116.463 137.05 117.378C139.82 118.306 143.731 132.337 148.42 114.608C175.71 99.6996 176.437 123.415 180.699 123.822C188.722 118.281 196.794 130.177 197.522 137.65C198.374 146.406 188.02 152.367 192.971 157.006C195.716 159.573 198.211 156.231 204.341 159.777C205.193 160.272 208.954 164.924 209.343 165.763C213.229 174.227 207.625 175.79 205.707 182.819C205.319 184.242 202.611 188.068 203.89 191.575C204.115 192.185 211.95 200.955 212.527 201.26C215.335 202.709 233.649 202.239 233.887 209.559C225.915 206.077 214.833 202.467 206.159 204.031C195.14 206.013 220.925 202.683 235.254 215.088C250.848 209.305 251.901 215.202 258.896 214.16C259.999 216.282 261.077 218.176 262.982 219.688C271.795 226.653 271.77 218.684 278.89 221.531C282.701 223.056 285.747 229.335 286.612 232.588C287.966 237.647 295.85 231.14 303.434 231.661C329.972 233.491 306.907 259.431 318.44 255.63C318.74 256.266 325.472 260.625 322.075 268.073C321.611 269.077 307.834 282.053 306.167 283.286C305.653 283.667 296.515 286.438 294.346 287.9C290.535 290.48 289.896 296.288 283.892 295.271C281.51 278.101 279.567 278.215 279.341 277.3C278.764 274.809 285.458 257.448 262.518 261.172C257.128 258.058 258.983 240.735 254.333 239.045C240.556 242.489 238.011 219.905 208.879 236.274C196.744 243.086 197.973 252.021 180.235 250.102C179.646 250.038 179.007 250.165 178.417 250.102C180.774 246.861 175.998 249.543 174.782 246.874C174.356 245.946 176.55 234.902 166.596 229.36C174.682 217.96 172.889 205.695 161.143 198.019C186.064 179.73 165.995 162.395 164.779 160.221C161.645 154.629 164.591 139.798 145.236 149.622C130.406 132.007 133.44 153.333 115.238 142.25C113.947 140.382 116.843 129.071 103.868 124.279C107.805 104.122 95.3943 99.3818 78.8599 108.151C58.9158 75.0816 20.369 109.511 43.8606 77.7378C43.7729 78.8562 44.5375 78.5512 44.7757 78.6656C46.9694 79.7332 54.5534 80.1145 61.5984 84.1942C64.093 84.2069 62.8645 82.4021 62.9648 82.3513C64.8702 81.4362 72.028 75.9966 72.9682 75.895C77.5687 75.3993 91.5208 79.6569 96.1464 88.7949C111.54 74.8528 116.742 84.3975 117.971 84.1814C119.387 83.94 117.457 81.8938 117.52 81.4108L117.507 81.4235Z" fill="#B3CBD4"/>
<path d="M117.507 81.4235C117.457 81.9065 119.375 83.9527 117.958 84.1942C116.73 84.4102 111.54 74.8528 96.1339 88.8076C91.4958 79.6696 77.5562 75.3993 72.9557 75.9077C74.6605 73.9504 71.1631 71.7136 69.3203 70.3791C69.9471 70.5062 70.3984 70.0614 70.2354 69.4513C77.3807 77.7887 80.0132 73.531 86.1431 75.9077C102.427 93.5991 101.211 74.0521 117.507 81.4362L117.507 81.4235Z" fill="#8F9FA4"/>
<path d="M62.9648 82.3513C62.8645 82.4021 64.093 84.2069 61.5984 84.1942C54.5534 80.1145 46.982 79.7205 44.7757 78.6656C49.9278 73.4548 57.2486 81.1693 62.9648 82.3513Z" fill="#8F9FA4"/>
<path d="M233.887 209.559C238.225 214.973 257.053 200.98 262.982 219.701C261.064 218.189 259.986 216.295 258.896 214.173C251.901 215.215 250.848 209.318 235.254 215.1C220.925 202.696 195.14 206.026 206.159 204.043C214.833 202.48 225.915 206.089 233.887 209.572L233.887 209.559Z" fill="#8F9FA4"/>
<path d="M318.44 255.643C306.907 259.443 329.985 233.516 303.434 231.673C295.85 231.152 287.966 237.647 286.612 232.601C296.816 229.78 303.948 224.01 314.34 232.601C320.42 237.621 321.185 246.238 316.609 252.415C320.746 255.427 318.026 254.766 318.427 255.643H318.44Z" fill="#8F9FA4"/>
<path d="M197.522 137.662C196.794 130.189 188.722 118.306 180.699 123.835C176.437 123.428 175.71 99.7123 148.42 114.62C143.055 115.268 157.069 108.583 159.789 108.164C173.716 106.029 174.569 111.125 181.614 121.064C192.106 119.285 202.536 127.139 197.522 137.662Z" fill="#8F9FA4"/>
<path d="M205.707 182.831C207.625 175.803 213.229 174.253 209.343 165.775C208.954 164.924 205.193 160.272 204.341 159.789C198.224 156.256 195.716 159.586 192.971 157.019C209.079 153.041 221.464 171.38 205.695 182.831H205.707Z" fill="#8F9FA4"/>
<path d="M100.697 89.7227C104.232 89.7736 99.1424 94.7302 97.5128 92.0231C97.4 91.8325 100.496 89.71 100.697 89.7227Z" fill="#8F9FA4"/>
<path d="M117.507 305.426C125.104 303.583 126.696 311.031 128.877 310.954C131.722 310.865 132.75 299.821 145.248 302.655C154.662 304.79 152.657 318.643 153.434 319.253C164.515 306.15 172.25 319.076 173.441 319.253C174.393 319.393 185.563 311.869 182.078 328.938C186.979 327.972 202.561 339.105 203.902 342.766C209.468 357.953 194.388 371.247 207.989 365.35C212.589 370.548 233.687 369.417 236.632 374.107C238.174 376.573 235.529 384.643 243.903 381.936C244.567 382.927 246.924 385.164 246.636 386.079C240.356 388.977 245.997 387.109 247.551 387.464C255.586 389.307 254.182 393.794 259.372 396.679C268.912 401.979 280.921 397.53 291.187 401.292C289.081 402.652 287.727 401.801 287.552 403.135C264.261 402.894 249.657 407.164 227.995 396.679C221.803 396.437 199.778 395.992 197.998 395.751C173.704 392.536 191.354 383.143 180.724 378.238C133.728 381.822 167.361 349.171 127.987 357.953C114.762 338.737 114.787 338.508 91.6211 345.053C89.277 343.376 96.2217 335.661 92.9875 325.24C83.6359 313.814 90.2297 305.972 73.8958 291.598C78.4337 292.208 91.1698 291.636 94.3539 292.526C105.297 296.453 106.263 312.505 119.814 308.196C121.493 305.502 117.783 307.129 117.545 305.426H117.507Z" fill="#CDDDDE"/>
<path d="M178.881 340.453C201.733 337.568 194.714 364.384 189.787 365.338L188.421 364.88C195.604 356.899 195.152 344.685 183.419 342.295C166.646 345.956 167.624 341.876 178.869 340.453H178.881Z" fill="#8F9FA4"/>
<path d="M147.968 331.238C161.557 328.951 161.645 345.892 152.519 347.837C146.414 349.133 156.869 343.427 155.703 338.152C154.562 333.043 135.533 333.335 147.981 331.238H147.968Z" fill="#8F9FA4"/>
<path d="M128.877 311.869C132.098 312.835 139.457 315.491 141.6 317.398C152.494 327.07 141.488 322.621 128.877 311.869Z" fill="#8F9FA4"/>
<path d="M177.966 330.311L179.332 330.768L177.966 332.153L177.515 331.696L177.966 330.311Z" fill="#0E272E"/>
<path d="M539.366 387.464L537.549 387.922C541.936 372.874 527.132 370.599 526.643 369.481C531.444 344.088 502.788 349.108 487.093 356.111C484.21 355.272 485.664 337.809 463.915 343.211C481.402 331.035 486.053 352.882 488.008 353.353C501.973 343.592 532.635 344.469 528.46 367.638C528.874 368.922 547.326 373.383 539.366 387.452V387.464Z" fill="#8F9FA4"/>
<path d="M507.551 323.854C488.133 315.377 489.124 332.128 480.725 315.555C465.294 311.602 451.003 303.456 445.726 324.769C445.625 324.706 444.008 323.88 443.908 323.842C444.434 314.487 458.023 305.21 466.184 307.243C471.461 314.144 481.703 309.849 487.093 320.143C489.4 320.906 501.935 315.593 507.551 323.829V323.854Z" fill="#8F9FA4"/>
<path d="M400.259 313.712L394.355 304.498C374.799 302.871 392.713 271.288 348.437 294.356C350.831 292.704 358.265 283.947 369.798 283.299C387.912 282.269 383.775 298.283 387.072 299.897C396.787 298.944 399.444 304.879 400.259 313.725V313.712Z" fill="#8F9FA4"/>
<path d="M322.075 307.269C326.437 300.723 331.376 304.396 340.264 300.812C339.562 306.57 328.744 303.901 322.075 307.269Z" fill="#8F9FA4"/>
</g>
</g>
<defs>
<clipPath id="clip0_425_209">
<rect width="1222" height="368" fill="white"/>
</clipPath>
</defs>
</svg>
