<svg width="475" height="63" viewBox="0 0 475 63" fill="none" xmlns="http://www.w3.org/2000/svg">
<g filter="url(#filter0_bd_574_57)">
<rect width="469.4" height="55.2" fill="#FFF16F" shape-rendering="crispEdges"/>
<rect x="0.6" y="0.6" width="468.2" height="54" stroke="black" stroke-width="1.2" shape-rendering="crispEdges"/>
<path d="M28.4109 38.3148C26.0984 38.3148 24.1296 37.6508 22.5046 36.3226C20.7703 34.9008 19.9031 33.0609 19.9031 30.8031C19.9031 28.1469 20.7351 25.725 22.3992 23.5375C24.2664 21.0765 26.6179 19.8461 29.4539 19.8461C32.1804 19.8461 34.2234 20.4711 35.5828 21.7211C36.9421 22.9711 37.6218 24.85 37.6218 27.3578C37.6218 30.014 36.8562 32.4203 35.325 34.5765C33.5593 37.0687 31.2546 38.3148 28.4109 38.3148ZM29.4539 23.0219C27.7117 23.0219 26.2195 23.8656 24.9773 25.5531C23.8132 27.1312 23.2312 28.8812 23.2312 30.8031C23.2312 32.1 23.7351 33.1547 24.7429 33.9672C25.7117 34.7484 26.9343 35.139 28.4109 35.139C30.1296 35.139 31.5632 34.2953 32.7117 32.6078C33.7664 31.0687 34.2937 29.3187 34.2937 27.3578C34.2937 25.7172 33.9265 24.5765 33.1921 23.9359C32.489 23.3265 31.2429 23.0219 29.4539 23.0219ZM48.7312 37.1429C46.9109 37.8226 44.6101 38.1625 41.8289 38.1625C41.3601 38.1625 40.9382 37.9672 40.5632 37.5765C40.196 37.1859 40.0125 36.7679 40.0125 36.3226V23.9008C39.989 23.3695 39.9695 22.8383 39.9539 22.307C39.9304 21.7054 39.95 21.1976 40.0125 20.7836C40.1218 20.0492 40.8054 19.6039 42.0632 19.4476C42.657 19.2758 43.6414 19.1898 45.0164 19.1898C46.4929 19.1898 47.907 19.6664 49.2585 20.6195C50.8445 21.7289 51.6375 23.1156 51.6375 24.7797C51.6375 25.6781 51.4734 26.4359 51.1453 27.0531C50.8875 27.5531 50.4382 28.0883 49.7976 28.6586C50.5554 29.0258 51.2273 29.5804 51.8132 30.3226C52.4773 31.1508 52.8093 31.975 52.8093 32.7953C52.8093 33.8344 52.2429 34.8187 51.1101 35.7484C50.3523 36.3656 49.5593 36.8304 48.7312 37.1429ZM45.0164 22.3656C44.0085 22.3656 43.4031 22.3734 43.2 22.389L43.2117 24.8734L43.2 27.3344C43.9109 27.4203 44.446 27.4476 44.8054 27.4164C47.196 27.2289 48.3914 26.35 48.3914 24.7797C48.3914 24.225 48.0398 23.6898 47.3367 23.1742C46.6101 22.6351 45.8367 22.3656 45.0164 22.3656ZM46.3875 30.6508C45.6765 30.6508 44.614 30.6234 43.2 30.5687V34.9515C44.5437 34.8812 46.0007 34.6234 47.571 34.1781C48.946 33.7875 49.6257 33.3656 49.6101 32.9125C49.5867 32.3109 49.1453 31.7758 48.2859 31.307C47.614 30.932 46.9812 30.7133 46.3875 30.6508ZM67.5398 23.2094C67.3992 23.2094 67.1765 23.1976 66.8718 23.1742C66.5671 23.1429 66.321 23.1273 66.1335 23.1273H65.2195C65.2117 22.9945 65.2078 23.2719 65.2078 23.9594C65.2078 29.5531 64.8132 33.6273 64.0242 36.182C63.446 38.0648 62.3953 39.0062 60.8718 39.0062C59.4187 39.0062 57.9812 38.5062 56.5593 37.5062C54.95 36.389 54.1453 35.0765 54.1453 33.5687C54.1453 32.35 54.696 31.7406 55.7976 31.7406C56.8992 31.7406 57.45 32.3422 57.45 33.5453C57.45 34.0062 57.8445 34.5023 58.6335 35.0336C59.4304 35.557 60.1765 35.8187 60.8718 35.8187C61.1531 35.8187 61.3562 35.2992 61.4812 34.2601C61.5125 34.0101 61.5984 32.7953 61.739 30.6156C61.8562 28.8344 61.9148 26.6156 61.9148 23.9594C61.9148 23.85 61.9031 23.5961 61.8796 23.1976L61.6101 23.2094C61.2664 23.225 60.8054 23.2211 60.2273 23.1976C59.532 23.1664 59.071 23.1508 58.8445 23.1508C58.3835 23.1508 57.9929 23.0101 57.6726 22.7289C57.3289 22.4242 57.157 22.0297 57.157 21.5453C57.157 20.4828 57.8562 19.9515 59.2546 19.9515C59.5203 19.9515 59.9148 19.9633 60.4382 19.9867C60.9617 20.0023 61.3523 20.0101 61.6101 20.0101C62.1023 20.0101 62.8367 19.9828 63.8132 19.9281C64.7976 19.8734 65.5359 19.8461 66.0281 19.8461C68.1218 19.8461 69.1687 20.4281 69.1687 21.5922C69.1687 21.9984 69.0281 22.3617 68.7468 22.682C68.4265 23.0336 68.0242 23.2094 67.5398 23.2094ZM82.4695 22.5765C82.3132 22.5765 82.1492 22.5531 81.9773 22.5062C80.7117 22.1625 79.4812 21.9906 78.2859 21.9906C77.7 21.9906 77.071 22.0375 76.3992 22.1312C75.7273 22.225 75.0125 22.3656 74.2546 22.5531C74.2546 23.5922 74.2195 25.1351 74.1492 27.182C74.5867 27.1508 76.114 27.0062 78.7312 26.7484C80.2234 26.6 81.1687 26.5258 81.5671 26.5258C82.0281 26.5258 82.4226 26.6742 82.7507 26.9711C83.0789 27.2601 83.2429 27.6469 83.2429 28.1312C83.2429 29.0609 82.7468 29.5883 81.7546 29.7133C81.1296 29.7601 80.196 29.8383 78.9539 29.9476C77.8445 30.0726 76.1726 30.225 73.9382 30.4047C73.8835 31.3969 73.8562 32.1976 73.8562 32.807C73.8562 34.3383 73.946 35.2094 74.1257 35.4203C74.2117 35.5219 74.7039 35.5726 75.6023 35.5726C76.0867 35.5726 76.8171 35.5609 77.7937 35.5375C78.7703 35.514 79.5007 35.5023 79.9851 35.5023C80.1414 35.5023 80.3718 35.4789 80.6765 35.432C80.9812 35.3851 81.2078 35.3617 81.3562 35.3617C81.8093 35.3617 82.196 35.4906 82.5164 35.7484C82.8835 36.0375 83.0671 36.4437 83.0671 36.9672C83.0671 37.8422 82.6101 38.3656 81.696 38.5375C80.9148 38.6859 79.2937 38.7601 76.8328 38.7601C74.2859 38.7601 72.6257 38.4164 71.8523 37.7289C71.0007 36.9711 70.575 35.3304 70.575 32.807C70.575 31.7601 70.6492 30.1898 70.7976 28.0961C70.9539 25.9945 71.032 24.4242 71.032 23.3851C71.032 23.1117 70.9929 22.7094 70.9148 22.1781C70.8367 21.639 70.7976 21.2328 70.7976 20.9594C70.7976 19.7719 71.3445 19.1781 72.4382 19.1781C72.782 19.1781 73.0984 19.2758 73.3875 19.4711C74.2937 19.2445 75.1531 19.0765 75.9656 18.9672C76.7859 18.85 77.5593 18.7914 78.2859 18.7914C80.2546 18.7914 81.8289 19.0179 83.0085 19.4711C83.7273 19.7445 84.0867 20.2406 84.0867 20.9594C84.0867 21.3656 83.946 21.725 83.6648 22.0375C83.3523 22.3969 82.9539 22.5765 82.4695 22.5765ZM97.4109 25.1195C96.7078 25.1195 96.1882 24.7484 95.8523 24.0062C95.696 23.6547 95.5398 23.4437 95.3835 23.3734C95.2664 23.3187 94.9578 23.2914 94.4578 23.2914C93.4734 23.2914 92.3367 24.057 91.0476 25.5883C89.2429 27.7289 88.3406 29.7328 88.3406 31.6C88.3406 32.4515 88.6257 33.182 89.196 33.7914C89.7664 34.4008 90.45 34.7054 91.2468 34.7054C92.0203 34.7054 92.8054 34.5023 93.6023 34.0961C93.8835 33.9476 94.4773 33.5648 95.3835 32.9476C95.9929 32.5414 96.4539 32.3383 96.7664 32.3383C97.2351 32.3383 97.6335 32.5101 97.9617 32.8539C98.2664 33.1742 98.4187 33.5414 98.4187 33.9554C98.4187 34.4164 98.2156 34.8187 97.8093 35.1625C95.6609 36.975 93.4734 37.8812 91.2468 37.8812C89.489 37.8812 88.0046 37.2406 86.7937 35.9594C85.6375 34.725 85.0593 33.2719 85.0593 31.6C85.0593 28.9828 86.2039 26.3109 88.4929 23.5844C90.4382 21.2719 92.4265 20.1156 94.4578 20.1156C94.8015 20.1156 95.1101 20.1273 95.3835 20.1508C95.6648 20.1742 95.9109 20.2094 96.1218 20.2562C96.4656 19.9203 96.8796 19.7523 97.364 19.7523C98.1609 19.7523 98.6531 20.2094 98.8406 21.1234C98.9734 21.7797 99.0398 22.5453 99.0398 23.4203C99.0398 23.8109 98.9265 24.1664 98.7 24.4867C98.4031 24.9086 97.9734 25.1195 97.4109 25.1195ZM114.52 23.5492C113.911 23.5492 112.962 23.5062 111.673 23.4203C110.43 23.3344 109.481 23.2953 108.825 23.3031C108.856 24.1937 108.962 25.7797 109.141 28.0609C109.305 30.0765 109.387 31.6703 109.387 32.8422C109.387 33.1078 109.415 33.5023 109.469 34.0258C109.524 34.5492 109.552 34.9437 109.552 35.2094C109.552 35.7953 109.427 36.3226 109.177 36.7914C108.856 37.3929 108.399 37.6937 107.805 37.6937C107.376 37.6937 106.997 37.557 106.669 37.2836C106.302 36.9789 106.118 36.5961 106.118 36.1351C106.118 36.0258 106.137 35.8617 106.177 35.6429C106.216 35.4164 106.235 35.2445 106.235 35.1273C106.235 34.7679 106.208 34.225 106.153 33.4984C106.106 32.7719 106.083 32.225 106.083 31.8578C106.083 30.8109 106.001 29.3929 105.837 27.6039C105.649 25.5492 105.54 24.1312 105.509 23.35H104.899C103.157 23.35 101.774 23.225 100.751 22.975C99.8835 22.764 99.45 22.2523 99.45 21.4398C99.45 21.0414 99.5906 20.682 99.8718 20.3617C100.2 19.9789 100.63 19.807 101.161 19.8461C101.434 19.8617 102.055 19.9281 103.024 20.0453C103.798 20.1312 104.423 20.1742 104.899 20.1742C105.376 20.1742 106.087 20.1664 107.032 20.1508C107.985 20.1351 108.7 20.1273 109.177 20.1273C109.77 20.1273 110.661 20.1703 111.848 20.2562C113.036 20.3344 113.927 20.3734 114.52 20.3734C114.989 20.3734 115.38 20.5258 115.692 20.8304C116.012 21.1351 116.173 21.5101 116.173 21.9554C116.173 22.4008 116.012 22.7797 115.692 23.0922C115.38 23.3969 114.989 23.5492 114.52 23.5492ZM127.259 23.7484C126.852 23.7484 125.739 23.639 123.919 23.4203C123.809 24.8578 123.755 26.7679 123.755 29.1508L123.743 34.4125C124.782 34.389 125.841 34.3773 126.919 34.3773C127.387 34.3773 127.774 34.5336 128.079 34.8461C128.391 35.1586 128.548 35.5336 128.548 35.9711C128.548 36.4086 128.391 36.7836 128.079 37.0961C127.774 37.4008 127.387 37.5531 126.919 37.5531C126.481 37.5531 125.825 37.5648 124.95 37.5883C124.075 37.6039 123.419 37.6117 122.981 37.6117C122.466 37.6117 121.692 37.6781 120.661 37.8109C119.63 37.9515 118.856 38.0219 118.341 38.0219C117.872 38.0219 117.481 37.8695 117.169 37.5648C116.864 37.2523 116.712 36.8773 116.712 36.4398C116.712 36.0023 116.864 35.6273 117.169 35.3148C117.481 35.0023 117.872 34.8461 118.341 34.8461C118.872 34.8461 119.571 34.7875 120.438 34.6703C120.423 33.7484 120.415 31.9828 120.415 29.3734C120.415 27.2484 120.493 25.2211 120.649 23.2914L118.106 23.3617C117.637 23.3617 117.243 23.2094 116.923 22.9047C116.61 22.6 116.454 22.2211 116.454 21.7679C116.454 21.307 116.61 20.932 116.923 20.6429C117.212 20.3773 117.567 20.225 117.989 20.1859C118.677 20.1234 119.872 20.0922 121.575 20.0922C123.106 20.0922 125.079 20.2562 127.493 20.5844C128.454 20.7172 128.934 21.2562 128.934 22.2015C128.934 22.7015 128.739 23.0961 128.348 23.3851C128.028 23.6273 127.665 23.7484 127.259 23.7484ZM136.598 32.6781C137.778 29.7094 138.692 27.3461 139.341 25.5883C139.684 24.6586 140.024 23.725 140.36 22.7875C140.821 21.6781 141.317 20.8226 141.848 20.2211C142.2 19.8226 142.622 19.6234 143.114 19.6234C143.559 19.6234 143.95 19.7797 144.286 20.0922C144.622 20.3969 144.79 20.7719 144.79 21.2172C144.79 21.5297 144.684 21.8383 144.473 22.1429C144.052 22.7523 143.665 23.4867 143.313 24.3461C143.298 24.3773 143.009 25.1508 142.446 26.6664C141.743 28.4711 140.696 31.1781 139.305 34.7875C138.946 35.7328 138.505 36.6781 137.981 37.6234C137.645 38.2328 137.157 38.5375 136.516 38.5375C135.704 38.5375 135.137 38.1547 134.817 37.389C133.864 35.1156 132.805 31.8383 131.641 27.557C131.321 26.5023 130.997 25.4476 130.669 24.3929C130.231 22.9242 130.012 21.9047 130.012 21.3344C130.012 20.8734 130.184 20.4906 130.528 20.1859C130.856 19.9047 131.239 19.764 131.677 19.764C132.427 19.764 132.95 20.1547 133.247 20.9359C133.403 21.6156 133.559 22.2914 133.716 22.9633C133.973 23.807 134.344 25.0726 134.829 26.7601C135.438 28.9945 136.028 30.9672 136.598 32.6781ZM158.36 22.5765C158.204 22.5765 158.04 22.5531 157.868 22.5062C156.602 22.1625 155.372 21.9906 154.177 21.9906C153.591 21.9906 152.962 22.0375 152.29 22.1312C151.618 22.225 150.903 22.3656 150.145 22.5531C150.145 23.5922 150.11 25.1351 150.04 27.182C150.477 27.1508 152.005 27.0062 154.622 26.7484C156.114 26.6 157.059 26.5258 157.458 26.5258C157.919 26.5258 158.313 26.6742 158.641 26.9711C158.969 27.2601 159.134 27.6469 159.134 28.1312C159.134 29.0609 158.637 29.5883 157.645 29.7133C157.02 29.7601 156.087 29.8383 154.844 29.9476C153.735 30.0726 152.063 30.225 149.829 30.4047C149.774 31.3969 149.747 32.1976 149.747 32.807C149.747 34.3383 149.837 35.2094 150.016 35.4203C150.102 35.5219 150.594 35.5726 151.493 35.5726C151.977 35.5726 152.708 35.5609 153.684 35.5375C154.661 35.514 155.391 35.5023 155.876 35.5023C156.032 35.5023 156.262 35.4789 156.567 35.432C156.872 35.3851 157.098 35.3617 157.247 35.3617C157.7 35.3617 158.087 35.4906 158.407 35.7484C158.774 36.0375 158.958 36.4437 158.958 36.9672C158.958 37.8422 158.501 38.3656 157.587 38.5375C156.805 38.6859 155.184 38.7601 152.723 38.7601C150.177 38.7601 148.516 38.4164 147.743 37.7289C146.891 36.9711 146.466 35.3304 146.466 32.807C146.466 31.7601 146.54 30.1898 146.688 28.0961C146.844 25.9945 146.923 24.4242 146.923 23.3851C146.923 23.1117 146.884 22.7094 146.805 22.1781C146.727 21.639 146.688 21.2328 146.688 20.9594C146.688 19.7719 147.235 19.1781 148.329 19.1781C148.673 19.1781 148.989 19.2758 149.278 19.4711C150.184 19.2445 151.044 19.0765 151.856 18.9672C152.677 18.85 153.45 18.7914 154.177 18.7914C156.145 18.7914 157.719 19.0179 158.899 19.4711C159.618 19.7445 159.977 20.2406 159.977 20.9594C159.977 21.3656 159.837 21.725 159.555 22.0375C159.243 22.3969 158.844 22.5765 158.36 22.5765ZM165.684 28.225C165.2 28.225 164.798 28.0804 164.477 27.7914C164.165 27.5023 164.009 27.1351 164.009 26.6898C164.009 26.6039 163.989 26.4711 163.95 26.2914C163.919 26.1117 163.903 25.975 163.903 25.8812C163.903 25.4437 164.067 25.0844 164.395 24.8031C164.731 24.514 165.13 24.3695 165.591 24.3695C166.762 24.3695 167.348 25.1429 167.348 26.6898C167.348 27.1351 167.188 27.5023 166.868 27.7914C166.555 28.0804 166.161 28.225 165.684 28.225ZM165.872 36.1586C164.661 36.1586 164.055 35.2445 164.055 33.4164C164.055 32.9789 164.231 32.6117 164.583 32.3148C164.919 32.0414 165.313 31.9047 165.766 31.9047C166.954 31.9047 167.548 32.807 167.548 34.6117C167.548 35.057 167.387 35.4281 167.067 35.725C166.747 36.014 166.348 36.1586 165.872 36.1586ZM194.114 25.1195C193.411 25.1195 192.891 24.7484 192.555 24.0062C192.399 23.6547 192.243 23.4437 192.087 23.3734C191.969 23.3187 191.661 23.2914 191.161 23.2914C190.177 23.2914 189.04 24.057 187.751 25.5883C185.946 27.7289 185.044 29.7328 185.044 31.6C185.044 32.4515 185.329 33.182 185.899 33.7914C186.469 34.4008 187.153 34.7054 187.95 34.7054C188.723 34.7054 189.509 34.5023 190.305 34.0961C190.587 33.9476 191.18 33.5648 192.087 32.9476C192.696 32.5414 193.157 32.3383 193.469 32.3383C193.938 32.3383 194.337 32.5101 194.665 32.8539C194.969 33.1742 195.122 33.5414 195.122 33.9554C195.122 34.4164 194.919 34.8187 194.512 35.1625C192.364 36.975 190.177 37.8812 187.95 37.8812C186.192 37.8812 184.708 37.2406 183.497 35.9594C182.341 34.725 181.762 33.2719 181.762 31.6C181.762 28.9828 182.907 26.3109 185.196 23.5844C187.141 21.2719 189.13 20.1156 191.161 20.1156C191.505 20.1156 191.813 20.1273 192.087 20.1508C192.368 20.1742 192.614 20.2094 192.825 20.2562C193.169 19.9203 193.583 19.7523 194.067 19.7523C194.864 19.7523 195.356 20.2094 195.544 21.1234C195.677 21.7797 195.743 22.5453 195.743 23.4203C195.743 23.8109 195.63 24.1664 195.403 24.4867C195.106 24.9086 194.677 25.1195 194.114 25.1195ZM209.231 37.7406C208.809 37.7406 208.423 37.5765 208.071 37.2484C205.704 35.0297 203.102 33.4906 200.266 32.6312C200.352 34.9047 200.395 36.1664 200.395 36.4164C200.395 36.8617 200.239 37.2406 199.927 37.5531C199.614 37.8578 199.223 38.0101 198.755 38.0101C198.286 38.0101 197.895 37.8578 197.583 37.5531C197.27 37.2406 197.114 36.8617 197.114 36.4164C197.114 35.8304 197.122 34.9554 197.137 33.7914C197.153 32.6195 197.161 31.7406 197.161 31.1547L197.184 21.6976C197.184 21.1898 197.337 20.7289 197.641 20.3148C198.04 19.7836 198.591 19.5453 199.294 19.6C201.192 19.7406 202.165 19.8148 202.212 19.8226C203.305 19.9554 204.235 20.2172 205.001 20.6078C208.337 22.2875 210.005 24.3695 210.005 26.8539C210.005 27.8773 209.653 28.7836 208.95 29.5726C208.255 30.3539 207.208 31.014 205.809 31.5531C207.88 32.7094 209.438 33.889 210.485 35.0922C210.759 35.4047 210.895 35.7523 210.895 36.1351C210.895 36.5726 210.731 36.9515 210.403 37.2719C210.075 37.5844 209.684 37.7406 209.231 37.7406ZM201.719 22.9984C201.657 22.9906 201.2 22.9594 200.348 22.9047V29.1273C200.544 29.1351 200.716 29.139 200.864 29.139C202.778 29.139 204.196 28.9008 205.118 28.4242C205.516 28.2211 205.88 27.9515 206.208 27.6156C206.544 27.2797 206.712 27.0258 206.712 26.8539C206.712 25.9789 206.157 25.1351 205.048 24.3226C203.993 23.557 202.884 23.1156 201.719 22.9984ZM224.407 22.5765C224.251 22.5765 224.087 22.5531 223.915 22.5062C222.649 22.1625 221.419 21.9906 220.223 21.9906C219.637 21.9906 219.009 22.0375 218.337 22.1312C217.665 22.225 216.95 22.3656 216.192 22.5531C216.192 23.5922 216.157 25.1351 216.087 27.182C216.524 27.1508 218.052 27.0062 220.669 26.7484C222.161 26.6 223.106 26.5258 223.505 26.5258C223.966 26.5258 224.36 26.6742 224.688 26.9711C225.016 27.2601 225.18 27.6469 225.18 28.1312C225.18 29.0609 224.684 29.5883 223.692 29.7133C223.067 29.7601 222.134 29.8383 220.891 29.9476C219.782 30.0726 218.11 30.225 215.876 30.4047C215.821 31.3969 215.794 32.1976 215.794 32.807C215.794 34.3383 215.884 35.2094 216.063 35.4203C216.149 35.5219 216.641 35.5726 217.54 35.5726C218.024 35.5726 218.755 35.5609 219.731 35.5375C220.708 35.514 221.438 35.5023 221.923 35.5023C222.079 35.5023 222.309 35.4789 222.614 35.432C222.919 35.3851 223.145 35.3617 223.294 35.3617C223.747 35.3617 224.134 35.4906 224.454 35.7484C224.821 36.0375 225.005 36.4437 225.005 36.9672C225.005 37.8422 224.548 38.3656 223.634 38.5375C222.852 38.6859 221.231 38.7601 218.77 38.7601C216.223 38.7601 214.563 38.4164 213.79 37.7289C212.938 36.9711 212.512 35.3304 212.512 32.807C212.512 31.7601 212.587 30.1898 212.735 28.0961C212.891 25.9945 212.969 24.4242 212.969 23.3851C212.969 23.1117 212.93 22.7094 212.852 22.1781C212.774 21.639 212.735 21.2328 212.735 20.9594C212.735 19.7719 213.282 19.1781 214.376 19.1781C214.719 19.1781 215.036 19.2758 215.325 19.4711C216.231 19.2445 217.091 19.0765 217.903 18.9672C218.723 18.85 219.497 18.7914 220.223 18.7914C222.192 18.7914 223.766 19.0179 224.946 19.4711C225.665 19.7445 226.024 20.2406 226.024 20.9594C226.024 21.3656 225.884 21.725 225.602 22.0375C225.29 22.3969 224.891 22.5765 224.407 22.5765ZM241.059 37.9515C240.442 37.9281 239.821 37.2015 239.196 35.7719C238.782 34.85 238.427 33.7875 238.13 32.5844C237.552 32.6703 236.606 32.7562 235.294 32.8422C234.059 32.9281 233.114 33.0297 232.458 33.1469C232.098 34.0062 231.473 35.2992 230.583 37.0258C230.239 37.5883 229.762 37.8695 229.153 37.8695C228.723 37.8695 228.337 37.725 227.993 37.4359C227.649 37.139 227.477 36.764 227.477 36.3109C227.477 35.9125 228.048 34.5609 229.188 32.2562C229.079 32.014 229.032 31.7875 229.048 31.5765C229.079 31.2015 229.458 30.9086 230.184 30.6976C231.294 28.7758 232.528 26.7836 233.887 24.7211C235.841 21.7601 237.044 20.2797 237.497 20.2797C238.356 20.2797 238.93 20.7992 239.219 21.8383C239.376 22.6742 239.622 23.9281 239.958 25.6C240.434 27.85 241.016 30.4242 241.704 33.3226C241.759 33.5414 241.958 34.057 242.302 34.8695C242.583 35.5414 242.723 36.0453 242.723 36.3812C242.723 36.8344 242.552 37.2133 242.208 37.5179C241.872 37.8226 241.489 37.9672 241.059 37.9515ZM236.688 25.9281C236.079 26.975 235.239 28.4008 234.169 30.2054C234.52 30.1273 235.067 30.0648 235.809 30.0179C236.684 29.9633 237.235 29.9203 237.462 29.889C237.274 28.8734 237.016 27.5531 236.688 25.9281ZM259.153 23.5492C258.544 23.5492 257.594 23.5062 256.305 23.4203C255.063 23.3344 254.114 23.2953 253.458 23.3031C253.489 24.1937 253.594 25.7797 253.774 28.0609C253.938 30.0765 254.02 31.6703 254.02 32.8422C254.02 33.1078 254.048 33.5023 254.102 34.0258C254.157 34.5492 254.184 34.9437 254.184 35.2094C254.184 35.7953 254.059 36.3226 253.809 36.7914C253.489 37.3929 253.032 37.6937 252.438 37.6937C252.009 37.6937 251.63 37.557 251.302 37.2836C250.934 36.9789 250.751 36.5961 250.751 36.1351C250.751 36.0258 250.77 35.8617 250.809 35.6429C250.848 35.4164 250.868 35.2445 250.868 35.1273C250.868 34.7679 250.841 34.225 250.786 33.4984C250.739 32.7719 250.716 32.225 250.716 31.8578C250.716 30.8109 250.634 29.3929 250.469 27.6039C250.282 25.5492 250.173 24.1312 250.141 23.35H249.532C247.79 23.35 246.407 23.225 245.384 22.975C244.516 22.764 244.083 22.2523 244.083 21.4398C244.083 21.0414 244.223 20.682 244.505 20.3617C244.833 19.9789 245.262 19.807 245.794 19.8461C246.067 19.8617 246.688 19.9281 247.657 20.0453C248.43 20.1312 249.055 20.1742 249.532 20.1742C250.009 20.1742 250.719 20.1664 251.665 20.1508C252.618 20.1351 253.333 20.1273 253.809 20.1273C254.403 20.1273 255.294 20.1703 256.481 20.2562C257.669 20.3344 258.559 20.3734 259.153 20.3734C259.622 20.3734 260.012 20.5258 260.325 20.8304C260.645 21.1351 260.805 21.5101 260.805 21.9554C260.805 22.4008 260.645 22.7797 260.325 23.0922C260.012 23.3969 259.622 23.5492 259.153 23.5492ZM273.673 22.5765C273.516 22.5765 273.352 22.5531 273.18 22.5062C271.915 22.1625 270.684 21.9906 269.489 21.9906C268.903 21.9906 268.274 22.0375 267.602 22.1312C266.93 22.225 266.216 22.3656 265.458 22.5531C265.458 23.5922 265.423 25.1351 265.352 27.182C265.79 27.1508 267.317 27.0062 269.934 26.7484C271.427 26.6 272.372 26.5258 272.77 26.5258C273.231 26.5258 273.626 26.6742 273.954 26.9711C274.282 27.2601 274.446 27.6469 274.446 28.1312C274.446 29.0609 273.95 29.5883 272.958 29.7133C272.333 29.7601 271.399 29.8383 270.157 29.9476C269.048 30.0726 267.376 30.225 265.141 30.4047C265.087 31.3969 265.059 32.1976 265.059 32.807C265.059 34.3383 265.149 35.2094 265.329 35.4203C265.415 35.5219 265.907 35.5726 266.805 35.5726C267.29 35.5726 268.02 35.5609 268.997 35.5375C269.973 35.514 270.704 35.5023 271.188 35.5023C271.344 35.5023 271.575 35.4789 271.88 35.432C272.184 35.3851 272.411 35.3617 272.559 35.3617C273.012 35.3617 273.399 35.4906 273.719 35.7484C274.087 36.0375 274.27 36.4437 274.27 36.9672C274.27 37.8422 273.813 38.3656 272.899 38.5375C272.118 38.6859 270.497 38.7601 268.036 38.7601C265.489 38.7601 263.829 38.4164 263.055 37.7289C262.204 36.9711 261.778 35.3304 261.778 32.807C261.778 31.7601 261.852 30.1898 262.001 28.0961C262.157 25.9945 262.235 24.4242 262.235 23.3851C262.235 23.1117 262.196 22.7094 262.118 22.1781C262.04 21.639 262.001 21.2328 262.001 20.9594C262.001 19.7719 262.548 19.1781 263.641 19.1781C263.985 19.1781 264.302 19.2758 264.591 19.4711C265.497 19.2445 266.356 19.0765 267.169 18.9672C267.989 18.85 268.762 18.7914 269.489 18.7914C271.458 18.7914 273.032 19.0179 274.212 19.4711C274.93 19.7445 275.29 20.2406 275.29 20.9594C275.29 21.3656 275.149 21.725 274.868 22.0375C274.555 22.3969 274.157 22.5765 273.673 22.5765ZM300.731 37.9515C300.114 37.9281 299.493 37.2015 298.868 35.7719C298.454 34.85 298.098 33.7875 297.802 32.5844C297.223 32.6703 296.278 32.7562 294.966 32.8422C293.731 32.9281 292.786 33.0297 292.13 33.1469C291.77 34.0062 291.145 35.2992 290.255 37.0258C289.911 37.5883 289.434 37.8695 288.825 37.8695C288.395 37.8695 288.009 37.725 287.665 37.4359C287.321 37.139 287.149 36.764 287.149 36.3109C287.149 35.9125 287.719 34.5609 288.86 32.2562C288.751 32.014 288.704 31.7875 288.719 31.5765C288.751 31.2015 289.13 30.9086 289.856 30.6976C290.966 28.7758 292.2 26.7836 293.559 24.7211C295.512 21.7601 296.716 20.2797 297.169 20.2797C298.028 20.2797 298.602 20.7992 298.891 21.8383C299.048 22.6742 299.294 23.9281 299.63 25.6C300.106 27.85 300.688 30.4242 301.376 33.3226C301.43 33.5414 301.63 34.057 301.973 34.8695C302.255 35.5414 302.395 36.0453 302.395 36.3812C302.395 36.8344 302.223 37.2133 301.88 37.5179C301.544 37.8226 301.161 37.9672 300.731 37.9515ZM296.36 25.9281C295.751 26.975 294.911 28.4008 293.841 30.2054C294.192 30.1273 294.739 30.0648 295.481 30.0179C296.356 29.9633 296.907 29.9203 297.134 29.889C296.946 28.8734 296.688 27.5531 296.36 25.9281ZM332.571 34.7172C332.571 35.1078 332.505 35.725 332.372 36.5687C332.216 37.5765 331.645 38.0804 330.661 38.0804C330.114 38.0804 329.497 37.7719 328.809 37.1547C325.802 34.4437 322.407 30.6429 318.626 25.7523C318.579 27.7836 318.555 29.0297 318.555 29.4906C318.555 30.1078 318.567 31.0375 318.591 32.2797C318.622 33.5219 318.637 34.4515 318.637 35.0687C318.637 37.3734 318.075 38.5258 316.95 38.5258C316.38 38.5258 315.923 38.35 315.579 37.9984C315.274 37.6859 315.122 37.307 315.122 36.8617C315.122 36.5492 315.145 36.0765 315.192 35.4437C315.247 34.8109 315.274 34.3383 315.274 34.0258C315.274 33.5648 315.29 32.8734 315.321 31.9515C315.352 31.0297 315.368 30.3383 315.368 29.8773C315.368 29.3851 315.356 28.6429 315.333 27.6508C315.309 26.6586 315.298 25.9164 315.298 25.4242C315.298 24.9554 315.251 24.2562 315.157 23.3265C315.063 22.3969 315.016 21.6976 315.016 21.2289C315.016 20.7601 315.216 20.3422 315.614 19.975C316.02 19.6078 316.481 19.4242 316.997 19.4242C317.575 19.4242 318.216 19.9242 318.919 20.9242C322.466 25.9867 325.966 30.1156 329.419 33.3109C329.427 33.0609 329.43 32.4672 329.43 31.5297C329.43 27.6781 329.391 25.0804 329.313 23.7367C329.298 23.5101 329.247 23.0883 329.161 22.4711C329.083 21.9242 329.044 21.4945 329.044 21.182C329.044 20.1039 329.614 19.5648 330.755 19.5648C332.028 19.5648 332.665 21.5297 332.665 25.4594C332.665 25.5453 332.657 26.1625 332.641 27.3109C332.594 31.2797 332.571 33.7484 332.571 34.7172ZM346.563 22.5765C346.407 22.5765 346.243 22.5531 346.071 22.5062C344.805 22.1625 343.575 21.9906 342.38 21.9906C341.794 21.9906 341.165 22.0375 340.493 22.1312C339.821 22.225 339.106 22.3656 338.348 22.5531C338.348 23.5922 338.313 25.1351 338.243 27.182C338.68 27.1508 340.208 27.0062 342.825 26.7484C344.317 26.6 345.262 26.5258 345.661 26.5258C346.122 26.5258 346.516 26.6742 346.844 26.9711C347.173 27.2601 347.337 27.6469 347.337 28.1312C347.337 29.0609 346.841 29.5883 345.848 29.7133C345.223 29.7601 344.29 29.8383 343.048 29.9476C341.938 30.0726 340.266 30.225 338.032 30.4047C337.977 31.3969 337.95 32.1976 337.95 32.807C337.95 34.3383 338.04 35.2094 338.219 35.4203C338.305 35.5219 338.798 35.5726 339.696 35.5726C340.18 35.5726 340.911 35.5609 341.887 35.5375C342.864 35.514 343.594 35.5023 344.079 35.5023C344.235 35.5023 344.466 35.4789 344.77 35.432C345.075 35.3851 345.302 35.3617 345.45 35.3617C345.903 35.3617 346.29 35.4906 346.61 35.7484C346.977 36.0375 347.161 36.4437 347.161 36.9672C347.161 37.8422 346.704 38.3656 345.79 38.5375C345.009 38.6859 343.387 38.7601 340.927 38.7601C338.38 38.7601 336.719 38.4164 335.946 37.7289C335.094 36.9711 334.669 35.3304 334.669 32.807C334.669 31.7601 334.743 30.1898 334.891 28.0961C335.048 25.9945 335.126 24.4242 335.126 23.3851C335.126 23.1117 335.087 22.7094 335.009 22.1781C334.93 21.639 334.891 21.2328 334.891 20.9594C334.891 19.7719 335.438 19.1781 336.532 19.1781C336.876 19.1781 337.192 19.2758 337.481 19.4711C338.387 19.2445 339.247 19.0765 340.059 18.9672C340.88 18.85 341.653 18.7914 342.38 18.7914C344.348 18.7914 345.923 19.0179 347.102 19.4711C347.821 19.7445 348.18 20.2406 348.18 20.9594C348.18 21.3656 348.04 21.725 347.759 22.0375C347.446 22.3969 347.048 22.5765 346.563 22.5765ZM372.614 22.5648C372.481 22.8851 372.325 23.2797 372.145 23.7484C372.012 24.2015 371.798 24.8734 371.501 25.764C371.055 26.9125 370.348 28.5844 369.38 30.7797C368.387 33.014 367.677 34.682 367.247 35.7836C366.927 36.6039 366.626 37.2601 366.344 37.7523C365.977 38.4008 365.419 38.725 364.669 38.725C364.223 38.725 363.821 38.6039 363.462 38.3617C363.04 38.0804 362.813 37.7094 362.782 37.2484C362.423 36.35 362.196 35.6156 362.102 35.0453C361.759 33.3734 361.282 30.8617 360.673 27.5101C360.165 29.0804 359.618 30.4906 359.032 31.7406C358.157 33.6156 357.583 35.0883 357.309 36.1586C357.38 36.3304 357.415 36.514 357.415 36.7094C357.415 37.1937 357.2 37.5883 356.77 37.8929C356.395 38.1508 355.981 38.2797 355.528 38.2797C354.958 38.2797 354.485 38.1351 354.11 37.8461C353.704 37.5258 353.493 37.0883 353.477 36.5336L353.114 35.1625C352.856 33.9437 352.434 32.1234 351.848 29.7015C351.333 27.85 350.469 25.2133 349.259 21.7914C349.188 21.5961 349.153 21.4008 349.153 21.2054C349.153 20.7367 349.333 20.3656 349.692 20.0922C350.012 19.8422 350.399 19.7172 350.852 19.7172C351.446 19.7172 351.919 19.9672 352.27 20.4672C352.466 20.7406 352.688 21.2367 352.938 21.9554C353.704 24.1586 354.567 27.3695 355.528 31.5883C356.153 30.0648 356.79 28.2679 357.438 26.1976C357.962 24.5101 358.387 23.3109 358.716 22.6C359.497 20.8969 360.294 20.0453 361.106 20.0453C361.872 20.0453 362.43 20.4633 362.782 21.2992C362.954 21.6976 363.122 22.4203 363.286 23.4672C363.333 23.7875 363.434 24.5726 363.591 25.8226C363.755 27.1664 364.247 29.6117 365.067 33.1586C365.895 31.2211 367.009 28.4281 368.407 24.7797C368.493 24.5609 368.696 23.8422 369.016 22.6234C369.243 21.7484 369.528 21.057 369.872 20.5492C370.247 20.0023 370.747 19.7289 371.372 19.7289C371.848 19.7289 372.243 19.8773 372.555 20.1742C372.868 20.4633 373.024 20.8383 373.024 21.2992C373.024 21.4633 372.887 21.8851 372.614 22.5648ZM388.774 31.0609C388.641 31.0609 388.313 31.0336 387.79 30.9789C387.743 32.0726 387.719 33.8695 387.719 36.3695C387.719 36.7836 387.575 37.139 387.286 37.4359C386.997 37.7328 386.63 37.8812 386.184 37.8812C385.739 37.8812 385.368 37.7328 385.071 37.4359C384.782 37.139 384.637 36.7836 384.637 36.3695V33.1C384.637 31.889 384.716 30.0961 384.872 27.7211C385.02 25.307 385.098 23.5062 385.106 22.3187C385.114 20.2875 385.684 19.3148 386.817 19.4008C387.083 19.3304 387.45 19.2797 387.919 19.2484C388.387 19.2094 388.958 19.1898 389.63 19.1898C391.161 19.1898 392.598 19.6859 393.942 20.6781C395.434 21.7875 396.18 23.139 396.18 24.7328C396.18 26.7328 395.387 28.3226 393.802 29.5023C392.395 30.5414 390.719 31.0609 388.774 31.0609ZM389.36 22.2133C389.11 22.2133 388.887 22.2172 388.692 22.225C388.505 22.225 388.344 22.2328 388.212 22.2484C388.212 22.6156 388.208 23.1664 388.2 23.9008C388.184 24.7679 388.11 26.1195 387.977 27.9554C388.376 28.0179 388.641 28.0492 388.774 28.0492C389.993 28.0492 391.005 27.7601 391.809 27.182C392.669 26.5648 393.098 25.7484 393.098 24.7328C393.098 24.0687 392.696 23.4789 391.891 22.9633C391.118 22.4633 390.274 22.2133 389.36 22.2133ZM411.38 37.9515C410.762 37.9281 410.141 37.2015 409.516 35.7719C409.102 34.85 408.747 33.7875 408.45 32.5844C407.872 32.6703 406.927 32.7562 405.614 32.8422C404.38 32.9281 403.434 33.0297 402.778 33.1469C402.419 34.0062 401.794 35.2992 400.903 37.0258C400.559 37.5883 400.083 37.8695 399.473 37.8695C399.044 37.8695 398.657 37.725 398.313 37.4359C397.969 37.139 397.798 36.764 397.798 36.3109C397.798 35.9125 398.368 34.5609 399.509 32.2562C399.399 32.014 399.352 31.7875 399.368 31.5765C399.399 31.2015 399.778 30.9086 400.505 30.6976C401.614 28.7758 402.848 26.7836 404.208 24.7211C406.161 21.7601 407.364 20.2797 407.817 20.2797C408.677 20.2797 409.251 20.7992 409.54 21.8383C409.696 22.6742 409.942 23.9281 410.278 25.6C410.755 27.85 411.337 30.4242 412.024 33.3226C412.079 33.5414 412.278 34.057 412.622 34.8695C412.903 35.5414 413.044 36.0453 413.044 36.3812C413.044 36.8344 412.872 37.2133 412.528 37.5179C412.192 37.8226 411.809 37.9672 411.38 37.9515ZM407.009 25.9281C406.399 26.975 405.559 28.4008 404.489 30.2054C404.841 30.1273 405.387 30.0648 406.13 30.0179C407.005 29.9633 407.555 29.9203 407.782 29.889C407.594 28.8734 407.337 27.5531 407.009 25.9281ZM429.473 23.5492C428.864 23.5492 427.915 23.5062 426.626 23.4203C425.384 23.3344 424.434 23.2953 423.778 23.3031C423.809 24.1937 423.915 25.7797 424.094 28.0609C424.259 30.0765 424.341 31.6703 424.341 32.8422C424.341 33.1078 424.368 33.5023 424.423 34.0258C424.477 34.5492 424.505 34.9437 424.505 35.2094C424.505 35.7953 424.38 36.3226 424.13 36.7914C423.809 37.3929 423.352 37.6937 422.759 37.6937C422.329 37.6937 421.95 37.557 421.622 37.2836C421.255 36.9789 421.071 36.5961 421.071 36.1351C421.071 36.0258 421.091 35.8617 421.13 35.6429C421.169 35.4164 421.188 35.2445 421.188 35.1273C421.188 34.7679 421.161 34.225 421.106 33.4984C421.059 32.7719 421.036 32.225 421.036 31.8578C421.036 30.8109 420.954 29.3929 420.79 27.6039C420.602 25.5492 420.493 24.1312 420.462 23.35H419.852C418.11 23.35 416.727 23.225 415.704 22.975C414.837 22.764 414.403 22.2523 414.403 21.4398C414.403 21.0414 414.544 20.682 414.825 20.3617C415.153 19.9789 415.583 19.807 416.114 19.8461C416.387 19.8617 417.009 19.9281 417.977 20.0453C418.751 20.1312 419.376 20.1742 419.852 20.1742C420.329 20.1742 421.04 20.1664 421.985 20.1508C422.938 20.1351 423.653 20.1273 424.13 20.1273C424.723 20.1273 425.614 20.1703 426.802 20.2562C427.989 20.3344 428.88 20.3734 429.473 20.3734C429.942 20.3734 430.333 20.5258 430.645 20.8304C430.966 21.1351 431.126 21.5101 431.126 21.9554C431.126 22.4008 430.966 22.7797 430.645 23.0922C430.333 23.3969 429.942 23.5492 429.473 23.5492ZM448.587 21.3461C448.43 21.9164 448.352 22.4125 448.352 22.8344C448.352 23.0531 448.329 23.3929 448.282 23.8539C448.243 24.307 448.223 24.6429 448.223 24.8617C448.223 25.6039 448.184 26.7054 448.106 28.1664C448.028 29.6273 447.989 30.7289 447.989 31.4711C447.989 32.0414 448.032 32.8929 448.118 34.0258C448.204 35.1586 448.247 36.0101 448.247 36.5804C448.247 37.0101 448.094 37.3734 447.79 37.6703C447.485 37.9672 447.106 38.1156 446.653 38.1156C446.192 38.1156 445.794 37.9672 445.458 37.6703C445.122 37.3812 444.954 37.0258 444.954 36.6039C444.954 36.0336 444.927 35.1781 444.872 34.0375C444.825 32.8969 444.802 32.0414 444.802 31.4711C444.802 31.0258 444.809 30.6312 444.825 30.2875C443.598 30.3422 442.083 30.5336 440.278 30.8617C438.778 31.1351 437.278 31.4125 435.778 31.6937C435.762 32.225 435.708 33.1117 435.614 34.3539C435.536 35.4476 435.497 36.3422 435.497 37.0375C435.497 37.4672 435.344 37.8304 435.04 38.1273C434.735 38.4242 434.356 38.5726 433.903 38.5726C433.45 38.5726 433.071 38.4242 432.766 38.1273C432.462 37.8304 432.309 37.4672 432.309 37.0375C432.309 36.2484 432.376 35.0687 432.509 33.4984C432.649 31.9281 432.719 30.7484 432.719 29.9594C432.719 28.9594 432.743 27.4554 432.79 25.4476C432.837 23.432 432.86 21.9242 432.86 20.9242C432.86 20.4945 433.012 20.1312 433.317 19.8344C433.622 19.5375 434.001 19.389 434.454 19.389C434.907 19.389 435.286 19.5375 435.591 19.8344C435.895 20.1312 436.048 20.4945 436.048 20.9242C436.048 21.5179 436.024 22.4125 435.977 23.6078C435.938 24.7953 435.919 25.6859 435.919 26.2797C435.919 26.475 435.891 26.85 435.837 27.4047C435.79 27.9203 435.77 28.3148 435.778 28.5883L440.278 27.7445C442.036 27.432 443.552 27.2523 444.825 27.2054C444.856 26.682 444.907 25.2758 444.977 22.9867C444.993 22.3851 445.177 21.6937 445.528 20.9125C445.966 19.9515 446.462 19.4711 447.016 19.4711C447.43 19.4711 447.798 19.6078 448.118 19.8812C448.462 20.1781 448.634 20.5492 448.634 20.9945C448.634 21.1117 448.618 21.2289 448.587 21.3461Z" fill="#353535"/>
</g>
<defs>
<filter id="filter0_bd_574_57" x="-4.8" y="-4.8" width="479" height="67.2" filterUnits="userSpaceOnUse" color-interpolation-filters="sRGB">
<feFlood flood-opacity="0" result="BackgroundImageFix"/>
<feGaussianBlur in="BackgroundImageFix" stdDeviation="2.4"/>
<feComposite in2="SourceAlpha" operator="in" result="effect1_backgroundBlur_574_57"/>
<feColorMatrix in="SourceAlpha" type="matrix" values="0 0 0 0 0 0 0 0 0 0 0 0 0 0 0 0 0 0 127 0" result="hardAlpha"/>
<feOffset dx="4.8" dy="7.2"/>
<feComposite in2="hardAlpha" operator="out"/>
<feColorMatrix type="matrix" values="0 0 0 0 0 0 0 0 0 0 0 0 0 0 0 0 0 0 1 0"/>
<feBlend mode="normal" in2="effect1_backgroundBlur_574_57" result="effect2_dropShadow_574_57"/>
<feBlend mode="normal" in="SourceGraphic" in2="effect2_dropShadow_574_57" result="shape"/>
</filter>
</defs>
</svg>
