<svg width="836" height="84" viewBox="0 0 836 84" fill="none" xmlns="http://www.w3.org/2000/svg">
<rect x="1" y="20.251" width="834" height="64" fill="white"/>
<rect x="1" y="20.251" width="834" height="64" stroke="black" stroke-width="1.5"/>
<path d="M27.5078 60.1826C26.4987 60.8727 25.0501 61.2178 23.1621 61.2178C22.6868 61.2178 22.1432 61.1429 21.5312 60.9932C20.7956 60.8174 20.2422 60.5895 19.8711 60.3096H19.7734C19.4935 60.3096 19.2591 60.2119 19.0703 60.0166C18.8815 59.8213 18.7871 59.5837 18.7871 59.3037C18.7871 58.6201 18.8164 57.598 18.875 56.2373C18.9401 54.8701 18.9727 53.8447 18.9727 53.1611C18.9727 52.3994 18.9564 51.2633 18.9238 49.7529C18.8978 48.236 18.8848 47.0967 18.8848 46.335C18.8848 46.068 19.0215 45.7881 19.2949 45.4951C19.5684 45.2021 19.8418 45.0557 20.1152 45.0557C20.2715 45.0557 20.7923 45.2738 21.6777 45.71C22.6803 46.1982 23.2598 46.4684 23.416 46.5205C25.265 47.152 26.8405 48.1221 28.1426 49.4307C29.6725 50.9736 30.4375 52.6696 30.4375 54.5186C30.4375 55.6318 30.1738 56.6995 29.6465 57.7217C29.1257 58.7438 28.4128 59.5641 27.5078 60.1826ZM25.457 49.8506C24.793 49.4144 23.2598 48.6657 20.8574 47.6045L20.9062 50.417L20.9355 53.2197L20.7793 58.5518C20.8249 58.5713 20.8932 58.6136 20.9844 58.6787C21.5573 59.0628 22.2799 59.2549 23.1523 59.2549C24.6367 59.2549 25.7174 59.027 26.3945 58.5713C27.026 58.1416 27.5273 57.5654 27.8984 56.8428C28.276 56.1136 28.4648 55.3551 28.4648 54.5674C28.4648 52.7314 27.4622 51.1592 25.457 49.8506ZM37.3516 60.7002C35.8802 60.7002 34.6888 60.3324 33.7773 59.5967C32.7812 58.7829 32.2832 57.6436 32.2832 56.1787C32.2832 54.486 32.6934 53.0667 33.5137 51.9209C34.4056 50.6709 35.597 50.0459 37.0879 50.0459C38.1686 50.0459 39.0508 50.2282 39.7344 50.5928C40.5742 51.042 40.9941 51.7321 40.9941 52.6631C40.9941 53.3141 40.6263 53.9066 39.8906 54.4404C39.5651 54.6748 38.875 55.0394 37.8203 55.5342L34.0898 57.3018C34.4544 57.8421 34.9069 58.249 35.4473 58.5225C35.9941 58.7959 36.6289 58.9326 37.3516 58.9326C37.8008 58.9326 38.3281 58.848 38.9336 58.6787C39.7018 58.4639 40.1966 58.1839 40.418 57.8389C40.6393 57.4873 40.877 57.3115 41.1309 57.3115C41.3587 57.3115 41.5605 57.3994 41.7363 57.5752C41.9186 57.7445 42.0098 57.943 42.0098 58.1709C42.0098 58.8936 41.4271 59.5153 40.2617 60.0361C39.2656 60.4788 38.2956 60.7002 37.3516 60.7002ZM37.0879 51.8037C36.2936 51.8037 35.6328 52.113 35.1055 52.7314C34.5781 53.3434 34.1842 54.2679 33.9238 55.5049L36.9219 54.0791C38.1003 53.5062 38.9401 53.0081 39.4414 52.585C38.8815 52.0641 38.097 51.8037 37.0879 51.8037ZM50.3398 52.7314C49.9818 52.7314 49.7311 52.611 49.5879 52.3701C49.4902 52.2008 49.4056 51.8493 49.334 51.3154C48.8457 51.4391 48.0938 51.667 47.0781 51.999C46.0299 52.4157 45.5026 52.93 45.4961 53.542C45.6914 53.6136 45.8835 53.6657 46.0723 53.6982C47.5697 53.9652 48.6829 54.333 49.4121 54.8018C50.4733 55.4854 51.0039 56.4749 51.0039 57.7705C51.0039 58.8317 50.5449 59.6325 49.627 60.1729C48.8652 60.6156 47.9017 60.8369 46.7363 60.8369C45.8835 60.8369 45.0697 60.6937 44.2949 60.4072C43.2923 60.0426 42.791 59.5348 42.791 58.8838C42.791 58.6234 42.8919 58.3955 43.0938 58.2002C43.3021 58.0049 43.5365 57.9072 43.7969 57.9072C43.9987 57.9072 44.2591 58.0635 44.5781 58.376C44.7344 58.5257 45.0859 58.6494 45.6328 58.7471C46.069 58.8252 46.4368 58.8643 46.7363 58.8643C47.2832 58.8643 47.765 58.7992 48.1816 58.6689C48.7871 58.4801 49.0898 58.1807 49.0898 57.7705C49.0898 56.8851 48.4714 56.2861 47.2344 55.9736L46.2188 55.749C45.3529 55.5602 44.7376 55.3389 44.373 55.085C43.8457 54.7204 43.582 54.1702 43.582 53.4346C43.582 52.0739 44.2233 51.1038 45.5059 50.5244C45.8965 50.3486 46.5215 50.1403 47.3809 49.8994C48.2402 49.652 48.8555 49.4437 49.2266 49.2744C49.4935 49.1572 49.7832 49.0986 50.0957 49.0986C50.3757 49.0986 50.6035 49.1898 50.7793 49.3721C50.9616 49.5544 51.0527 49.792 51.0527 50.085C51.0527 50.2738 51.0918 50.5505 51.1699 50.915C51.2546 51.2796 51.2969 51.5563 51.2969 51.7451C51.2969 52.0381 51.2057 52.2757 51.0234 52.458C50.8477 52.6403 50.6198 52.7314 50.3398 52.7314ZM60.0273 51.9307C59.8906 51.9307 59.7279 51.9242 59.5391 51.9111C59.3568 51.8981 59.1973 51.8916 59.0605 51.8916C58.9108 51.8916 58.4681 51.9404 57.7324 52.0381L57.918 57.8096L57.9277 58.2393L57.9375 58.7373C57.9635 60.1631 57.6217 60.876 56.9121 60.876C56.6517 60.876 56.4238 60.7913 56.2285 60.6221C56.0397 60.4528 55.9453 60.2412 55.9453 59.9873C55.9453 59.7399 55.9551 59.3688 55.9746 58.874C55.9941 58.3792 56.0039 58.0081 56.0039 57.7607L55.8086 52.0576C55.3333 52.0381 54.6107 51.9827 53.6406 51.8916C53.0612 51.8135 52.7715 51.4912 52.7715 50.9248C52.7715 50.6383 52.8594 50.4007 53.0352 50.2119C53.2109 50.0231 53.4355 49.9287 53.709 49.9287L55.7598 50.0947C55.7598 49.7627 55.7435 49.32 55.7109 48.7666C55.6849 48.2067 55.6719 47.8031 55.6719 47.5557C55.6719 47.2822 55.7663 47.0576 55.9551 46.8818C56.1439 46.6995 56.375 46.6084 56.6484 46.6084C57.2344 46.6084 57.5762 47.0869 57.6738 48.0439C57.6934 48.2848 57.7031 48.5745 57.7031 48.9131L57.6836 49.4795L57.6738 50.085C58.4811 49.9808 58.9434 49.9287 59.0605 49.9287C59.7376 49.9287 60.1803 49.9613 60.3887 50.0264C60.7858 50.1566 60.9844 50.4626 60.9844 50.9443C60.9844 51.2308 60.8932 51.4684 60.7109 51.6572C60.5352 51.8395 60.3073 51.9307 60.0273 51.9307ZM70.5254 53.0342C70.4798 53.848 70.1543 54.2549 69.5488 54.2549C68.9889 54.2549 68.709 53.9326 68.709 53.2881C68.709 53.1644 68.6992 52.9365 68.6797 52.6045L68.6504 51.7842C67.6217 51.9079 66.7982 52.1976 66.1797 52.6533C65.6003 53.0765 65.1185 53.7145 64.7344 54.5674L64.7539 59.9189C64.7539 60.5765 64.4316 60.9053 63.7871 60.9053C63.2142 60.9053 62.9277 60.5765 62.9277 59.9189V53.0635C62.9277 52.8486 62.9342 52.5264 62.9473 52.0967C62.9668 51.667 62.9766 51.3447 62.9766 51.1299C62.9766 50.4723 63.263 50.1436 63.8359 50.1436C64.474 50.1436 64.7962 50.6839 64.8027 51.7646C66.0527 50.5602 67.4395 49.958 68.9629 49.958C69.4902 49.958 69.8841 50.1566 70.1445 50.5537C70.4049 50.9508 70.5352 51.5498 70.5352 52.3506C70.5352 52.6891 70.5319 52.917 70.5254 53.0342ZM76.1992 60.8271C75.1055 60.8271 74.1647 60.4235 73.377 59.6162C72.498 58.7178 72.0358 57.5101 71.9902 55.9932C71.9512 54.5218 72.3223 53.2262 73.1035 52.1064C74.015 50.7848 75.2845 50.124 76.9121 50.124C78.2142 50.124 79.2005 50.7197 79.8711 51.9111C80.4049 52.8747 80.6621 54.0335 80.6426 55.3877C80.623 56.833 80.2454 58.0667 79.5098 59.0889C78.6764 60.2477 77.5729 60.8271 76.1992 60.8271ZM76.7852 52.1064C75.8281 52.0999 75.0827 52.5557 74.5488 53.4736C74.1257 54.2093 73.9141 55.0492 73.9141 55.9932C73.9141 56.9372 74.1712 57.6729 74.6855 58.2002C75.1152 58.6364 75.6198 58.8545 76.1992 58.8545C76.8763 58.8545 77.459 58.6071 77.9473 58.1123C78.5007 57.5654 78.7936 56.8265 78.8262 55.8955C78.9173 53.376 78.237 52.113 76.7852 52.1064ZM91.5801 51.54L88.2012 58.8447C87.3678 60.6221 86.7298 62.1097 86.2871 63.3076L85.6426 65.2021C85.4733 65.6709 85.1803 65.9053 84.7637 65.9053C84.4902 65.9053 84.2526 65.8141 84.0508 65.6318C83.8555 65.4561 83.7578 65.2347 83.7578 64.9678C83.7578 64.3167 84.4609 62.432 85.8672 59.3135L82.3711 52.585L81.9316 51.8721C81.7559 51.5726 81.668 51.3219 81.668 51.1201C81.668 50.8532 81.7689 50.6188 81.9707 50.417C82.179 50.2152 82.4102 50.1143 82.6641 50.1143C82.9635 50.1143 83.1947 50.2282 83.3574 50.4561C84.4642 51.9925 85.6523 54.18 86.9219 57.0186L88.3672 53.6494C88.888 52.484 89.3893 51.4814 89.8711 50.6416C90.0794 50.277 90.3529 50.0947 90.6914 50.0947C90.9583 50.0947 91.1927 50.1891 91.3945 50.3779C91.6029 50.5667 91.707 50.7913 91.707 51.0518C91.707 51.195 91.6647 51.3577 91.5801 51.54ZM105.984 51.9307C105.848 51.9307 105.685 51.9242 105.496 51.9111C105.314 51.8981 105.154 51.8916 105.018 51.8916C104.868 51.8916 104.425 51.9404 103.689 52.0381L103.875 57.8096L103.885 58.2393L103.895 58.7373C103.921 60.1631 103.579 60.876 102.869 60.876C102.609 60.876 102.381 60.7913 102.186 60.6221C101.997 60.4528 101.902 60.2412 101.902 59.9873C101.902 59.7399 101.912 59.3688 101.932 58.874C101.951 58.3792 101.961 58.0081 101.961 57.7607L101.766 52.0576C101.29 52.0381 100.568 51.9827 99.5977 51.8916C99.0182 51.8135 98.7285 51.4912 98.7285 50.9248C98.7285 50.6383 98.8164 50.4007 98.9922 50.2119C99.168 50.0231 99.3926 49.9287 99.666 49.9287L101.717 50.0947C101.717 49.7627 101.701 49.32 101.668 48.7666C101.642 48.2067 101.629 47.8031 101.629 47.5557C101.629 47.2822 101.723 47.0576 101.912 46.8818C102.101 46.6995 102.332 46.6084 102.605 46.6084C103.191 46.6084 103.533 47.0869 103.631 48.0439C103.65 48.2848 103.66 48.5745 103.66 48.9131L103.641 49.4795L103.631 50.085C104.438 49.9808 104.9 49.9287 105.018 49.9287C105.695 49.9287 106.137 49.9613 106.346 50.0264C106.743 50.1566 106.941 50.4626 106.941 50.9443C106.941 51.2308 106.85 51.4684 106.668 51.6572C106.492 51.8395 106.264 51.9307 105.984 51.9307ZM117.059 60.8564C116.596 60.8564 116.294 60.609 116.15 60.1143C116.001 59.5804 115.864 58.8219 115.74 57.8389C115.623 56.8949 115.564 56.1201 115.564 55.5146C115.564 55.3454 115.571 55.0882 115.584 54.7432C115.604 54.3981 115.613 54.141 115.613 53.9717C115.613 52.7477 115.307 52.1357 114.695 52.1357C113.868 52.1357 113.13 52.5101 112.479 53.2588C112.146 53.6429 111.691 54.3753 111.111 55.4561C111.111 57.9365 111.007 59.4046 110.799 59.8604C110.617 60.264 110.333 60.4658 109.949 60.4658C109.682 60.4658 109.448 60.3747 109.246 60.1924C109.044 60.0101 108.943 59.7887 108.943 59.5283C108.943 59.4372 108.973 59.2939 109.031 59.0986C109.083 58.9359 109.119 58.4606 109.139 57.6729L109.168 56.2275L109.197 49.0498C109.243 48.2425 109.266 47.6989 109.266 47.4189C109.266 47.0869 109.233 46.7744 109.168 46.4814C109.109 46.182 109.08 45.8727 109.08 45.5537C109.08 45.2803 109.174 45.0557 109.363 44.8799C109.552 44.6976 109.783 44.6064 110.057 44.6064C110.59 44.6064 110.903 44.8929 110.994 45.4658C111.098 46.0973 111.15 46.667 111.15 47.1748C111.15 47.8584 111.128 48.5713 111.082 49.3135C111.043 50.0231 111.027 50.736 111.033 51.4521L111.043 52.3115C111.577 51.5954 112.146 51.0615 112.752 50.71C113.364 50.3519 114.012 50.1729 114.695 50.1729C115.776 50.1729 116.518 50.5244 116.922 51.2275C117.208 51.7223 117.371 52.5557 117.41 53.7275L117.488 55.5928L117.684 57.624C117.775 58.3857 117.885 59.0563 118.016 59.6357C118.042 59.7464 118.055 59.8408 118.055 59.9189C118.055 60.1859 117.957 60.4072 117.762 60.583C117.566 60.7653 117.332 60.8564 117.059 60.8564ZM125.008 60.7002C123.536 60.7002 122.345 60.3324 121.434 59.5967C120.438 58.7829 119.939 57.6436 119.939 56.1787C119.939 54.486 120.35 53.0667 121.17 51.9209C122.062 50.6709 123.253 50.0459 124.744 50.0459C125.825 50.0459 126.707 50.2282 127.391 50.5928C128.23 51.042 128.65 51.7321 128.65 52.6631C128.65 53.3141 128.283 53.9066 127.547 54.4404C127.221 54.6748 126.531 55.0394 125.477 55.5342L121.746 57.3018C122.111 57.8421 122.563 58.249 123.104 58.5225C123.65 58.7959 124.285 58.9326 125.008 58.9326C125.457 58.9326 125.984 58.848 126.59 58.6787C127.358 58.4639 127.853 58.1839 128.074 57.8389C128.296 57.4873 128.533 57.3115 128.787 57.3115C129.015 57.3115 129.217 57.3994 129.393 57.5752C129.575 57.7445 129.666 57.943 129.666 58.1709C129.666 58.8936 129.083 59.5153 127.918 60.0361C126.922 60.4788 125.952 60.7002 125.008 60.7002ZM124.744 51.8037C123.95 51.8037 123.289 52.113 122.762 52.7314C122.234 53.3434 121.84 54.2679 121.58 55.5049L124.578 54.0791C125.757 53.5062 126.596 53.0081 127.098 52.585C126.538 52.0641 125.753 51.8037 124.744 51.8037ZM143.973 52.7314C143.615 52.7314 143.364 52.611 143.221 52.3701C143.123 52.2008 143.038 51.8493 142.967 51.3154C142.479 51.4391 141.727 51.667 140.711 51.999C139.663 52.4157 139.135 52.93 139.129 53.542C139.324 53.6136 139.516 53.6657 139.705 53.6982C141.202 53.9652 142.316 54.333 143.045 54.8018C144.106 55.4854 144.637 56.4749 144.637 57.7705C144.637 58.8317 144.178 59.6325 143.26 60.1729C142.498 60.6156 141.535 60.8369 140.369 60.8369C139.516 60.8369 138.702 60.6937 137.928 60.4072C136.925 60.0426 136.424 59.5348 136.424 58.8838C136.424 58.6234 136.525 58.3955 136.727 58.2002C136.935 58.0049 137.169 57.9072 137.43 57.9072C137.632 57.9072 137.892 58.0635 138.211 58.376C138.367 58.5257 138.719 58.6494 139.266 58.7471C139.702 58.8252 140.07 58.8643 140.369 58.8643C140.916 58.8643 141.398 58.7992 141.814 58.6689C142.42 58.4801 142.723 58.1807 142.723 57.7705C142.723 56.8851 142.104 56.2861 140.867 55.9736L139.852 55.749C138.986 55.5602 138.37 55.3389 138.006 55.085C137.479 54.7204 137.215 54.1702 137.215 53.4346C137.215 52.0739 137.856 51.1038 139.139 50.5244C139.529 50.3486 140.154 50.1403 141.014 49.8994C141.873 49.652 142.488 49.4437 142.859 49.2744C143.126 49.1572 143.416 49.0986 143.729 49.0986C144.008 49.0986 144.236 49.1898 144.412 49.3721C144.594 49.5544 144.686 49.792 144.686 50.085C144.686 50.2738 144.725 50.5505 144.803 50.915C144.887 51.2796 144.93 51.5563 144.93 51.7451C144.93 52.0381 144.839 52.2757 144.656 52.458C144.48 52.6403 144.253 52.7314 143.973 52.7314ZM155.301 60.8564C154.839 60.8564 154.536 60.609 154.393 60.1143C154.243 59.5804 154.106 58.8219 153.982 57.8389C153.865 56.8949 153.807 56.1201 153.807 55.5146C153.807 55.3454 153.813 55.0882 153.826 54.7432C153.846 54.3981 153.855 54.141 153.855 53.9717C153.855 52.7477 153.549 52.1357 152.938 52.1357C152.111 52.1357 151.372 52.5101 150.721 53.2588C150.389 53.6429 149.933 54.3753 149.354 55.4561C149.354 57.9365 149.249 59.4046 149.041 59.8604C148.859 60.264 148.576 60.4658 148.191 60.4658C147.924 60.4658 147.69 60.3747 147.488 60.1924C147.286 60.0101 147.186 59.7887 147.186 59.5283C147.186 59.4372 147.215 59.2939 147.273 59.0986C147.326 58.9359 147.361 58.4606 147.381 57.6729L147.41 56.2275L147.439 49.0498C147.485 48.2425 147.508 47.6989 147.508 47.4189C147.508 47.0869 147.475 46.7744 147.41 46.4814C147.352 46.182 147.322 45.8727 147.322 45.5537C147.322 45.2803 147.417 45.0557 147.605 44.8799C147.794 44.6976 148.025 44.6064 148.299 44.6064C148.833 44.6064 149.145 44.8929 149.236 45.4658C149.34 46.0973 149.393 46.667 149.393 47.1748C149.393 47.8584 149.37 48.5713 149.324 49.3135C149.285 50.0231 149.269 50.736 149.275 51.4521L149.285 52.3115C149.819 51.5954 150.389 51.0615 150.994 50.71C151.606 50.3519 152.254 50.1729 152.938 50.1729C154.018 50.1729 154.76 50.5244 155.164 51.2275C155.451 51.7223 155.613 52.5557 155.652 53.7275L155.73 55.5928L155.926 57.624C156.017 58.3857 156.128 59.0563 156.258 59.6357C156.284 59.7464 156.297 59.8408 156.297 59.9189C156.297 60.1859 156.199 60.4072 156.004 60.583C155.809 60.7653 155.574 60.8564 155.301 60.8564ZM166.287 53.0342C166.242 53.848 165.916 54.2549 165.311 54.2549C164.751 54.2549 164.471 53.9326 164.471 53.2881C164.471 53.1644 164.461 52.9365 164.441 52.6045L164.412 51.7842C163.383 51.9079 162.56 52.1976 161.941 52.6533C161.362 53.0765 160.88 53.7145 160.496 54.5674L160.516 59.9189C160.516 60.5765 160.193 60.9053 159.549 60.9053C158.976 60.9053 158.689 60.5765 158.689 59.9189V53.0635C158.689 52.8486 158.696 52.5264 158.709 52.0967C158.729 51.667 158.738 51.3447 158.738 51.1299C158.738 50.4723 159.025 50.1436 159.598 50.1436C160.236 50.1436 160.558 50.6839 160.564 51.7646C161.814 50.5602 163.201 49.958 164.725 49.958C165.252 49.958 165.646 50.1566 165.906 50.5537C166.167 50.9508 166.297 51.5498 166.297 52.3506C166.297 52.6891 166.294 52.917 166.287 53.0342ZM170.164 47.8877C169.852 47.8877 169.581 47.777 169.354 47.5557C169.126 47.3343 169.012 47.0674 169.012 46.7549C169.012 46.4424 169.126 46.1755 169.354 45.9541C169.581 45.7327 169.852 45.6221 170.164 45.6221C170.477 45.6221 170.743 45.7327 170.965 45.9541C171.193 46.1755 171.307 46.4424 171.307 46.7549C171.307 47.0674 171.193 47.3343 170.965 47.5557C170.743 47.777 170.477 47.8877 170.164 47.8877ZM170.604 55.8174C170.604 56.208 170.613 56.7939 170.633 57.5752C170.659 58.3499 170.672 58.9326 170.672 59.3232C170.672 59.6097 170.584 59.8441 170.408 60.0264C170.232 60.2087 170.001 60.2998 169.715 60.2998C169.435 60.2998 169.204 60.2087 169.021 60.0264C168.846 59.8441 168.758 59.6097 168.758 59.3232C168.758 58.9326 168.745 58.3499 168.719 57.5752C168.699 56.7939 168.689 56.208 168.689 55.8174C168.689 55.2054 168.722 54.4437 168.787 53.5322C168.852 52.6143 168.885 51.8493 168.885 51.2373C168.885 50.9443 168.973 50.7067 169.148 50.5244C169.331 50.3421 169.562 50.251 169.842 50.251C170.122 50.251 170.35 50.3421 170.525 50.5244C170.708 50.7067 170.799 50.9443 170.799 51.2373C170.799 51.8493 170.766 52.6143 170.701 53.5322C170.636 54.4437 170.604 55.2054 170.604 55.8174ZM181.395 60.9443C180.835 60.9443 180.519 60.6383 180.447 60.0264L180.174 57.8877C180.083 57.126 180.037 56.4131 180.037 55.749C180.037 55.5667 180.047 55.2575 180.066 54.8213C180.092 54.3851 180.105 54.0758 180.105 53.8936C180.105 52.4873 179.845 51.7842 179.324 51.7842C178.595 51.7842 177.898 52.2171 177.234 53.083C176.635 53.8708 176.167 54.8669 175.828 56.0713C175.815 56.3252 175.786 56.6442 175.74 57.0283C175.701 57.3538 175.682 57.6696 175.682 57.9756C175.682 58.1709 175.701 58.4639 175.74 58.8545C175.779 59.2451 175.799 59.5381 175.799 59.7334C175.799 60.0264 175.708 60.264 175.525 60.4463C175.35 60.6286 175.122 60.7197 174.842 60.7197C174.555 60.7197 174.324 60.6286 174.148 60.4463C173.973 60.264 173.885 60.0264 173.885 59.7334C173.885 59.5381 173.862 59.2451 173.816 58.8545C173.777 58.4639 173.758 58.1709 173.758 57.9756C173.758 57.305 173.803 56.3773 173.895 55.1924C173.992 54.001 174.041 53.07 174.041 52.3994C174.041 52.1911 174.028 51.8818 174.002 51.4717C173.982 51.0615 173.973 50.7523 173.973 50.5439C173.973 50.264 174.064 50.0361 174.246 49.8604C174.435 49.6781 174.666 49.5869 174.939 49.5869C175.538 49.5869 175.867 50.0101 175.926 50.8564L175.955 51.999C177.049 50.5407 178.172 49.8115 179.324 49.8115C180.366 49.8115 181.092 50.2705 181.502 51.1885C181.782 51.8005 181.935 52.7054 181.961 53.9033V54.8896L181.951 55.7979C181.951 56.3382 182.02 57.0381 182.156 57.8975C182.299 58.7503 182.371 59.4437 182.371 59.9775C182.371 60.264 182.277 60.4951 182.088 60.6709C181.906 60.8532 181.674 60.9443 181.395 60.9443ZM188.934 60.7002C187.462 60.7002 186.271 60.3324 185.359 59.5967C184.363 58.7829 183.865 57.6436 183.865 56.1787C183.865 54.486 184.275 53.0667 185.096 51.9209C185.988 50.6709 187.179 50.0459 188.67 50.0459C189.751 50.0459 190.633 50.2282 191.316 50.5928C192.156 51.042 192.576 51.7321 192.576 52.6631C192.576 53.3141 192.208 53.9066 191.473 54.4404C191.147 54.6748 190.457 55.0394 189.402 55.5342L185.672 57.3018C186.036 57.8421 186.489 58.249 187.029 58.5225C187.576 58.7959 188.211 58.9326 188.934 58.9326C189.383 58.9326 189.91 58.848 190.516 58.6787C191.284 58.4639 191.779 58.1839 192 57.8389C192.221 57.4873 192.459 57.3115 192.713 57.3115C192.941 57.3115 193.143 57.3994 193.318 57.5752C193.501 57.7445 193.592 57.943 193.592 58.1709C193.592 58.8936 193.009 59.5153 191.844 60.0361C190.848 60.4788 189.878 60.7002 188.934 60.7002ZM188.67 51.8037C187.876 51.8037 187.215 52.113 186.688 52.7314C186.16 53.3434 185.766 54.2679 185.506 55.5049L188.504 54.0791C189.682 53.5062 190.522 53.0081 191.023 52.585C190.464 52.0641 189.679 51.8037 188.67 51.8037ZM196.58 61.1592C196.242 61.1592 195.955 61.042 195.721 60.8076C195.486 60.5732 195.369 60.2868 195.369 59.9482C195.369 59.6162 195.486 59.333 195.721 59.0986C195.955 58.8577 196.242 58.7373 196.58 58.7373C196.912 58.7373 197.195 58.8577 197.43 59.0986C197.671 59.333 197.791 59.6162 197.791 59.9482C197.791 60.2868 197.671 60.5732 197.43 60.8076C197.195 61.042 196.912 61.1592 196.58 61.1592ZM201.561 61.1592C201.222 61.1592 200.936 61.042 200.701 60.8076C200.467 60.5732 200.35 60.2868 200.35 59.9482C200.35 59.6162 200.467 59.333 200.701 59.0986C200.936 58.8577 201.222 58.7373 201.561 58.7373C201.893 58.7373 202.176 58.8577 202.41 59.0986C202.651 59.333 202.771 59.6162 202.771 59.9482C202.771 60.2868 202.651 60.5732 202.41 60.8076C202.176 61.042 201.893 61.1592 201.561 61.1592ZM206.541 61.1592C206.202 61.1592 205.916 61.042 205.682 60.8076C205.447 60.5732 205.33 60.2868 205.33 59.9482C205.33 59.6162 205.447 59.333 205.682 59.0986C205.916 58.8577 206.202 58.7373 206.541 58.7373C206.873 58.7373 207.156 58.8577 207.391 59.0986C207.632 59.333 207.752 59.6162 207.752 59.9482C207.752 60.2868 207.632 60.5732 207.391 60.8076C207.156 61.042 206.873 61.1592 206.541 61.1592ZM222.674 61.0615C222.14 61.0615 221.827 60.7783 221.736 60.2119C221.619 59.4958 221.502 58.4867 221.385 57.1846L221.053 54.1572C220.988 53.708 220.877 53.2686 220.721 52.8389C220.499 52.2529 220.258 51.96 219.998 51.96C219.757 51.96 219.308 52.165 218.65 52.5752C218.025 52.9528 217.615 53.2555 217.42 53.4834C217.413 54.0954 217.43 54.7074 217.469 55.3193L217.762 57.9268C217.885 58.9554 217.947 59.805 217.947 60.4756C217.947 60.762 217.856 60.9964 217.674 61.1787C217.498 61.3675 217.27 61.4619 216.99 61.4619C216.71 61.4619 216.479 61.3675 216.297 61.1787C216.121 60.9964 216.033 60.762 216.033 60.4756C216.033 59.6878 215.952 58.5257 215.789 56.9893C215.633 55.4463 215.555 54.2809 215.555 53.4932C215.555 52.8031 215.457 52.266 215.262 51.8818C214.806 52.0902 214.344 52.4287 213.875 52.8975L212.723 54.1865C212.618 54.3428 212.452 54.5479 212.225 54.8018C212.225 55.1924 212.189 55.7686 212.117 56.5303C212.046 57.292 212.01 57.8551 212.01 58.2197C212.01 58.415 212.039 58.6885 212.098 59.04C212.163 59.3916 212.195 59.6455 212.195 59.8018C212.195 60.0687 212.094 60.2933 211.893 60.4756C211.697 60.6579 211.466 60.749 211.199 60.749C210.464 60.749 210.096 59.9124 210.096 58.2393C210.096 57.8486 210.132 57.266 210.203 56.4912C210.275 55.7165 210.311 55.1338 210.311 54.7432C210.311 54.3981 210.278 53.8805 210.213 53.1904C210.154 52.5003 210.125 51.9795 210.125 51.6279C210.125 50.1501 210.457 49.4111 211.121 49.4111C211.375 49.4111 211.606 49.5218 211.814 49.7432C212.029 49.9645 212.137 50.2054 212.137 50.4658C212.137 50.5895 212.12 50.7816 212.088 51.042C212.055 51.3024 212.039 51.501 212.039 51.6377L212.059 52.6631C212.397 51.9665 212.895 51.3382 213.553 50.7783C214.21 50.2119 214.77 49.9287 215.232 49.9287C216.255 49.9287 216.958 50.4365 217.342 51.4521C217.7 50.9769 218.126 50.6221 218.621 50.3877C219.116 50.1468 219.682 50.0264 220.32 50.0264C221.408 50.0264 222.15 50.6123 222.547 51.7842C222.625 52.0186 222.758 52.9333 222.947 54.5283C223.13 55.6481 223.364 57.5133 223.65 60.124C223.67 60.3844 223.582 60.6058 223.387 60.7881C223.191 60.9704 222.954 61.0615 222.674 61.0615ZM229.48 60.8271C228.387 60.8271 227.446 60.4235 226.658 59.6162C225.779 58.7178 225.317 57.5101 225.271 55.9932C225.232 54.5218 225.604 53.2262 226.385 52.1064C227.296 50.7848 228.566 50.124 230.193 50.124C231.495 50.124 232.482 50.7197 233.152 51.9111C233.686 52.8747 233.943 54.0335 233.924 55.3877C233.904 56.833 233.527 58.0667 232.791 59.0889C231.958 60.2477 230.854 60.8271 229.48 60.8271ZM230.066 52.1064C229.109 52.0999 228.364 52.5557 227.83 53.4736C227.407 54.2093 227.195 55.0492 227.195 55.9932C227.195 56.9372 227.452 57.6729 227.967 58.2002C228.396 58.6364 228.901 58.8545 229.48 58.8545C230.158 58.8545 230.74 58.6071 231.229 58.1123C231.782 57.5654 232.075 56.8265 232.107 55.8955C232.199 53.376 231.518 52.113 230.066 52.1064ZM240.848 59.7432C240.828 60.3421 240.532 60.6416 239.959 60.6416C239.484 60.6416 239.139 60.3617 238.924 59.8018L237.43 55.8369L235.691 51.3545C235.626 51.1852 235.594 51.0355 235.594 50.9053C235.594 50.6383 235.695 50.4105 235.896 50.2217C236.098 50.0329 236.333 49.9385 236.6 49.9385C236.99 49.9385 237.27 50.137 237.439 50.5342L239.92 57.3604C240.408 56.3187 241.023 54.8083 241.766 52.8291C241.941 52.3083 242.218 51.5726 242.596 50.6221C242.798 50.2054 243.084 49.9971 243.455 49.9971C243.722 49.9971 243.956 50.0915 244.158 50.2803C244.36 50.4691 244.461 50.6937 244.461 50.9541C244.461 51.2015 243.924 52.5947 242.85 55.1338L240.848 59.7432ZM250.633 60.7002C249.161 60.7002 247.97 60.3324 247.059 59.5967C246.062 58.7829 245.564 57.6436 245.564 56.1787C245.564 54.486 245.975 53.0667 246.795 51.9209C247.687 50.6709 248.878 50.0459 250.369 50.0459C251.45 50.0459 252.332 50.2282 253.016 50.5928C253.855 51.042 254.275 51.7321 254.275 52.6631C254.275 53.3141 253.908 53.9066 253.172 54.4404C252.846 54.6748 252.156 55.0394 251.102 55.5342L247.371 57.3018C247.736 57.8421 248.188 58.249 248.729 58.5225C249.275 58.7959 249.91 58.9326 250.633 58.9326C251.082 58.9326 251.609 58.848 252.215 58.6787C252.983 58.4639 253.478 58.1839 253.699 57.8389C253.921 57.4873 254.158 57.3115 254.412 57.3115C254.64 57.3115 254.842 57.3994 255.018 57.5752C255.2 57.7445 255.291 57.943 255.291 58.1709C255.291 58.8936 254.708 59.5153 253.543 60.0361C252.547 60.4788 251.577 60.7002 250.633 60.7002ZM250.369 51.8037C249.575 51.8037 248.914 52.113 248.387 52.7314C247.859 53.3434 247.465 54.2679 247.205 55.5049L250.203 54.0791C251.382 53.5062 252.221 53.0081 252.723 52.585C252.163 52.0641 251.378 51.8037 250.369 51.8037ZM269.568 46.5205C267.993 46.5205 267.111 47.6143 266.922 49.8018L266.893 50.4072C267.999 50.3291 268.715 50.29 269.041 50.29C270.076 50.29 270.594 50.6156 270.594 51.2666C270.594 51.7419 270.34 52.0251 269.832 52.1162C269.611 52.1553 269.35 52.1715 269.051 52.165C268.758 52.152 268.009 52.1943 266.805 52.292L266.727 54.5186C266.727 54.9222 266.74 55.5277 266.766 56.335C266.792 57.1423 266.805 57.7445 266.805 58.1416C266.805 59.3786 266.733 60.3421 266.59 61.0322C266.479 61.5531 266.176 61.8135 265.682 61.8135C265.415 61.8135 265.187 61.7256 264.998 61.5498C264.809 61.3805 264.715 61.1657 264.715 60.9053C264.715 60.8532 264.721 60.7881 264.734 60.71C264.871 59.8636 264.939 58.9424 264.939 57.9463L264.91 55.2803V52.4482C264.096 52.5133 263.582 52.5459 263.367 52.5459C262.71 52.5459 262.381 52.2301 262.381 51.5986C262.381 50.9541 262.951 50.6156 264.09 50.583L265.027 50.5537C265.047 50.1891 265.096 49.6943 265.174 49.0693C265.343 47.624 265.708 46.5596 266.268 45.876C266.945 45.0492 268.003 44.6357 269.441 44.6357C270.372 44.6357 270.838 44.9515 270.838 45.583C270.838 46.208 270.415 46.5205 269.568 46.5205ZM276.844 60.8271C275.75 60.8271 274.809 60.4235 274.021 59.6162C273.143 58.7178 272.68 57.5101 272.635 55.9932C272.596 54.5218 272.967 53.2262 273.748 52.1064C274.66 50.7848 275.929 50.124 277.557 50.124C278.859 50.124 279.845 50.7197 280.516 51.9111C281.049 52.8747 281.307 54.0335 281.287 55.3877C281.268 56.833 280.89 58.0667 280.154 59.0889C279.321 60.2477 278.217 60.8271 276.844 60.8271ZM277.43 52.1064C276.473 52.0999 275.727 52.5557 275.193 53.4736C274.77 54.2093 274.559 55.0492 274.559 55.9932C274.559 56.9372 274.816 57.6729 275.33 58.2002C275.76 58.6364 276.264 58.8545 276.844 58.8545C277.521 58.8545 278.104 58.6071 278.592 58.1123C279.145 57.5654 279.438 56.8265 279.471 55.8955C279.562 53.376 278.882 52.113 277.43 52.1064ZM291.307 53.0342C291.261 53.848 290.936 54.2549 290.33 54.2549C289.77 54.2549 289.49 53.9326 289.49 53.2881C289.49 53.1644 289.48 52.9365 289.461 52.6045L289.432 51.7842C288.403 51.9079 287.579 52.1976 286.961 52.6533C286.382 53.0765 285.9 53.7145 285.516 54.5674L285.535 59.9189C285.535 60.5765 285.213 60.9053 284.568 60.9053C283.995 60.9053 283.709 60.5765 283.709 59.9189V53.0635C283.709 52.8486 283.715 52.5264 283.729 52.0967C283.748 51.667 283.758 51.3447 283.758 51.1299C283.758 50.4723 284.044 50.1436 284.617 50.1436C285.255 50.1436 285.577 50.6839 285.584 51.7646C286.834 50.5602 288.221 49.958 289.744 49.958C290.271 49.958 290.665 50.1566 290.926 50.5537C291.186 50.9508 291.316 51.5498 291.316 52.3506C291.316 52.6891 291.313 52.917 291.307 53.0342ZM305.008 51.5107C304.5 53.6331 303.836 56.0322 303.016 58.708C302.833 59.3005 302.531 59.9092 302.107 60.5342C301.88 60.8792 301.57 61.0485 301.18 61.042C300.47 61.029 299.917 60.1468 299.52 58.3955C299.389 57.8356 299.256 57.0739 299.119 56.1104L298.797 53.9326L297.996 55.7979L296.512 59.8311C296.427 60.0785 296.303 60.2673 296.141 60.3975C295.945 60.7751 295.633 60.9704 295.203 60.9834C294.708 61.0029 294.23 60.0329 293.768 58.0732C293.533 57.0641 293.299 55.6969 293.064 53.9717L292.83 52.5068C292.745 51.9209 292.703 51.4294 292.703 51.0322C292.703 50.7588 292.798 50.5342 292.986 50.3584C293.182 50.1761 293.416 50.085 293.689 50.085C294.184 50.085 294.49 50.3551 294.607 50.8955C294.692 51.2796 294.76 51.7549 294.812 52.3213L294.959 53.7568L295.535 58.1416C296.258 56.1364 297.007 53.8252 297.781 51.208C297.996 50.4854 298.37 50.124 298.904 50.124C299.419 50.124 299.767 50.5277 299.949 51.335C300.118 52.0967 300.33 53.2686 300.584 54.8506C300.844 56.4912 301.076 57.7705 301.277 58.6885L301.99 56.0322L303.25 50.71C303.348 50.3128 303.628 50.1143 304.09 50.1143C304.363 50.1143 304.601 50.2087 304.803 50.3975C305.005 50.5798 305.105 50.8011 305.105 51.0615C305.105 51.0941 305.073 51.2438 305.008 51.5107ZM314.637 60.8955C314.513 60.8955 314.288 60.7523 313.963 60.4658C313.67 60.1989 313.452 59.9613 313.309 59.7529C312.684 60.0915 312.133 60.3454 311.658 60.5146C311.183 60.6904 310.786 60.7783 310.467 60.7783C308.943 60.7783 307.833 60.3486 307.137 59.4893C306.479 58.682 306.15 57.445 306.15 55.7783C306.15 54.2028 306.691 52.8551 307.771 51.7354C308.859 50.6156 310.154 50.0557 311.658 50.0557C312.225 50.0557 312.859 50.2021 313.562 50.4951C314.448 50.8597 314.891 51.2992 314.891 51.8135C314.891 51.9893 314.826 52.1455 314.695 52.2822C314.63 52.5296 314.578 52.9365 314.539 53.5029C314.507 54.0693 314.487 54.7952 314.48 55.6807C314.474 56.488 314.529 57.126 314.646 57.5947C314.712 57.8812 314.917 58.4541 315.262 59.3135C315.307 59.4307 315.382 59.6032 315.486 59.8311L315.545 59.9971C315.545 60.2575 315.454 60.4723 315.271 60.6416C315.089 60.8109 314.878 60.8955 314.637 60.8955ZM312.605 54.1084C312.605 53.8285 312.622 53.5257 312.654 53.2002C312.693 52.8682 312.749 52.5166 312.82 52.1455C312.579 52.0218 312.371 51.9307 312.195 51.8721C312.026 51.8135 311.889 51.7842 311.785 51.7842C310.776 51.7842 309.904 52.1976 309.168 53.0244C308.439 53.8447 308.074 54.792 308.074 55.8662C308.074 56.9339 308.263 57.7347 308.641 58.2686C309.018 58.8024 309.585 59.0693 310.34 59.0693C310.965 59.0693 311.495 58.9554 311.932 58.7275C312.166 58.6038 312.495 58.3564 312.918 57.9854C312.71 56.2601 312.605 54.9678 312.605 54.1084ZM324.842 53.0342C324.796 53.848 324.471 54.2549 323.865 54.2549C323.305 54.2549 323.025 53.9326 323.025 53.2881C323.025 53.1644 323.016 52.9365 322.996 52.6045L322.967 51.7842C321.938 51.9079 321.115 52.1976 320.496 52.6533C319.917 53.0765 319.435 53.7145 319.051 54.5674L319.07 59.9189C319.07 60.5765 318.748 60.9053 318.104 60.9053C317.531 60.9053 317.244 60.5765 317.244 59.9189V53.0635C317.244 52.8486 317.251 52.5264 317.264 52.0967C317.283 51.667 317.293 51.3447 317.293 51.1299C317.293 50.4723 317.579 50.1436 318.152 50.1436C318.79 50.1436 319.113 50.6839 319.119 51.7646C320.369 50.5602 321.756 49.958 323.279 49.958C323.807 49.958 324.201 50.1566 324.461 50.5537C324.721 50.9508 324.852 51.5498 324.852 52.3506C324.852 52.6891 324.848 52.917 324.842 53.0342ZM335.848 51.6279C335.77 52.585 335.73 53.542 335.73 54.499C335.73 56.667 335.831 58.3044 336.033 59.4111C336.046 59.5023 336.053 59.5771 336.053 59.6357C336.053 59.8962 335.962 60.111 335.779 60.2803C335.597 60.4495 335.385 60.5342 335.145 60.5342C334.741 60.5342 334.445 60.2412 334.256 59.6553C333.787 60.0003 333.299 60.2607 332.791 60.4365C332.29 60.6123 331.766 60.7002 331.219 60.7002C329.871 60.7002 328.755 60.251 327.869 59.3525C326.958 58.4346 326.502 57.2562 326.502 55.8174C326.502 54.0791 326.961 52.6859 327.879 51.6377C328.803 50.5895 330.001 50.0654 331.473 50.0654C332.228 50.0654 332.811 50.1826 333.221 50.417L334.139 51.0908C334.23 48.3499 334.337 46.5042 334.461 45.5537C334.546 44.9743 334.842 44.6846 335.35 44.6846C335.942 44.6846 336.238 45.0003 336.238 45.6318C336.238 46.5368 336.108 48.5355 335.848 51.6279ZM331.512 51.8818C330.418 51.8818 329.598 52.2074 329.051 52.8584C328.504 53.5029 328.23 54.4762 328.23 55.7783C328.23 56.6182 328.527 57.3408 329.119 57.9463C329.718 58.5518 330.418 58.8545 331.219 58.8545C331.766 58.8545 332.228 58.7536 332.605 58.5518C332.827 58.4346 333.188 58.1644 333.689 57.7412C333.787 57.6566 333.882 57.5557 333.973 57.4385L333.943 55.749L333.953 54.6162L333.973 53.4639C333.725 52.9365 333.396 52.5426 332.986 52.2822C332.576 52.0153 332.085 51.8818 331.512 51.8818ZM340.037 63.6104C339.809 63.6104 339.611 63.5225 339.441 63.3467C339.272 63.1709 339.188 62.9691 339.188 62.7412C339.188 62.5524 339.389 61.9925 339.793 61.0615C340.145 60.2542 340.415 59.6781 340.604 59.333C340.773 59.0205 340.997 58.8643 341.277 58.8643C341.512 58.8643 341.71 58.9554 341.873 59.1377C342.042 59.3135 342.127 59.5153 342.127 59.7432C342.127 59.8994 341.665 61.0127 340.74 63.083C340.59 63.4346 340.356 63.6104 340.037 63.6104ZM358.172 56.042L357.947 59.3232C357.908 60.6253 357.775 61.6898 357.547 62.5166C357.254 63.5713 356.785 64.3493 356.141 64.8506C355.359 65.4561 354.23 65.7588 352.752 65.7588C351.886 65.7588 351.16 65.7002 350.574 65.583C349.754 65.4202 349.344 65.0817 349.344 64.5674C349.344 63.988 349.627 63.6982 350.193 63.6982C350.428 63.6982 350.818 63.7536 351.365 63.8643C351.912 63.9814 352.518 64.0335 353.182 64.0205C354.432 64.001 355.294 63.3955 355.77 62.2041C356.082 61.4098 356.248 60.1891 356.268 58.542C355.916 59.193 355.496 59.6813 355.008 60.0068C354.526 60.3324 353.973 60.4951 353.348 60.4951C352.169 60.4951 351.209 60.0947 350.467 59.2939C349.731 58.4867 349.363 57.4417 349.363 56.1592C349.363 54.4014 349.868 52.9854 350.877 51.9111C351.919 50.8044 353.338 50.251 355.135 50.251C355.74 50.251 356.248 50.3291 356.658 50.4854C357.068 50.6416 357.381 50.876 357.596 51.1885C358.292 51.208 358.641 51.5954 358.641 52.3506C358.641 52.8128 358.572 53.4313 358.436 54.2061C358.286 55.1045 358.198 55.7165 358.172 56.042ZM355.037 51.8135C353.8 51.8135 352.843 52.2399 352.166 53.0928C351.561 53.861 351.258 54.8376 351.258 56.0225C351.258 56.9665 351.437 57.6761 351.795 58.1514C352.153 58.6266 352.69 58.8643 353.406 58.8643C354.064 58.8643 354.702 58.4932 355.32 57.751C355.88 57.0674 356.199 56.3903 356.277 55.7197C356.414 55.0166 356.561 53.9131 356.717 52.4092C356.456 52.2074 356.186 52.0576 355.906 51.96C355.626 51.8623 355.337 51.8135 355.037 51.8135ZM364.422 60.8271C363.328 60.8271 362.387 60.4235 361.6 59.6162C360.721 58.7178 360.258 57.5101 360.213 55.9932C360.174 54.5218 360.545 53.2262 361.326 52.1064C362.238 50.7848 363.507 50.124 365.135 50.124C366.437 50.124 367.423 50.7197 368.094 51.9111C368.628 52.8747 368.885 54.0335 368.865 55.3877C368.846 56.833 368.468 58.0667 367.732 59.0889C366.899 60.2477 365.796 60.8271 364.422 60.8271ZM365.008 52.1064C364.051 52.0999 363.305 52.5557 362.771 53.4736C362.348 54.2093 362.137 55.0492 362.137 55.9932C362.137 56.9372 362.394 57.6729 362.908 58.2002C363.338 58.6364 363.842 58.8545 364.422 58.8545C365.099 58.8545 365.682 58.6071 366.17 58.1123C366.723 57.5654 367.016 56.8265 367.049 55.8955C367.14 53.376 366.46 52.113 365.008 52.1064ZM377.82 51.9307C377.684 51.9307 377.521 51.9242 377.332 51.9111C377.15 51.8981 376.99 51.8916 376.854 51.8916C376.704 51.8916 376.261 51.9404 375.525 52.0381L375.711 57.8096L375.721 58.2393L375.73 58.7373C375.757 60.1631 375.415 60.876 374.705 60.876C374.445 60.876 374.217 60.7913 374.021 60.6221C373.833 60.4528 373.738 60.2412 373.738 59.9873C373.738 59.7399 373.748 59.3688 373.768 58.874C373.787 58.3792 373.797 58.0081 373.797 57.7607L373.602 52.0576C373.126 52.0381 372.404 51.9827 371.434 51.8916C370.854 51.8135 370.564 51.4912 370.564 50.9248C370.564 50.6383 370.652 50.4007 370.828 50.2119C371.004 50.0231 371.229 49.9287 371.502 49.9287L373.553 50.0947C373.553 49.7627 373.536 49.32 373.504 48.7666C373.478 48.2067 373.465 47.8031 373.465 47.5557C373.465 47.2822 373.559 47.0576 373.748 46.8818C373.937 46.6995 374.168 46.6084 374.441 46.6084C375.027 46.6084 375.369 47.0869 375.467 48.0439C375.486 48.2848 375.496 48.5745 375.496 48.9131L375.477 49.4795L375.467 50.085C376.274 49.9808 376.736 49.9287 376.854 49.9287C377.531 49.9287 377.973 49.9613 378.182 50.0264C378.579 50.1566 378.777 50.4626 378.777 50.9443C378.777 51.2308 378.686 51.4684 378.504 51.6572C378.328 51.8395 378.1 51.9307 377.82 51.9307ZM388.562 47.8877C388.25 47.8877 387.98 47.777 387.752 47.5557C387.524 47.3343 387.41 47.0674 387.41 46.7549C387.41 46.4424 387.524 46.1755 387.752 45.9541C387.98 45.7327 388.25 45.6221 388.562 45.6221C388.875 45.6221 389.142 45.7327 389.363 45.9541C389.591 46.1755 389.705 46.4424 389.705 46.7549C389.705 47.0674 389.591 47.3343 389.363 47.5557C389.142 47.777 388.875 47.8877 388.562 47.8877ZM389.002 55.8174C389.002 56.208 389.012 56.7939 389.031 57.5752C389.057 58.3499 389.07 58.9326 389.07 59.3232C389.07 59.6097 388.982 59.8441 388.807 60.0264C388.631 60.2087 388.4 60.2998 388.113 60.2998C387.833 60.2998 387.602 60.2087 387.42 60.0264C387.244 59.8441 387.156 59.6097 387.156 59.3232C387.156 58.9326 387.143 58.3499 387.117 57.5752C387.098 56.7939 387.088 56.208 387.088 55.8174C387.088 55.2054 387.12 54.4437 387.186 53.5322C387.251 52.6143 387.283 51.8493 387.283 51.2373C387.283 50.9443 387.371 50.7067 387.547 50.5244C387.729 50.3421 387.96 50.251 388.24 50.251C388.52 50.251 388.748 50.3421 388.924 50.5244C389.106 50.7067 389.197 50.9443 389.197 51.2373C389.197 51.8493 389.165 52.6143 389.1 53.5322C389.035 54.4437 389.002 55.2054 389.002 55.8174ZM398.836 51.9307C398.699 51.9307 398.536 51.9242 398.348 51.9111C398.165 51.8981 398.006 51.8916 397.869 51.8916C397.719 51.8916 397.277 51.9404 396.541 52.0381L396.727 57.8096L396.736 58.2393L396.746 58.7373C396.772 60.1631 396.43 60.876 395.721 60.876C395.46 60.876 395.232 60.7913 395.037 60.6221C394.848 60.4528 394.754 60.2412 394.754 59.9873C394.754 59.7399 394.764 59.3688 394.783 58.874C394.803 58.3792 394.812 58.0081 394.812 57.7607L394.617 52.0576C394.142 52.0381 393.419 51.9827 392.449 51.8916C391.87 51.8135 391.58 51.4912 391.58 50.9248C391.58 50.6383 391.668 50.4007 391.844 50.2119C392.02 50.0231 392.244 49.9287 392.518 49.9287L394.568 50.0947C394.568 49.7627 394.552 49.32 394.52 48.7666C394.493 48.2067 394.48 47.8031 394.48 47.5557C394.48 47.2822 394.575 47.0576 394.764 46.8818C394.952 46.6995 395.184 46.6084 395.457 46.6084C396.043 46.6084 396.385 47.0869 396.482 48.0439C396.502 48.2848 396.512 48.5745 396.512 48.9131L396.492 49.4795L396.482 50.085C397.29 49.9808 397.752 49.9287 397.869 49.9287C398.546 49.9287 398.989 49.9613 399.197 50.0264C399.594 50.1566 399.793 50.4626 399.793 50.9443C399.793 51.2308 399.702 51.4684 399.52 51.6572C399.344 51.8395 399.116 51.9307 398.836 51.9307Z" fill="#353535"/>
<rect x="27.9245" y="0.426008" width="49.0113" height="29.5796" fill="#8D211A"/>
<rect x="27.9245" y="0.426008" width="49.0113" height="29.5796" stroke="black" stroke-width="0.852016"/>
<path d="M45.6151 12.359C45.3986 12.8047 44.9636 13.7682 44.3099 15.2496C43.7666 16.489 43.3039 17.461 42.9219 18.1657C42.2597 19.3881 41.9053 20.0354 41.8586 20.1076C41.6082 20.4769 41.3195 20.6615 40.9927 20.6615C40.7592 20.6615 40.5534 20.5851 40.3751 20.4323C40.1798 20.2625 40.0822 20.0524 40.0822 19.802C40.0822 19.594 40.5258 18.7196 41.4129 17.1788C41.0861 16.7076 40.617 15.9924 40.0058 15.0331C39.5474 14.3285 38.8746 13.2652 37.9875 11.8433C37.9026 11.6989 37.8601 11.5483 37.8601 11.3912C37.8601 11.145 37.9556 10.937 38.1467 10.7672C38.3249 10.6102 38.5329 10.5317 38.7706 10.5317C39.0508 10.5317 39.3054 10.6739 39.5347 10.9582L40.0122 11.7223C40.0419 11.7732 40.4069 12.3929 41.1073 13.5814C41.5487 14.3412 41.9392 14.9418 42.2788 15.3833C42.6014 14.7339 43.0662 13.7512 43.6732 12.4354C43.8005 12.1425 43.9915 11.6989 44.2462 11.1047C44.4075 10.7227 44.6834 10.5317 45.0739 10.5317C45.3074 10.5317 45.5132 10.6081 45.6915 10.7609C45.8868 10.9264 45.9844 11.1344 45.9844 11.3848C45.9844 11.5292 45.8613 11.8539 45.6151 12.359ZM51.2244 20.6042C49.968 20.6042 48.8983 20.2434 48.0155 19.5218C47.0731 18.7493 46.602 17.7497 46.602 16.523C46.602 15.0798 47.054 13.764 47.9582 12.5755C48.9726 11.2384 50.2503 10.5699 51.7911 10.5699C53.2724 10.5699 54.3824 10.9094 55.121 11.5886C55.8596 12.2677 56.2288 13.2886 56.2288 14.6511C56.2288 16.0943 55.8129 17.4016 54.9809 18.5731C54.0216 19.9272 52.7695 20.6042 51.2244 20.6042ZM51.7911 12.2953C50.8445 12.2953 50.0338 12.7537 49.3589 13.6706C48.7264 14.528 48.4102 15.4788 48.4102 16.523C48.4102 17.2276 48.684 17.8006 49.2315 18.2421C49.7579 18.6665 50.4222 18.8788 51.2244 18.8788C52.1582 18.8788 52.9371 18.4203 53.5611 17.5035C54.1341 16.6673 54.4206 15.7165 54.4206 14.6511C54.4206 13.7597 54.2211 13.14 53.8221 12.7919C53.4401 12.4609 52.7631 12.2953 51.7911 12.2953ZM63.9838 19.1143C63.674 19.5346 63.3004 19.8847 62.8632 20.1649C62.3284 20.5045 61.7787 20.6742 61.2142 20.6742C60.1318 20.6742 59.3274 20.4663 58.8011 20.0503C57.689 19.1716 57.133 17.6457 57.133 15.4724C57.133 15.2644 57.1436 14.9546 57.1648 14.5429C57.186 14.1311 57.1966 13.8213 57.1966 13.6133C57.1966 13.4477 57.2009 13.2015 57.2094 12.8747C57.2178 12.5436 57.2221 12.2953 57.2221 12.1298C57.2221 11.7902 57.2836 11.4697 57.4067 11.1684C57.5723 10.7694 57.8036 10.5699 58.1007 10.5699C58.3342 10.5699 58.5401 10.6463 58.7183 10.7991C58.9136 10.9604 59.0112 11.1684 59.0112 11.423C59.0112 11.665 59.007 12.0321 58.9985 12.5245C58.9942 13.0127 58.9921 13.3798 58.9921 13.626C58.9921 13.8298 58.9815 14.1375 58.9603 14.5492C58.939 14.9609 58.9284 15.2687 58.9284 15.4724C58.9284 16.1303 59.0048 16.7416 59.1576 17.3061C59.3359 17.981 59.597 18.4522 59.9408 18.7196C60.1191 18.8597 60.5435 18.9339 61.2142 18.9424C62.3348 18.9594 63.0903 18.0044 63.4808 16.0773C63.6846 15.0798 63.7864 13.6791 63.7864 11.8751C63.7864 11.6374 63.8565 11.4082 63.9965 11.1875C64.1876 10.8946 64.4592 10.7481 64.8115 10.7481C65.1002 10.7481 65.3166 10.8543 65.4609 11.0665C65.5713 11.2235 65.6265 11.3976 65.6265 11.5886C65.6265 13.2652 65.548 14.5726 65.3909 15.5106C65.1532 16.9581 64.6842 18.1593 63.9838 19.1143Z" fill="white"/>
</svg>
