<svg width="836" height="84" viewBox="0 0 836 84" fill="none" xmlns="http://www.w3.org/2000/svg">
<rect x="1" y="20.2507" width="834" height="64" fill="white"/>
<rect x="1" y="20.2507" width="834" height="64" stroke="black" stroke-width="1.5"/>
<path d="M33.6758 63.3757C33.3164 63.3757 33 63.2742 32.7266 63.071C32.4141 62.8367 32.2578 62.5476 32.2578 62.2039C31.8984 61.2585 31.6719 60.489 31.5781 59.8953C31.4844 59.3015 31.1758 57.6179 30.6523 54.8445C30.2539 52.7429 29.9883 51.0554 29.8555 49.782C29.1602 52.3601 28.4141 54.5437 27.6172 56.3328C26.6953 58.4031 26.0977 60.0242 25.8242 61.196C25.918 61.3757 25.9648 61.5515 25.9648 61.7234C25.9648 62.075 25.8086 62.364 25.4961 62.5906C25.2148 62.8015 24.8945 62.907 24.5352 62.907C23.4805 62.907 22.9531 62.4343 22.9531 61.489L22.5898 60.0007L21.3125 54.2585C20.8047 52.321 19.9375 49.5437 18.7109 45.9265C18.6562 45.7546 18.6289 45.5984 18.6289 45.4578C18.6289 44.7312 19.0391 44.3679 19.8594 44.3679C20.3672 44.3679 20.7578 44.6453 21.0312 45.2C21.1719 45.4812 21.457 46.2898 21.8867 47.6257C22.3477 49.0398 22.8086 50.7429 23.2695 52.7351L24.4062 57.9148C25.2422 55.9773 26.0742 53.6179 26.9023 50.8367C27.4102 49.1414 27.7969 47.9656 28.0625 47.3093C28.7656 45.5828 29.4492 44.7195 30.1133 44.7195C30.6602 44.7195 31.0469 44.9968 31.2734 45.5515C31.5547 46.2234 31.8398 47.825 32.1289 50.3562C32.2852 51.6375 32.5508 53.1765 32.9258 54.9734L33.9336 59.5789C34.9805 57.0632 36.2891 53.6609 37.8594 49.3718C37.9453 49.1375 38.1406 48.3992 38.4453 47.157C38.6719 46.2429 38.9492 45.532 39.2773 45.0242C39.5586 44.5945 39.9258 44.3796 40.3789 44.3796C41.168 44.3796 41.5625 44.7703 41.5625 45.5515C41.5625 45.6843 41.4375 46.075 41.1875 46.7234L40.7188 47.989L40.0742 50.075L36.5938 58.5359C36.2734 59.4656 35.7227 60.8171 34.9414 62.5906C34.6602 63.114 34.2383 63.3757 33.6758 63.3757ZM52.7422 63.0242C52.5938 63.0242 52.3242 62.8523 51.9336 62.5085C51.582 62.1882 51.3203 61.9031 51.1484 61.6531C50.3984 62.0593 49.7383 62.364 49.168 62.5671C48.5977 62.7781 48.1211 62.8835 47.7383 62.8835C45.9102 62.8835 44.5781 62.3679 43.7422 61.3367C42.9531 60.3679 42.5586 58.8835 42.5586 56.8835C42.5586 54.9929 43.207 53.3757 44.5039 52.032C45.8086 50.6882 47.3633 50.0164 49.168 50.0164C49.8477 50.0164 50.6094 50.1921 51.4531 50.5437C52.5156 50.9812 53.0469 51.5085 53.0469 52.1257C53.0469 52.3367 52.9688 52.5242 52.8125 52.6882C52.7344 52.9851 52.6719 53.4734 52.625 54.1531C52.5859 54.8328 52.5625 55.7039 52.5547 56.7664C52.5469 57.7351 52.6133 58.5007 52.7539 59.0632C52.832 59.407 53.0781 60.0945 53.4922 61.1257C53.5469 61.2664 53.6367 61.4734 53.7617 61.7468L53.832 61.946C53.832 62.2585 53.7227 62.5164 53.5039 62.7195C53.2852 62.9226 53.0312 63.0242 52.7422 63.0242ZM50.3047 54.8796C50.3047 54.5437 50.3242 54.1804 50.3633 53.7898C50.4102 53.3914 50.4766 52.9695 50.5625 52.5242C50.2734 52.3757 50.0234 52.2664 49.8125 52.196C49.6094 52.1257 49.4453 52.0906 49.3203 52.0906C48.1094 52.0906 47.0625 52.5867 46.1797 53.5789C45.3047 54.5632 44.8672 55.7 44.8672 56.989C44.8672 58.2703 45.0938 59.2312 45.5469 59.8718C46 60.5125 46.6797 60.8328 47.5859 60.8328C48.3359 60.8328 48.9727 60.696 49.4961 60.4226C49.7773 60.2742 50.1719 59.9773 50.6797 59.532C50.4297 57.4617 50.3047 55.9109 50.3047 54.8796ZM58.1094 47.4148C57.7344 47.4148 57.4102 47.282 57.1367 47.0164C56.8633 46.7507 56.7266 46.4304 56.7266 46.0554C56.7266 45.6804 56.8633 45.3601 57.1367 45.0945C57.4102 44.8289 57.7344 44.696 58.1094 44.696C58.4844 44.696 58.8047 44.8289 59.0703 45.0945C59.3438 45.3601 59.4805 45.6804 59.4805 46.0554C59.4805 46.4304 59.3438 46.7507 59.0703 47.0164C58.8047 47.282 58.4844 47.4148 58.1094 47.4148ZM58.6367 56.9304C58.6367 57.3992 58.6484 58.1023 58.6719 59.0398C58.7031 59.9695 58.7188 60.6687 58.7188 61.1375C58.7188 61.4812 58.6133 61.7625 58.4023 61.9812C58.1914 62.2 57.9141 62.3093 57.5703 62.3093C57.2344 62.3093 56.957 62.2 56.7383 61.9812C56.5273 61.7625 56.4219 61.4812 56.4219 61.1375C56.4219 60.6687 56.4062 59.9695 56.375 59.0398C56.3516 58.1023 56.3398 57.3992 56.3398 56.9304C56.3398 56.196 56.3789 55.282 56.457 54.1882C56.5352 53.0867 56.5742 52.1687 56.5742 51.4343C56.5742 51.0828 56.6797 50.7976 56.8906 50.5789C57.1094 50.3601 57.3867 50.2507 57.7227 50.2507C58.0586 50.2507 58.332 50.3601 58.543 50.5789C58.7617 50.7976 58.8711 51.0828 58.8711 51.4343C58.8711 52.1687 58.832 53.0867 58.7539 54.1882C58.6758 55.282 58.6367 56.196 58.6367 56.9304ZM70.4375 52.2664C70.2734 52.2664 70.0781 52.2585 69.8516 52.2429C69.6328 52.2273 69.4414 52.2195 69.2773 52.2195C69.0977 52.2195 68.5664 52.2781 67.6836 52.3953L67.9062 59.321L67.918 59.8367L67.9297 60.4343C67.9609 62.1453 67.5508 63.0007 66.6992 63.0007C66.3867 63.0007 66.1133 62.8992 65.8789 62.696C65.6523 62.4929 65.5391 62.239 65.5391 61.9343C65.5391 61.6375 65.5508 61.1921 65.5742 60.5984C65.5977 60.0046 65.6094 59.5593 65.6094 59.2625L65.375 52.4187C64.8047 52.3953 63.9375 52.3289 62.7734 52.2195C62.0781 52.1257 61.7305 51.739 61.7305 51.0593C61.7305 50.7156 61.8359 50.4304 62.0469 50.2039C62.2578 49.9773 62.5273 49.864 62.8555 49.864L65.3164 50.0632C65.3164 49.6648 65.2969 49.1335 65.2578 48.4695C65.2266 47.7976 65.2109 47.3132 65.2109 47.0164C65.2109 46.6882 65.3242 46.4187 65.5508 46.2078C65.7773 45.989 66.0547 45.8796 66.3828 45.8796C67.0859 45.8796 67.4961 46.4539 67.6133 47.6023C67.6367 47.8914 67.6484 48.239 67.6484 48.6453L67.625 49.325L67.6133 50.0515C68.582 49.9265 69.1367 49.864 69.2773 49.864C70.0898 49.864 70.6211 49.9031 70.8711 49.9812C71.3477 50.1375 71.5859 50.5046 71.5859 51.0828C71.5859 51.4265 71.4766 51.7117 71.2578 51.9382C71.0469 52.157 70.7734 52.2664 70.4375 52.2664ZM75.418 63.3406C75.0117 63.3406 74.668 63.2 74.3867 62.9187C74.1055 62.6375 73.9648 62.2937 73.9648 61.8875C73.9648 61.489 74.1055 61.1492 74.3867 60.8679C74.668 60.5789 75.0117 60.4343 75.418 60.4343C75.8164 60.4343 76.1562 60.5789 76.4375 60.8679C76.7266 61.1492 76.8711 61.489 76.8711 61.8875C76.8711 62.2937 76.7266 62.6375 76.4375 62.9187C76.1562 63.2 75.8164 63.3406 75.418 63.3406ZM81.3945 63.3406C80.9883 63.3406 80.6445 63.2 80.3633 62.9187C80.082 62.6375 79.9414 62.2937 79.9414 61.8875C79.9414 61.489 80.082 61.1492 80.3633 60.8679C80.6445 60.5789 80.9883 60.4343 81.3945 60.4343C81.793 60.4343 82.1328 60.5789 82.4141 60.8679C82.7031 61.1492 82.8477 61.489 82.8477 61.8875C82.8477 62.2937 82.7031 62.6375 82.4141 62.9187C82.1328 63.2 81.793 63.3406 81.3945 63.3406ZM87.3711 63.3406C86.9648 63.3406 86.6211 63.2 86.3398 62.9187C86.0586 62.6375 85.918 62.2937 85.918 61.8875C85.918 61.489 86.0586 61.1492 86.3398 60.8679C86.6211 60.5789 86.9648 60.4343 87.3711 60.4343C87.7695 60.4343 88.1094 60.5789 88.3906 60.8679C88.6797 61.1492 88.8242 61.489 88.8242 61.8875C88.8242 62.2937 88.6797 62.6375 88.3906 62.9187C88.1094 63.2 87.7695 63.3406 87.3711 63.3406ZM113.902 63.2234C113.262 63.2234 112.887 62.8835 112.777 62.2039C112.637 61.3445 112.496 60.1335 112.355 58.571L111.957 54.9382C111.879 54.3992 111.746 53.8718 111.559 53.3562C111.293 52.6531 111.004 52.3015 110.691 52.3015C110.402 52.3015 109.863 52.5476 109.074 53.0398C108.324 53.4929 107.832 53.8562 107.598 54.1296C107.59 54.864 107.609 55.5984 107.656 56.3328L108.008 59.4617C108.156 60.696 108.23 61.7156 108.23 62.5203C108.23 62.864 108.121 63.1453 107.902 63.364C107.691 63.5906 107.418 63.7039 107.082 63.7039C106.746 63.7039 106.469 63.5906 106.25 63.364C106.039 63.1453 105.934 62.864 105.934 62.5203C105.934 61.575 105.836 60.1804 105.641 58.3367C105.453 56.4851 105.359 55.0867 105.359 54.1414C105.359 53.3132 105.242 52.6687 105.008 52.2078C104.461 52.4578 103.906 52.864 103.344 53.4265L101.961 54.9734C101.836 55.1609 101.637 55.407 101.363 55.7117C101.363 56.1804 101.32 56.8718 101.234 57.7859C101.148 58.7 101.105 59.3757 101.105 59.8132C101.105 60.0476 101.141 60.3757 101.211 60.7976C101.289 61.2195 101.328 61.5242 101.328 61.7117C101.328 62.032 101.207 62.3015 100.965 62.5203C100.73 62.739 100.453 62.8484 100.133 62.8484C99.25 62.8484 98.8086 61.8445 98.8086 59.8367C98.8086 59.3679 98.8516 58.6687 98.9375 57.739C99.0234 56.8093 99.0664 56.1101 99.0664 55.6414C99.0664 55.2273 99.0273 54.6062 98.9492 53.7781C98.8789 52.95 98.8438 52.325 98.8438 51.9031C98.8438 50.1296 99.2422 49.2429 100.039 49.2429C100.344 49.2429 100.621 49.3757 100.871 49.6414C101.129 49.907 101.258 50.196 101.258 50.5085C101.258 50.657 101.238 50.8875 101.199 51.2C101.16 51.5125 101.141 51.7507 101.141 51.9148L101.164 53.1453C101.57 52.3093 102.168 51.5554 102.957 50.8835C103.746 50.2039 104.418 49.864 104.973 49.864C106.199 49.864 107.043 50.4734 107.504 51.6921C107.934 51.1218 108.445 50.696 109.039 50.4148C109.633 50.1257 110.312 49.9812 111.078 49.9812C112.383 49.9812 113.273 50.6843 113.75 52.0906C113.844 52.3718 114.004 53.4695 114.23 55.3835C114.449 56.7273 114.73 58.9656 115.074 62.0984C115.098 62.4109 114.992 62.6765 114.758 62.8953C114.523 63.114 114.238 63.2234 113.902 63.2234ZM123.148 62.7898C121.383 62.7898 119.953 62.3484 118.859 61.4656C117.664 60.489 117.066 59.1218 117.066 57.364C117.066 55.3328 117.559 53.6296 118.543 52.2546C119.613 50.7546 121.043 50.0046 122.832 50.0046C124.129 50.0046 125.188 50.2234 126.008 50.6609C127.016 51.2 127.52 52.0281 127.52 53.1453C127.52 53.9265 127.078 54.6375 126.195 55.2781C125.805 55.5593 124.977 55.9968 123.711 56.5906L119.234 58.7117C119.672 59.3601 120.215 59.8484 120.863 60.1765C121.52 60.5046 122.281 60.6687 123.148 60.6687C123.688 60.6687 124.32 60.5671 125.047 60.364C125.969 60.1062 126.562 59.7703 126.828 59.3562C127.094 58.9343 127.379 58.7234 127.684 58.7234C127.957 58.7234 128.199 58.8289 128.41 59.0398C128.629 59.2429 128.738 59.4812 128.738 59.7546C128.738 60.6218 128.039 61.3679 126.641 61.9929C125.445 62.5242 124.281 62.7898 123.148 62.7898ZM122.832 52.114C121.879 52.114 121.086 52.4851 120.453 53.2273C119.82 53.9617 119.348 55.071 119.035 56.5554L122.633 54.8445C124.047 54.157 125.055 53.5593 125.656 53.0515C124.984 52.4265 124.043 52.114 122.832 52.114ZM133.543 58.6414C133.223 58.6414 132.941 58.5203 132.699 58.2781C132.457 58.0281 132.336 57.7468 132.336 57.4343C132.336 56.8953 132.836 56.2312 133.836 55.4421L136.637 53.3328C137.645 52.4656 138.148 51.6726 138.148 50.9539C138.148 50.0476 137.723 49.2117 136.871 48.446C136.051 47.7039 135.18 47.3328 134.258 47.3328C133.766 47.3328 133.141 47.5867 132.383 48.0945C131.625 48.5945 131.156 48.8445 130.977 48.8445C130.656 48.8445 130.379 48.7156 130.145 48.4578C129.918 48.2 129.805 47.9109 129.805 47.5906C129.805 46.9734 130.402 46.3601 131.598 45.7507C132.668 45.2039 133.555 44.9304 134.258 44.9304C135.828 44.9304 137.254 45.5437 138.535 46.7703C139.816 47.9968 140.457 49.3914 140.457 50.9539C140.457 52.0945 140.09 53.1062 139.355 53.989C138.918 54.5203 138.105 55.2078 136.918 56.0515C135.723 56.9187 134.891 57.6218 134.422 58.1609C134.148 58.4812 133.855 58.6414 133.543 58.6414ZM132.898 63.0945C132.555 63.0945 132.242 62.9773 131.961 62.7429C131.688 62.5164 131.551 62.239 131.551 61.9109C131.551 61.4265 131.68 60.989 131.938 60.5984C132.227 60.1609 132.598 59.9421 133.051 59.9421C133.801 59.9421 134.176 60.4031 134.176 61.325C134.176 61.7546 134.074 62.1414 133.871 62.4851C133.621 62.8914 133.297 63.0945 132.898 63.0945ZM163.602 62.6023C162.883 62.6023 162.258 61.6804 161.727 59.8367C161.523 59.1335 161.27 57.9031 160.965 56.1453C160.168 56.2546 159.125 56.45 157.836 56.7312L154.719 57.3757C154.328 58.3992 153.66 59.8953 152.715 61.864C152.465 62.3015 152.125 62.5203 151.695 62.5203C151.383 62.5203 151.102 62.407 150.852 62.1804C150.609 61.9539 150.488 61.6726 150.488 61.3367C150.488 60.9617 151.078 59.5359 152.258 57.0593C152.125 56.8562 152.059 56.6218 152.059 56.3562C152.059 55.7234 152.441 55.3171 153.207 55.1375C154.098 53.4656 155.223 51.5437 156.582 49.3718C158.434 46.4109 159.586 44.9304 160.039 44.9304C160.656 44.9304 161.078 45.3601 161.305 46.2195L162.043 50.157L163.789 58.3015L164.457 60.1531C164.684 60.7859 164.797 61.2078 164.797 61.4187C164.797 61.7546 164.676 62.0359 164.434 62.2625C164.191 62.489 163.914 62.6023 163.602 62.6023ZM159.465 49.2078L156.113 54.6101C157.059 54.3679 158.492 54.075 160.414 53.7312L159.465 49.2078ZM177.254 53.5906C177.199 54.5671 176.809 55.0554 176.082 55.0554C175.41 55.0554 175.074 54.6687 175.074 53.8953C175.074 53.7468 175.062 53.4734 175.039 53.075L175.004 52.0906C173.77 52.239 172.781 52.5867 172.039 53.1335C171.344 53.6414 170.766 54.407 170.305 55.4304L170.328 61.8523C170.328 62.6414 169.941 63.0359 169.168 63.0359C168.48 63.0359 168.137 62.6414 168.137 61.8523V53.6257C168.137 53.3679 168.145 52.9812 168.16 52.4656C168.184 51.95 168.195 51.5632 168.195 51.3054C168.195 50.5164 168.539 50.1218 169.227 50.1218C169.992 50.1218 170.379 50.7703 170.387 52.0671C171.887 50.6218 173.551 49.8992 175.379 49.8992C176.012 49.8992 176.484 50.1375 176.797 50.614C177.109 51.0906 177.266 51.8093 177.266 52.7703C177.266 53.1765 177.262 53.45 177.254 53.5906ZM185.141 62.7898C183.375 62.7898 181.945 62.3484 180.852 61.4656C179.656 60.489 179.059 59.1218 179.059 57.364C179.059 55.3328 179.551 53.6296 180.535 52.2546C181.605 50.7546 183.035 50.0046 184.824 50.0046C186.121 50.0046 187.18 50.2234 188 50.6609C189.008 51.2 189.512 52.0281 189.512 53.1453C189.512 53.9265 189.07 54.6375 188.188 55.2781C187.797 55.5593 186.969 55.9968 185.703 56.5906L181.227 58.7117C181.664 59.3601 182.207 59.8484 182.855 60.1765C183.512 60.5046 184.273 60.6687 185.141 60.6687C185.68 60.6687 186.312 60.5671 187.039 60.364C187.961 60.1062 188.555 59.7703 188.82 59.3562C189.086 58.9343 189.371 58.7234 189.676 58.7234C189.949 58.7234 190.191 58.8289 190.402 59.0398C190.621 59.2429 190.73 59.4812 190.73 59.7546C190.73 60.6218 190.031 61.3679 188.633 61.9929C187.438 62.5242 186.273 62.7898 185.141 62.7898ZM184.824 52.114C183.871 52.114 183.078 52.4851 182.445 53.2273C181.812 53.9617 181.34 55.071 181.027 56.5554L184.625 54.8445C186.039 54.157 187.047 53.5593 187.648 53.0515C186.977 52.4265 186.035 52.114 184.824 52.114ZM210.207 51.7976L206.152 60.5632C205.152 62.696 204.387 64.4812 203.855 65.9187L203.082 68.1921C202.879 68.7546 202.527 69.0359 202.027 69.0359C201.699 69.0359 201.414 68.9265 201.172 68.7078C200.938 68.4968 200.82 68.2312 200.82 67.9109C200.82 67.1296 201.664 64.8679 203.352 61.1257L199.156 53.0515L198.629 52.196C198.418 51.8367 198.312 51.5359 198.312 51.2937C198.312 50.9734 198.434 50.6921 198.676 50.45C198.926 50.2078 199.203 50.0867 199.508 50.0867C199.867 50.0867 200.145 50.2234 200.34 50.4968C201.668 52.3406 203.094 54.9656 204.617 58.3718L206.352 54.3289C206.977 52.9304 207.578 51.7273 208.156 50.7195C208.406 50.282 208.734 50.0632 209.141 50.0632C209.461 50.0632 209.742 50.1765 209.984 50.4031C210.234 50.6296 210.359 50.8992 210.359 51.2117C210.359 51.3835 210.309 51.5789 210.207 51.7976ZM216.875 62.9421C215.562 62.9421 214.434 62.4578 213.488 61.489C212.434 60.4109 211.879 58.9617 211.824 57.1414C211.777 55.3757 212.223 53.821 213.16 52.4773C214.254 50.8914 215.777 50.0984 217.73 50.0984C219.293 50.0984 220.477 50.8132 221.281 52.2429C221.922 53.3992 222.23 54.7898 222.207 56.4148C222.184 58.1492 221.73 59.6296 220.848 60.8562C219.848 62.2468 218.523 62.9421 216.875 62.9421ZM217.578 52.4773C216.43 52.4695 215.535 53.0164 214.895 54.1179C214.387 55.0007 214.133 56.0085 214.133 57.1414C214.133 58.2742 214.441 59.157 215.059 59.7898C215.574 60.3132 216.18 60.575 216.875 60.575C217.688 60.575 218.387 60.2781 218.973 59.6843C219.637 59.0281 219.988 58.1414 220.027 57.0242C220.137 54.0007 219.32 52.4851 217.578 52.4773ZM234.676 55.407C234.676 55.9695 234.68 56.8132 234.688 57.9382C234.695 59.0632 234.699 59.907 234.699 60.4695C234.699 60.6414 234.711 60.9031 234.734 61.2546C234.766 61.6062 234.781 61.8679 234.781 62.0398C234.781 62.3757 234.668 62.6492 234.441 62.8601C234.215 63.0789 233.938 63.1882 233.609 63.1882C233.008 63.1882 232.625 62.8171 232.461 62.075C231.484 62.5828 230.359 62.8367 229.086 62.8367C228.062 62.8367 227.215 62.6101 226.543 62.157C225.801 61.657 225.359 60.9265 225.219 59.9656C224.914 57.8953 224.762 56.0515 224.762 54.4343C224.762 53.364 224.879 52.1453 225.113 50.7781C225.223 50.0984 225.594 49.7585 226.227 49.7585C226.562 49.7585 226.844 49.8679 227.07 50.0867C227.297 50.2976 227.41 50.571 227.41 50.907C227.41 51.2664 227.352 51.8406 227.234 52.6296C227.125 53.4187 227.07 54.0203 227.07 54.4343C227.07 55.739 227.113 56.8562 227.199 57.7859C227.285 58.7156 227.414 59.4617 227.586 60.0242C227.844 60.1648 228.098 60.2742 228.348 60.3523C228.598 60.4226 228.844 60.4578 229.086 60.4578C230.133 60.4578 231.238 60.2898 232.402 59.9539L232.391 57.575L232.367 55.3015C232.367 53.614 232.441 52.1492 232.59 50.907C232.676 50.1882 233.055 49.8289 233.727 49.8289C234.062 49.8289 234.344 49.9382 234.57 50.157C234.797 50.3757 234.902 50.6492 234.887 50.9773L234.676 55.407ZM252.688 53.2273C252.258 53.2273 251.957 53.0828 251.785 52.7937C251.668 52.5906 251.566 52.1687 251.48 51.5281C250.895 51.6765 249.992 51.95 248.773 52.3484C247.516 52.8484 246.883 53.4656 246.875 54.2C247.109 54.2859 247.34 54.3484 247.566 54.3875C249.363 54.7078 250.699 55.1492 251.574 55.7117C252.848 56.532 253.484 57.7195 253.484 59.2742C253.484 60.5476 252.934 61.5085 251.832 62.157C250.918 62.6882 249.762 62.9539 248.363 62.9539C247.34 62.9539 246.363 62.782 245.434 62.4382C244.23 62.0007 243.629 61.3914 243.629 60.6101C243.629 60.2976 243.75 60.0242 243.992 59.7898C244.242 59.5554 244.523 59.4382 244.836 59.4382C245.078 59.4382 245.391 59.6257 245.773 60.0007C245.961 60.1804 246.383 60.3289 247.039 60.446C247.562 60.5398 248.004 60.5867 248.363 60.5867C249.02 60.5867 249.598 60.5085 250.098 60.3523C250.824 60.1257 251.188 59.7664 251.188 59.2742C251.188 58.2117 250.445 57.4929 248.961 57.1179L247.742 56.8484C246.703 56.6218 245.965 56.3562 245.527 56.0515C244.895 55.614 244.578 54.9539 244.578 54.071C244.578 52.4382 245.348 51.2742 246.887 50.5789C247.355 50.3679 248.105 50.1179 249.137 49.8289C250.168 49.532 250.906 49.282 251.352 49.0789C251.672 48.9382 252.02 48.8679 252.395 48.8679C252.73 48.8679 253.004 48.9773 253.215 49.196C253.434 49.4148 253.543 49.7 253.543 50.0515C253.543 50.2781 253.59 50.6101 253.684 51.0476C253.785 51.4851 253.836 51.8171 253.836 52.0437C253.836 52.3953 253.727 52.6804 253.508 52.8992C253.297 53.1179 253.023 53.2273 252.688 53.2273ZM266.035 55.407C266.035 55.9695 266.039 56.8132 266.047 57.9382C266.055 59.0632 266.059 59.907 266.059 60.4695C266.059 60.6414 266.07 60.9031 266.094 61.2546C266.125 61.6062 266.141 61.8679 266.141 62.0398C266.141 62.3757 266.027 62.6492 265.801 62.8601C265.574 63.0789 265.297 63.1882 264.969 63.1882C264.367 63.1882 263.984 62.8171 263.82 62.075C262.844 62.5828 261.719 62.8367 260.445 62.8367C259.422 62.8367 258.574 62.6101 257.902 62.157C257.16 61.657 256.719 60.9265 256.578 59.9656C256.273 57.8953 256.121 56.0515 256.121 54.4343C256.121 53.364 256.238 52.1453 256.473 50.7781C256.582 50.0984 256.953 49.7585 257.586 49.7585C257.922 49.7585 258.203 49.8679 258.43 50.0867C258.656 50.2976 258.77 50.571 258.77 50.907C258.77 51.2664 258.711 51.8406 258.594 52.6296C258.484 53.4187 258.43 54.0203 258.43 54.4343C258.43 55.739 258.473 56.8562 258.559 57.7859C258.645 58.7156 258.773 59.4617 258.945 60.0242C259.203 60.1648 259.457 60.2742 259.707 60.3523C259.957 60.4226 260.203 60.4578 260.445 60.4578C261.492 60.4578 262.598 60.2898 263.762 59.9539L263.75 57.575L263.727 55.3015C263.727 53.614 263.801 52.1492 263.949 50.907C264.035 50.1882 264.414 49.8289 265.086 49.8289C265.422 49.8289 265.703 49.9382 265.93 50.157C266.156 50.3757 266.262 50.6492 266.246 50.9773L266.035 55.407ZM278.082 53.5906C278.027 54.5671 277.637 55.0554 276.91 55.0554C276.238 55.0554 275.902 54.6687 275.902 53.8953C275.902 53.7468 275.891 53.4734 275.867 53.075L275.832 52.0906C274.598 52.239 273.609 52.5867 272.867 53.1335C272.172 53.6414 271.594 54.407 271.133 55.4304L271.156 61.8523C271.156 62.6414 270.77 63.0359 269.996 63.0359C269.309 63.0359 268.965 62.6414 268.965 61.8523V53.6257C268.965 53.3679 268.973 52.9812 268.988 52.4656C269.012 51.95 269.023 51.5632 269.023 51.3054C269.023 50.5164 269.367 50.1218 270.055 50.1218C270.82 50.1218 271.207 50.7703 271.215 52.0671C272.715 50.6218 274.379 49.8992 276.207 49.8992C276.84 49.8992 277.312 50.1375 277.625 50.614C277.938 51.0906 278.094 51.8093 278.094 52.7703C278.094 53.1765 278.09 53.45 278.082 53.5906ZM285.969 62.7898C284.203 62.7898 282.773 62.3484 281.68 61.4656C280.484 60.489 279.887 59.1218 279.887 57.364C279.887 55.3328 280.379 53.6296 281.363 52.2546C282.434 50.7546 283.863 50.0046 285.652 50.0046C286.949 50.0046 288.008 50.2234 288.828 50.6609C289.836 51.2 290.34 52.0281 290.34 53.1453C290.34 53.9265 289.898 54.6375 289.016 55.2781C288.625 55.5593 287.797 55.9968 286.531 56.5906L282.055 58.7117C282.492 59.3601 283.035 59.8484 283.684 60.1765C284.34 60.5046 285.102 60.6687 285.969 60.6687C286.508 60.6687 287.141 60.5671 287.867 60.364C288.789 60.1062 289.383 59.7703 289.648 59.3562C289.914 58.9343 290.199 58.7234 290.504 58.7234C290.777 58.7234 291.02 58.8289 291.23 59.0398C291.449 59.2429 291.559 59.4812 291.559 59.7546C291.559 60.6218 290.859 61.3679 289.461 61.9929C288.266 62.5242 287.102 62.7898 285.969 62.7898ZM285.652 52.114C284.699 52.114 283.906 52.4851 283.273 53.2273C282.641 53.9617 282.168 55.071 281.855 56.5554L285.453 54.8445C286.867 54.157 287.875 53.5593 288.477 53.0515C287.805 52.4265 286.863 52.114 285.652 52.114ZM296.363 58.6414C296.043 58.6414 295.762 58.5203 295.52 58.2781C295.277 58.0281 295.156 57.7468 295.156 57.4343C295.156 56.8953 295.656 56.2312 296.656 55.4421L299.457 53.3328C300.465 52.4656 300.969 51.6726 300.969 50.9539C300.969 50.0476 300.543 49.2117 299.691 48.446C298.871 47.7039 298 47.3328 297.078 47.3328C296.586 47.3328 295.961 47.5867 295.203 48.0945C294.445 48.5945 293.977 48.8445 293.797 48.8445C293.477 48.8445 293.199 48.7156 292.965 48.4578C292.738 48.2 292.625 47.9109 292.625 47.5906C292.625 46.9734 293.223 46.3601 294.418 45.7507C295.488 45.2039 296.375 44.9304 297.078 44.9304C298.648 44.9304 300.074 45.5437 301.355 46.7703C302.637 47.9968 303.277 49.3914 303.277 50.9539C303.277 52.0945 302.91 53.1062 302.176 53.989C301.738 54.5203 300.926 55.2078 299.738 56.0515C298.543 56.9187 297.711 57.6218 297.242 58.1609C296.969 58.4812 296.676 58.6414 296.363 58.6414ZM295.719 63.0945C295.375 63.0945 295.062 62.9773 294.781 62.7429C294.508 62.5164 294.371 62.239 294.371 61.9109C294.371 61.4265 294.5 60.989 294.758 60.5984C295.047 60.1609 295.418 59.9421 295.871 59.9421C296.621 59.9421 296.996 60.4031 296.996 61.325C296.996 61.7546 296.895 62.1414 296.691 62.4851C296.441 62.8914 296.117 63.0945 295.719 63.0945ZM307.73 63.3406C307.324 63.3406 306.98 63.2 306.699 62.9187C306.418 62.6375 306.277 62.2937 306.277 61.8875C306.277 61.489 306.418 61.1492 306.699 60.8679C306.98 60.5789 307.324 60.4343 307.73 60.4343C308.129 60.4343 308.469 60.5789 308.75 60.8679C309.039 61.1492 309.184 61.489 309.184 61.8875C309.184 62.2937 309.039 62.6375 308.75 62.9187C308.469 63.2 308.129 63.3406 307.73 63.3406ZM313.707 63.3406C313.301 63.3406 312.957 63.2 312.676 62.9187C312.395 62.6375 312.254 62.2937 312.254 61.8875C312.254 61.489 312.395 61.1492 312.676 60.8679C312.957 60.5789 313.301 60.4343 313.707 60.4343C314.105 60.4343 314.445 60.5789 314.727 60.8679C315.016 61.1492 315.16 61.489 315.16 61.8875C315.16 62.2937 315.016 62.6375 314.727 62.9187C314.445 63.2 314.105 63.3406 313.707 63.3406ZM319.684 63.3406C319.277 63.3406 318.934 63.2 318.652 62.9187C318.371 62.6375 318.23 62.2937 318.23 61.8875C318.23 61.489 318.371 61.1492 318.652 60.8679C318.934 60.5789 319.277 60.4343 319.684 60.4343C320.082 60.4343 320.422 60.5789 320.703 60.8679C320.992 61.1492 321.137 61.489 321.137 61.8875C321.137 62.2937 320.992 62.6375 320.703 62.9187C320.422 63.2 320.082 63.3406 319.684 63.3406ZM333.746 47.6492C333.246 47.6492 332.617 47.5984 331.859 47.4968L329.973 47.2507C329.793 49.5242 329.703 51.696 329.703 53.7664C329.703 54.3132 329.719 54.989 329.75 55.7937C329.781 56.5984 329.797 57.2742 329.797 57.821C329.797 58.5554 329.77 59.2234 329.715 59.825L333.406 59.7781C333.734 59.7781 334.008 59.8953 334.227 60.1296C334.453 60.3562 334.566 60.6375 334.566 60.9734C334.566 61.3171 334.453 61.6062 334.227 61.8406C334.008 62.0671 333.734 62.1804 333.406 62.1804C332.969 62.1804 332.312 62.1921 331.438 62.2156C330.562 62.2312 329.906 62.239 329.469 62.239C328.953 62.239 328.18 62.3093 327.148 62.45C326.125 62.5984 325.352 62.6726 324.828 62.6726C324.5 62.6726 324.223 62.5554 323.996 62.321C323.777 62.0945 323.668 61.8132 323.668 61.4773C323.668 61.1414 323.777 60.8562 323.996 60.6218C324.223 60.3875 324.5 60.2703 324.828 60.2703C325.336 60.2703 326.176 60.1882 327.348 60.0242C327.426 59.3914 327.465 58.6687 327.465 57.8562C327.465 57.3171 327.438 56.6609 327.383 55.8875C327.336 55.1062 327.312 54.45 327.312 53.9187C327.312 52.114 327.422 49.8601 327.641 47.157L326.117 47.2039L324.594 47.239C324.258 47.239 323.977 47.1257 323.75 46.8992C323.523 46.6726 323.41 46.3835 323.41 46.032C323.41 45.3054 323.777 44.907 324.512 44.8367C325.145 44.7742 326.328 44.7429 328.062 44.7429C329.617 44.7429 331.566 44.9109 333.91 45.2468C334.605 45.3484 334.953 45.7664 334.953 46.5007C334.953 46.8679 334.82 47.1609 334.555 47.3796C334.32 47.5593 334.051 47.6492 333.746 47.6492ZM352.297 52.2664C352.133 52.2664 351.938 52.2585 351.711 52.2429C351.492 52.2273 351.301 52.2195 351.137 52.2195C350.957 52.2195 350.426 52.2781 349.543 52.3953L349.766 59.321L349.777 59.8367L349.789 60.4343C349.82 62.1453 349.41 63.0007 348.559 63.0007C348.246 63.0007 347.973 62.8992 347.738 62.696C347.512 62.4929 347.398 62.239 347.398 61.9343C347.398 61.6375 347.41 61.1921 347.434 60.5984C347.457 60.0046 347.469 59.5593 347.469 59.2625L347.234 52.4187C346.664 52.3953 345.797 52.3289 344.633 52.2195C343.938 52.1257 343.59 51.739 343.59 51.0593C343.59 50.7156 343.695 50.4304 343.906 50.2039C344.117 49.9773 344.387 49.864 344.715 49.864L347.176 50.0632C347.176 49.6648 347.156 49.1335 347.117 48.4695C347.086 47.7976 347.07 47.3132 347.07 47.0164C347.07 46.6882 347.184 46.4187 347.41 46.2078C347.637 45.989 347.914 45.8796 348.242 45.8796C348.945 45.8796 349.355 46.4539 349.473 47.6023C349.496 47.8914 349.508 48.239 349.508 48.6453L349.484 49.325L349.473 50.0515C350.441 49.9265 350.996 49.864 351.137 49.864C351.949 49.864 352.48 49.9031 352.73 49.9812C353.207 50.1375 353.445 50.5046 353.445 51.0828C353.445 51.4265 353.336 51.7117 353.117 51.9382C352.906 52.157 352.633 52.2664 352.297 52.2664ZM365.586 62.9773C365.031 62.9773 364.668 62.6804 364.496 62.0867C364.316 61.446 364.152 60.5359 364.004 59.3562C363.863 58.2234 363.793 57.2937 363.793 56.5671C363.793 56.364 363.801 56.0554 363.816 55.6414C363.84 55.2273 363.852 54.9187 363.852 54.7156C363.852 53.2468 363.484 52.5125 362.75 52.5125C361.758 52.5125 360.871 52.9617 360.09 53.8601C359.691 54.321 359.145 55.2 358.449 56.4968C358.449 59.4734 358.324 61.2351 358.074 61.782C357.855 62.2664 357.516 62.5085 357.055 62.5085C356.734 62.5085 356.453 62.3992 356.211 62.1804C355.969 61.9617 355.848 61.696 355.848 61.3835C355.848 61.2742 355.883 61.1023 355.953 60.8679C356.016 60.6726 356.059 60.1023 356.082 59.157L356.117 57.4226L356.152 48.8093C356.207 47.8406 356.234 47.1882 356.234 46.8523C356.234 46.4539 356.195 46.0789 356.117 45.7273C356.047 45.3679 356.012 44.9968 356.012 44.614C356.012 44.2859 356.125 44.0164 356.352 43.8054C356.578 43.5867 356.855 43.4773 357.184 43.4773C357.824 43.4773 358.199 43.821 358.309 44.5085C358.434 45.2664 358.496 45.95 358.496 46.5593C358.496 47.3796 358.469 48.2351 358.414 49.1257C358.367 49.9773 358.348 50.8328 358.355 51.6921L358.367 52.7234C359.008 51.864 359.691 51.2234 360.418 50.8015C361.152 50.3718 361.93 50.157 362.75 50.157C364.047 50.157 364.938 50.5789 365.422 51.4226C365.766 52.0164 365.961 53.0164 366.008 54.4226L366.102 56.6609L366.336 59.0984C366.445 60.0125 366.578 60.8171 366.734 61.5125C366.766 61.6453 366.781 61.7585 366.781 61.8523C366.781 62.1726 366.664 62.4382 366.43 62.6492C366.195 62.8679 365.914 62.9773 365.586 62.9773ZM371.891 47.4148C371.516 47.4148 371.191 47.282 370.918 47.0164C370.645 46.7507 370.508 46.4304 370.508 46.0554C370.508 45.6804 370.645 45.3601 370.918 45.0945C371.191 44.8289 371.516 44.696 371.891 44.696C372.266 44.696 372.586 44.8289 372.852 45.0945C373.125 45.3601 373.262 45.6804 373.262 46.0554C373.262 46.4304 373.125 46.7507 372.852 47.0164C372.586 47.282 372.266 47.4148 371.891 47.4148ZM372.418 56.9304C372.418 57.3992 372.43 58.1023 372.453 59.0398C372.484 59.9695 372.5 60.6687 372.5 61.1375C372.5 61.4812 372.395 61.7625 372.184 61.9812C371.973 62.2 371.695 62.3093 371.352 62.3093C371.016 62.3093 370.738 62.2 370.52 61.9812C370.309 61.7625 370.203 61.4812 370.203 61.1375C370.203 60.6687 370.188 59.9695 370.156 59.0398C370.133 58.1023 370.121 57.3992 370.121 56.9304C370.121 56.196 370.16 55.282 370.238 54.1882C370.316 53.0867 370.355 52.1687 370.355 51.4343C370.355 51.0828 370.461 50.7976 370.672 50.5789C370.891 50.3601 371.168 50.2507 371.504 50.2507C371.84 50.2507 372.113 50.3601 372.324 50.5789C372.543 50.7976 372.652 51.0828 372.652 51.4343C372.652 52.1687 372.613 53.0867 372.535 54.1882C372.457 55.282 372.418 56.196 372.418 56.9304ZM385.367 63.0828C384.695 63.0828 384.316 62.7156 384.23 61.9812L383.902 59.4148C383.793 58.5007 383.738 57.6453 383.738 56.8484C383.738 56.6296 383.75 56.2585 383.773 55.7351C383.805 55.2117 383.82 54.8406 383.82 54.6218C383.82 52.9343 383.508 52.0906 382.883 52.0906C382.008 52.0906 381.172 52.6101 380.375 53.6492C379.656 54.5945 379.094 55.7898 378.688 57.2351C378.672 57.5398 378.637 57.9226 378.582 58.3835C378.535 58.7742 378.512 59.1531 378.512 59.5203C378.512 59.7546 378.535 60.1062 378.582 60.575C378.629 61.0437 378.652 61.3953 378.652 61.6296C378.652 61.9812 378.543 62.2664 378.324 62.4851C378.113 62.7039 377.84 62.8132 377.504 62.8132C377.16 62.8132 376.883 62.7039 376.672 62.4851C376.461 62.2664 376.355 61.9812 376.355 61.6296C376.355 61.3953 376.328 61.0437 376.273 60.575C376.227 60.1062 376.203 59.7546 376.203 59.5203C376.203 58.7156 376.258 57.6023 376.367 56.1804C376.484 54.7507 376.543 53.6335 376.543 52.8289C376.543 52.5789 376.527 52.2078 376.496 51.7156C376.473 51.2234 376.461 50.8523 376.461 50.6023C376.461 50.2664 376.57 49.9929 376.789 49.782C377.016 49.5632 377.293 49.4539 377.621 49.4539C378.34 49.4539 378.734 49.9617 378.805 50.9773L378.84 52.3484C380.152 50.5984 381.5 49.7234 382.883 49.7234C384.133 49.7234 385.004 50.2742 385.496 51.3757C385.832 52.1101 386.016 53.196 386.047 54.6335V55.8171L386.035 56.907C386.035 57.5554 386.117 58.3953 386.281 59.4265C386.453 60.45 386.539 61.282 386.539 61.9226C386.539 62.2664 386.426 62.5437 386.199 62.7546C385.98 62.9734 385.703 63.0828 385.367 63.0828ZM398.703 62.7312C398.273 62.7312 397.941 62.5046 397.707 62.0515C397.301 61.2625 396.688 60.3289 395.867 59.2507L393.793 56.4265C393.34 56.7859 392.637 57.2898 391.684 57.9382C391.598 59.1492 391.555 60.3289 391.555 61.4773C391.555 61.8289 391.445 62.114 391.227 62.3328C391.016 62.5515 390.742 62.6609 390.406 62.6609C389.617 62.6609 389.223 62.1296 389.223 61.0671C389.223 60.4187 389.266 59.45 389.352 58.1609C389.445 56.864 389.492 55.8914 389.492 55.2429C389.492 54.0554 389.508 52.7 389.539 51.1765C389.578 49.6453 389.598 48.2937 389.598 47.1218C389.598 46.7703 389.578 46.3562 389.539 45.8796C389.508 45.4031 389.492 44.989 389.492 44.6375C389.492 44.2859 389.598 44.0007 389.809 43.782C390.027 43.5632 390.305 43.4539 390.641 43.4539C390.977 43.4539 391.25 43.5632 391.461 43.782C391.68 44.0007 391.789 44.2859 391.789 44.6375C391.789 44.9968 391.809 45.4226 391.848 45.9148C391.887 46.3992 391.906 46.821 391.906 47.1804L391.824 50.9539C391.785 52.3132 391.773 53.6726 391.789 55.032C392.852 54.2195 393.875 53.3289 394.859 52.3601L397.438 49.7C397.695 49.4343 397.973 49.3015 398.27 49.3015C398.574 49.3015 398.848 49.4226 399.09 49.6648C399.34 49.907 399.465 50.1882 399.465 50.5085C399.465 50.7742 399.352 51.0359 399.125 51.2937C398.164 52.4187 396.98 53.6257 395.574 54.9148L398.129 58.3953C399.324 60.0281 399.922 61.0906 399.922 61.5828C399.922 61.8953 399.797 62.1648 399.547 62.3914C399.305 62.6179 399.023 62.7312 398.703 62.7312ZM419.293 51.7976L415.238 60.5632C414.238 62.696 413.473 64.4812 412.941 65.9187L412.168 68.1921C411.965 68.7546 411.613 69.0359 411.113 69.0359C410.785 69.0359 410.5 68.9265 410.258 68.7078C410.023 68.4968 409.906 68.2312 409.906 67.9109C409.906 67.1296 410.75 64.8679 412.438 61.1257L408.242 53.0515L407.715 52.196C407.504 51.8367 407.398 51.5359 407.398 51.2937C407.398 50.9734 407.52 50.6921 407.762 50.45C408.012 50.2078 408.289 50.0867 408.594 50.0867C408.953 50.0867 409.23 50.2234 409.426 50.4968C410.754 52.3406 412.18 54.9656 413.703 58.3718L415.438 54.3289C416.062 52.9304 416.664 51.7273 417.242 50.7195C417.492 50.282 417.82 50.0632 418.227 50.0632C418.547 50.0632 418.828 50.1765 419.07 50.4031C419.32 50.6296 419.445 50.8992 419.445 51.2117C419.445 51.3835 419.395 51.5789 419.293 51.7976ZM425.961 62.9421C424.648 62.9421 423.52 62.4578 422.574 61.489C421.52 60.4109 420.965 58.9617 420.91 57.1414C420.863 55.3757 421.309 53.821 422.246 52.4773C423.34 50.8914 424.863 50.0984 426.816 50.0984C428.379 50.0984 429.562 50.8132 430.367 52.2429C431.008 53.3992 431.316 54.7898 431.293 56.4148C431.27 58.1492 430.816 59.6296 429.934 60.8562C428.934 62.2468 427.609 62.9421 425.961 62.9421ZM426.664 52.4773C425.516 52.4695 424.621 53.0164 423.98 54.1179C423.473 55.0007 423.219 56.0085 423.219 57.1414C423.219 58.2742 423.527 59.157 424.145 59.7898C424.66 60.3132 425.266 60.575 425.961 60.575C426.773 60.575 427.473 60.2781 428.059 59.6843C428.723 59.0281 429.074 58.1414 429.113 57.0242C429.223 54.0007 428.406 52.4851 426.664 52.4773ZM443.762 55.407C443.762 55.9695 443.766 56.8132 443.773 57.9382C443.781 59.0632 443.785 59.907 443.785 60.4695C443.785 60.6414 443.797 60.9031 443.82 61.2546C443.852 61.6062 443.867 61.8679 443.867 62.0398C443.867 62.3757 443.754 62.6492 443.527 62.8601C443.301 63.0789 443.023 63.1882 442.695 63.1882C442.094 63.1882 441.711 62.8171 441.547 62.075C440.57 62.5828 439.445 62.8367 438.172 62.8367C437.148 62.8367 436.301 62.6101 435.629 62.157C434.887 61.657 434.445 60.9265 434.305 59.9656C434 57.8953 433.848 56.0515 433.848 54.4343C433.848 53.364 433.965 52.1453 434.199 50.7781C434.309 50.0984 434.68 49.7585 435.312 49.7585C435.648 49.7585 435.93 49.8679 436.156 50.0867C436.383 50.2976 436.496 50.571 436.496 50.907C436.496 51.2664 436.438 51.8406 436.32 52.6296C436.211 53.4187 436.156 54.0203 436.156 54.4343C436.156 55.739 436.199 56.8562 436.285 57.7859C436.371 58.7156 436.5 59.4617 436.672 60.0242C436.93 60.1648 437.184 60.2742 437.434 60.3523C437.684 60.4226 437.93 60.4578 438.172 60.4578C439.219 60.4578 440.324 60.2898 441.488 59.9539L441.477 57.575L441.453 55.3015C441.453 53.614 441.527 52.1492 441.676 50.907C441.762 50.1882 442.141 49.8289 442.812 49.8289C443.148 49.8289 443.43 49.9382 443.656 50.157C443.883 50.3757 443.988 50.6492 443.973 50.9773L443.762 55.407ZM468.746 63.2234C468.105 63.2234 467.73 62.8835 467.621 62.2039C467.48 61.3445 467.34 60.1335 467.199 58.571L466.801 54.9382C466.723 54.3992 466.59 53.8718 466.402 53.3562C466.137 52.6531 465.848 52.3015 465.535 52.3015C465.246 52.3015 464.707 52.5476 463.918 53.0398C463.168 53.4929 462.676 53.8562 462.441 54.1296C462.434 54.864 462.453 55.5984 462.5 56.3328L462.852 59.4617C463 60.696 463.074 61.7156 463.074 62.5203C463.074 62.864 462.965 63.1453 462.746 63.364C462.535 63.5906 462.262 63.7039 461.926 63.7039C461.59 63.7039 461.312 63.5906 461.094 63.364C460.883 63.1453 460.777 62.864 460.777 62.5203C460.777 61.575 460.68 60.1804 460.484 58.3367C460.297 56.4851 460.203 55.0867 460.203 54.1414C460.203 53.3132 460.086 52.6687 459.852 52.2078C459.305 52.4578 458.75 52.864 458.188 53.4265L456.805 54.9734C456.68 55.1609 456.48 55.407 456.207 55.7117C456.207 56.1804 456.164 56.8718 456.078 57.7859C455.992 58.7 455.949 59.3757 455.949 59.8132C455.949 60.0476 455.984 60.3757 456.055 60.7976C456.133 61.2195 456.172 61.5242 456.172 61.7117C456.172 62.032 456.051 62.3015 455.809 62.5203C455.574 62.739 455.297 62.8484 454.977 62.8484C454.094 62.8484 453.652 61.8445 453.652 59.8367C453.652 59.3679 453.695 58.6687 453.781 57.739C453.867 56.8093 453.91 56.1101 453.91 55.6414C453.91 55.2273 453.871 54.6062 453.793 53.7781C453.723 52.95 453.688 52.325 453.688 51.9031C453.688 50.1296 454.086 49.2429 454.883 49.2429C455.188 49.2429 455.465 49.3757 455.715 49.6414C455.973 49.907 456.102 50.196 456.102 50.5085C456.102 50.657 456.082 50.8875 456.043 51.2C456.004 51.5125 455.984 51.7507 455.984 51.9148L456.008 53.1453C456.414 52.3093 457.012 51.5554 457.801 50.8835C458.59 50.2039 459.262 49.864 459.816 49.864C461.043 49.864 461.887 50.4734 462.348 51.6921C462.777 51.1218 463.289 50.696 463.883 50.4148C464.477 50.1257 465.156 49.9812 465.922 49.9812C467.227 49.9812 468.117 50.6843 468.594 52.0906C468.688 52.3718 468.848 53.4695 469.074 55.3835C469.293 56.7273 469.574 58.9656 469.918 62.0984C469.941 62.4109 469.836 62.6765 469.602 62.8953C469.367 63.114 469.082 63.2234 468.746 63.2234ZM474.758 47.4148C474.383 47.4148 474.059 47.282 473.785 47.0164C473.512 46.7507 473.375 46.4304 473.375 46.0554C473.375 45.6804 473.512 45.3601 473.785 45.0945C474.059 44.8289 474.383 44.696 474.758 44.696C475.133 44.696 475.453 44.8289 475.719 45.0945C475.992 45.3601 476.129 45.6804 476.129 46.0554C476.129 46.4304 475.992 46.7507 475.719 47.0164C475.453 47.282 475.133 47.4148 474.758 47.4148ZM475.285 56.9304C475.285 57.3992 475.297 58.1023 475.32 59.0398C475.352 59.9695 475.367 60.6687 475.367 61.1375C475.367 61.4812 475.262 61.7625 475.051 61.9812C474.84 62.2 474.562 62.3093 474.219 62.3093C473.883 62.3093 473.605 62.2 473.387 61.9812C473.176 61.7625 473.07 61.4812 473.07 61.1375C473.07 60.6687 473.055 59.9695 473.023 59.0398C473 58.1023 472.988 57.3992 472.988 56.9304C472.988 56.196 473.027 55.282 473.105 54.1882C473.184 53.0867 473.223 52.1687 473.223 51.4343C473.223 51.0828 473.328 50.7976 473.539 50.5789C473.758 50.3601 474.035 50.2507 474.371 50.2507C474.707 50.2507 474.98 50.3601 475.191 50.5789C475.41 50.7976 475.52 51.0828 475.52 51.4343C475.52 52.1687 475.48 53.0867 475.402 54.1882C475.324 55.282 475.285 56.196 475.285 56.9304ZM488.891 57.2L488.621 61.1375C488.574 62.7 488.414 63.9773 488.141 64.9695C487.789 66.2351 487.227 67.1687 486.453 67.7703C485.516 68.4968 484.16 68.8601 482.387 68.8601C481.348 68.8601 480.477 68.7898 479.773 68.6492C478.789 68.4539 478.297 68.0476 478.297 67.4304C478.297 66.7351 478.637 66.3875 479.316 66.3875C479.598 66.3875 480.066 66.4539 480.723 66.5867C481.379 66.7273 482.105 66.7898 482.902 66.7742C484.402 66.7507 485.438 66.0242 486.008 64.5945C486.383 63.6414 486.582 62.1765 486.605 60.2C486.184 60.9812 485.68 61.5671 485.094 61.9578C484.516 62.3484 483.852 62.5437 483.102 62.5437C481.688 62.5437 480.535 62.0632 479.645 61.1023C478.762 60.1335 478.32 58.8796 478.32 57.3406C478.32 55.2312 478.926 53.532 480.137 52.2429C481.387 50.9148 483.09 50.2507 485.246 50.2507C485.973 50.2507 486.582 50.3445 487.074 50.532C487.566 50.7195 487.941 51.0007 488.199 51.3757C489.035 51.3992 489.453 51.864 489.453 52.7703C489.453 53.325 489.371 54.0671 489.207 54.9968C489.027 56.075 488.922 56.8093 488.891 57.2ZM485.129 52.1257C483.645 52.1257 482.496 52.6375 481.684 53.6609C480.957 54.5828 480.594 55.7546 480.594 57.1765C480.594 58.3093 480.809 59.1609 481.238 59.7312C481.668 60.3015 482.312 60.5867 483.172 60.5867C483.961 60.5867 484.727 60.1414 485.469 59.2507C486.141 58.4304 486.523 57.6179 486.617 56.8132C486.781 55.9695 486.957 54.6453 487.145 52.8406C486.832 52.5984 486.508 52.4187 486.172 52.3015C485.836 52.1843 485.488 52.1257 485.129 52.1257ZM501.805 62.9773C501.25 62.9773 500.887 62.6804 500.715 62.0867C500.535 61.446 500.371 60.5359 500.223 59.3562C500.082 58.2234 500.012 57.2937 500.012 56.5671C500.012 56.364 500.02 56.0554 500.035 55.6414C500.059 55.2273 500.07 54.9187 500.07 54.7156C500.07 53.2468 499.703 52.5125 498.969 52.5125C497.977 52.5125 497.09 52.9617 496.309 53.8601C495.91 54.321 495.363 55.2 494.668 56.4968C494.668 59.4734 494.543 61.2351 494.293 61.782C494.074 62.2664 493.734 62.5085 493.273 62.5085C492.953 62.5085 492.672 62.3992 492.43 62.1804C492.188 61.9617 492.066 61.696 492.066 61.3835C492.066 61.2742 492.102 61.1023 492.172 60.8679C492.234 60.6726 492.277 60.1023 492.301 59.157L492.336 57.4226L492.371 48.8093C492.426 47.8406 492.453 47.1882 492.453 46.8523C492.453 46.4539 492.414 46.0789 492.336 45.7273C492.266 45.3679 492.23 44.9968 492.23 44.614C492.23 44.2859 492.344 44.0164 492.57 43.8054C492.797 43.5867 493.074 43.4773 493.402 43.4773C494.043 43.4773 494.418 43.821 494.527 44.5085C494.652 45.2664 494.715 45.95 494.715 46.5593C494.715 47.3796 494.688 48.2351 494.633 49.1257C494.586 49.9773 494.566 50.8328 494.574 51.6921L494.586 52.7234C495.227 51.864 495.91 51.2234 496.637 50.8015C497.371 50.3718 498.148 50.157 498.969 50.157C500.266 50.157 501.156 50.5789 501.641 51.4226C501.984 52.0164 502.18 53.0164 502.227 54.4226L502.32 56.6609L502.555 59.0984C502.664 60.0125 502.797 60.8171 502.953 61.5125C502.984 61.6453 503 61.7585 503 61.8523C503 62.1726 502.883 62.4382 502.648 62.6492C502.414 62.8679 502.133 62.9773 501.805 62.9773ZM513.711 52.2664C513.547 52.2664 513.352 52.2585 513.125 52.2429C512.906 52.2273 512.715 52.2195 512.551 52.2195C512.371 52.2195 511.84 52.2781 510.957 52.3953L511.18 59.321L511.191 59.8367L511.203 60.4343C511.234 62.1453 510.824 63.0007 509.973 63.0007C509.66 63.0007 509.387 62.8992 509.152 62.696C508.926 62.4929 508.812 62.239 508.812 61.9343C508.812 61.6375 508.824 61.1921 508.848 60.5984C508.871 60.0046 508.883 59.5593 508.883 59.2625L508.648 52.4187C508.078 52.3953 507.211 52.3289 506.047 52.2195C505.352 52.1257 505.004 51.739 505.004 51.0593C505.004 50.7156 505.109 50.4304 505.32 50.2039C505.531 49.9773 505.801 49.864 506.129 49.864L508.59 50.0632C508.59 49.6648 508.57 49.1335 508.531 48.4695C508.5 47.7976 508.484 47.3132 508.484 47.0164C508.484 46.6882 508.598 46.4187 508.824 46.2078C509.051 45.989 509.328 45.8796 509.656 45.8796C510.359 45.8796 510.77 46.4539 510.887 47.6023C510.91 47.8914 510.922 48.239 510.922 48.6453L510.898 49.325L510.887 50.0515C511.855 49.9265 512.41 49.864 512.551 49.864C513.363 49.864 513.895 49.9031 514.145 49.9812C514.621 50.1375 514.859 50.5046 514.859 51.0828C514.859 51.4265 514.75 51.7117 514.531 51.9382C514.32 52.157 514.047 52.2664 513.711 52.2664ZM529.836 62.7429C528.641 62.7429 527.555 62.5085 526.578 62.0398C526.328 62.4148 526.023 62.6023 525.664 62.6023C525.367 62.6023 525.113 62.4968 524.902 62.2859C524.699 62.0828 524.598 61.825 524.598 61.5125C524.598 61.3093 524.605 61.0085 524.621 60.6101C524.645 60.2117 524.656 59.9109 524.656 59.7078C524.656 58.8796 524.633 57.6414 524.586 55.9929C524.547 54.3367 524.527 53.0945 524.527 52.2664C524.527 51.696 524.531 50.6179 524.539 49.032C524.547 47.4382 524.551 46.3523 524.551 45.7742C524.551 45.3054 524.648 44.8835 524.844 44.5085C525.102 44.032 525.457 43.7937 525.91 43.7937C526.496 43.7937 526.789 44.1335 526.789 44.8132C526.789 44.9226 526.77 45.0828 526.73 45.2937C526.691 45.5046 526.672 45.6648 526.672 45.7742L526.637 48.3406L526.613 51.3289C527.293 50.8679 527.938 50.5242 528.547 50.2976C529.164 50.0632 529.742 49.946 530.281 49.946C531.961 49.946 533.324 50.5906 534.371 51.8796C535.355 53.0906 535.848 54.5789 535.848 56.3445C535.848 58.1257 535.273 59.6375 534.125 60.8796C532.977 62.1218 531.547 62.7429 529.836 62.7429ZM530.281 52.1609C529.641 52.1609 528.984 52.3406 528.312 52.7C527.984 52.8796 527.422 53.2664 526.625 53.8601L526.602 55.8875L526.613 57.7156L526.625 59.6375C527 59.8093 527.527 60.0281 528.207 60.2937C528.691 60.4421 529.234 60.5164 529.836 60.5164C530.969 60.5164 531.898 60.1179 532.625 59.321C533.352 58.5242 533.715 57.532 533.715 56.3445C533.715 55.1804 533.422 54.2078 532.836 53.4265C532.203 52.5828 531.352 52.1609 530.281 52.1609ZM544.086 62.7898C542.32 62.7898 540.891 62.3484 539.797 61.4656C538.602 60.489 538.004 59.1218 538.004 57.364C538.004 55.3328 538.496 53.6296 539.48 52.2546C540.551 50.7546 541.98 50.0046 543.77 50.0046C545.066 50.0046 546.125 50.2234 546.945 50.6609C547.953 51.2 548.457 52.0281 548.457 53.1453C548.457 53.9265 548.016 54.6375 547.133 55.2781C546.742 55.5593 545.914 55.9968 544.648 56.5906L540.172 58.7117C540.609 59.3601 541.152 59.8484 541.801 60.1765C542.457 60.5046 543.219 60.6687 544.086 60.6687C544.625 60.6687 545.258 60.5671 545.984 60.364C546.906 60.1062 547.5 59.7703 547.766 59.3562C548.031 58.9343 548.316 58.7234 548.621 58.7234C548.895 58.7234 549.137 58.8289 549.348 59.0398C549.566 59.2429 549.676 59.4812 549.676 59.7546C549.676 60.6218 548.977 61.3679 547.578 61.9929C546.383 62.5242 545.219 62.7898 544.086 62.7898ZM543.77 52.114C542.816 52.114 542.023 52.4851 541.391 53.2273C540.758 53.9617 540.285 55.071 539.973 56.5554L543.57 54.8445C544.984 54.157 545.992 53.5593 546.594 53.0515C545.922 52.4265 544.98 52.114 543.77 52.114ZM573.816 63.2234C573.176 63.2234 572.801 62.8835 572.691 62.2039C572.551 61.3445 572.41 60.1335 572.27 58.571L571.871 54.9382C571.793 54.3992 571.66 53.8718 571.473 53.3562C571.207 52.6531 570.918 52.3015 570.605 52.3015C570.316 52.3015 569.777 52.5476 568.988 53.0398C568.238 53.4929 567.746 53.8562 567.512 54.1296C567.504 54.864 567.523 55.5984 567.57 56.3328L567.922 59.4617C568.07 60.696 568.145 61.7156 568.145 62.5203C568.145 62.864 568.035 63.1453 567.816 63.364C567.605 63.5906 567.332 63.7039 566.996 63.7039C566.66 63.7039 566.383 63.5906 566.164 63.364C565.953 63.1453 565.848 62.864 565.848 62.5203C565.848 61.575 565.75 60.1804 565.555 58.3367C565.367 56.4851 565.273 55.0867 565.273 54.1414C565.273 53.3132 565.156 52.6687 564.922 52.2078C564.375 52.4578 563.82 52.864 563.258 53.4265L561.875 54.9734C561.75 55.1609 561.551 55.407 561.277 55.7117C561.277 56.1804 561.234 56.8718 561.148 57.7859C561.062 58.7 561.02 59.3757 561.02 59.8132C561.02 60.0476 561.055 60.3757 561.125 60.7976C561.203 61.2195 561.242 61.5242 561.242 61.7117C561.242 62.032 561.121 62.3015 560.879 62.5203C560.645 62.739 560.367 62.8484 560.047 62.8484C559.164 62.8484 558.723 61.8445 558.723 59.8367C558.723 59.3679 558.766 58.6687 558.852 57.739C558.938 56.8093 558.98 56.1101 558.98 55.6414C558.98 55.2273 558.941 54.6062 558.863 53.7781C558.793 52.95 558.758 52.325 558.758 51.9031C558.758 50.1296 559.156 49.2429 559.953 49.2429C560.258 49.2429 560.535 49.3757 560.785 49.6414C561.043 49.907 561.172 50.196 561.172 50.5085C561.172 50.657 561.152 50.8875 561.113 51.2C561.074 51.5125 561.055 51.7507 561.055 51.9148L561.078 53.1453C561.484 52.3093 562.082 51.5554 562.871 50.8835C563.66 50.2039 564.332 49.864 564.887 49.864C566.113 49.864 566.957 50.4734 567.418 51.6921C567.848 51.1218 568.359 50.696 568.953 50.4148C569.547 50.1257 570.227 49.9812 570.992 49.9812C572.297 49.9812 573.188 50.6843 573.664 52.0906C573.758 52.3718 573.918 53.4695 574.145 55.3835C574.363 56.7273 574.645 58.9656 574.988 62.0984C575.012 62.4109 574.906 62.6765 574.672 62.8953C574.438 63.114 574.152 63.2234 573.816 63.2234ZM579.828 47.4148C579.453 47.4148 579.129 47.282 578.855 47.0164C578.582 46.7507 578.445 46.4304 578.445 46.0554C578.445 45.6804 578.582 45.3601 578.855 45.0945C579.129 44.8289 579.453 44.696 579.828 44.696C580.203 44.696 580.523 44.8289 580.789 45.0945C581.062 45.3601 581.199 45.6804 581.199 46.0554C581.199 46.4304 581.062 46.7507 580.789 47.0164C580.523 47.282 580.203 47.4148 579.828 47.4148ZM580.355 56.9304C580.355 57.3992 580.367 58.1023 580.391 59.0398C580.422 59.9695 580.438 60.6687 580.438 61.1375C580.438 61.4812 580.332 61.7625 580.121 61.9812C579.91 62.2 579.633 62.3093 579.289 62.3093C578.953 62.3093 578.676 62.2 578.457 61.9812C578.246 61.7625 578.141 61.4812 578.141 61.1375C578.141 60.6687 578.125 59.9695 578.094 59.0398C578.07 58.1023 578.059 57.3992 578.059 56.9304C578.059 56.196 578.098 55.282 578.176 54.1882C578.254 53.0867 578.293 52.1687 578.293 51.4343C578.293 51.0828 578.398 50.7976 578.609 50.5789C578.828 50.3601 579.105 50.2507 579.441 50.2507C579.777 50.2507 580.051 50.3601 580.262 50.5789C580.48 50.7976 580.59 51.0828 580.59 51.4343C580.59 52.1687 580.551 53.0867 580.473 54.1882C580.395 55.282 580.355 56.196 580.355 56.9304ZM592.227 53.2273C591.797 53.2273 591.496 53.0828 591.324 52.7937C591.207 52.5906 591.105 52.1687 591.02 51.5281C590.434 51.6765 589.531 51.95 588.312 52.3484C587.055 52.8484 586.422 53.4656 586.414 54.2C586.648 54.2859 586.879 54.3484 587.105 54.3875C588.902 54.7078 590.238 55.1492 591.113 55.7117C592.387 56.532 593.023 57.7195 593.023 59.2742C593.023 60.5476 592.473 61.5085 591.371 62.157C590.457 62.6882 589.301 62.9539 587.902 62.9539C586.879 62.9539 585.902 62.782 584.973 62.4382C583.77 62.0007 583.168 61.3914 583.168 60.6101C583.168 60.2976 583.289 60.0242 583.531 59.7898C583.781 59.5554 584.062 59.4382 584.375 59.4382C584.617 59.4382 584.93 59.6257 585.312 60.0007C585.5 60.1804 585.922 60.3289 586.578 60.446C587.102 60.5398 587.543 60.5867 587.902 60.5867C588.559 60.5867 589.137 60.5085 589.637 60.3523C590.363 60.1257 590.727 59.7664 590.727 59.2742C590.727 58.2117 589.984 57.4929 588.5 57.1179L587.281 56.8484C586.242 56.6218 585.504 56.3562 585.066 56.0515C584.434 55.614 584.117 54.9539 584.117 54.071C584.117 52.4382 584.887 51.2742 586.426 50.5789C586.895 50.3679 587.645 50.1179 588.676 49.8289C589.707 49.532 590.445 49.282 590.891 49.0789C591.211 48.9382 591.559 48.8679 591.934 48.8679C592.27 48.8679 592.543 48.9773 592.754 49.196C592.973 49.4148 593.082 49.7 593.082 50.0515C593.082 50.2781 593.129 50.6101 593.223 51.0476C593.324 51.4851 593.375 51.8171 593.375 52.0437C593.375 52.3953 593.266 52.6804 593.047 52.8992C592.836 53.1179 592.562 53.2273 592.227 53.2273ZM603.852 52.2664C603.688 52.2664 603.492 52.2585 603.266 52.2429C603.047 52.2273 602.855 52.2195 602.691 52.2195C602.512 52.2195 601.98 52.2781 601.098 52.3953L601.32 59.321L601.332 59.8367L601.344 60.4343C601.375 62.1453 600.965 63.0007 600.113 63.0007C599.801 63.0007 599.527 62.8992 599.293 62.696C599.066 62.4929 598.953 62.239 598.953 61.9343C598.953 61.6375 598.965 61.1921 598.988 60.5984C599.012 60.0046 599.023 59.5593 599.023 59.2625L598.789 52.4187C598.219 52.3953 597.352 52.3289 596.188 52.2195C595.492 52.1257 595.145 51.739 595.145 51.0593C595.145 50.7156 595.25 50.4304 595.461 50.2039C595.672 49.9773 595.941 49.864 596.27 49.864L598.73 50.0632C598.73 49.6648 598.711 49.1335 598.672 48.4695C598.641 47.7976 598.625 47.3132 598.625 47.0164C598.625 46.6882 598.738 46.4187 598.965 46.2078C599.191 45.989 599.469 45.8796 599.797 45.8796C600.5 45.8796 600.91 46.4539 601.027 47.6023C601.051 47.8914 601.062 48.239 601.062 48.6453L601.039 49.325L601.027 50.0515C601.996 49.9265 602.551 49.864 602.691 49.864C603.504 49.864 604.035 49.9031 604.285 49.9812C604.762 50.1375 605 50.5046 605 51.0828C605 51.4265 604.891 51.7117 604.672 51.9382C604.461 52.157 604.188 52.2664 603.852 52.2664ZM616.484 63.0242C616.336 63.0242 616.066 62.8523 615.676 62.5085C615.324 62.1882 615.062 61.9031 614.891 61.6531C614.141 62.0593 613.48 62.364 612.91 62.5671C612.34 62.7781 611.863 62.8835 611.48 62.8835C609.652 62.8835 608.32 62.3679 607.484 61.3367C606.695 60.3679 606.301 58.8835 606.301 56.8835C606.301 54.9929 606.949 53.3757 608.246 52.032C609.551 50.6882 611.105 50.0164 612.91 50.0164C613.59 50.0164 614.352 50.1921 615.195 50.5437C616.258 50.9812 616.789 51.5085 616.789 52.1257C616.789 52.3367 616.711 52.5242 616.555 52.6882C616.477 52.9851 616.414 53.4734 616.367 54.1531C616.328 54.8328 616.305 55.7039 616.297 56.7664C616.289 57.7351 616.355 58.5007 616.496 59.0632C616.574 59.407 616.82 60.0945 617.234 61.1257C617.289 61.2664 617.379 61.4734 617.504 61.7468L617.574 61.946C617.574 62.2585 617.465 62.5164 617.246 62.7195C617.027 62.9226 616.773 63.0242 616.484 63.0242ZM614.047 54.8796C614.047 54.5437 614.066 54.1804 614.105 53.7898C614.152 53.3914 614.219 52.9695 614.305 52.5242C614.016 52.3757 613.766 52.2664 613.555 52.196C613.352 52.1257 613.188 52.0906 613.062 52.0906C611.852 52.0906 610.805 52.5867 609.922 53.5789C609.047 54.5632 608.609 55.7 608.609 56.989C608.609 58.2703 608.836 59.2312 609.289 59.8718C609.742 60.5125 610.422 60.8328 611.328 60.8328C612.078 60.8328 612.715 60.696 613.238 60.4226C613.52 60.2742 613.914 59.9773 614.422 59.532C614.172 57.4617 614.047 55.9109 614.047 54.8796ZM629.375 62.7312C628.945 62.7312 628.613 62.5046 628.379 62.0515C627.973 61.2625 627.359 60.3289 626.539 59.2507L624.465 56.4265C624.012 56.7859 623.309 57.2898 622.355 57.9382C622.27 59.1492 622.227 60.3289 622.227 61.4773C622.227 61.8289 622.117 62.114 621.898 62.3328C621.688 62.5515 621.414 62.6609 621.078 62.6609C620.289 62.6609 619.895 62.1296 619.895 61.0671C619.895 60.4187 619.938 59.45 620.023 58.1609C620.117 56.864 620.164 55.8914 620.164 55.2429C620.164 54.0554 620.18 52.7 620.211 51.1765C620.25 49.6453 620.27 48.2937 620.27 47.1218C620.27 46.7703 620.25 46.3562 620.211 45.8796C620.18 45.4031 620.164 44.989 620.164 44.6375C620.164 44.2859 620.27 44.0007 620.48 43.782C620.699 43.5632 620.977 43.4539 621.312 43.4539C621.648 43.4539 621.922 43.5632 622.133 43.782C622.352 44.0007 622.461 44.2859 622.461 44.6375C622.461 44.9968 622.48 45.4226 622.52 45.9148C622.559 46.3992 622.578 46.821 622.578 47.1804L622.496 50.9539C622.457 52.3132 622.445 53.6726 622.461 55.032C623.523 54.2195 624.547 53.3289 625.531 52.3601L628.109 49.7C628.367 49.4343 628.645 49.3015 628.941 49.3015C629.246 49.3015 629.52 49.4226 629.762 49.6648C630.012 49.907 630.137 50.1882 630.137 50.5085C630.137 50.7742 630.023 51.0359 629.797 51.2937C628.836 52.4187 627.652 53.6257 626.246 54.9148L628.801 58.3953C629.996 60.0281 630.594 61.0906 630.594 61.5828C630.594 61.8953 630.469 62.1648 630.219 62.3914C629.977 62.6179 629.695 62.7312 629.375 62.7312ZM638.047 62.7898C636.281 62.7898 634.852 62.3484 633.758 61.4656C632.562 60.489 631.965 59.1218 631.965 57.364C631.965 55.3328 632.457 53.6296 633.441 52.2546C634.512 50.7546 635.941 50.0046 637.73 50.0046C639.027 50.0046 640.086 50.2234 640.906 50.6609C641.914 51.2 642.418 52.0281 642.418 53.1453C642.418 53.9265 641.977 54.6375 641.094 55.2781C640.703 55.5593 639.875 55.9968 638.609 56.5906L634.133 58.7117C634.57 59.3601 635.113 59.8484 635.762 60.1765C636.418 60.5046 637.18 60.6687 638.047 60.6687C638.586 60.6687 639.219 60.5671 639.945 60.364C640.867 60.1062 641.461 59.7703 641.727 59.3562C641.992 58.9343 642.277 58.7234 642.582 58.7234C642.855 58.7234 643.098 58.8289 643.309 59.0398C643.527 59.2429 643.637 59.4812 643.637 59.7546C643.637 60.6218 642.938 61.3679 641.539 61.9929C640.344 62.5242 639.18 62.7898 638.047 62.7898ZM637.73 52.114C636.777 52.114 635.984 52.4851 635.352 53.2273C634.719 53.9617 634.246 55.071 633.934 56.5554L637.531 54.8445C638.945 54.157 639.953 53.5593 640.555 53.0515C639.883 52.4265 638.941 52.114 637.73 52.114ZM654.711 63.0828C654.039 63.0828 653.66 62.7156 653.574 61.9812L653.246 59.4148C653.137 58.5007 653.082 57.6453 653.082 56.8484C653.082 56.6296 653.094 56.2585 653.117 55.7351C653.148 55.2117 653.164 54.8406 653.164 54.6218C653.164 52.9343 652.852 52.0906 652.227 52.0906C651.352 52.0906 650.516 52.6101 649.719 53.6492C649 54.5945 648.438 55.7898 648.031 57.2351C648.016 57.5398 647.98 57.9226 647.926 58.3835C647.879 58.7742 647.855 59.1531 647.855 59.5203C647.855 59.7546 647.879 60.1062 647.926 60.575C647.973 61.0437 647.996 61.3953 647.996 61.6296C647.996 61.9812 647.887 62.2664 647.668 62.4851C647.457 62.7039 647.184 62.8132 646.848 62.8132C646.504 62.8132 646.227 62.7039 646.016 62.4851C645.805 62.2664 645.699 61.9812 645.699 61.6296C645.699 61.3953 645.672 61.0437 645.617 60.575C645.57 60.1062 645.547 59.7546 645.547 59.5203C645.547 58.7156 645.602 57.6023 645.711 56.1804C645.828 54.7507 645.887 53.6335 645.887 52.8289C645.887 52.5789 645.871 52.2078 645.84 51.7156C645.816 51.2234 645.805 50.8523 645.805 50.6023C645.805 50.2664 645.914 49.9929 646.133 49.782C646.359 49.5632 646.637 49.4539 646.965 49.4539C647.684 49.4539 648.078 49.9617 648.148 50.9773L648.184 52.3484C649.496 50.5984 650.844 49.7234 652.227 49.7234C653.477 49.7234 654.348 50.2742 654.84 51.3757C655.176 52.1101 655.359 53.196 655.391 54.6335V55.8171L655.379 56.907C655.379 57.5554 655.461 58.3953 655.625 59.4265C655.797 60.45 655.883 61.282 655.883 61.9226C655.883 62.2664 655.77 62.5437 655.543 62.7546C655.324 62.9734 655.047 63.0828 654.711 63.0828ZM659.785 63.3406C659.379 63.3406 659.035 63.2 658.754 62.9187C658.473 62.6375 658.332 62.2937 658.332 61.8875C658.332 61.489 658.473 61.1492 658.754 60.8679C659.035 60.5789 659.379 60.4343 659.785 60.4343C660.184 60.4343 660.523 60.5789 660.805 60.8679C661.094 61.1492 661.238 61.489 661.238 61.8875C661.238 62.2937 661.094 62.6375 660.805 62.9187C660.523 63.2 660.184 63.3406 659.785 63.3406Z" fill="#353535"/>
<rect x="27.9245" y="0.426008" width="49.0113" height="29.5796" fill="#8D211A"/>
<rect x="27.9245" y="0.426008" width="49.0113" height="29.5796" stroke="black" stroke-width="0.852016"/>
<path d="M45.6151 12.359C45.3986 12.8047 44.9636 13.7682 44.3099 15.2496C43.7666 16.489 43.3039 17.461 42.9219 18.1657C42.2597 19.3881 41.9053 20.0354 41.8586 20.1076C41.6082 20.4769 41.3195 20.6615 40.9927 20.6615C40.7592 20.6615 40.5534 20.5851 40.3751 20.4323C40.1798 20.2625 40.0822 20.0524 40.0822 19.802C40.0822 19.594 40.5258 18.7196 41.4129 17.1788C41.0861 16.7076 40.617 15.9924 40.0058 15.0331C39.5474 14.3285 38.8746 13.2652 37.9875 11.8433C37.9026 11.6989 37.8601 11.5483 37.8601 11.3912C37.8601 11.145 37.9556 10.937 38.1467 10.7672C38.3249 10.6102 38.5329 10.5317 38.7706 10.5317C39.0508 10.5317 39.3054 10.6739 39.5347 10.9582L40.0122 11.7223C40.0419 11.7732 40.4069 12.3929 41.1073 13.5814C41.5487 14.3412 41.9392 14.9418 42.2788 15.3833C42.6014 14.7339 43.0662 13.7512 43.6732 12.4354C43.8005 12.1425 43.9915 11.6989 44.2462 11.1047C44.4075 10.7227 44.6834 10.5317 45.0739 10.5317C45.3074 10.5317 45.5132 10.6081 45.6915 10.7609C45.8868 10.9264 45.9844 11.1344 45.9844 11.3848C45.9844 11.5292 45.8613 11.8539 45.6151 12.359ZM51.2244 20.6042C49.968 20.6042 48.8983 20.2434 48.0155 19.5218C47.0731 18.7493 46.602 17.7497 46.602 16.523C46.602 15.0798 47.054 13.764 47.9582 12.5755C48.9726 11.2384 50.2503 10.5699 51.7911 10.5699C53.2724 10.5699 54.3824 10.9094 55.121 11.5886C55.8596 12.2677 56.2288 13.2886 56.2288 14.6511C56.2288 16.0943 55.8129 17.4016 54.9809 18.5731C54.0216 19.9272 52.7695 20.6042 51.2244 20.6042ZM51.7911 12.2953C50.8445 12.2953 50.0338 12.7537 49.3589 13.6706C48.7264 14.528 48.4102 15.4788 48.4102 16.523C48.4102 17.2276 48.684 17.8006 49.2315 18.2421C49.7579 18.6665 50.4222 18.8788 51.2244 18.8788C52.1582 18.8788 52.9371 18.4203 53.5611 17.5035C54.1341 16.6673 54.4206 15.7165 54.4206 14.6511C54.4206 13.7597 54.2211 13.14 53.8221 12.7919C53.4401 12.4609 52.7631 12.2953 51.7911 12.2953ZM63.9838 19.1143C63.674 19.5346 63.3004 19.8847 62.8632 20.1649C62.3284 20.5045 61.7787 20.6742 61.2142 20.6742C60.1318 20.6742 59.3274 20.4663 58.8011 20.0503C57.689 19.1716 57.133 17.6457 57.133 15.4724C57.133 15.2644 57.1436 14.9546 57.1648 14.5429C57.186 14.1311 57.1966 13.8213 57.1966 13.6133C57.1966 13.4477 57.2009 13.2015 57.2094 12.8747C57.2178 12.5436 57.2221 12.2953 57.2221 12.1298C57.2221 11.7902 57.2836 11.4697 57.4067 11.1684C57.5723 10.7694 57.8036 10.5699 58.1007 10.5699C58.3342 10.5699 58.5401 10.6463 58.7183 10.7991C58.9136 10.9604 59.0112 11.1684 59.0112 11.423C59.0112 11.665 59.007 12.0321 58.9985 12.5245C58.9942 13.0127 58.9921 13.3798 58.9921 13.626C58.9921 13.8298 58.9815 14.1375 58.9603 14.5492C58.939 14.9609 58.9284 15.2687 58.9284 15.4724C58.9284 16.1303 59.0048 16.7416 59.1576 17.3061C59.3359 17.981 59.597 18.4522 59.9408 18.7196C60.1191 18.8597 60.5435 18.9339 61.2142 18.9424C62.3348 18.9594 63.0903 18.0044 63.4808 16.0773C63.6846 15.0798 63.7864 13.6791 63.7864 11.8751C63.7864 11.6374 63.8565 11.4082 63.9965 11.1875C64.1876 10.8946 64.4592 10.7481 64.8115 10.7481C65.1002 10.7481 65.3166 10.8543 65.4609 11.0665C65.5713 11.2235 65.6265 11.3976 65.6265 11.5886C65.6265 13.2652 65.548 14.5726 65.3909 15.5106C65.1532 16.9581 64.6842 18.1593 63.9838 19.1143Z" fill="white"/>
</svg>
