<svg width="836" height="85" viewBox="0 0 836 85" fill="none" xmlns="http://www.w3.org/2000/svg">
<rect x="1" y="20.251" width="834" height="64" fill="white"/>
<rect x="1" y="20.251" width="834" height="64" stroke="black" stroke-width="1.5"/>
<path d="M29.6953 54.3428C29.2917 56.3415 28.4421 57.9398 27.1465 59.1377C25.8574 60.3291 24.334 60.9248 22.5762 60.9248C20.9746 60.9248 19.7734 60.4788 18.9727 59.5869C18.1719 58.6885 17.7715 57.3441 17.7715 55.5537C17.7715 53.8675 18.1686 52.1325 18.9629 50.3486C19.7637 48.5583 20.7891 47.113 22.0391 46.0127C22.8724 45.277 23.7546 44.9092 24.6855 44.9092C25.278 44.9092 26.0592 45.1045 27.0293 45.4951C28.2142 45.9639 28.8066 46.4814 28.8066 47.0479C28.8066 47.3148 28.709 47.5524 28.5137 47.7607C28.3184 47.9691 28.084 48.0732 27.8105 48.0732C27.6673 48.0732 27.4655 47.9919 27.2051 47.8291C26.209 47.2236 25.3691 46.9209 24.6855 46.9209C24.1973 46.9209 23.6862 47.1748 23.1523 47.6826C22.8854 47.9365 22.5013 48.3988 22 49.0693C20.4961 51.0615 19.7441 53.223 19.7441 55.5537C19.7441 56.7777 19.9329 57.6338 20.3105 58.1221C20.7207 58.6559 21.4759 58.9229 22.5762 58.9229C23.7415 58.9229 24.7539 58.555 25.6133 57.8193C26.5182 57.0381 27.1497 55.9215 27.5078 54.4697C25.7044 54.5609 24.1582 54.9092 22.8691 55.5146C22.7194 55.5863 22.5729 55.6221 22.4297 55.6221C22.1432 55.6221 21.9056 55.5114 21.7168 55.29C21.541 55.0882 21.4531 54.8538 21.4531 54.5869C21.4531 54.2288 21.6257 53.9424 21.9707 53.7275C23.377 52.8682 25.8021 52.4385 29.2461 52.4385C29.526 52.4385 29.7604 52.5329 29.9492 52.7217C30.138 52.9105 30.2324 53.1481 30.2324 53.4346C30.2324 53.8577 30.0534 54.1605 29.6953 54.3428ZM35.6133 60.8271C34.5195 60.8271 33.5788 60.4235 32.791 59.6162C31.9121 58.7178 31.4499 57.5101 31.4043 55.9932C31.3652 54.5218 31.7363 53.2262 32.5176 52.1064C33.429 50.7848 34.6986 50.124 36.3262 50.124C37.6283 50.124 38.6146 50.7197 39.2852 51.9111C39.819 52.8747 40.0762 54.0335 40.0566 55.3877C40.0371 56.833 39.6595 58.0667 38.9238 59.0889C38.0905 60.2477 36.987 60.8271 35.6133 60.8271ZM36.1992 52.1064C35.2422 52.0999 34.4967 52.5557 33.9629 53.4736C33.5397 54.2093 33.3281 55.0492 33.3281 55.9932C33.3281 56.9372 33.5853 57.6729 34.0996 58.2002C34.5293 58.6364 35.0339 58.8545 35.6133 58.8545C36.2904 58.8545 36.873 58.6071 37.3613 58.1123C37.9147 57.5654 38.2077 56.8265 38.2402 55.8955C38.3314 53.376 37.651 52.113 36.1992 52.1064ZM49.0117 51.9307C48.875 51.9307 48.7122 51.9242 48.5234 51.9111C48.3411 51.8981 48.1816 51.8916 48.0449 51.8916C47.8952 51.8916 47.4525 51.9404 46.7168 52.0381L46.9023 57.8096L46.9121 58.2393L46.9219 58.7373C46.9479 60.1631 46.6061 60.876 45.8965 60.876C45.6361 60.876 45.4082 60.7913 45.2129 60.6221C45.0241 60.4528 44.9297 60.2412 44.9297 59.9873C44.9297 59.7399 44.9395 59.3688 44.959 58.874C44.9785 58.3792 44.9883 58.0081 44.9883 57.7607L44.793 52.0576C44.3177 52.0381 43.5951 51.9827 42.625 51.8916C42.0456 51.8135 41.7559 51.4912 41.7559 50.9248C41.7559 50.6383 41.8438 50.4007 42.0195 50.2119C42.1953 50.0231 42.4199 49.9287 42.6934 49.9287L44.7441 50.0947C44.7441 49.7627 44.7279 49.32 44.6953 48.7666C44.6693 48.2067 44.6562 47.8031 44.6562 47.5557C44.6562 47.2822 44.7507 47.0576 44.9395 46.8818C45.1283 46.6995 45.3594 46.6084 45.6328 46.6084C46.2188 46.6084 46.5605 47.0869 46.6582 48.0439C46.6777 48.2848 46.6875 48.5745 46.6875 48.9131L46.668 49.4795L46.6582 50.085C47.4655 49.9808 47.9277 49.9287 48.0449 49.9287C48.722 49.9287 49.1647 49.9613 49.373 50.0264C49.7702 50.1566 49.9688 50.4626 49.9688 50.9443C49.9688 51.2308 49.8776 51.4684 49.6953 51.6572C49.5195 51.8395 49.2917 51.9307 49.0117 51.9307ZM59.7539 47.8877C59.4414 47.8877 59.1712 47.777 58.9434 47.5557C58.7155 47.3343 58.6016 47.0674 58.6016 46.7549C58.6016 46.4424 58.7155 46.1755 58.9434 45.9541C59.1712 45.7327 59.4414 45.6221 59.7539 45.6221C60.0664 45.6221 60.3333 45.7327 60.5547 45.9541C60.7826 46.1755 60.8965 46.4424 60.8965 46.7549C60.8965 47.0674 60.7826 47.3343 60.5547 47.5557C60.3333 47.777 60.0664 47.8877 59.7539 47.8877ZM60.1934 55.8174C60.1934 56.208 60.2031 56.7939 60.2227 57.5752C60.2487 58.3499 60.2617 58.9326 60.2617 59.3232C60.2617 59.6097 60.1738 59.8441 59.998 60.0264C59.8223 60.2087 59.5911 60.2998 59.3047 60.2998C59.0247 60.2998 58.7936 60.2087 58.6113 60.0264C58.4355 59.8441 58.3477 59.6097 58.3477 59.3232C58.3477 58.9326 58.3346 58.3499 58.3086 57.5752C58.2891 56.7939 58.2793 56.208 58.2793 55.8174C58.2793 55.2054 58.3118 54.4437 58.377 53.5322C58.4421 52.6143 58.4746 51.8493 58.4746 51.2373C58.4746 50.9443 58.5625 50.7067 58.7383 50.5244C58.9206 50.3421 59.1517 50.251 59.4316 50.251C59.7116 50.251 59.9395 50.3421 60.1152 50.5244C60.2975 50.7067 60.3887 50.9443 60.3887 51.2373C60.3887 51.8493 60.3561 52.6143 60.291 53.5322C60.2259 54.4437 60.1934 55.2054 60.1934 55.8174ZM70.0273 51.9307C69.8906 51.9307 69.7279 51.9242 69.5391 51.9111C69.3568 51.8981 69.1973 51.8916 69.0605 51.8916C68.9108 51.8916 68.4681 51.9404 67.7324 52.0381L67.918 57.8096L67.9277 58.2393L67.9375 58.7373C67.9635 60.1631 67.6217 60.876 66.9121 60.876C66.6517 60.876 66.4238 60.7913 66.2285 60.6221C66.0397 60.4528 65.9453 60.2412 65.9453 59.9873C65.9453 59.7399 65.9551 59.3688 65.9746 58.874C65.9941 58.3792 66.0039 58.0081 66.0039 57.7607L65.8086 52.0576C65.3333 52.0381 64.6107 51.9827 63.6406 51.8916C63.0612 51.8135 62.7715 51.4912 62.7715 50.9248C62.7715 50.6383 62.8594 50.4007 63.0352 50.2119C63.2109 50.0231 63.4355 49.9287 63.709 49.9287L65.7598 50.0947C65.7598 49.7627 65.7435 49.32 65.7109 48.7666C65.6849 48.2067 65.6719 47.8031 65.6719 47.5557C65.6719 47.2822 65.7663 47.0576 65.9551 46.8818C66.1439 46.6995 66.375 46.6084 66.6484 46.6084C67.2344 46.6084 67.5762 47.0869 67.6738 48.0439C67.6934 48.2848 67.7031 48.5745 67.7031 48.9131L67.6836 49.4795L67.6738 50.085C68.4811 49.9808 68.9434 49.9287 69.0605 49.9287C69.7376 49.9287 70.1803 49.9613 70.3887 50.0264C70.7858 50.1566 70.9844 50.4626 70.9844 50.9443C70.9844 51.2308 70.8932 51.4684 70.7109 51.6572C70.5352 51.8395 70.3073 51.9307 70.0273 51.9307ZM74.1777 61.1592C73.8392 61.1592 73.5527 61.042 73.3184 60.8076C73.084 60.5732 72.9668 60.2868 72.9668 59.9482C72.9668 59.6162 73.084 59.333 73.3184 59.0986C73.5527 58.8577 73.8392 58.7373 74.1777 58.7373C74.5098 58.7373 74.793 58.8577 75.0273 59.0986C75.2682 59.333 75.3887 59.6162 75.3887 59.9482C75.3887 60.2868 75.2682 60.5732 75.0273 60.8076C74.793 61.042 74.5098 61.1592 74.1777 61.1592Z" fill="#353535"/>
<rect x="27.9245" y="0.426008" width="49.0113" height="29.5796" fill="#8D211A"/>
<rect x="27.9245" y="0.426008" width="49.0113" height="29.5796" stroke="black" stroke-width="0.852016"/>
<path d="M45.6151 12.359C45.3986 12.8047 44.9636 13.7682 44.3099 15.2496C43.7666 16.489 43.3039 17.461 42.9219 18.1657C42.2597 19.3881 41.9053 20.0354 41.8586 20.1076C41.6082 20.4769 41.3195 20.6615 40.9927 20.6615C40.7592 20.6615 40.5534 20.5851 40.3751 20.4323C40.1798 20.2625 40.0822 20.0524 40.0822 19.802C40.0822 19.594 40.5258 18.7196 41.4129 17.1788C41.0861 16.7076 40.617 15.9924 40.0058 15.0331C39.5474 14.3285 38.8746 13.2652 37.9875 11.8433C37.9026 11.6989 37.8601 11.5483 37.8601 11.3912C37.8601 11.145 37.9556 10.937 38.1467 10.7672C38.3249 10.6102 38.5329 10.5317 38.7706 10.5317C39.0508 10.5317 39.3054 10.6739 39.5347 10.9582L40.0122 11.7223C40.0419 11.7732 40.4069 12.3929 41.1073 13.5814C41.5487 14.3412 41.9392 14.9418 42.2788 15.3833C42.6014 14.7339 43.0662 13.7512 43.6732 12.4354C43.8005 12.1425 43.9915 11.6989 44.2462 11.1047C44.4075 10.7227 44.6834 10.5317 45.0739 10.5317C45.3074 10.5317 45.5132 10.6081 45.6915 10.7609C45.8868 10.9264 45.9844 11.1344 45.9844 11.3848C45.9844 11.5292 45.8613 11.8539 45.6151 12.359ZM51.2244 20.6042C49.968 20.6042 48.8983 20.2434 48.0155 19.5218C47.0731 18.7493 46.602 17.7497 46.602 16.523C46.602 15.0798 47.054 13.764 47.9582 12.5755C48.9726 11.2384 50.2503 10.5699 51.7911 10.5699C53.2724 10.5699 54.3824 10.9094 55.121 11.5886C55.8596 12.2677 56.2288 13.2886 56.2288 14.6511C56.2288 16.0943 55.8129 17.4016 54.9809 18.5731C54.0216 19.9272 52.7695 20.6042 51.2244 20.6042ZM51.7911 12.2953C50.8445 12.2953 50.0338 12.7537 49.3589 13.6706C48.7264 14.528 48.4102 15.4788 48.4102 16.523C48.4102 17.2276 48.684 17.8006 49.2315 18.2421C49.7579 18.6665 50.4222 18.8788 51.2244 18.8788C52.1582 18.8788 52.9371 18.4203 53.5611 17.5035C54.1341 16.6673 54.4206 15.7165 54.4206 14.6511C54.4206 13.7597 54.2211 13.14 53.8221 12.7919C53.4401 12.4609 52.7631 12.2953 51.7911 12.2953ZM63.9838 19.1143C63.674 19.5346 63.3004 19.8847 62.8632 20.1649C62.3284 20.5045 61.7787 20.6742 61.2142 20.6742C60.1318 20.6742 59.3274 20.4663 58.8011 20.0503C57.689 19.1716 57.133 17.6457 57.133 15.4724C57.133 15.2644 57.1436 14.9546 57.1648 14.5429C57.186 14.1311 57.1966 13.8213 57.1966 13.6133C57.1966 13.4477 57.2009 13.2015 57.2094 12.8747C57.2178 12.5436 57.2221 12.2953 57.2221 12.1298C57.2221 11.7902 57.2836 11.4697 57.4067 11.1684C57.5723 10.7694 57.8036 10.5699 58.1007 10.5699C58.3342 10.5699 58.5401 10.6463 58.7183 10.7991C58.9136 10.9604 59.0112 11.1684 59.0112 11.423C59.0112 11.665 59.007 12.0321 58.9985 12.5245C58.9942 13.0127 58.9921 13.3798 58.9921 13.626C58.9921 13.8298 58.9815 14.1375 58.9603 14.5492C58.939 14.9609 58.9284 15.2687 58.9284 15.4724C58.9284 16.1303 59.0048 16.7416 59.1576 17.3061C59.3359 17.981 59.597 18.4522 59.9408 18.7196C60.1191 18.8597 60.5435 18.9339 61.2142 18.9424C62.3348 18.9594 63.0903 18.0044 63.4808 16.0773C63.6846 15.0798 63.7864 13.6791 63.7864 11.8751C63.7864 11.6374 63.8565 11.4082 63.9965 11.1875C64.1876 10.8946 64.4592 10.7481 64.8115 10.7481C65.1002 10.7481 65.3166 10.8543 65.4609 11.0665C65.5713 11.2235 65.6265 11.3976 65.6265 11.5886C65.6265 13.2652 65.548 14.5726 65.3909 15.5106C65.1532 16.9581 64.6842 18.1593 63.9838 19.1143Z" fill="white"/>
</svg>
