<svg width="836" height="84" viewBox="0 0 836 84" fill="none" xmlns="http://www.w3.org/2000/svg">
<rect x="1" y="20.251" width="834" height="64" fill="white"/>
<rect x="1" y="20.251" width="834" height="64" stroke="black" stroke-width="1.5"/>
<path d="M27.5078 60.1826C26.4987 60.8727 25.0501 61.2178 23.1621 61.2178C22.6868 61.2178 22.1432 61.1429 21.5312 60.9932C20.7956 60.8174 20.2422 60.5895 19.8711 60.3096H19.7734C19.4935 60.3096 19.2591 60.2119 19.0703 60.0166C18.8815 59.8213 18.7871 59.5837 18.7871 59.3037C18.7871 58.6201 18.8164 57.598 18.875 56.2373C18.9401 54.8701 18.9727 53.8447 18.9727 53.1611C18.9727 52.3994 18.9564 51.2633 18.9238 49.7529C18.8978 48.236 18.8848 47.0967 18.8848 46.335C18.8848 46.068 19.0215 45.7881 19.2949 45.4951C19.5684 45.2021 19.8418 45.0557 20.1152 45.0557C20.2715 45.0557 20.7923 45.2738 21.6777 45.71C22.6803 46.1982 23.2598 46.4684 23.416 46.5205C25.265 47.152 26.8405 48.1221 28.1426 49.4307C29.6725 50.9736 30.4375 52.6696 30.4375 54.5186C30.4375 55.6318 30.1738 56.6995 29.6465 57.7217C29.1257 58.7438 28.4128 59.5641 27.5078 60.1826ZM25.457 49.8506C24.793 49.4144 23.2598 48.6657 20.8574 47.6045L20.9062 50.417L20.9355 53.2197L20.7793 58.5518C20.8249 58.5713 20.8932 58.6136 20.9844 58.6787C21.5573 59.0628 22.2799 59.2549 23.1523 59.2549C24.6367 59.2549 25.7174 59.027 26.3945 58.5713C27.026 58.1416 27.5273 57.5654 27.8984 56.8428C28.276 56.1136 28.4648 55.3551 28.4648 54.5674C28.4648 52.7314 27.4622 51.1592 25.457 49.8506ZM37.3516 60.7002C35.8802 60.7002 34.6888 60.3324 33.7773 59.5967C32.7812 58.7829 32.2832 57.6436 32.2832 56.1787C32.2832 54.486 32.6934 53.0667 33.5137 51.9209C34.4056 50.6709 35.597 50.0459 37.0879 50.0459C38.1686 50.0459 39.0508 50.2282 39.7344 50.5928C40.5742 51.042 40.9941 51.7321 40.9941 52.6631C40.9941 53.3141 40.6263 53.9066 39.8906 54.4404C39.5651 54.6748 38.875 55.0394 37.8203 55.5342L34.0898 57.3018C34.4544 57.8421 34.9069 58.249 35.4473 58.5225C35.9941 58.7959 36.6289 58.9326 37.3516 58.9326C37.8008 58.9326 38.3281 58.848 38.9336 58.6787C39.7018 58.4639 40.1966 58.1839 40.418 57.8389C40.6393 57.4873 40.877 57.3115 41.1309 57.3115C41.3587 57.3115 41.5605 57.3994 41.7363 57.5752C41.9186 57.7445 42.0098 57.943 42.0098 58.1709C42.0098 58.8936 41.4271 59.5153 40.2617 60.0361C39.2656 60.4788 38.2956 60.7002 37.3516 60.7002ZM37.0879 51.8037C36.2936 51.8037 35.6328 52.113 35.1055 52.7314C34.5781 53.3434 34.1842 54.2679 33.9238 55.5049L36.9219 54.0791C38.1003 53.5062 38.9401 53.0081 39.4414 52.585C38.8815 52.0641 38.097 51.8037 37.0879 51.8037ZM50.3398 52.7314C49.9818 52.7314 49.7311 52.611 49.5879 52.3701C49.4902 52.2008 49.4056 51.8493 49.334 51.3154C48.8457 51.4391 48.0938 51.667 47.0781 51.999C46.0299 52.4157 45.5026 52.93 45.4961 53.542C45.6914 53.6136 45.8835 53.6657 46.0723 53.6982C47.5697 53.9652 48.6829 54.333 49.4121 54.8018C50.4733 55.4854 51.0039 56.4749 51.0039 57.7705C51.0039 58.8317 50.5449 59.6325 49.627 60.1729C48.8652 60.6156 47.9017 60.8369 46.7363 60.8369C45.8835 60.8369 45.0697 60.6937 44.2949 60.4072C43.2923 60.0426 42.791 59.5348 42.791 58.8838C42.791 58.6234 42.8919 58.3955 43.0938 58.2002C43.3021 58.0049 43.5365 57.9072 43.7969 57.9072C43.9987 57.9072 44.2591 58.0635 44.5781 58.376C44.7344 58.5257 45.0859 58.6494 45.6328 58.7471C46.069 58.8252 46.4368 58.8643 46.7363 58.8643C47.2832 58.8643 47.765 58.7992 48.1816 58.6689C48.7871 58.4801 49.0898 58.1807 49.0898 57.7705C49.0898 56.8851 48.4714 56.2861 47.2344 55.9736L46.2188 55.749C45.3529 55.5602 44.7376 55.3389 44.373 55.085C43.8457 54.7204 43.582 54.1702 43.582 53.4346C43.582 52.0739 44.2233 51.1038 45.5059 50.5244C45.8965 50.3486 46.5215 50.1403 47.3809 49.8994C48.2402 49.652 48.8555 49.4437 49.2266 49.2744C49.4935 49.1572 49.7832 49.0986 50.0957 49.0986C50.3757 49.0986 50.6035 49.1898 50.7793 49.3721C50.9616 49.5544 51.0527 49.792 51.0527 50.085C51.0527 50.2738 51.0918 50.5505 51.1699 50.915C51.2546 51.2796 51.2969 51.5563 51.2969 51.7451C51.2969 52.0381 51.2057 52.2757 51.0234 52.458C50.8477 52.6403 50.6198 52.7314 50.3398 52.7314ZM60.0273 51.9307C59.8906 51.9307 59.7279 51.9242 59.5391 51.9111C59.3568 51.8981 59.1973 51.8916 59.0605 51.8916C58.9108 51.8916 58.4681 51.9404 57.7324 52.0381L57.918 57.8096L57.9277 58.2393L57.9375 58.7373C57.9635 60.1631 57.6217 60.876 56.9121 60.876C56.6517 60.876 56.4238 60.7913 56.2285 60.6221C56.0397 60.4528 55.9453 60.2412 55.9453 59.9873C55.9453 59.7399 55.9551 59.3688 55.9746 58.874C55.9941 58.3792 56.0039 58.0081 56.0039 57.7607L55.8086 52.0576C55.3333 52.0381 54.6107 51.9827 53.6406 51.8916C53.0612 51.8135 52.7715 51.4912 52.7715 50.9248C52.7715 50.6383 52.8594 50.4007 53.0352 50.2119C53.2109 50.0231 53.4355 49.9287 53.709 49.9287L55.7598 50.0947C55.7598 49.7627 55.7435 49.32 55.7109 48.7666C55.6849 48.2067 55.6719 47.8031 55.6719 47.5557C55.6719 47.2822 55.7663 47.0576 55.9551 46.8818C56.1439 46.6995 56.375 46.6084 56.6484 46.6084C57.2344 46.6084 57.5762 47.0869 57.6738 48.0439C57.6934 48.2848 57.7031 48.5745 57.7031 48.9131L57.6836 49.4795L57.6738 50.085C58.4811 49.9808 58.9434 49.9287 59.0605 49.9287C59.7376 49.9287 60.1803 49.9613 60.3887 50.0264C60.7858 50.1566 60.9844 50.4626 60.9844 50.9443C60.9844 51.2308 60.8932 51.4684 60.7109 51.6572C60.5352 51.8395 60.3073 51.9307 60.0273 51.9307ZM64.793 47.8877C64.4805 47.8877 64.2103 47.777 63.9824 47.5557C63.7546 47.3343 63.6406 47.0674 63.6406 46.7549C63.6406 46.4424 63.7546 46.1755 63.9824 45.9541C64.2103 45.7327 64.4805 45.6221 64.793 45.6221C65.1055 45.6221 65.3724 45.7327 65.5938 45.9541C65.8216 46.1755 65.9355 46.4424 65.9355 46.7549C65.9355 47.0674 65.8216 47.3343 65.5938 47.5557C65.3724 47.777 65.1055 47.8877 64.793 47.8877ZM65.2324 55.8174C65.2324 56.208 65.2422 56.7939 65.2617 57.5752C65.2878 58.3499 65.3008 58.9326 65.3008 59.3232C65.3008 59.6097 65.2129 59.8441 65.0371 60.0264C64.8613 60.2087 64.6302 60.2998 64.3438 60.2998C64.0638 60.2998 63.8327 60.2087 63.6504 60.0264C63.4746 59.8441 63.3867 59.6097 63.3867 59.3232C63.3867 58.9326 63.3737 58.3499 63.3477 57.5752C63.3281 56.7939 63.3184 56.208 63.3184 55.8174C63.3184 55.2054 63.3509 54.4437 63.416 53.5322C63.4811 52.6143 63.5137 51.8493 63.5137 51.2373C63.5137 50.9443 63.6016 50.7067 63.7773 50.5244C63.9596 50.3421 64.1908 50.251 64.4707 50.251C64.7507 50.251 64.9785 50.3421 65.1543 50.5244C65.3366 50.7067 65.4277 50.9443 65.4277 51.2373C65.4277 51.8493 65.3952 52.6143 65.3301 53.5322C65.265 54.4437 65.2324 55.2054 65.2324 55.8174ZM76.0234 60.9443C75.4635 60.9443 75.1478 60.6383 75.0762 60.0264L74.8027 57.8877C74.7116 57.126 74.666 56.4131 74.666 55.749C74.666 55.5667 74.6758 55.2575 74.6953 54.8213C74.7214 54.3851 74.7344 54.0758 74.7344 53.8936C74.7344 52.4873 74.474 51.7842 73.9531 51.7842C73.224 51.7842 72.5273 52.2171 71.8633 53.083C71.2643 53.8708 70.7956 54.8669 70.457 56.0713C70.444 56.3252 70.4147 56.6442 70.3691 57.0283C70.3301 57.3538 70.3105 57.6696 70.3105 57.9756C70.3105 58.1709 70.3301 58.4639 70.3691 58.8545C70.4082 59.2451 70.4277 59.5381 70.4277 59.7334C70.4277 60.0264 70.3366 60.264 70.1543 60.4463C69.9785 60.6286 69.7507 60.7197 69.4707 60.7197C69.1842 60.7197 68.9531 60.6286 68.7773 60.4463C68.6016 60.264 68.5137 60.0264 68.5137 59.7334C68.5137 59.5381 68.4909 59.2451 68.4453 58.8545C68.4062 58.4639 68.3867 58.1709 68.3867 57.9756C68.3867 57.305 68.4323 56.3773 68.5234 55.1924C68.6211 54.001 68.6699 53.07 68.6699 52.3994C68.6699 52.1911 68.6569 51.8818 68.6309 51.4717C68.6113 51.0615 68.6016 50.7523 68.6016 50.5439C68.6016 50.264 68.6927 50.0361 68.875 49.8604C69.0638 49.6781 69.2949 49.5869 69.5684 49.5869C70.1673 49.5869 70.4961 50.0101 70.5547 50.8564L70.584 51.999C71.6777 50.5407 72.8008 49.8115 73.9531 49.8115C74.9948 49.8115 75.7207 50.2705 76.1309 51.1885C76.4108 51.8005 76.5638 52.7054 76.5898 53.9033V54.8896L76.5801 55.7979C76.5801 56.3382 76.6484 57.0381 76.7852 57.8975C76.9284 58.7503 77 59.4437 77 59.9775C77 60.264 76.9056 60.4951 76.7168 60.6709C76.5345 60.8532 76.3034 60.9443 76.0234 60.9443ZM87.5176 51.54L84.1387 58.8447C83.3053 60.6221 82.6673 62.1097 82.2246 63.3076L81.5801 65.2021C81.4108 65.6709 81.1178 65.9053 80.7012 65.9053C80.4277 65.9053 80.1901 65.8141 79.9883 65.6318C79.793 65.4561 79.6953 65.2347 79.6953 64.9678C79.6953 64.3167 80.3984 62.432 81.8047 59.3135L78.3086 52.585L77.8691 51.8721C77.6934 51.5726 77.6055 51.3219 77.6055 51.1201C77.6055 50.8532 77.7064 50.6188 77.9082 50.417C78.1165 50.2152 78.3477 50.1143 78.6016 50.1143C78.901 50.1143 79.1322 50.2282 79.2949 50.4561C80.4017 51.9925 81.5898 54.18 82.8594 57.0186L84.3047 53.6494C84.8255 52.484 85.3268 51.4814 85.8086 50.6416C86.0169 50.277 86.2904 50.0947 86.6289 50.0947C86.8958 50.0947 87.1302 50.1891 87.332 50.3779C87.5404 50.5667 87.6445 50.7913 87.6445 51.0518C87.6445 51.195 87.6022 51.3577 87.5176 51.54ZM91.6777 57.2432C91.4108 57.2432 91.1764 57.1423 90.9746 56.9404C90.7728 56.7321 90.6719 56.4977 90.6719 56.2373C90.6719 55.7881 91.0885 55.2347 91.9219 54.5771L94.2559 52.8193C95.0957 52.0967 95.5156 51.4359 95.5156 50.8369C95.5156 50.0817 95.1608 49.3851 94.4512 48.7471C93.7676 48.1286 93.0417 47.8193 92.2734 47.8193C91.8633 47.8193 91.3424 48.0309 90.7109 48.4541C90.0794 48.8708 89.6888 49.0791 89.5391 49.0791C89.2721 49.0791 89.041 48.9717 88.8457 48.7568C88.6569 48.542 88.5625 48.3011 88.5625 48.0342C88.5625 47.5199 89.0605 47.0088 90.0566 46.501C90.9486 46.0452 91.6875 45.8174 92.2734 45.8174C93.582 45.8174 94.7702 46.3285 95.8379 47.3506C96.9056 48.3727 97.4395 49.5348 97.4395 50.8369C97.4395 51.7874 97.1335 52.6305 96.5215 53.3662C96.1569 53.8089 95.4798 54.3818 94.4902 55.085C93.4941 55.8076 92.8008 56.3936 92.4102 56.8428C92.1823 57.1097 91.9382 57.2432 91.6777 57.2432ZM91.1406 60.9541C90.8542 60.9541 90.5938 60.8564 90.3594 60.6611C90.1315 60.4723 90.0176 60.2412 90.0176 59.9678C90.0176 59.5641 90.125 59.1995 90.3398 58.874C90.5807 58.5094 90.89 58.3271 91.2676 58.3271C91.8926 58.3271 92.2051 58.7113 92.2051 59.4795C92.2051 59.8376 92.1204 60.1598 91.9512 60.4463C91.7428 60.7848 91.4727 60.9541 91.1406 60.9541ZM101.15 61.1592C100.812 61.1592 100.525 61.042 100.291 60.8076C100.057 60.5732 99.9395 60.2868 99.9395 59.9482C99.9395 59.6162 100.057 59.333 100.291 59.0986C100.525 58.8577 100.812 58.7373 101.15 58.7373C101.482 58.7373 101.766 58.8577 102 59.0986C102.241 59.333 102.361 59.6162 102.361 59.9482C102.361 60.2868 102.241 60.5732 102 60.8076C101.766 61.042 101.482 61.1592 101.15 61.1592ZM106.131 61.1592C105.792 61.1592 105.506 61.042 105.271 60.8076C105.037 60.5732 104.92 60.2868 104.92 59.9482C104.92 59.6162 105.037 59.333 105.271 59.0986C105.506 58.8577 105.792 58.7373 106.131 58.7373C106.463 58.7373 106.746 58.8577 106.98 59.0986C107.221 59.333 107.342 59.6162 107.342 59.9482C107.342 60.2868 107.221 60.5732 106.98 60.8076C106.746 61.042 106.463 61.1592 106.131 61.1592ZM111.111 61.1592C110.773 61.1592 110.486 61.042 110.252 60.8076C110.018 60.5732 109.9 60.2868 109.9 59.9482C109.9 59.6162 110.018 59.333 110.252 59.0986C110.486 58.8577 110.773 58.7373 111.111 58.7373C111.443 58.7373 111.727 58.8577 111.961 59.0986C112.202 59.333 112.322 59.6162 112.322 59.9482C112.322 60.2868 112.202 60.5732 111.961 60.8076C111.727 61.042 111.443 61.1592 111.111 61.1592ZM126.531 51.5107C126.023 53.6331 125.359 56.0322 124.539 58.708C124.357 59.3005 124.054 59.9092 123.631 60.5342C123.403 60.8792 123.094 61.0485 122.703 61.042C121.993 61.029 121.44 60.1468 121.043 58.3955C120.913 57.8356 120.779 57.0739 120.643 56.1104L120.32 53.9326L119.52 55.7979L118.035 59.8311C117.951 60.0785 117.827 60.2673 117.664 60.3975C117.469 60.7751 117.156 60.9704 116.727 60.9834C116.232 61.0029 115.753 60.0329 115.291 58.0732C115.057 57.0641 114.822 55.6969 114.588 53.9717L114.354 52.5068C114.269 51.9209 114.227 51.4294 114.227 51.0322C114.227 50.7588 114.321 50.5342 114.51 50.3584C114.705 50.1761 114.939 50.085 115.213 50.085C115.708 50.085 116.014 50.3551 116.131 50.8955C116.215 51.2796 116.284 51.7549 116.336 52.3213L116.482 53.7568L117.059 58.1416C117.781 56.1364 118.53 53.8252 119.305 51.208C119.52 50.4854 119.894 50.124 120.428 50.124C120.942 50.124 121.29 50.5277 121.473 51.335C121.642 52.0967 121.854 53.2686 122.107 54.8506C122.368 56.4912 122.599 57.7705 122.801 58.6885L123.514 56.0322L124.773 50.71C124.871 50.3128 125.151 50.1143 125.613 50.1143C125.887 50.1143 126.124 50.2087 126.326 50.3975C126.528 50.5798 126.629 50.8011 126.629 51.0615C126.629 51.0941 126.596 51.2438 126.531 51.5107ZM136.707 60.8564C136.245 60.8564 135.942 60.609 135.799 60.1143C135.649 59.5804 135.512 58.8219 135.389 57.8389C135.271 56.8949 135.213 56.1201 135.213 55.5146C135.213 55.3454 135.219 55.0882 135.232 54.7432C135.252 54.3981 135.262 54.141 135.262 53.9717C135.262 52.7477 134.956 52.1357 134.344 52.1357C133.517 52.1357 132.778 52.5101 132.127 53.2588C131.795 53.6429 131.339 54.3753 130.76 55.4561C130.76 57.9365 130.656 59.4046 130.447 59.8604C130.265 60.264 129.982 60.4658 129.598 60.4658C129.331 60.4658 129.096 60.3747 128.895 60.1924C128.693 60.0101 128.592 59.7887 128.592 59.5283C128.592 59.4372 128.621 59.2939 128.68 59.0986C128.732 58.9359 128.768 58.4606 128.787 57.6729L128.816 56.2275L128.846 49.0498C128.891 48.2425 128.914 47.6989 128.914 47.4189C128.914 47.0869 128.882 46.7744 128.816 46.4814C128.758 46.182 128.729 45.8727 128.729 45.5537C128.729 45.2803 128.823 45.0557 129.012 44.8799C129.201 44.6976 129.432 44.6064 129.705 44.6064C130.239 44.6064 130.551 44.8929 130.643 45.4658C130.747 46.0973 130.799 46.667 130.799 47.1748C130.799 47.8584 130.776 48.5713 130.73 49.3135C130.691 50.0231 130.675 50.736 130.682 51.4521L130.691 52.3115C131.225 51.5954 131.795 51.0615 132.4 50.71C133.012 50.3519 133.66 50.1729 134.344 50.1729C135.424 50.1729 136.167 50.5244 136.57 51.2275C136.857 51.7223 137.02 52.5557 137.059 53.7275L137.137 55.5928L137.332 57.624C137.423 58.3857 137.534 59.0563 137.664 59.6357C137.69 59.7464 137.703 59.8408 137.703 59.9189C137.703 60.1859 137.605 60.4072 137.41 60.583C137.215 60.7653 136.98 60.8564 136.707 60.8564ZM147.723 60.8955C147.599 60.8955 147.374 60.7523 147.049 60.4658C146.756 60.1989 146.538 59.9613 146.395 59.7529C145.77 60.0915 145.219 60.3454 144.744 60.5146C144.269 60.6904 143.872 60.7783 143.553 60.7783C142.029 60.7783 140.919 60.3486 140.223 59.4893C139.565 58.682 139.236 57.445 139.236 55.7783C139.236 54.2028 139.777 52.8551 140.857 51.7354C141.945 50.6156 143.24 50.0557 144.744 50.0557C145.311 50.0557 145.945 50.2021 146.648 50.4951C147.534 50.8597 147.977 51.2992 147.977 51.8135C147.977 51.9893 147.911 52.1455 147.781 52.2822C147.716 52.5296 147.664 52.9365 147.625 53.5029C147.592 54.0693 147.573 54.7952 147.566 55.6807C147.56 56.488 147.615 57.126 147.732 57.5947C147.798 57.8812 148.003 58.4541 148.348 59.3135C148.393 59.4307 148.468 59.6032 148.572 59.8311L148.631 59.9971C148.631 60.2575 148.54 60.4723 148.357 60.6416C148.175 60.8109 147.964 60.8955 147.723 60.8955ZM145.691 54.1084C145.691 53.8285 145.708 53.5257 145.74 53.2002C145.779 52.8682 145.835 52.5166 145.906 52.1455C145.665 52.0218 145.457 51.9307 145.281 51.8721C145.112 51.8135 144.975 51.7842 144.871 51.7842C143.862 51.7842 142.99 52.1976 142.254 53.0244C141.525 53.8447 141.16 54.792 141.16 55.8662C141.16 56.9339 141.349 57.7347 141.727 58.2686C142.104 58.8024 142.671 59.0693 143.426 59.0693C144.051 59.0693 144.581 58.9554 145.018 58.7275C145.252 58.6038 145.581 58.3564 146.004 57.9854C145.796 56.2601 145.691 54.9678 145.691 54.1084ZM156.863 51.9307C156.727 51.9307 156.564 51.9242 156.375 51.9111C156.193 51.8981 156.033 51.8916 155.896 51.8916C155.747 51.8916 155.304 51.9404 154.568 52.0381L154.754 57.8096L154.764 58.2393L154.773 58.7373C154.799 60.1631 154.458 60.876 153.748 60.876C153.488 60.876 153.26 60.7913 153.064 60.6221C152.876 60.4528 152.781 60.2412 152.781 59.9873C152.781 59.7399 152.791 59.3688 152.811 58.874C152.83 58.3792 152.84 58.0081 152.84 57.7607L152.645 52.0576C152.169 52.0381 151.447 51.9827 150.477 51.8916C149.897 51.8135 149.607 51.4912 149.607 50.9248C149.607 50.6383 149.695 50.4007 149.871 50.2119C150.047 50.0231 150.271 49.9287 150.545 49.9287L152.596 50.0947C152.596 49.7627 152.579 49.32 152.547 48.7666C152.521 48.2067 152.508 47.8031 152.508 47.5557C152.508 47.2822 152.602 47.0576 152.791 46.8818C152.98 46.6995 153.211 46.6084 153.484 46.6084C154.07 46.6084 154.412 47.0869 154.51 48.0439C154.529 48.2848 154.539 48.5745 154.539 48.9131L154.52 49.4795L154.51 50.085C155.317 49.9808 155.779 49.9287 155.896 49.9287C156.574 49.9287 157.016 49.9613 157.225 50.0264C157.622 50.1566 157.82 50.4626 157.82 50.9443C157.82 51.2308 157.729 51.4684 157.547 51.6572C157.371 51.8395 157.143 51.9307 156.863 51.9307ZM173.367 60.8955C173.243 60.8955 173.019 60.7523 172.693 60.4658C172.4 60.1989 172.182 59.9613 172.039 59.7529C171.414 60.0915 170.864 60.3454 170.389 60.5146C169.913 60.6904 169.516 60.7783 169.197 60.7783C167.674 60.7783 166.564 60.3486 165.867 59.4893C165.21 58.682 164.881 57.445 164.881 55.7783C164.881 54.2028 165.421 52.8551 166.502 51.7354C167.589 50.6156 168.885 50.0557 170.389 50.0557C170.955 50.0557 171.59 50.2021 172.293 50.4951C173.178 50.8597 173.621 51.2992 173.621 51.8135C173.621 51.9893 173.556 52.1455 173.426 52.2822C173.361 52.5296 173.309 52.9365 173.27 53.5029C173.237 54.0693 173.217 54.7952 173.211 55.6807C173.204 56.488 173.26 57.126 173.377 57.5947C173.442 57.8812 173.647 58.4541 173.992 59.3135C174.038 59.4307 174.113 59.6032 174.217 59.8311L174.275 59.9971C174.275 60.2575 174.184 60.4723 174.002 60.6416C173.82 60.8109 173.608 60.8955 173.367 60.8955ZM171.336 54.1084C171.336 53.8285 171.352 53.5257 171.385 53.2002C171.424 52.8682 171.479 52.5166 171.551 52.1455C171.31 52.0218 171.102 51.9307 170.926 51.8721C170.757 51.8135 170.62 51.7842 170.516 51.7842C169.507 51.7842 168.634 52.1976 167.898 53.0244C167.169 53.8447 166.805 54.792 166.805 55.8662C166.805 56.9339 166.993 57.7347 167.371 58.2686C167.749 58.8024 168.315 59.0693 169.07 59.0693C169.695 59.0693 170.226 58.9554 170.662 58.7275C170.896 58.6038 171.225 58.3564 171.648 57.9854C171.44 56.2601 171.336 54.9678 171.336 54.1084ZM183.572 53.0342C183.527 53.848 183.201 54.2549 182.596 54.2549C182.036 54.2549 181.756 53.9326 181.756 53.2881C181.756 53.1644 181.746 52.9365 181.727 52.6045L181.697 51.7842C180.669 51.9079 179.845 52.1976 179.227 52.6533C178.647 53.0765 178.165 53.7145 177.781 54.5674L177.801 59.9189C177.801 60.5765 177.479 60.9053 176.834 60.9053C176.261 60.9053 175.975 60.5765 175.975 59.9189V53.0635C175.975 52.8486 175.981 52.5264 175.994 52.0967C176.014 51.667 176.023 51.3447 176.023 51.1299C176.023 50.4723 176.31 50.1436 176.883 50.1436C177.521 50.1436 177.843 50.6839 177.85 51.7646C179.1 50.5602 180.486 49.958 182.01 49.958C182.537 49.958 182.931 50.1566 183.191 50.5537C183.452 50.9508 183.582 51.5498 183.582 52.3506C183.582 52.6891 183.579 52.917 183.572 53.0342ZM190.145 60.7002C188.673 60.7002 187.482 60.3324 186.57 59.5967C185.574 58.7829 185.076 57.6436 185.076 56.1787C185.076 54.486 185.486 53.0667 186.307 51.9209C187.199 50.6709 188.39 50.0459 189.881 50.0459C190.962 50.0459 191.844 50.2282 192.527 50.5928C193.367 51.042 193.787 51.7321 193.787 52.6631C193.787 53.3141 193.419 53.9066 192.684 54.4404C192.358 54.6748 191.668 55.0394 190.613 55.5342L186.883 57.3018C187.247 57.8421 187.7 58.249 188.24 58.5225C188.787 58.7959 189.422 58.9326 190.145 58.9326C190.594 58.9326 191.121 58.848 191.727 58.6787C192.495 58.4639 192.99 58.1839 193.211 57.8389C193.432 57.4873 193.67 57.3115 193.924 57.3115C194.152 57.3115 194.354 57.3994 194.529 57.5752C194.712 57.7445 194.803 57.943 194.803 58.1709C194.803 58.8936 194.22 59.5153 193.055 60.0361C192.059 60.4788 191.089 60.7002 190.145 60.7002ZM189.881 51.8037C189.087 51.8037 188.426 52.113 187.898 52.7314C187.371 53.3434 186.977 54.2679 186.717 55.5049L189.715 54.0791C190.893 53.5062 191.733 53.0081 192.234 52.585C191.674 52.0641 190.89 51.8037 189.881 51.8037ZM211.033 51.54L207.654 58.8447C206.821 60.6221 206.183 62.1097 205.74 63.3076L205.096 65.2021C204.926 65.6709 204.633 65.9053 204.217 65.9053C203.943 65.9053 203.706 65.8141 203.504 65.6318C203.309 65.4561 203.211 65.2347 203.211 64.9678C203.211 64.3167 203.914 62.432 205.32 59.3135L201.824 52.585L201.385 51.8721C201.209 51.5726 201.121 51.3219 201.121 51.1201C201.121 50.8532 201.222 50.6188 201.424 50.417C201.632 50.2152 201.863 50.1143 202.117 50.1143C202.417 50.1143 202.648 50.2282 202.811 50.4561C203.917 51.9925 205.105 54.18 206.375 57.0186L207.82 53.6494C208.341 52.484 208.842 51.4814 209.324 50.6416C209.533 50.277 209.806 50.0947 210.145 50.0947C210.411 50.0947 210.646 50.1891 210.848 50.3779C211.056 50.5667 211.16 50.7913 211.16 51.0518C211.16 51.195 211.118 51.3577 211.033 51.54ZM216.59 60.8271C215.496 60.8271 214.555 60.4235 213.768 59.6162C212.889 58.7178 212.426 57.5101 212.381 55.9932C212.342 54.5218 212.713 53.2262 213.494 52.1064C214.406 50.7848 215.675 50.124 217.303 50.124C218.605 50.124 219.591 50.7197 220.262 51.9111C220.796 52.8747 221.053 54.0335 221.033 55.3877C221.014 56.833 220.636 58.0667 219.9 59.0889C219.067 60.2477 217.964 60.8271 216.59 60.8271ZM217.176 52.1064C216.219 52.0999 215.473 52.5557 214.939 53.4736C214.516 54.2093 214.305 55.0492 214.305 55.9932C214.305 56.9372 214.562 57.6729 215.076 58.2002C215.506 58.6364 216.01 58.8545 216.59 58.8545C217.267 58.8545 217.85 58.6071 218.338 58.1123C218.891 57.5654 219.184 56.8265 219.217 55.8955C219.308 53.376 218.628 52.113 217.176 52.1064ZM231.424 54.5479C231.424 55.0166 231.427 55.7197 231.434 56.6572C231.44 57.5947 231.443 58.2979 231.443 58.7666C231.443 58.9098 231.453 59.1279 231.473 59.4209C231.499 59.7139 231.512 59.932 231.512 60.0752C231.512 60.3551 231.417 60.583 231.229 60.7588C231.04 60.9411 230.809 61.0322 230.535 61.0322C230.034 61.0322 229.715 60.723 229.578 60.1045C228.764 60.5277 227.827 60.7393 226.766 60.7393C225.913 60.7393 225.206 60.5505 224.646 60.1729C224.028 59.7562 223.66 59.1475 223.543 58.3467C223.289 56.6214 223.162 55.085 223.162 53.7373C223.162 52.8454 223.26 51.8298 223.455 50.6904C223.546 50.124 223.855 49.8408 224.383 49.8408C224.663 49.8408 224.897 49.932 225.086 50.1143C225.275 50.29 225.369 50.5179 225.369 50.7979C225.369 51.0973 225.32 51.5758 225.223 52.2334C225.132 52.891 225.086 53.3923 225.086 53.7373C225.086 54.8245 225.122 55.7555 225.193 56.5303C225.265 57.305 225.372 57.9268 225.516 58.3955C225.73 58.5127 225.942 58.6038 226.15 58.6689C226.359 58.7275 226.564 58.7568 226.766 58.7568C227.638 58.7568 228.559 58.6169 229.529 58.3369L229.52 56.3545L229.5 54.46C229.5 53.0537 229.562 51.833 229.686 50.7979C229.757 50.1989 230.073 49.8994 230.633 49.8994C230.913 49.8994 231.147 49.9906 231.336 50.1729C231.525 50.3551 231.613 50.583 231.6 50.8564L231.424 54.5479ZM246.375 51.9307C246.238 51.9307 246.076 51.9242 245.887 51.9111C245.704 51.8981 245.545 51.8916 245.408 51.8916C245.258 51.8916 244.816 51.9404 244.08 52.0381L244.266 57.8096L244.275 58.2393L244.285 58.7373C244.311 60.1631 243.969 60.876 243.26 60.876C242.999 60.876 242.771 60.7913 242.576 60.6221C242.387 60.4528 242.293 60.2412 242.293 59.9873C242.293 59.7399 242.303 59.3688 242.322 58.874C242.342 58.3792 242.352 58.0081 242.352 57.7607L242.156 52.0576C241.681 52.0381 240.958 51.9827 239.988 51.8916C239.409 51.8135 239.119 51.4912 239.119 50.9248C239.119 50.6383 239.207 50.4007 239.383 50.2119C239.559 50.0231 239.783 49.9287 240.057 49.9287L242.107 50.0947C242.107 49.7627 242.091 49.32 242.059 48.7666C242.033 48.2067 242.02 47.8031 242.02 47.5557C242.02 47.2822 242.114 47.0576 242.303 46.8818C242.492 46.6995 242.723 46.6084 242.996 46.6084C243.582 46.6084 243.924 47.0869 244.021 48.0439C244.041 48.2848 244.051 48.5745 244.051 48.9131L244.031 49.4795L244.021 50.085C244.829 49.9808 245.291 49.9287 245.408 49.9287C246.085 49.9287 246.528 49.9613 246.736 50.0264C247.133 50.1566 247.332 50.4626 247.332 50.9443C247.332 51.2308 247.241 51.4684 247.059 51.6572C246.883 51.8395 246.655 51.9307 246.375 51.9307ZM256.902 60.8955C256.779 60.8955 256.554 60.7523 256.229 60.4658C255.936 60.1989 255.717 59.9613 255.574 59.7529C254.949 60.0915 254.399 60.3454 253.924 60.5146C253.449 60.6904 253.051 60.7783 252.732 60.7783C251.209 60.7783 250.099 60.3486 249.402 59.4893C248.745 58.682 248.416 57.445 248.416 55.7783C248.416 54.2028 248.956 52.8551 250.037 51.7354C251.124 50.6156 252.42 50.0557 253.924 50.0557C254.49 50.0557 255.125 50.2021 255.828 50.4951C256.714 50.8597 257.156 51.2992 257.156 51.8135C257.156 51.9893 257.091 52.1455 256.961 52.2822C256.896 52.5296 256.844 52.9365 256.805 53.5029C256.772 54.0693 256.753 54.7952 256.746 55.6807C256.74 56.488 256.795 57.126 256.912 57.5947C256.977 57.8812 257.182 58.4541 257.527 59.3135C257.573 59.4307 257.648 59.6032 257.752 59.8311L257.811 59.9971C257.811 60.2575 257.719 60.4723 257.537 60.6416C257.355 60.8109 257.143 60.8955 256.902 60.8955ZM254.871 54.1084C254.871 53.8285 254.887 53.5257 254.92 53.2002C254.959 52.8682 255.014 52.5166 255.086 52.1455C254.845 52.0218 254.637 51.9307 254.461 51.8721C254.292 51.8135 254.155 51.7842 254.051 51.7842C253.042 51.7842 252.169 52.1976 251.434 53.0244C250.704 53.8447 250.34 54.792 250.34 55.8662C250.34 56.9339 250.529 57.7347 250.906 58.2686C251.284 58.8024 251.85 59.0693 252.605 59.0693C253.23 59.0693 253.761 58.9554 254.197 58.7275C254.432 58.6038 254.76 58.3564 255.184 57.9854C254.975 56.2601 254.871 54.9678 254.871 54.1084ZM261.99 52.5752L261.844 57.4287C261.844 57.943 261.818 58.6982 261.766 59.6943C261.701 60.3454 261.382 60.6709 260.809 60.6709C260.171 60.6709 259.852 60.3389 259.852 59.6748C259.852 58.887 259.887 57.7054 259.959 56.1299C260.031 54.5479 260.066 53.363 260.066 52.5752C260.066 51.5465 260.083 50.3714 260.115 49.0498C260.148 47.7217 260.164 46.5433 260.164 45.5146C260.164 44.8636 260.483 44.5381 261.121 44.5381C261.766 44.5381 262.088 44.8636 262.088 45.5146C262.088 46.5433 262.072 47.7217 262.039 49.0498C262.007 50.3714 261.99 51.5465 261.99 52.5752ZM273.133 60.6514C272.775 60.6514 272.498 60.4626 272.303 60.085C271.964 59.4274 271.453 58.6494 270.77 57.751L269.041 55.3975C268.663 55.6969 268.077 56.1169 267.283 56.6572C267.212 57.6663 267.176 58.6494 267.176 59.6064C267.176 59.8994 267.085 60.137 266.902 60.3193C266.727 60.5016 266.499 60.5928 266.219 60.5928C265.561 60.5928 265.232 60.1501 265.232 59.2646C265.232 58.7243 265.268 57.917 265.34 56.8428C265.418 55.762 265.457 54.9515 265.457 54.4111C265.457 53.4215 265.47 52.292 265.496 51.0225C265.529 49.7464 265.545 48.6201 265.545 47.6436C265.545 47.3506 265.529 47.0055 265.496 46.6084C265.47 46.2113 265.457 45.8662 265.457 45.5732C265.457 45.2803 265.545 45.0426 265.721 44.8604C265.903 44.6781 266.134 44.5869 266.414 44.5869C266.694 44.5869 266.922 44.6781 267.098 44.8604C267.28 45.0426 267.371 45.2803 267.371 45.5732C267.371 45.8727 267.387 46.2275 267.42 46.6377C267.452 47.0413 267.469 47.3929 267.469 47.6924L267.4 50.8369C267.368 51.9697 267.358 53.1025 267.371 54.2354C268.257 53.5583 269.109 52.8161 269.93 52.0088L272.078 49.792C272.293 49.5706 272.524 49.46 272.771 49.46C273.025 49.46 273.253 49.5609 273.455 49.7627C273.663 49.9645 273.768 50.1989 273.768 50.4658C273.768 50.6872 273.673 50.9053 273.484 51.1201C272.684 52.0576 271.697 53.0635 270.525 54.1377L272.654 57.0381C273.65 58.3988 274.148 59.2842 274.148 59.6943C274.148 59.9548 274.044 60.1794 273.836 60.3682C273.634 60.557 273.4 60.6514 273.133 60.6514ZM277.664 47.8877C277.352 47.8877 277.081 47.777 276.854 47.5557C276.626 47.3343 276.512 47.0674 276.512 46.7549C276.512 46.4424 276.626 46.1755 276.854 45.9541C277.081 45.7327 277.352 45.6221 277.664 45.6221C277.977 45.6221 278.243 45.7327 278.465 45.9541C278.693 46.1755 278.807 46.4424 278.807 46.7549C278.807 47.0674 278.693 47.3343 278.465 47.5557C278.243 47.777 277.977 47.8877 277.664 47.8877ZM278.104 55.8174C278.104 56.208 278.113 56.7939 278.133 57.5752C278.159 58.3499 278.172 58.9326 278.172 59.3232C278.172 59.6097 278.084 59.8441 277.908 60.0264C277.732 60.2087 277.501 60.2998 277.215 60.2998C276.935 60.2998 276.704 60.2087 276.521 60.0264C276.346 59.8441 276.258 59.6097 276.258 59.3232C276.258 58.9326 276.245 58.3499 276.219 57.5752C276.199 56.7939 276.189 56.208 276.189 55.8174C276.189 55.2054 276.222 54.4437 276.287 53.5322C276.352 52.6143 276.385 51.8493 276.385 51.2373C276.385 50.9443 276.473 50.7067 276.648 50.5244C276.831 50.3421 277.062 50.251 277.342 50.251C277.622 50.251 277.85 50.3421 278.025 50.5244C278.208 50.7067 278.299 50.9443 278.299 51.2373C278.299 51.8493 278.266 52.6143 278.201 53.5322C278.136 54.4437 278.104 55.2054 278.104 55.8174ZM288.895 60.9443C288.335 60.9443 288.019 60.6383 287.947 60.0264L287.674 57.8877C287.583 57.126 287.537 56.4131 287.537 55.749C287.537 55.5667 287.547 55.2575 287.566 54.8213C287.592 54.3851 287.605 54.0758 287.605 53.8936C287.605 52.4873 287.345 51.7842 286.824 51.7842C286.095 51.7842 285.398 52.2171 284.734 53.083C284.135 53.8708 283.667 54.8669 283.328 56.0713C283.315 56.3252 283.286 56.6442 283.24 57.0283C283.201 57.3538 283.182 57.6696 283.182 57.9756C283.182 58.1709 283.201 58.4639 283.24 58.8545C283.279 59.2451 283.299 59.5381 283.299 59.7334C283.299 60.0264 283.208 60.264 283.025 60.4463C282.85 60.6286 282.622 60.7197 282.342 60.7197C282.055 60.7197 281.824 60.6286 281.648 60.4463C281.473 60.264 281.385 60.0264 281.385 59.7334C281.385 59.5381 281.362 59.2451 281.316 58.8545C281.277 58.4639 281.258 58.1709 281.258 57.9756C281.258 57.305 281.303 56.3773 281.395 55.1924C281.492 54.001 281.541 53.07 281.541 52.3994C281.541 52.1911 281.528 51.8818 281.502 51.4717C281.482 51.0615 281.473 50.7523 281.473 50.5439C281.473 50.264 281.564 50.0361 281.746 49.8604C281.935 49.6781 282.166 49.5869 282.439 49.5869C283.038 49.5869 283.367 50.0101 283.426 50.8564L283.455 51.999C284.549 50.5407 285.672 49.8115 286.824 49.8115C287.866 49.8115 288.592 50.2705 289.002 51.1885C289.282 51.8005 289.435 52.7054 289.461 53.9033V54.8896L289.451 55.7979C289.451 56.3382 289.52 57.0381 289.656 57.8975C289.799 58.7503 289.871 59.4437 289.871 59.9775C289.871 60.264 289.777 60.4951 289.588 60.6709C289.406 60.8532 289.174 60.9443 288.895 60.9443ZM299.91 56.042L299.686 59.3232C299.646 60.6253 299.513 61.6898 299.285 62.5166C298.992 63.5713 298.523 64.3493 297.879 64.8506C297.098 65.4561 295.968 65.7588 294.49 65.7588C293.624 65.7588 292.898 65.7002 292.312 65.583C291.492 65.4202 291.082 65.0817 291.082 64.5674C291.082 63.988 291.365 63.6982 291.932 63.6982C292.166 63.6982 292.557 63.7536 293.104 63.8643C293.65 63.9814 294.256 64.0335 294.92 64.0205C296.17 64.001 297.033 63.3955 297.508 62.2041C297.82 61.4098 297.986 60.1891 298.006 58.542C297.654 59.193 297.234 59.6813 296.746 60.0068C296.264 60.3324 295.711 60.4951 295.086 60.4951C293.908 60.4951 292.947 60.0947 292.205 59.2939C291.469 58.4867 291.102 57.4417 291.102 56.1592C291.102 54.4014 291.606 52.9854 292.615 51.9111C293.657 50.8044 295.076 50.251 296.873 50.251C297.479 50.251 297.986 50.3291 298.396 50.4854C298.807 50.6416 299.119 50.876 299.334 51.1885C300.031 51.208 300.379 51.5954 300.379 52.3506C300.379 52.8128 300.311 53.4313 300.174 54.2061C300.024 55.1045 299.936 55.7165 299.91 56.042ZM296.775 51.8135C295.538 51.8135 294.581 52.2399 293.904 53.0928C293.299 53.861 292.996 54.8376 292.996 56.0225C292.996 56.9665 293.175 57.6761 293.533 58.1514C293.891 58.6266 294.428 58.8643 295.145 58.8643C295.802 58.8643 296.44 58.4932 297.059 57.751C297.618 57.0674 297.938 56.3903 298.016 55.7197C298.152 55.0166 298.299 53.9131 298.455 52.4092C298.195 52.2074 297.924 52.0576 297.645 51.96C297.365 51.8623 297.075 51.8135 296.775 51.8135ZM316.102 60.8955C315.978 60.8955 315.753 60.7523 315.428 60.4658C315.135 60.1989 314.917 59.9613 314.773 59.7529C314.148 60.0915 313.598 60.3454 313.123 60.5146C312.648 60.6904 312.251 60.7783 311.932 60.7783C310.408 60.7783 309.298 60.3486 308.602 59.4893C307.944 58.682 307.615 57.445 307.615 55.7783C307.615 54.2028 308.156 52.8551 309.236 51.7354C310.324 50.6156 311.619 50.0557 313.123 50.0557C313.689 50.0557 314.324 50.2021 315.027 50.4951C315.913 50.8597 316.355 51.2992 316.355 51.8135C316.355 51.9893 316.29 52.1455 316.16 52.2822C316.095 52.5296 316.043 52.9365 316.004 53.5029C315.971 54.0693 315.952 54.7952 315.945 55.6807C315.939 56.488 315.994 57.126 316.111 57.5947C316.176 57.8812 316.382 58.4541 316.727 59.3135C316.772 59.4307 316.847 59.6032 316.951 59.8311L317.01 59.9971C317.01 60.2575 316.919 60.4723 316.736 60.6416C316.554 60.8109 316.342 60.8955 316.102 60.8955ZM314.07 54.1084C314.07 53.8285 314.087 53.5257 314.119 53.2002C314.158 52.8682 314.214 52.5166 314.285 52.1455C314.044 52.0218 313.836 51.9307 313.66 51.8721C313.491 51.8135 313.354 51.7842 313.25 51.7842C312.241 51.7842 311.368 52.1976 310.633 53.0244C309.904 53.8447 309.539 54.792 309.539 55.8662C309.539 56.9339 309.728 57.7347 310.105 58.2686C310.483 58.8024 311.049 59.0693 311.805 59.0693C312.43 59.0693 312.96 58.9554 313.396 58.7275C313.631 58.6038 313.96 58.3564 314.383 57.9854C314.174 56.2601 314.07 54.9678 314.07 54.1084ZM323.27 60.6611C322.273 60.6611 321.368 60.4658 320.555 60.0752C320.346 60.3877 320.092 60.5439 319.793 60.5439C319.546 60.5439 319.334 60.4561 319.158 60.2803C318.989 60.111 318.904 59.8962 318.904 59.6357C318.904 59.4665 318.911 59.2158 318.924 58.8838C318.943 58.5518 318.953 58.3011 318.953 58.1318C318.953 57.4417 318.934 56.4098 318.895 55.0361C318.862 53.6559 318.846 52.6208 318.846 51.9307C318.846 51.4554 318.849 50.557 318.855 49.2354C318.862 47.9072 318.865 47.0023 318.865 46.5205C318.865 46.1299 318.947 45.7783 319.109 45.4658C319.324 45.0687 319.62 44.8701 319.998 44.8701C320.486 44.8701 320.73 45.1533 320.73 45.7197C320.73 45.8109 320.714 45.9443 320.682 46.1201C320.649 46.2959 320.633 46.4294 320.633 46.5205L320.604 48.6592L320.584 51.1494C321.15 50.7653 321.688 50.4788 322.195 50.29C322.71 50.0947 323.191 49.9971 323.641 49.9971C325.04 49.9971 326.176 50.5342 327.049 51.6084C327.869 52.6175 328.279 53.8577 328.279 55.3291C328.279 56.8135 327.801 58.0732 326.844 59.1084C325.887 60.1436 324.695 60.6611 323.27 60.6611ZM323.641 51.8428C323.107 51.8428 322.56 51.9925 322 52.292C321.727 52.4417 321.258 52.764 320.594 53.2588L320.574 54.9482L320.584 56.4717L320.594 58.0732C320.906 58.2165 321.346 58.3988 321.912 58.6201C322.316 58.7438 322.768 58.8057 323.27 58.8057C324.214 58.8057 324.988 58.4736 325.594 57.8096C326.199 57.1455 326.502 56.3187 326.502 55.3291C326.502 54.359 326.258 53.5485 325.77 52.8975C325.242 52.1943 324.533 51.8428 323.641 51.8428ZM334.246 60.8271C333.152 60.8271 332.212 60.4235 331.424 59.6162C330.545 58.7178 330.083 57.5101 330.037 55.9932C329.998 54.5218 330.369 53.2262 331.15 52.1064C332.062 50.7848 333.331 50.124 334.959 50.124C336.261 50.124 337.247 50.7197 337.918 51.9111C338.452 52.8747 338.709 54.0335 338.689 55.3877C338.67 56.833 338.292 58.0667 337.557 59.0889C336.723 60.2477 335.62 60.8271 334.246 60.8271ZM334.832 52.1064C333.875 52.0999 333.13 52.5557 332.596 53.4736C332.173 54.2093 331.961 55.0492 331.961 55.9932C331.961 56.9372 332.218 57.6729 332.732 58.2002C333.162 58.6364 333.667 58.8545 334.246 58.8545C334.923 58.8545 335.506 58.6071 335.994 58.1123C336.548 57.5654 336.84 56.8265 336.873 55.8955C336.964 53.376 336.284 52.113 334.832 52.1064ZM349.08 54.5479C349.08 55.0166 349.083 55.7197 349.09 56.6572C349.096 57.5947 349.1 58.2979 349.1 58.7666C349.1 58.9098 349.109 59.1279 349.129 59.4209C349.155 59.7139 349.168 59.932 349.168 60.0752C349.168 60.3551 349.074 60.583 348.885 60.7588C348.696 60.9411 348.465 61.0322 348.191 61.0322C347.69 61.0322 347.371 60.723 347.234 60.1045C346.421 60.5277 345.483 60.7393 344.422 60.7393C343.569 60.7393 342.863 60.5505 342.303 60.1729C341.684 59.7562 341.316 59.1475 341.199 58.3467C340.945 56.6214 340.818 55.085 340.818 53.7373C340.818 52.8454 340.916 51.8298 341.111 50.6904C341.202 50.124 341.512 49.8408 342.039 49.8408C342.319 49.8408 342.553 49.932 342.742 50.1143C342.931 50.29 343.025 50.5179 343.025 50.7979C343.025 51.0973 342.977 51.5758 342.879 52.2334C342.788 52.891 342.742 53.3923 342.742 53.7373C342.742 54.8245 342.778 55.7555 342.85 56.5303C342.921 57.305 343.029 57.9268 343.172 58.3955C343.387 58.5127 343.598 58.6038 343.807 58.6689C344.015 58.7275 344.22 58.7568 344.422 58.7568C345.294 58.7568 346.215 58.6169 347.186 58.3369L347.176 56.3545L347.156 54.46C347.156 53.0537 347.218 51.833 347.342 50.7979C347.413 50.1989 347.729 49.8994 348.289 49.8994C348.569 49.8994 348.803 49.9906 348.992 50.1729C349.181 50.3551 349.269 50.583 349.256 50.8564L349.08 54.5479ZM358.055 51.9307C357.918 51.9307 357.755 51.9242 357.566 51.9111C357.384 51.8981 357.225 51.8916 357.088 51.8916C356.938 51.8916 356.495 51.9404 355.76 52.0381L355.945 57.8096L355.955 58.2393L355.965 58.7373C355.991 60.1631 355.649 60.876 354.939 60.876C354.679 60.876 354.451 60.7913 354.256 60.6221C354.067 60.4528 353.973 60.2412 353.973 59.9873C353.973 59.7399 353.982 59.3688 354.002 58.874C354.021 58.3792 354.031 58.0081 354.031 57.7607L353.836 52.0576C353.361 52.0381 352.638 51.9827 351.668 51.8916C351.089 51.8135 350.799 51.4912 350.799 50.9248C350.799 50.6383 350.887 50.4007 351.062 50.2119C351.238 50.0231 351.463 49.9287 351.736 49.9287L353.787 50.0947C353.787 49.7627 353.771 49.32 353.738 48.7666C353.712 48.2067 353.699 47.8031 353.699 47.5557C353.699 47.2822 353.794 47.0576 353.982 46.8818C354.171 46.6995 354.402 46.6084 354.676 46.6084C355.262 46.6084 355.604 47.0869 355.701 48.0439C355.721 48.2848 355.73 48.5745 355.73 48.9131L355.711 49.4795L355.701 50.085C356.508 49.9808 356.971 49.9287 357.088 49.9287C357.765 49.9287 358.208 49.9613 358.416 50.0264C358.813 50.1566 359.012 50.4626 359.012 50.9443C359.012 51.2308 358.921 51.4684 358.738 51.6572C358.562 51.8395 358.335 51.9307 358.055 51.9307ZM363.221 57.2432C362.954 57.2432 362.719 57.1423 362.518 56.9404C362.316 56.7321 362.215 56.4977 362.215 56.2373C362.215 55.7881 362.632 55.2347 363.465 54.5771L365.799 52.8193C366.639 52.0967 367.059 51.4359 367.059 50.8369C367.059 50.0817 366.704 49.3851 365.994 48.7471C365.311 48.1286 364.585 47.8193 363.816 47.8193C363.406 47.8193 362.885 48.0309 362.254 48.4541C361.622 48.8708 361.232 49.0791 361.082 49.0791C360.815 49.0791 360.584 48.9717 360.389 48.7568C360.2 48.542 360.105 48.3011 360.105 48.0342C360.105 47.5199 360.604 47.0088 361.6 46.501C362.492 46.0452 363.23 45.8174 363.816 45.8174C365.125 45.8174 366.313 46.3285 367.381 47.3506C368.449 48.3727 368.982 49.5348 368.982 50.8369C368.982 51.7874 368.676 52.6305 368.064 53.3662C367.7 53.8089 367.023 54.3818 366.033 55.085C365.037 55.8076 364.344 56.3936 363.953 56.8428C363.725 57.1097 363.481 57.2432 363.221 57.2432ZM362.684 60.9541C362.397 60.9541 362.137 60.8564 361.902 60.6611C361.674 60.4723 361.561 60.2412 361.561 59.9678C361.561 59.5641 361.668 59.1995 361.883 58.874C362.124 58.5094 362.433 58.3271 362.811 58.3271C363.436 58.3271 363.748 58.7113 363.748 59.4795C363.748 59.8376 363.663 60.1598 363.494 60.4463C363.286 60.7848 363.016 60.9541 362.684 60.9541ZM372.693 61.1592C372.355 61.1592 372.068 61.042 371.834 60.8076C371.6 60.5732 371.482 60.2868 371.482 59.9482C371.482 59.6162 371.6 59.333 371.834 59.0986C372.068 58.8577 372.355 58.7373 372.693 58.7373C373.025 58.7373 373.309 58.8577 373.543 59.0986C373.784 59.333 373.904 59.6162 373.904 59.9482C373.904 60.2868 373.784 60.5732 373.543 60.8076C373.309 61.042 373.025 61.1592 372.693 61.1592ZM377.674 61.1592C377.335 61.1592 377.049 61.042 376.814 60.8076C376.58 60.5732 376.463 60.2868 376.463 59.9482C376.463 59.6162 376.58 59.333 376.814 59.0986C377.049 58.8577 377.335 58.7373 377.674 58.7373C378.006 58.7373 378.289 58.8577 378.523 59.0986C378.764 59.333 378.885 59.6162 378.885 59.9482C378.885 60.2868 378.764 60.5732 378.523 60.8076C378.289 61.042 378.006 61.1592 377.674 61.1592ZM382.654 61.1592C382.316 61.1592 382.029 61.042 381.795 60.8076C381.561 60.5732 381.443 60.2868 381.443 59.9482C381.443 59.6162 381.561 59.333 381.795 59.0986C382.029 58.8577 382.316 58.7373 382.654 58.7373C382.986 58.7373 383.27 58.8577 383.504 59.0986C383.745 59.333 383.865 59.6162 383.865 59.9482C383.865 60.2868 383.745 60.5732 383.504 60.8076C383.27 61.042 382.986 61.1592 382.654 61.1592ZM394.373 48.083C393.956 48.083 393.432 48.0407 392.801 47.9561L391.229 47.751C391.079 49.6455 391.004 51.4554 391.004 53.1807C391.004 53.6364 391.017 54.1995 391.043 54.8701C391.069 55.5407 391.082 56.1038 391.082 56.5596C391.082 57.1715 391.059 57.7282 391.014 58.2295L394.09 58.1904C394.363 58.1904 394.591 58.2881 394.773 58.4834C394.962 58.6722 395.057 58.9066 395.057 59.1865C395.057 59.473 394.962 59.7139 394.773 59.9092C394.591 60.098 394.363 60.1924 394.09 60.1924C393.725 60.1924 393.178 60.2021 392.449 60.2217C391.72 60.2347 391.173 60.2412 390.809 60.2412C390.379 60.2412 389.734 60.2998 388.875 60.417C388.022 60.5407 387.378 60.6025 386.941 60.6025C386.668 60.6025 386.437 60.5049 386.248 60.3096C386.066 60.1208 385.975 59.8864 385.975 59.6064C385.975 59.3265 386.066 59.0889 386.248 58.8936C386.437 58.6982 386.668 58.6006 386.941 58.6006C387.365 58.6006 388.064 58.5322 389.041 58.3955C389.106 57.8682 389.139 57.266 389.139 56.5889C389.139 56.1396 389.116 55.5928 389.07 54.9482C389.031 54.2972 389.012 53.7503 389.012 53.3076C389.012 51.8037 389.103 49.9255 389.285 47.6729L388.016 47.7119L386.746 47.7412C386.466 47.7412 386.232 47.6468 386.043 47.458C385.854 47.2692 385.76 47.0283 385.76 46.7354C385.76 46.1299 386.066 45.7979 386.678 45.7393C387.205 45.6872 388.191 45.6611 389.637 45.6611C390.932 45.6611 392.557 45.8011 394.51 46.0811C395.089 46.1657 395.379 46.514 395.379 47.126C395.379 47.432 395.268 47.6761 395.047 47.8584C394.852 48.0081 394.627 48.083 394.373 48.083ZM406.502 47.8975C406.189 47.8975 405.919 47.7868 405.691 47.5654C405.47 47.3441 405.359 47.0804 405.359 46.7744C405.359 46.4619 405.47 46.195 405.691 45.9736C405.919 45.7523 406.189 45.6416 406.502 45.6416C406.814 45.6416 407.085 45.7523 407.312 45.9736C407.54 46.195 407.654 46.4619 407.654 46.7744C407.654 47.0804 407.54 47.3441 407.312 47.5654C407.085 47.7868 406.814 47.8975 406.502 47.8975ZM406.424 62.5166C406.43 61.7549 406.32 59.805 406.092 56.667L405.76 51.2861C405.76 50.9606 405.851 50.6709 406.033 50.417C406.222 50.1631 406.46 50.0361 406.746 50.0361C406.967 50.0361 407.189 50.1175 407.41 50.2803C407.632 50.443 407.749 50.609 407.762 50.7783L408.084 56.4033L408.348 62.4189C408.348 63.3239 408.077 64.1442 407.537 64.8799C406.951 65.6807 406.238 66.0811 405.398 66.0811C403.999 66.0811 402.827 65.0036 401.883 62.8486C401.805 62.6729 401.766 62.5166 401.766 62.3799C401.766 62.1195 401.867 61.8949 402.068 61.7061C402.277 61.5173 402.511 61.4229 402.771 61.4229C403.156 61.4229 403.556 61.846 403.973 62.6924C404.077 62.9137 404.259 63.2327 404.52 63.6494C404.773 63.9749 405.066 64.1377 405.398 64.1377C405.685 64.1377 405.929 63.9229 406.131 63.4932C406.287 63.1676 406.385 62.8421 406.424 62.5166ZM419.334 54.5479C419.334 55.0166 419.337 55.7197 419.344 56.6572C419.35 57.5947 419.354 58.2979 419.354 58.7666C419.354 58.9098 419.363 59.1279 419.383 59.4209C419.409 59.7139 419.422 59.932 419.422 60.0752C419.422 60.3551 419.327 60.583 419.139 60.7588C418.95 60.9411 418.719 61.0322 418.445 61.0322C417.944 61.0322 417.625 60.723 417.488 60.1045C416.674 60.5277 415.737 60.7393 414.676 60.7393C413.823 60.7393 413.117 60.5505 412.557 60.1729C411.938 59.7562 411.57 59.1475 411.453 58.3467C411.199 56.6214 411.072 55.085 411.072 53.7373C411.072 52.8454 411.17 51.8298 411.365 50.6904C411.456 50.124 411.766 49.8408 412.293 49.8408C412.573 49.8408 412.807 49.932 412.996 50.1143C413.185 50.29 413.279 50.5179 413.279 50.7979C413.279 51.0973 413.23 51.5758 413.133 52.2334C413.042 52.891 412.996 53.3923 412.996 53.7373C412.996 54.8245 413.032 55.7555 413.104 56.5303C413.175 57.305 413.283 57.9268 413.426 58.3955C413.641 58.5127 413.852 58.6038 414.061 58.6689C414.269 58.7275 414.474 58.7568 414.676 58.7568C415.548 58.7568 416.469 58.6169 417.439 58.3369L417.43 56.3545L417.41 54.46C417.41 53.0537 417.472 51.833 417.596 50.7979C417.667 50.1989 417.983 49.8994 418.543 49.8994C418.823 49.8994 419.057 49.9906 419.246 50.1729C419.435 50.3551 419.523 50.583 419.51 50.8564L419.334 54.5479ZM428.367 52.7314C428.009 52.7314 427.758 52.611 427.615 52.3701C427.518 52.2008 427.433 51.8493 427.361 51.3154C426.873 51.4391 426.121 51.667 425.105 51.999C424.057 52.4157 423.53 52.93 423.523 53.542C423.719 53.6136 423.911 53.6657 424.1 53.6982C425.597 53.9652 426.71 54.333 427.439 54.8018C428.501 55.4854 429.031 56.4749 429.031 57.7705C429.031 58.8317 428.572 59.6325 427.654 60.1729C426.893 60.6156 425.929 60.8369 424.764 60.8369C423.911 60.8369 423.097 60.6937 422.322 60.4072C421.32 60.0426 420.818 59.5348 420.818 58.8838C420.818 58.6234 420.919 58.3955 421.121 58.2002C421.329 58.0049 421.564 57.9072 421.824 57.9072C422.026 57.9072 422.286 58.0635 422.605 58.376C422.762 58.5257 423.113 58.6494 423.66 58.7471C424.096 58.8252 424.464 58.8643 424.764 58.8643C425.311 58.8643 425.792 58.7992 426.209 58.6689C426.814 58.4801 427.117 58.1807 427.117 57.7705C427.117 56.8851 426.499 56.2861 425.262 55.9736L424.246 55.749C423.38 55.5602 422.765 55.3389 422.4 55.085C421.873 54.7204 421.609 54.1702 421.609 53.4346C421.609 52.0739 422.251 51.1038 423.533 50.5244C423.924 50.3486 424.549 50.1403 425.408 49.8994C426.268 49.652 426.883 49.4437 427.254 49.2744C427.521 49.1572 427.811 49.0986 428.123 49.0986C428.403 49.0986 428.631 49.1898 428.807 49.3721C428.989 49.5544 429.08 49.792 429.08 50.085C429.08 50.2738 429.119 50.5505 429.197 50.915C429.282 51.2796 429.324 51.5563 429.324 51.7451C429.324 52.0381 429.233 52.2757 429.051 52.458C428.875 52.6403 428.647 52.7314 428.367 52.7314ZM438.055 51.9307C437.918 51.9307 437.755 51.9242 437.566 51.9111C437.384 51.8981 437.225 51.8916 437.088 51.8916C436.938 51.8916 436.495 51.9404 435.76 52.0381L435.945 57.8096L435.955 58.2393L435.965 58.7373C435.991 60.1631 435.649 60.876 434.939 60.876C434.679 60.876 434.451 60.7913 434.256 60.6221C434.067 60.4528 433.973 60.2412 433.973 59.9873C433.973 59.7399 433.982 59.3688 434.002 58.874C434.021 58.3792 434.031 58.0081 434.031 57.7607L433.836 52.0576C433.361 52.0381 432.638 51.9827 431.668 51.8916C431.089 51.8135 430.799 51.4912 430.799 50.9248C430.799 50.6383 430.887 50.4007 431.062 50.2119C431.238 50.0231 431.463 49.9287 431.736 49.9287L433.787 50.0947C433.787 49.7627 433.771 49.32 433.738 48.7666C433.712 48.2067 433.699 47.8031 433.699 47.5557C433.699 47.2822 433.794 47.0576 433.982 46.8818C434.171 46.6995 434.402 46.6084 434.676 46.6084C435.262 46.6084 435.604 47.0869 435.701 48.0439C435.721 48.2848 435.73 48.5745 435.73 48.9131L435.711 49.4795L435.701 50.085C436.508 49.9808 436.971 49.9287 437.088 49.9287C437.765 49.9287 438.208 49.9613 438.416 50.0264C438.813 50.1566 439.012 50.4626 439.012 50.9443C439.012 51.2308 438.921 51.4684 438.738 51.6572C438.562 51.8395 438.335 51.9307 438.055 51.9307ZM458.621 51.5107C458.113 53.6331 457.449 56.0322 456.629 58.708C456.447 59.3005 456.144 59.9092 455.721 60.5342C455.493 60.8792 455.184 61.0485 454.793 61.042C454.083 61.029 453.53 60.1468 453.133 58.3955C453.003 57.8356 452.869 57.0739 452.732 56.1104L452.41 53.9326L451.609 55.7979L450.125 59.8311C450.04 60.0785 449.917 60.2673 449.754 60.3975C449.559 60.7751 449.246 60.9704 448.816 60.9834C448.322 61.0029 447.843 60.0329 447.381 58.0732C447.146 57.0641 446.912 55.6969 446.678 53.9717L446.443 52.5068C446.359 51.9209 446.316 51.4294 446.316 51.0322C446.316 50.7588 446.411 50.5342 446.6 50.3584C446.795 50.1761 447.029 50.085 447.303 50.085C447.798 50.085 448.104 50.3551 448.221 50.8955C448.305 51.2796 448.374 51.7549 448.426 52.3213L448.572 53.7568L449.148 58.1416C449.871 56.1364 450.62 53.8252 451.395 51.208C451.609 50.4854 451.984 50.124 452.518 50.124C453.032 50.124 453.38 50.5277 453.562 51.335C453.732 52.0967 453.943 53.2686 454.197 54.8506C454.458 56.4912 454.689 57.7705 454.891 58.6885L455.604 56.0322L456.863 50.71C456.961 50.3128 457.241 50.1143 457.703 50.1143C457.977 50.1143 458.214 50.2087 458.416 50.3975C458.618 50.5798 458.719 50.8011 458.719 51.0615C458.719 51.0941 458.686 51.2438 458.621 51.5107ZM468.25 60.8955C468.126 60.8955 467.902 60.7523 467.576 60.4658C467.283 60.1989 467.065 59.9613 466.922 59.7529C466.297 60.0915 465.747 60.3454 465.271 60.5146C464.796 60.6904 464.399 60.7783 464.08 60.7783C462.557 60.7783 461.447 60.3486 460.75 59.4893C460.092 58.682 459.764 57.445 459.764 55.7783C459.764 54.2028 460.304 52.8551 461.385 51.7354C462.472 50.6156 463.768 50.0557 465.271 50.0557C465.838 50.0557 466.473 50.2021 467.176 50.4951C468.061 50.8597 468.504 51.2992 468.504 51.8135C468.504 51.9893 468.439 52.1455 468.309 52.2822C468.243 52.5296 468.191 52.9365 468.152 53.5029C468.12 54.0693 468.1 54.7952 468.094 55.6807C468.087 56.488 468.143 57.126 468.26 57.5947C468.325 57.8812 468.53 58.4541 468.875 59.3135C468.921 59.4307 468.995 59.6032 469.1 59.8311L469.158 59.9971C469.158 60.2575 469.067 60.4723 468.885 60.6416C468.702 60.8109 468.491 60.8955 468.25 60.8955ZM466.219 54.1084C466.219 53.8285 466.235 53.5257 466.268 53.2002C466.307 52.8682 466.362 52.5166 466.434 52.1455C466.193 52.0218 465.984 51.9307 465.809 51.8721C465.639 51.8135 465.503 51.7842 465.398 51.7842C464.389 51.7842 463.517 52.1976 462.781 53.0244C462.052 53.8447 461.688 54.792 461.688 55.8662C461.688 56.9339 461.876 57.7347 462.254 58.2686C462.632 58.8024 463.198 59.0693 463.953 59.0693C464.578 59.0693 465.109 58.9554 465.545 58.7275C465.779 58.6038 466.108 58.3564 466.531 57.9854C466.323 56.2601 466.219 54.9678 466.219 54.1084ZM478.348 60.9443C477.788 60.9443 477.472 60.6383 477.4 60.0264L477.127 57.8877C477.036 57.126 476.99 56.4131 476.99 55.749C476.99 55.5667 477 55.2575 477.02 54.8213C477.046 54.3851 477.059 54.0758 477.059 53.8936C477.059 52.4873 476.798 51.7842 476.277 51.7842C475.548 51.7842 474.852 52.2171 474.188 53.083C473.589 53.8708 473.12 54.8669 472.781 56.0713C472.768 56.3252 472.739 56.6442 472.693 57.0283C472.654 57.3538 472.635 57.6696 472.635 57.9756C472.635 58.1709 472.654 58.4639 472.693 58.8545C472.732 59.2451 472.752 59.5381 472.752 59.7334C472.752 60.0264 472.661 60.264 472.479 60.4463C472.303 60.6286 472.075 60.7197 471.795 60.7197C471.508 60.7197 471.277 60.6286 471.102 60.4463C470.926 60.264 470.838 60.0264 470.838 59.7334C470.838 59.5381 470.815 59.2451 470.77 58.8545C470.73 58.4639 470.711 58.1709 470.711 57.9756C470.711 57.305 470.757 56.3773 470.848 55.1924C470.945 54.001 470.994 53.07 470.994 52.3994C470.994 52.1911 470.981 51.8818 470.955 51.4717C470.936 51.0615 470.926 50.7523 470.926 50.5439C470.926 50.264 471.017 50.0361 471.199 49.8604C471.388 49.6781 471.619 49.5869 471.893 49.5869C472.492 49.5869 472.82 50.0101 472.879 50.8564L472.908 51.999C474.002 50.5407 475.125 49.8115 476.277 49.8115C477.319 49.8115 478.045 50.2705 478.455 51.1885C478.735 51.8005 478.888 52.7054 478.914 53.9033V54.8896L478.904 55.7979C478.904 56.3382 478.973 57.0381 479.109 57.8975C479.253 58.7503 479.324 59.4437 479.324 59.9775C479.324 60.264 479.23 60.4951 479.041 60.6709C478.859 60.8532 478.628 60.9443 478.348 60.9443ZM487.859 51.9307C487.723 51.9307 487.56 51.9242 487.371 51.9111C487.189 51.8981 487.029 51.8916 486.893 51.8916C486.743 51.8916 486.3 51.9404 485.564 52.0381L485.75 57.8096L485.76 58.2393L485.77 58.7373C485.796 60.1631 485.454 60.876 484.744 60.876C484.484 60.876 484.256 60.7913 484.061 60.6221C483.872 60.4528 483.777 60.2412 483.777 59.9873C483.777 59.7399 483.787 59.3688 483.807 58.874C483.826 58.3792 483.836 58.0081 483.836 57.7607L483.641 52.0576C483.165 52.0381 482.443 51.9827 481.473 51.8916C480.893 51.8135 480.604 51.4912 480.604 50.9248C480.604 50.6383 480.691 50.4007 480.867 50.2119C481.043 50.0231 481.268 49.9287 481.541 49.9287L483.592 50.0947C483.592 49.7627 483.576 49.32 483.543 48.7666C483.517 48.2067 483.504 47.8031 483.504 47.5557C483.504 47.2822 483.598 47.0576 483.787 46.8818C483.976 46.6995 484.207 46.6084 484.48 46.6084C485.066 46.6084 485.408 47.0869 485.506 48.0439C485.525 48.2848 485.535 48.5745 485.535 48.9131L485.516 49.4795L485.506 50.085C486.313 49.9808 486.775 49.9287 486.893 49.9287C487.57 49.9287 488.012 49.9613 488.221 50.0264C488.618 50.1566 488.816 50.4626 488.816 50.9443C488.816 51.2308 488.725 51.4684 488.543 51.6572C488.367 51.8395 488.139 51.9307 487.859 51.9307ZM503.27 51.9307C503.133 51.9307 502.97 51.9242 502.781 51.9111C502.599 51.8981 502.439 51.8916 502.303 51.8916C502.153 51.8916 501.71 51.9404 500.975 52.0381L501.16 57.8096L501.17 58.2393L501.18 58.7373C501.206 60.1631 500.864 60.876 500.154 60.876C499.894 60.876 499.666 60.7913 499.471 60.6221C499.282 60.4528 499.188 60.2412 499.188 59.9873C499.188 59.7399 499.197 59.3688 499.217 58.874C499.236 58.3792 499.246 58.0081 499.246 57.7607L499.051 52.0576C498.576 52.0381 497.853 51.9827 496.883 51.8916C496.303 51.8135 496.014 51.4912 496.014 50.9248C496.014 50.6383 496.102 50.4007 496.277 50.2119C496.453 50.0231 496.678 49.9287 496.951 49.9287L499.002 50.0947C499.002 49.7627 498.986 49.32 498.953 48.7666C498.927 48.2067 498.914 47.8031 498.914 47.5557C498.914 47.2822 499.008 47.0576 499.197 46.8818C499.386 46.6995 499.617 46.6084 499.891 46.6084C500.477 46.6084 500.818 47.0869 500.916 48.0439C500.936 48.2848 500.945 48.5745 500.945 48.9131L500.926 49.4795L500.916 50.085C501.723 49.9808 502.186 49.9287 502.303 49.9287C502.98 49.9287 503.423 49.9613 503.631 50.0264C504.028 50.1566 504.227 50.4626 504.227 50.9443C504.227 51.2308 504.135 51.4684 503.953 51.6572C503.777 51.8395 503.549 51.9307 503.27 51.9307ZM509.832 60.8271C508.738 60.8271 507.798 60.4235 507.01 59.6162C506.131 58.7178 505.669 57.5101 505.623 55.9932C505.584 54.5218 505.955 53.2262 506.736 52.1064C507.648 50.7848 508.917 50.124 510.545 50.124C511.847 50.124 512.833 50.7197 513.504 51.9111C514.038 52.8747 514.295 54.0335 514.275 55.3877C514.256 56.833 513.878 58.0667 513.143 59.0889C512.309 60.2477 511.206 60.8271 509.832 60.8271ZM510.418 52.1064C509.461 52.0999 508.715 52.5557 508.182 53.4736C507.758 54.2093 507.547 55.0492 507.547 55.9932C507.547 56.9372 507.804 57.6729 508.318 58.2002C508.748 58.6364 509.253 58.8545 509.832 58.8545C510.509 58.8545 511.092 58.6071 511.58 58.1123C512.133 57.5654 512.426 56.8265 512.459 55.8955C512.55 53.376 511.87 52.113 510.418 52.1064ZM525.154 52.5752L525.008 57.4287C525.008 57.943 524.982 58.6982 524.93 59.6943C524.865 60.3454 524.546 60.6709 523.973 60.6709C523.335 60.6709 523.016 60.3389 523.016 59.6748C523.016 58.887 523.051 57.7054 523.123 56.1299C523.195 54.5479 523.23 53.363 523.23 52.5752C523.23 51.5465 523.247 50.3714 523.279 49.0498C523.312 47.7217 523.328 46.5433 523.328 45.5146C523.328 44.8636 523.647 44.5381 524.285 44.5381C524.93 44.5381 525.252 44.8636 525.252 45.5146C525.252 46.5433 525.236 47.7217 525.203 49.0498C525.171 50.3714 525.154 51.5465 525.154 52.5752ZM532.723 60.7002C531.251 60.7002 530.06 60.3324 529.148 59.5967C528.152 58.7829 527.654 57.6436 527.654 56.1787C527.654 54.486 528.064 53.0667 528.885 51.9209C529.777 50.6709 530.968 50.0459 532.459 50.0459C533.54 50.0459 534.422 50.2282 535.105 50.5928C535.945 51.042 536.365 51.7321 536.365 52.6631C536.365 53.3141 535.997 53.9066 535.262 54.4404C534.936 54.6748 534.246 55.0394 533.191 55.5342L529.461 57.3018C529.826 57.8421 530.278 58.249 530.818 58.5225C531.365 58.7959 532 58.9326 532.723 58.9326C533.172 58.9326 533.699 58.848 534.305 58.6787C535.073 58.4639 535.568 58.1839 535.789 57.8389C536.01 57.4873 536.248 57.3115 536.502 57.3115C536.73 57.3115 536.932 57.3994 537.107 57.5752C537.29 57.7445 537.381 57.943 537.381 58.1709C537.381 58.8936 536.798 59.5153 535.633 60.0361C534.637 60.4788 533.667 60.7002 532.723 60.7002ZM532.459 51.8037C531.665 51.8037 531.004 52.113 530.477 52.7314C529.949 53.3434 529.555 54.2679 529.295 55.5049L532.293 54.0791C533.471 53.5062 534.311 53.0081 534.812 52.585C534.253 52.0641 533.468 51.8037 532.459 51.8037ZM546.746 60.8955C546.622 60.8955 546.398 60.7523 546.072 60.4658C545.779 60.1989 545.561 59.9613 545.418 59.7529C544.793 60.0915 544.243 60.3454 543.768 60.5146C543.292 60.6904 542.895 60.7783 542.576 60.7783C541.053 60.7783 539.943 60.3486 539.246 59.4893C538.589 58.682 538.26 57.445 538.26 55.7783C538.26 54.2028 538.8 52.8551 539.881 51.7354C540.968 50.6156 542.264 50.0557 543.768 50.0557C544.334 50.0557 544.969 50.2021 545.672 50.4951C546.557 50.8597 547 51.2992 547 51.8135C547 51.9893 546.935 52.1455 546.805 52.2822C546.74 52.5296 546.688 52.9365 546.648 53.5029C546.616 54.0693 546.596 54.7952 546.59 55.6807C546.583 56.488 546.639 57.126 546.756 57.5947C546.821 57.8812 547.026 58.4541 547.371 59.3135C547.417 59.4307 547.492 59.6032 547.596 59.8311L547.654 59.9971C547.654 60.2575 547.563 60.4723 547.381 60.6416C547.199 60.8109 546.987 60.8955 546.746 60.8955ZM544.715 54.1084C544.715 53.8285 544.731 53.5257 544.764 53.2002C544.803 52.8682 544.858 52.5166 544.93 52.1455C544.689 52.0218 544.48 51.9307 544.305 51.8721C544.135 51.8135 543.999 51.7842 543.895 51.7842C542.885 51.7842 542.013 52.1976 541.277 53.0244C540.548 53.8447 540.184 54.792 540.184 55.8662C540.184 56.9339 540.372 57.7347 540.75 58.2686C541.128 58.8024 541.694 59.0693 542.449 59.0693C543.074 59.0693 543.605 58.9554 544.041 58.7275C544.275 58.6038 544.604 58.3564 545.027 57.9854C544.819 56.2601 544.715 54.9678 544.715 54.1084ZM553.855 59.7432C553.836 60.3421 553.54 60.6416 552.967 60.6416C552.492 60.6416 552.146 60.3617 551.932 59.8018L550.438 55.8369L548.699 51.3545C548.634 51.1852 548.602 51.0355 548.602 50.9053C548.602 50.6383 548.702 50.4105 548.904 50.2217C549.106 50.0329 549.34 49.9385 549.607 49.9385C549.998 49.9385 550.278 50.137 550.447 50.5342L552.928 57.3604C553.416 56.3187 554.031 54.8083 554.773 52.8291C554.949 52.3083 555.226 51.5726 555.604 50.6221C555.805 50.2054 556.092 49.9971 556.463 49.9971C556.73 49.9971 556.964 50.0915 557.166 50.2803C557.368 50.4691 557.469 50.6937 557.469 50.9541C557.469 51.2015 556.932 52.5947 555.857 55.1338L553.855 59.7432ZM563.641 60.7002C562.169 60.7002 560.978 60.3324 560.066 59.5967C559.07 58.7829 558.572 57.6436 558.572 56.1787C558.572 54.486 558.982 53.0667 559.803 51.9209C560.695 50.6709 561.886 50.0459 563.377 50.0459C564.458 50.0459 565.34 50.2282 566.023 50.5928C566.863 51.042 567.283 51.7321 567.283 52.6631C567.283 53.3141 566.915 53.9066 566.18 54.4404C565.854 54.6748 565.164 55.0394 564.109 55.5342L560.379 57.3018C560.743 57.8421 561.196 58.249 561.736 58.5225C562.283 58.7959 562.918 58.9326 563.641 58.9326C564.09 58.9326 564.617 58.848 565.223 58.6787C565.991 58.4639 566.486 58.1839 566.707 57.8389C566.928 57.4873 567.166 57.3115 567.42 57.3115C567.648 57.3115 567.85 57.3994 568.025 57.5752C568.208 57.7445 568.299 57.943 568.299 58.1709C568.299 58.8936 567.716 59.5153 566.551 60.0361C565.555 60.4788 564.585 60.7002 563.641 60.7002ZM563.377 51.8037C562.583 51.8037 561.922 52.113 561.395 52.7314C560.867 53.3434 560.473 54.2679 560.213 55.5049L563.211 54.0791C564.389 53.5062 565.229 53.0081 565.73 52.585C565.171 52.0641 564.386 51.8037 563.377 51.8037ZM582.547 51.9307C582.41 51.9307 582.247 51.9242 582.059 51.9111C581.876 51.8981 581.717 51.8916 581.58 51.8916C581.43 51.8916 580.988 51.9404 580.252 52.0381L580.438 57.8096L580.447 58.2393L580.457 58.7373C580.483 60.1631 580.141 60.876 579.432 60.876C579.171 60.876 578.943 60.7913 578.748 60.6221C578.559 60.4528 578.465 60.2412 578.465 59.9873C578.465 59.7399 578.475 59.3688 578.494 58.874C578.514 58.3792 578.523 58.0081 578.523 57.7607L578.328 52.0576C577.853 52.0381 577.13 51.9827 576.16 51.8916C575.581 51.8135 575.291 51.4912 575.291 50.9248C575.291 50.6383 575.379 50.4007 575.555 50.2119C575.73 50.0231 575.955 49.9287 576.229 49.9287L578.279 50.0947C578.279 49.7627 578.263 49.32 578.23 48.7666C578.204 48.2067 578.191 47.8031 578.191 47.5557C578.191 47.2822 578.286 47.0576 578.475 46.8818C578.663 46.6995 578.895 46.6084 579.168 46.6084C579.754 46.6084 580.096 47.0869 580.193 48.0439C580.213 48.2848 580.223 48.5745 580.223 48.9131L580.203 49.4795L580.193 50.085C581.001 49.9808 581.463 49.9287 581.58 49.9287C582.257 49.9287 582.7 49.9613 582.908 50.0264C583.305 50.1566 583.504 50.4626 583.504 50.9443C583.504 51.2308 583.413 51.4684 583.23 51.6572C583.055 51.8395 582.827 51.9307 582.547 51.9307ZM593.621 60.8564C593.159 60.8564 592.856 60.609 592.713 60.1143C592.563 59.5804 592.426 58.8219 592.303 57.8389C592.186 56.8949 592.127 56.1201 592.127 55.5146C592.127 55.3454 592.133 55.0882 592.146 54.7432C592.166 54.3981 592.176 54.141 592.176 53.9717C592.176 52.7477 591.87 52.1357 591.258 52.1357C590.431 52.1357 589.692 52.5101 589.041 53.2588C588.709 53.6429 588.253 54.3753 587.674 55.4561C587.674 57.9365 587.57 59.4046 587.361 59.8604C587.179 60.264 586.896 60.4658 586.512 60.4658C586.245 60.4658 586.01 60.3747 585.809 60.1924C585.607 60.0101 585.506 59.7887 585.506 59.5283C585.506 59.4372 585.535 59.2939 585.594 59.0986C585.646 58.9359 585.682 58.4606 585.701 57.6729L585.73 56.2275L585.76 49.0498C585.805 48.2425 585.828 47.6989 585.828 47.4189C585.828 47.0869 585.796 46.7744 585.73 46.4814C585.672 46.182 585.643 45.8727 585.643 45.5537C585.643 45.2803 585.737 45.0557 585.926 44.8799C586.115 44.6976 586.346 44.6064 586.619 44.6064C587.153 44.6064 587.465 44.8929 587.557 45.4658C587.661 46.0973 587.713 46.667 587.713 47.1748C587.713 47.8584 587.69 48.5713 587.645 49.3135C587.605 50.0231 587.589 50.736 587.596 51.4521L587.605 52.3115C588.139 51.5954 588.709 51.0615 589.314 50.71C589.926 50.3519 590.574 50.1729 591.258 50.1729C592.339 50.1729 593.081 50.5244 593.484 51.2275C593.771 51.7223 593.934 52.5557 593.973 53.7275L594.051 55.5928L594.246 57.624C594.337 58.3857 594.448 59.0563 594.578 59.6357C594.604 59.7464 594.617 59.8408 594.617 59.9189C594.617 60.1859 594.52 60.4072 594.324 60.583C594.129 60.7653 593.895 60.8564 593.621 60.8564ZM598.875 47.8877C598.562 47.8877 598.292 47.777 598.064 47.5557C597.837 47.3343 597.723 47.0674 597.723 46.7549C597.723 46.4424 597.837 46.1755 598.064 45.9541C598.292 45.7327 598.562 45.6221 598.875 45.6221C599.188 45.6221 599.454 45.7327 599.676 45.9541C599.904 46.1755 600.018 46.4424 600.018 46.7549C600.018 47.0674 599.904 47.3343 599.676 47.5557C599.454 47.777 599.188 47.8877 598.875 47.8877ZM599.314 55.8174C599.314 56.208 599.324 56.7939 599.344 57.5752C599.37 58.3499 599.383 58.9326 599.383 59.3232C599.383 59.6097 599.295 59.8441 599.119 60.0264C598.943 60.2087 598.712 60.2998 598.426 60.2998C598.146 60.2998 597.915 60.2087 597.732 60.0264C597.557 59.8441 597.469 59.6097 597.469 59.3232C597.469 58.9326 597.456 58.3499 597.43 57.5752C597.41 56.7939 597.4 56.208 597.4 55.8174C597.4 55.2054 597.433 54.4437 597.498 53.5322C597.563 52.6143 597.596 51.8493 597.596 51.2373C597.596 50.9443 597.684 50.7067 597.859 50.5244C598.042 50.3421 598.273 50.251 598.553 50.251C598.833 50.251 599.061 50.3421 599.236 50.5244C599.419 50.7067 599.51 50.9443 599.51 51.2373C599.51 51.8493 599.477 52.6143 599.412 53.5322C599.347 54.4437 599.314 55.2054 599.314 55.8174ZM609.207 52.7314C608.849 52.7314 608.598 52.611 608.455 52.3701C608.357 52.2008 608.273 51.8493 608.201 51.3154C607.713 51.4391 606.961 51.667 605.945 51.999C604.897 52.4157 604.37 52.93 604.363 53.542C604.559 53.6136 604.751 53.6657 604.939 53.6982C606.437 53.9652 607.55 54.333 608.279 54.8018C609.34 55.4854 609.871 56.4749 609.871 57.7705C609.871 58.8317 609.412 59.6325 608.494 60.1729C607.732 60.6156 606.769 60.8369 605.604 60.8369C604.751 60.8369 603.937 60.6937 603.162 60.4072C602.16 60.0426 601.658 59.5348 601.658 58.8838C601.658 58.6234 601.759 58.3955 601.961 58.2002C602.169 58.0049 602.404 57.9072 602.664 57.9072C602.866 57.9072 603.126 58.0635 603.445 58.376C603.602 58.5257 603.953 58.6494 604.5 58.7471C604.936 58.8252 605.304 58.8643 605.604 58.8643C606.15 58.8643 606.632 58.7992 607.049 58.6689C607.654 58.4801 607.957 58.1807 607.957 57.7705C607.957 56.8851 607.339 56.2861 606.102 55.9736L605.086 55.749C604.22 55.5602 603.605 55.3389 603.24 55.085C602.713 54.7204 602.449 54.1702 602.449 53.4346C602.449 52.0739 603.09 51.1038 604.373 50.5244C604.764 50.3486 605.389 50.1403 606.248 49.8994C607.107 49.652 607.723 49.4437 608.094 49.2744C608.361 49.1572 608.65 49.0986 608.963 49.0986C609.243 49.0986 609.471 49.1898 609.646 49.3721C609.829 49.5544 609.92 49.792 609.92 50.085C609.92 50.2738 609.959 50.5505 610.037 50.915C610.122 51.2796 610.164 51.5563 610.164 51.7451C610.164 52.0381 610.073 52.2757 609.891 52.458C609.715 52.6403 609.487 52.7314 609.207 52.7314ZM622.488 60.5928C621.837 60.5928 621.121 60.4886 620.34 60.2803L620.32 64.9482C620.32 65.2347 620.229 65.4691 620.047 65.6514C619.871 65.8337 619.643 65.9248 619.363 65.9248C619.083 65.9248 618.852 65.8337 618.67 65.6514C618.494 65.4691 618.406 65.2347 618.406 64.9482L618.436 61.042V57.1455C618.416 55.7197 618.367 54.4209 618.289 53.249L618.143 51.2666C618.143 50.8044 618.227 50.4137 618.396 50.0947C618.592 49.7106 618.875 49.5186 619.246 49.5186C619.5 49.5186 619.712 49.6097 619.881 49.792C620.057 49.9678 620.145 50.1859 620.145 50.4463C620.145 50.5049 620.135 50.6123 620.115 50.7686C620.083 50.9704 620.06 51.1559 620.047 51.3252C620.607 50.9411 621.147 50.6546 621.668 50.4658C622.189 50.2705 622.687 50.1729 623.162 50.1729C624.497 50.1729 625.473 50.7653 626.092 51.9502C626.58 52.8877 626.824 54.1279 626.824 55.6709C626.824 57.0771 626.447 58.236 625.691 59.1475C624.891 60.111 623.823 60.5928 622.488 60.5928ZM623.162 52.126C622.563 52.126 622.023 52.2594 621.541 52.5264C621.196 52.7152 620.76 53.0602 620.232 53.5615C620.317 55.0394 620.359 56.5921 620.359 58.2197C621.069 58.4932 621.779 58.6299 622.488 58.6299C623.302 58.6299 623.924 58.3271 624.354 57.7217C624.725 57.1943 624.91 56.5107 624.91 55.6709C624.91 54.486 624.764 53.6006 624.471 53.0146C624.184 52.4222 623.748 52.126 623.162 52.126ZM631.521 52.5752L631.375 57.4287C631.375 57.943 631.349 58.6982 631.297 59.6943C631.232 60.3454 630.913 60.6709 630.34 60.6709C629.702 60.6709 629.383 60.3389 629.383 59.6748C629.383 58.887 629.419 57.7054 629.49 56.1299C629.562 54.5479 629.598 53.363 629.598 52.5752C629.598 51.5465 629.614 50.3714 629.646 49.0498C629.679 47.7217 629.695 46.5433 629.695 45.5146C629.695 44.8636 630.014 44.5381 630.652 44.5381C631.297 44.5381 631.619 44.8636 631.619 45.5146C631.619 46.5433 631.603 47.7217 631.57 49.0498C631.538 50.3714 631.521 51.5465 631.521 52.5752ZM642.156 60.8955C642.033 60.8955 641.808 60.7523 641.482 60.4658C641.189 60.1989 640.971 59.9613 640.828 59.7529C640.203 60.0915 639.653 60.3454 639.178 60.5146C638.702 60.6904 638.305 60.7783 637.986 60.7783C636.463 60.7783 635.353 60.3486 634.656 59.4893C633.999 58.682 633.67 57.445 633.67 55.7783C633.67 54.2028 634.21 52.8551 635.291 51.7354C636.378 50.6156 637.674 50.0557 639.178 50.0557C639.744 50.0557 640.379 50.2021 641.082 50.4951C641.967 50.8597 642.41 51.2992 642.41 51.8135C642.41 51.9893 642.345 52.1455 642.215 52.2822C642.15 52.5296 642.098 52.9365 642.059 53.5029C642.026 54.0693 642.007 54.7952 642 55.6807C641.993 56.488 642.049 57.126 642.166 57.5947C642.231 57.8812 642.436 58.4541 642.781 59.3135C642.827 59.4307 642.902 59.6032 643.006 59.8311L643.064 59.9971C643.064 60.2575 642.973 60.4723 642.791 60.6416C642.609 60.8109 642.397 60.8955 642.156 60.8955ZM640.125 54.1084C640.125 53.8285 640.141 53.5257 640.174 53.2002C640.213 52.8682 640.268 52.5166 640.34 52.1455C640.099 52.0218 639.891 51.9307 639.715 51.8721C639.546 51.8135 639.409 51.7842 639.305 51.7842C638.296 51.7842 637.423 52.1976 636.688 53.0244C635.958 53.8447 635.594 54.792 635.594 55.8662C635.594 56.9339 635.783 57.7347 636.16 58.2686C636.538 58.8024 637.104 59.0693 637.859 59.0693C638.484 59.0693 639.015 58.9554 639.451 58.7275C639.686 58.6038 640.014 58.3564 640.438 57.9854C640.229 56.2601 640.125 54.9678 640.125 54.1084ZM649.178 60.8662C647.843 60.8662 646.73 60.4626 645.838 59.6553C644.9 58.8089 644.432 57.6924 644.432 56.3057C644.432 54.984 644.871 53.6201 645.75 52.2139C646.727 50.6514 647.827 49.8701 649.051 49.8701C649.689 49.8701 650.402 50.0199 651.189 50.3193C652.186 50.7035 652.684 51.1722 652.684 51.7256C652.684 51.973 652.602 52.1943 652.439 52.3896C652.277 52.5785 652.075 52.6729 651.834 52.6729C651.645 52.6729 651.479 52.6175 651.336 52.5068C651.199 52.3896 651.066 52.2757 650.936 52.165C650.551 51.859 649.923 51.7061 649.051 51.7061C648.387 51.7061 647.729 52.2985 647.078 53.4834C646.486 54.5706 646.189 55.5114 646.189 56.3057C646.189 57.165 646.482 57.8421 647.068 58.3369C647.615 58.7992 648.318 59.0303 649.178 59.0303C649.568 59.0303 649.985 58.9261 650.428 58.7178L651.561 58.1123C651.756 58.0081 651.896 57.9561 651.98 57.9561C652.221 57.9561 652.43 58.0537 652.605 58.249C652.781 58.4378 652.869 58.6559 652.869 58.9033C652.869 59.3786 652.368 59.8376 651.365 60.2803C650.486 60.6709 649.757 60.8662 649.178 60.8662ZM659.598 60.7002C658.126 60.7002 656.935 60.3324 656.023 59.5967C655.027 58.7829 654.529 57.6436 654.529 56.1787C654.529 54.486 654.939 53.0667 655.76 51.9209C656.652 50.6709 657.843 50.0459 659.334 50.0459C660.415 50.0459 661.297 50.2282 661.98 50.5928C662.82 51.042 663.24 51.7321 663.24 52.6631C663.24 53.3141 662.872 53.9066 662.137 54.4404C661.811 54.6748 661.121 55.0394 660.066 55.5342L656.336 57.3018C656.701 57.8421 657.153 58.249 657.693 58.5225C658.24 58.7959 658.875 58.9326 659.598 58.9326C660.047 58.9326 660.574 58.848 661.18 58.6787C661.948 58.4639 662.443 58.1839 662.664 57.8389C662.885 57.4873 663.123 57.3115 663.377 57.3115C663.605 57.3115 663.807 57.3994 663.982 57.5752C664.165 57.7445 664.256 57.943 664.256 58.1709C664.256 58.8936 663.673 59.5153 662.508 60.0361C661.512 60.4788 660.542 60.7002 659.598 60.7002ZM659.334 51.8037C658.54 51.8037 657.879 52.113 657.352 52.7314C656.824 53.3434 656.43 54.2679 656.17 55.5049L659.168 54.0791C660.346 53.5062 661.186 53.0081 661.688 52.585C661.128 52.0641 660.343 51.8037 659.334 51.8037Z" fill="#353535"/>
<rect x="27.9245" y="0.426008" width="49.0113" height="29.5796" fill="#8D211A"/>
<rect x="27.9245" y="0.426008" width="49.0113" height="29.5796" stroke="black" stroke-width="0.852016"/>
<path d="M45.6151 12.359C45.3986 12.8047 44.9636 13.7682 44.3099 15.2496C43.7666 16.489 43.3039 17.461 42.9219 18.1657C42.2597 19.3881 41.9053 20.0354 41.8586 20.1076C41.6082 20.4769 41.3195 20.6615 40.9927 20.6615C40.7592 20.6615 40.5534 20.5851 40.3751 20.4323C40.1798 20.2625 40.0822 20.0524 40.0822 19.802C40.0822 19.594 40.5258 18.7196 41.4129 17.1788C41.0861 16.7076 40.617 15.9924 40.0058 15.0331C39.5474 14.3285 38.8746 13.2652 37.9875 11.8433C37.9026 11.6989 37.8601 11.5483 37.8601 11.3912C37.8601 11.145 37.9556 10.937 38.1467 10.7672C38.3249 10.6102 38.5329 10.5317 38.7706 10.5317C39.0508 10.5317 39.3054 10.6739 39.5347 10.9582L40.0122 11.7223C40.0419 11.7732 40.4069 12.3929 41.1073 13.5814C41.5487 14.3412 41.9392 14.9418 42.2788 15.3833C42.6014 14.7339 43.0662 13.7512 43.6732 12.4354C43.8005 12.1425 43.9915 11.6989 44.2462 11.1047C44.4075 10.7227 44.6834 10.5317 45.0739 10.5317C45.3074 10.5317 45.5132 10.6081 45.6915 10.7609C45.8868 10.9264 45.9844 11.1344 45.9844 11.3848C45.9844 11.5292 45.8613 11.8539 45.6151 12.359ZM51.2244 20.6042C49.968 20.6042 48.8983 20.2434 48.0155 19.5218C47.0731 18.7493 46.602 17.7497 46.602 16.523C46.602 15.0798 47.054 13.764 47.9582 12.5755C48.9726 11.2384 50.2503 10.5699 51.7911 10.5699C53.2724 10.5699 54.3824 10.9094 55.121 11.5886C55.8596 12.2677 56.2288 13.2886 56.2288 14.6511C56.2288 16.0943 55.8129 17.4016 54.9809 18.5731C54.0216 19.9272 52.7695 20.6042 51.2244 20.6042ZM51.7911 12.2953C50.8445 12.2953 50.0338 12.7537 49.3589 13.6706C48.7264 14.528 48.4102 15.4788 48.4102 16.523C48.4102 17.2276 48.684 17.8006 49.2315 18.2421C49.7579 18.6665 50.4222 18.8788 51.2244 18.8788C52.1582 18.8788 52.9371 18.4203 53.5611 17.5035C54.1341 16.6673 54.4206 15.7165 54.4206 14.6511C54.4206 13.7597 54.2211 13.14 53.8221 12.7919C53.4401 12.4609 52.7631 12.2953 51.7911 12.2953ZM63.9838 19.1143C63.674 19.5346 63.3004 19.8847 62.8632 20.1649C62.3284 20.5045 61.7787 20.6742 61.2142 20.6742C60.1318 20.6742 59.3274 20.4663 58.8011 20.0503C57.689 19.1716 57.133 17.6457 57.133 15.4724C57.133 15.2644 57.1436 14.9546 57.1648 14.5429C57.186 14.1311 57.1966 13.8213 57.1966 13.6133C57.1966 13.4477 57.2009 13.2015 57.2094 12.8747C57.2178 12.5436 57.2221 12.2953 57.2221 12.1298C57.2221 11.7902 57.2836 11.4697 57.4067 11.1684C57.5723 10.7694 57.8036 10.5699 58.1007 10.5699C58.3342 10.5699 58.5401 10.6463 58.7183 10.7991C58.9136 10.9604 59.0112 11.1684 59.0112 11.423C59.0112 11.665 59.007 12.0321 58.9985 12.5245C58.9942 13.0127 58.9921 13.3798 58.9921 13.626C58.9921 13.8298 58.9815 14.1375 58.9603 14.5492C58.939 14.9609 58.9284 15.2687 58.9284 15.4724C58.9284 16.1303 59.0048 16.7416 59.1576 17.3061C59.3359 17.981 59.597 18.4522 59.9408 18.7196C60.1191 18.8597 60.5435 18.9339 61.2142 18.9424C62.3348 18.9594 63.0903 18.0044 63.4808 16.0773C63.6846 15.0798 63.7864 13.6791 63.7864 11.8751C63.7864 11.6374 63.8565 11.4082 63.9965 11.1875C64.1876 10.8946 64.4592 10.7481 64.8115 10.7481C65.1002 10.7481 65.3166 10.8543 65.4609 11.0665C65.5713 11.2235 65.6265 11.3976 65.6265 11.5886C65.6265 13.2652 65.548 14.5726 65.3909 15.5106C65.1532 16.9581 64.6842 18.1593 63.9838 19.1143Z" fill="white"/>
</svg>
