<svg width="624" height="63" viewBox="0 0 624 63" fill="none" xmlns="http://www.w3.org/2000/svg">
<g filter="url(#filter0_bd_578_24)">
<rect width="618.4" height="55.2" fill="#FFF16F" shape-rendering="crispEdges"/>
<rect x="0.6" y="0.6" width="617.2" height="54" stroke="black" stroke-width="1.2" shape-rendering="crispEdges"/>
<path d="M28.4111 38.3148C26.0986 38.3148 24.1299 37.6508 22.5049 36.3226C20.7705 34.9008 19.9033 33.0609 19.9033 30.8031C19.9033 28.1469 20.7354 25.725 22.3994 23.5375C24.2666 21.0765 26.6182 19.8461 29.4541 19.8461C32.1807 19.8461 34.2236 20.4711 35.583 21.7211C36.9424 22.9711 37.6221 24.85 37.6221 27.3578C37.6221 30.014 36.8564 32.4203 35.3252 34.5765C33.5596 37.0687 31.2549 38.3148 28.4111 38.3148ZM29.4541 23.0219C27.7119 23.0219 26.2197 23.8656 24.9775 25.5531C23.8135 27.1312 23.2314 28.8812 23.2314 30.8031C23.2314 32.1 23.7354 33.1547 24.7432 33.9672C25.7119 34.7484 26.9346 35.139 28.4111 35.139C30.1299 35.139 31.5635 34.2953 32.7119 32.6078C33.7666 31.0687 34.2939 29.3187 34.2939 27.3578C34.2939 25.7172 33.9268 24.5765 33.1924 23.9359C32.4893 23.3265 31.2432 23.0219 29.4541 23.0219ZM48.7314 37.1429C46.9111 37.8226 44.6104 38.1625 41.8291 38.1625C41.3604 38.1625 40.9385 37.9672 40.5635 37.5765C40.1963 37.1859 40.0127 36.7679 40.0127 36.3226V23.9008C39.9893 23.3695 39.9697 22.8383 39.9541 22.307C39.9307 21.7054 39.9502 21.1976 40.0127 20.7836C40.1221 20.0492 40.8057 19.6039 42.0635 19.4476C42.6572 19.2758 43.6416 19.1898 45.0166 19.1898C46.4932 19.1898 47.9072 19.6664 49.2588 20.6195C50.8447 21.7289 51.6377 23.1156 51.6377 24.7797C51.6377 25.6781 51.4736 26.4359 51.1455 27.0531C50.8877 27.5531 50.4385 28.0883 49.7979 28.6586C50.5557 29.0258 51.2275 29.5804 51.8135 30.3226C52.4775 31.1508 52.8096 31.975 52.8096 32.7953C52.8096 33.8344 52.2432 34.8187 51.1104 35.7484C50.3525 36.3656 49.5596 36.8304 48.7314 37.1429ZM45.0166 22.3656C44.0088 22.3656 43.4033 22.3734 43.2002 22.389L43.2119 24.8734L43.2002 27.3344C43.9111 27.4203 44.4463 27.4476 44.8057 27.4164C47.1963 27.2289 48.3916 26.35 48.3916 24.7797C48.3916 24.225 48.04 23.6898 47.3369 23.1742C46.6104 22.6351 45.8369 22.3656 45.0166 22.3656ZM46.3877 30.6508C45.6768 30.6508 44.6143 30.6234 43.2002 30.5687V34.9515C44.5439 34.8812 46.001 34.6234 47.5713 34.1781C48.9463 33.7875 49.626 33.3656 49.6104 32.9125C49.5869 32.3109 49.1455 31.7758 48.2861 31.307C47.6143 30.932 46.9814 30.7133 46.3877 30.6508ZM67.54 23.2094C67.3994 23.2094 67.1768 23.1976 66.8721 23.1742C66.5674 23.1429 66.3213 23.1273 66.1338 23.1273H65.2197C65.2119 22.9945 65.208 23.2719 65.208 23.9594C65.208 29.5531 64.8135 33.6273 64.0244 36.182C63.4463 38.0648 62.3955 39.0062 60.8721 39.0062C59.4189 39.0062 57.9814 38.5062 56.5596 37.5062C54.9502 36.389 54.1455 35.0765 54.1455 33.5687C54.1455 32.35 54.6963 31.7406 55.7979 31.7406C56.8994 31.7406 57.4502 32.3422 57.4502 33.5453C57.4502 34.0062 57.8447 34.5023 58.6338 35.0336C59.4307 35.557 60.1768 35.8187 60.8721 35.8187C61.1533 35.8187 61.3564 35.2992 61.4814 34.2601C61.5127 34.0101 61.5986 32.7953 61.7393 30.6156C61.8564 28.8344 61.915 26.6156 61.915 23.9594C61.915 23.85 61.9033 23.5961 61.8799 23.1976L61.6104 23.2094C61.2666 23.225 60.8057 23.2211 60.2275 23.1976C59.5322 23.1664 59.0713 23.1508 58.8447 23.1508C58.3838 23.1508 57.9932 23.0101 57.6729 22.7289C57.3291 22.4242 57.1572 22.0297 57.1572 21.5453C57.1572 20.4828 57.8564 19.9515 59.2549 19.9515C59.5205 19.9515 59.915 19.9633 60.4385 19.9867C60.9619 20.0023 61.3525 20.0101 61.6104 20.0101C62.1025 20.0101 62.8369 19.9828 63.8135 19.9281C64.7979 19.8734 65.5361 19.8461 66.0283 19.8461C68.1221 19.8461 69.1689 20.4281 69.1689 21.5922C69.1689 21.9984 69.0283 22.3617 68.7471 22.682C68.4268 23.0336 68.0244 23.2094 67.54 23.2094ZM82.4697 22.5765C82.3135 22.5765 82.1494 22.5531 81.9775 22.5062C80.7119 22.1625 79.4814 21.9906 78.2861 21.9906C77.7002 21.9906 77.0713 22.0375 76.3994 22.1312C75.7275 22.225 75.0127 22.3656 74.2549 22.5531C74.2549 23.5922 74.2197 25.1351 74.1494 27.182C74.5869 27.1508 76.1143 27.0062 78.7314 26.7484C80.2236 26.6 81.1689 26.5258 81.5674 26.5258C82.0283 26.5258 82.4229 26.6742 82.751 26.9711C83.0791 27.2601 83.2432 27.6469 83.2432 28.1312C83.2432 29.0609 82.7471 29.5883 81.7549 29.7133C81.1299 29.7601 80.1963 29.8383 78.9541 29.9476C77.8447 30.0726 76.1729 30.225 73.9385 30.4047C73.8838 31.3969 73.8564 32.1976 73.8564 32.807C73.8564 34.3383 73.9463 35.2094 74.126 35.4203C74.2119 35.5219 74.7041 35.5726 75.6025 35.5726C76.0869 35.5726 76.8174 35.5609 77.7939 35.5375C78.7705 35.514 79.501 35.5023 79.9854 35.5023C80.1416 35.5023 80.3721 35.4789 80.6768 35.432C80.9814 35.3851 81.208 35.3617 81.3564 35.3617C81.8096 35.3617 82.1963 35.4906 82.5166 35.7484C82.8838 36.0375 83.0674 36.4437 83.0674 36.9672C83.0674 37.8422 82.6104 38.3656 81.6963 38.5375C80.915 38.6859 79.2939 38.7601 76.833 38.7601C74.2861 38.7601 72.626 38.4164 71.8525 37.7289C71.001 36.9711 70.5752 35.3304 70.5752 32.807C70.5752 31.7601 70.6494 30.1898 70.7979 28.0961C70.9541 25.9945 71.0322 24.4242 71.0322 23.3851C71.0322 23.1117 70.9932 22.7094 70.915 22.1781C70.8369 21.639 70.7979 21.2328 70.7979 20.9594C70.7979 19.7719 71.3447 19.1781 72.4385 19.1781C72.7822 19.1781 73.0986 19.2758 73.3877 19.4711C74.2939 19.2445 75.1533 19.0765 75.9658 18.9672C76.7861 18.85 77.5596 18.7914 78.2861 18.7914C80.2549 18.7914 81.8291 19.0179 83.0088 19.4711C83.7275 19.7445 84.0869 20.2406 84.0869 20.9594C84.0869 21.3656 83.9463 21.725 83.665 22.0375C83.3525 22.3969 82.9541 22.5765 82.4697 22.5765ZM97.4111 25.1195C96.708 25.1195 96.1885 24.7484 95.8525 24.0062C95.6963 23.6547 95.54 23.4437 95.3838 23.3734C95.2666 23.3187 94.958 23.2914 94.458 23.2914C93.4736 23.2914 92.3369 24.057 91.0479 25.5883C89.2432 27.7289 88.3408 29.7328 88.3408 31.6C88.3408 32.4515 88.626 33.182 89.1963 33.7914C89.7666 34.4008 90.4502 34.7054 91.2471 34.7054C92.0205 34.7054 92.8057 34.5023 93.6025 34.0961C93.8838 33.9476 94.4775 33.5648 95.3838 32.9476C95.9932 32.5414 96.4541 32.3383 96.7666 32.3383C97.2354 32.3383 97.6338 32.5101 97.9619 32.8539C98.2666 33.1742 98.4189 33.5414 98.4189 33.9554C98.4189 34.4164 98.2158 34.8187 97.8096 35.1625C95.6611 36.975 93.4736 37.8812 91.2471 37.8812C89.4893 37.8812 88.0049 37.2406 86.7939 35.9594C85.6377 34.725 85.0596 33.2719 85.0596 31.6C85.0596 28.9828 86.2041 26.3109 88.4932 23.5844C90.4385 21.2719 92.4268 20.1156 94.458 20.1156C94.8018 20.1156 95.1104 20.1273 95.3838 20.1508C95.665 20.1742 95.9111 20.2094 96.1221 20.2562C96.4658 19.9203 96.8799 19.7523 97.3643 19.7523C98.1611 19.7523 98.6533 20.2094 98.8408 21.1234C98.9736 21.7797 99.04 22.5453 99.04 23.4203C99.04 23.8109 98.9268 24.1664 98.7002 24.4867C98.4033 24.9086 97.9736 25.1195 97.4111 25.1195ZM114.521 23.5492C113.911 23.5492 112.962 23.5062 111.673 23.4203C110.431 23.3344 109.481 23.2953 108.825 23.3031C108.856 24.1937 108.962 25.7797 109.142 28.0609C109.306 30.0765 109.388 31.6703 109.388 32.8422C109.388 33.1078 109.415 33.5023 109.47 34.0258C109.524 34.5492 109.552 34.9437 109.552 35.2094C109.552 35.7953 109.427 36.3226 109.177 36.7914C108.856 37.3929 108.399 37.6937 107.806 37.6937C107.376 37.6937 106.997 37.557 106.669 37.2836C106.302 36.9789 106.118 36.5961 106.118 36.1351C106.118 36.0258 106.138 35.8617 106.177 35.6429C106.216 35.4164 106.235 35.2445 106.235 35.1273C106.235 34.7679 106.208 34.225 106.153 33.4984C106.106 32.7719 106.083 32.225 106.083 31.8578C106.083 30.8109 106.001 29.3929 105.837 27.6039C105.649 25.5492 105.54 24.1312 105.509 23.35H104.899C103.157 23.35 101.774 23.225 100.751 22.975C99.8838 22.764 99.4502 22.2523 99.4502 21.4398C99.4502 21.0414 99.5908 20.682 99.8721 20.3617C100.2 19.9789 100.63 19.807 101.161 19.8461C101.435 19.8617 102.056 19.9281 103.024 20.0453C103.798 20.1312 104.423 20.1742 104.899 20.1742C105.376 20.1742 106.087 20.1664 107.032 20.1508C107.985 20.1351 108.7 20.1273 109.177 20.1273C109.771 20.1273 110.661 20.1703 111.849 20.2562C113.036 20.3344 113.927 20.3734 114.521 20.3734C114.989 20.3734 115.38 20.5258 115.692 20.8304C116.013 21.1351 116.173 21.5101 116.173 21.9554C116.173 22.4008 116.013 22.7797 115.692 23.0922C115.38 23.3969 114.989 23.5492 114.521 23.5492ZM127.259 23.7484C126.853 23.7484 125.739 23.639 123.919 23.4203C123.81 24.8578 123.755 26.7679 123.755 29.1508L123.743 34.4125C124.782 34.389 125.841 34.3773 126.919 34.3773C127.388 34.3773 127.774 34.5336 128.079 34.8461C128.392 35.1586 128.548 35.5336 128.548 35.9711C128.548 36.4086 128.392 36.7836 128.079 37.0961C127.774 37.4008 127.388 37.5531 126.919 37.5531C126.481 37.5531 125.825 37.5648 124.95 37.5883C124.075 37.6039 123.419 37.6117 122.981 37.6117C122.466 37.6117 121.692 37.6781 120.661 37.8109C119.63 37.9515 118.856 38.0219 118.341 38.0219C117.872 38.0219 117.481 37.8695 117.169 37.5648C116.864 37.2523 116.712 36.8773 116.712 36.4398C116.712 36.0023 116.864 35.6273 117.169 35.3148C117.481 35.0023 117.872 34.8461 118.341 34.8461C118.872 34.8461 119.571 34.7875 120.438 34.6703C120.423 33.7484 120.415 31.9828 120.415 29.3734C120.415 27.2484 120.493 25.2211 120.649 23.2914L118.106 23.3617C117.638 23.3617 117.243 23.2094 116.923 22.9047C116.61 22.6 116.454 22.2211 116.454 21.7679C116.454 21.307 116.61 20.932 116.923 20.6429C117.212 20.3773 117.567 20.225 117.989 20.1859C118.677 20.1234 119.872 20.0922 121.575 20.0922C123.106 20.0922 125.079 20.2562 127.493 20.5844C128.454 20.7172 128.935 21.2562 128.935 22.2015C128.935 22.7015 128.739 23.0961 128.349 23.3851C128.028 23.6273 127.665 23.7484 127.259 23.7484ZM136.599 32.6781C137.778 29.7094 138.692 27.3461 139.341 25.5883C139.685 24.6586 140.024 23.725 140.36 22.7875C140.821 21.6781 141.317 20.8226 141.849 20.2211C142.2 19.8226 142.622 19.6234 143.114 19.6234C143.56 19.6234 143.95 19.7797 144.286 20.0922C144.622 20.3969 144.79 20.7719 144.79 21.2172C144.79 21.5297 144.685 21.8383 144.474 22.1429C144.052 22.7523 143.665 23.4867 143.313 24.3461C143.298 24.3773 143.009 25.1508 142.446 26.6664C141.743 28.4711 140.696 31.1781 139.306 34.7875C138.946 35.7328 138.505 36.6781 137.981 37.6234C137.646 38.2328 137.157 38.5375 136.517 38.5375C135.704 38.5375 135.138 38.1547 134.817 37.389C133.864 35.1156 132.806 31.8383 131.642 27.557C131.321 26.5023 130.997 25.4476 130.669 24.3929C130.231 22.9242 130.013 21.9047 130.013 21.3344C130.013 20.8734 130.185 20.4906 130.528 20.1859C130.856 19.9047 131.239 19.764 131.677 19.764C132.427 19.764 132.95 20.1547 133.247 20.9359C133.403 21.6156 133.56 22.2914 133.716 22.9633C133.974 23.807 134.345 25.0726 134.829 26.7601C135.438 28.9945 136.028 30.9672 136.599 32.6781ZM158.36 22.5765C158.204 22.5765 158.04 22.5531 157.868 22.5062C156.603 22.1625 155.372 21.9906 154.177 21.9906C153.591 21.9906 152.962 22.0375 152.29 22.1312C151.618 22.225 150.903 22.3656 150.146 22.5531C150.146 23.5922 150.11 25.1351 150.04 27.182C150.478 27.1508 152.005 27.0062 154.622 26.7484C156.114 26.6 157.06 26.5258 157.458 26.5258C157.919 26.5258 158.313 26.6742 158.642 26.9711C158.97 27.2601 159.134 27.6469 159.134 28.1312C159.134 29.0609 158.638 29.5883 157.646 29.7133C157.021 29.7601 156.087 29.8383 154.845 29.9476C153.735 30.0726 152.063 30.225 149.829 30.4047C149.774 31.3969 149.747 32.1976 149.747 32.807C149.747 34.3383 149.837 35.2094 150.017 35.4203C150.103 35.5219 150.595 35.5726 151.493 35.5726C151.978 35.5726 152.708 35.5609 153.685 35.5375C154.661 35.514 155.392 35.5023 155.876 35.5023C156.032 35.5023 156.263 35.4789 156.567 35.432C156.872 35.3851 157.099 35.3617 157.247 35.3617C157.7 35.3617 158.087 35.4906 158.407 35.7484C158.774 36.0375 158.958 36.4437 158.958 36.9672C158.958 37.8422 158.501 38.3656 157.587 38.5375C156.806 38.6859 155.185 38.7601 152.724 38.7601C150.177 38.7601 148.517 38.4164 147.743 37.7289C146.892 36.9711 146.466 35.3304 146.466 32.807C146.466 31.7601 146.54 30.1898 146.688 28.0961C146.845 25.9945 146.923 24.4242 146.923 23.3851C146.923 23.1117 146.884 22.7094 146.806 22.1781C146.728 21.639 146.688 21.2328 146.688 20.9594C146.688 19.7719 147.235 19.1781 148.329 19.1781C148.673 19.1781 148.989 19.2758 149.278 19.4711C150.185 19.2445 151.044 19.0765 151.856 18.9672C152.677 18.85 153.45 18.7914 154.177 18.7914C156.146 18.7914 157.72 19.0179 158.899 19.4711C159.618 19.7445 159.978 20.2406 159.978 20.9594C159.978 21.3656 159.837 21.725 159.556 22.0375C159.243 22.3969 158.845 22.5765 158.36 22.5765ZM165.685 28.225C165.2 28.225 164.798 28.0804 164.478 27.7914C164.165 27.5023 164.009 27.1351 164.009 26.6898C164.009 26.6039 163.989 26.4711 163.95 26.2914C163.919 26.1117 163.903 25.975 163.903 25.8812C163.903 25.4437 164.067 25.0844 164.396 24.8031C164.731 24.514 165.13 24.3695 165.591 24.3695C166.763 24.3695 167.349 25.1429 167.349 26.6898C167.349 27.1351 167.188 27.5023 166.868 27.7914C166.556 28.0804 166.161 28.225 165.685 28.225ZM165.872 36.1586C164.661 36.1586 164.056 35.2445 164.056 33.4164C164.056 32.9789 164.231 32.6117 164.583 32.3148C164.919 32.0414 165.313 31.9047 165.767 31.9047C166.954 31.9047 167.548 32.807 167.548 34.6117C167.548 35.057 167.388 35.4281 167.067 35.725C166.747 36.014 166.349 36.1586 165.872 36.1586ZM194.173 22.5765C194.017 22.5765 193.853 22.5531 193.681 22.5062C192.415 22.1625 191.185 21.9906 189.989 21.9906C189.403 21.9906 188.774 22.0375 188.103 22.1312C187.431 22.225 186.716 22.3656 185.958 22.5531C185.958 23.5922 185.923 25.1351 185.853 27.182C186.29 27.1508 187.817 27.0062 190.435 26.7484C191.927 26.6 192.872 26.5258 193.271 26.5258C193.731 26.5258 194.126 26.6742 194.454 26.9711C194.782 27.2601 194.946 27.6469 194.946 28.1312C194.946 29.0609 194.45 29.5883 193.458 29.7133C192.833 29.7601 191.899 29.8383 190.657 29.9476C189.548 30.0726 187.876 30.225 185.642 30.4047C185.587 31.3969 185.56 32.1976 185.56 32.807C185.56 34.3383 185.649 35.2094 185.829 35.4203C185.915 35.5219 186.407 35.5726 187.306 35.5726C187.79 35.5726 188.521 35.5609 189.497 35.5375C190.474 35.514 191.204 35.5023 191.688 35.5023C191.845 35.5023 192.075 35.4789 192.38 35.432C192.685 35.3851 192.911 35.3617 193.06 35.3617C193.513 35.3617 193.899 35.4906 194.22 35.7484C194.587 36.0375 194.771 36.4437 194.771 36.9672C194.771 37.8422 194.313 38.3656 193.399 38.5375C192.618 38.6859 190.997 38.7601 188.536 38.7601C185.989 38.7601 184.329 38.4164 183.556 37.7289C182.704 36.9711 182.278 35.3304 182.278 32.807C182.278 31.7601 182.353 30.1898 182.501 28.0961C182.657 25.9945 182.735 24.4242 182.735 23.3851C182.735 23.1117 182.696 22.7094 182.618 22.1781C182.54 21.639 182.501 21.2328 182.501 20.9594C182.501 19.7719 183.048 19.1781 184.142 19.1781C184.485 19.1781 184.802 19.2758 185.091 19.4711C185.997 19.2445 186.856 19.0765 187.669 18.9672C188.489 18.85 189.263 18.7914 189.989 18.7914C191.958 18.7914 193.532 19.0179 194.712 19.4711C195.431 19.7445 195.79 20.2406 195.79 20.9594C195.79 21.3656 195.649 21.725 195.368 22.0375C195.056 22.3969 194.657 22.5765 194.173 22.5765ZM212.501 22.4242C211.47 23.6039 210.673 24.5883 210.11 25.3773C209.517 26.2445 208.563 27.5062 207.251 29.1625C208.071 30.3031 208.892 31.4476 209.712 32.5961C210.681 33.932 211.552 35.0375 212.325 35.9125C212.614 36.2406 212.759 36.5922 212.759 36.9672C212.759 37.4047 212.591 37.7836 212.255 38.1039C211.927 38.4242 211.536 38.5844 211.083 38.5844C210.31 38.5844 209.298 37.6937 208.048 35.9125C207.712 35.3969 207.192 34.6312 206.489 33.6156C206.161 33.1625 205.665 32.4867 205.001 31.5883C204.04 32.6742 202.821 34.0101 201.345 35.5961C200.876 36.1273 200.153 36.9008 199.177 37.9164C198.833 38.2445 198.438 38.4086 197.993 38.4086C197.54 38.4086 197.146 38.2484 196.81 37.9281C196.474 37.6156 196.306 37.2406 196.306 36.8031C196.306 36.4281 196.442 36.0844 196.716 35.7719C197.192 35.2719 197.903 34.5179 198.849 33.5101C199.88 32.4008 201.259 30.8773 202.985 28.9398C202.196 27.9398 201.364 26.9398 200.489 25.9398C200.419 25.8617 199.974 25.2914 199.153 24.2289C198.614 23.5336 198.118 23.0101 197.665 22.6586C197.22 22.2992 196.997 21.8773 196.997 21.3929C196.997 20.9789 197.153 20.6078 197.466 20.2797C197.786 19.9437 198.185 19.7758 198.661 19.7758C199.083 19.7758 199.638 20.0726 200.325 20.6664C200.825 21.1039 201.239 21.5453 201.567 21.9906C201.896 22.4281 202.384 23.0609 203.032 23.889C203.782 24.7406 204.505 25.6039 205.2 26.4789C206.185 25.182 207.165 23.8851 208.142 22.5883C209.657 20.7133 210.692 19.7758 211.247 19.7758C211.7 19.7758 212.095 19.9359 212.431 20.2562C212.767 20.5687 212.935 20.9437 212.935 21.3812C212.935 21.7484 212.79 22.0961 212.501 22.4242ZM218.384 31.0609C218.251 31.0609 217.923 31.0336 217.399 30.9789C217.353 32.0726 217.329 33.8695 217.329 36.3695C217.329 36.7836 217.185 37.139 216.896 37.4359C216.606 37.7328 216.239 37.8812 215.794 37.8812C215.349 37.8812 214.978 37.7328 214.681 37.4359C214.392 37.139 214.247 36.7836 214.247 36.3695V33.1C214.247 31.889 214.325 30.0961 214.481 27.7211C214.63 25.307 214.708 23.5062 214.716 22.3187C214.724 20.2875 215.294 19.3148 216.427 19.4008C216.692 19.3304 217.06 19.2797 217.528 19.2484C217.997 19.2094 218.567 19.1898 219.239 19.1898C220.771 19.1898 222.208 19.6859 223.552 20.6781C225.044 21.7875 225.79 23.139 225.79 24.7328C225.79 26.7328 224.997 28.3226 223.411 29.5023C222.005 30.5414 220.329 31.0609 218.384 31.0609ZM218.97 22.2133C218.72 22.2133 218.497 22.2172 218.302 22.225C218.114 22.225 217.954 22.2328 217.821 22.2484C217.821 22.6156 217.817 23.1664 217.81 23.9008C217.794 24.7679 217.72 26.1195 217.587 27.9554C217.985 28.0179 218.251 28.0492 218.384 28.0492C219.603 28.0492 220.614 27.7601 221.419 27.182C222.278 26.5648 222.708 25.7484 222.708 24.7328C222.708 24.0687 222.306 23.4789 221.501 22.9633C220.728 22.4633 219.884 22.2133 218.97 22.2133ZM238.552 37.1547C237.63 37.5609 236.204 37.9242 234.274 38.2445C232.509 38.5414 231.06 38.6898 229.927 38.6898C228.013 38.6898 227.056 37.85 227.056 36.1703C227.056 36.3031 227.134 35.0648 227.29 32.4554C227.493 29.0648 227.595 25.2914 227.595 21.1351C227.595 20.6898 227.747 20.3109 228.052 19.9984C228.364 19.6859 228.755 19.5297 229.224 19.5297C229.692 19.5297 230.083 19.6859 230.396 19.9984C230.708 20.3109 230.864 20.6898 230.864 21.1351C230.864 25.2992 230.759 29.1351 230.548 32.6429C230.478 33.2679 230.403 34.225 230.325 35.514C232.177 35.4828 234.552 35.0297 237.45 34.1547C237.63 34.1 237.802 34.0726 237.966 34.0726C238.458 34.0726 238.856 34.2523 239.161 34.6117C239.435 34.932 239.571 35.2914 239.571 35.6898C239.571 36.3617 239.231 36.85 238.552 37.1547ZM248.771 38.3148C246.458 38.3148 244.489 37.6508 242.864 36.3226C241.13 34.9008 240.263 33.0609 240.263 30.8031C240.263 28.1469 241.095 25.725 242.759 23.5375C244.626 21.0765 246.978 19.8461 249.813 19.8461C252.54 19.8461 254.583 20.4711 255.942 21.7211C257.302 22.9711 257.981 24.85 257.981 27.3578C257.981 30.014 257.216 32.4203 255.685 34.5765C253.919 37.0687 251.614 38.3148 248.771 38.3148ZM249.813 23.0219C248.071 23.0219 246.579 23.8656 245.337 25.5531C244.173 27.1312 243.591 28.8812 243.591 30.8031C243.591 32.1 244.095 33.1547 245.103 33.9672C246.071 34.7484 247.294 35.139 248.771 35.139C250.489 35.139 251.923 34.2953 253.071 32.6078C254.126 31.0687 254.653 29.3187 254.653 27.3578C254.653 25.7172 254.286 24.5765 253.552 23.9359C252.849 23.3265 251.603 23.0219 249.813 23.0219ZM271.927 37.7406C271.505 37.7406 271.118 37.5765 270.767 37.2484C268.399 35.0297 265.798 33.4906 262.962 32.6312C263.048 34.9047 263.091 36.1664 263.091 36.4164C263.091 36.8617 262.935 37.2406 262.622 37.5531C262.31 37.8578 261.919 38.0101 261.45 38.0101C260.981 38.0101 260.591 37.8578 260.278 37.5531C259.966 37.2406 259.81 36.8617 259.81 36.4164C259.81 35.8304 259.817 34.9554 259.833 33.7914C259.849 32.6195 259.856 31.7406 259.856 31.1547L259.88 21.6976C259.88 21.1898 260.032 20.7289 260.337 20.3148C260.735 19.7836 261.286 19.5453 261.989 19.6C263.888 19.7406 264.86 19.8148 264.907 19.8226C266.001 19.9554 266.931 20.2172 267.696 20.6078C271.032 22.2875 272.7 24.3695 272.7 26.8539C272.7 27.8773 272.349 28.7836 271.646 29.5726C270.95 30.3539 269.903 31.014 268.505 31.5531C270.575 32.7094 272.134 33.889 273.181 35.0922C273.454 35.4047 273.591 35.7523 273.591 36.1351C273.591 36.5726 273.427 36.9515 273.099 37.2719C272.771 37.5844 272.38 37.7406 271.927 37.7406ZM264.415 22.9984C264.353 22.9906 263.896 22.9594 263.044 22.9047V29.1273C263.239 29.1351 263.411 29.139 263.56 29.139C265.474 29.139 266.892 28.9008 267.813 28.4242C268.212 28.2211 268.575 27.9515 268.903 27.6156C269.239 27.2797 269.407 27.0258 269.407 26.8539C269.407 25.9789 268.853 25.1351 267.743 24.3226C266.688 23.557 265.579 23.1156 264.415 22.9984ZM287.103 22.5765C286.946 22.5765 286.782 22.5531 286.61 22.5062C285.345 22.1625 284.114 21.9906 282.919 21.9906C282.333 21.9906 281.704 22.0375 281.032 22.1312C280.36 22.225 279.646 22.3656 278.888 22.5531C278.888 23.5922 278.853 25.1351 278.782 27.182C279.22 27.1508 280.747 27.0062 283.364 26.7484C284.856 26.6 285.802 26.5258 286.2 26.5258C286.661 26.5258 287.056 26.6742 287.384 26.9711C287.712 27.2601 287.876 27.6469 287.876 28.1312C287.876 29.0609 287.38 29.5883 286.388 29.7133C285.763 29.7601 284.829 29.8383 283.587 29.9476C282.478 30.0726 280.806 30.225 278.571 30.4047C278.517 31.3969 278.489 32.1976 278.489 32.807C278.489 34.3383 278.579 35.2094 278.759 35.4203C278.845 35.5219 279.337 35.5726 280.235 35.5726C280.72 35.5726 281.45 35.5609 282.427 35.5375C283.403 35.514 284.134 35.5023 284.618 35.5023C284.774 35.5023 285.005 35.4789 285.31 35.432C285.614 35.3851 285.841 35.3617 285.989 35.3617C286.442 35.3617 286.829 35.4906 287.149 35.7484C287.517 36.0375 287.7 36.4437 287.7 36.9672C287.7 37.8422 287.243 38.3656 286.329 38.5375C285.548 38.6859 283.927 38.7601 281.466 38.7601C278.919 38.7601 277.259 38.4164 276.485 37.7289C275.634 36.9711 275.208 35.3304 275.208 32.807C275.208 31.7601 275.282 30.1898 275.431 28.0961C275.587 25.9945 275.665 24.4242 275.665 23.3851C275.665 23.1117 275.626 22.7094 275.548 22.1781C275.47 21.639 275.431 21.2328 275.431 20.9594C275.431 19.7719 275.978 19.1781 277.071 19.1781C277.415 19.1781 277.731 19.2758 278.021 19.4711C278.927 19.2445 279.786 19.0765 280.599 18.9672C281.419 18.85 282.192 18.7914 282.919 18.7914C284.888 18.7914 286.462 19.0179 287.642 19.4711C288.36 19.7445 288.72 20.2406 288.72 20.9594C288.72 21.3656 288.579 21.725 288.298 22.0375C287.985 22.3969 287.587 22.5765 287.103 22.5765ZM314.7 23.5492C314.091 23.5492 313.142 23.5062 311.853 23.4203C310.61 23.3344 309.661 23.2953 309.005 23.3031C309.036 24.1937 309.142 25.7797 309.321 28.0609C309.485 30.0765 309.567 31.6703 309.567 32.8422C309.567 33.1078 309.595 33.5023 309.649 34.0258C309.704 34.5492 309.731 34.9437 309.731 35.2094C309.731 35.7953 309.606 36.3226 309.356 36.7914C309.036 37.3929 308.579 37.6937 307.985 37.6937C307.556 37.6937 307.177 37.557 306.849 37.2836C306.481 36.9789 306.298 36.5961 306.298 36.1351C306.298 36.0258 306.317 35.8617 306.356 35.6429C306.396 35.4164 306.415 35.2445 306.415 35.1273C306.415 34.7679 306.388 34.225 306.333 33.4984C306.286 32.7719 306.263 32.225 306.263 31.8578C306.263 30.8109 306.181 29.3929 306.017 27.6039C305.829 25.5492 305.72 24.1312 305.688 23.35H305.079C303.337 23.35 301.954 23.225 300.931 22.975C300.063 22.764 299.63 22.2523 299.63 21.4398C299.63 21.0414 299.771 20.682 300.052 20.3617C300.38 19.9789 300.81 19.807 301.341 19.8461C301.614 19.8617 302.235 19.9281 303.204 20.0453C303.978 20.1312 304.603 20.1742 305.079 20.1742C305.556 20.1742 306.267 20.1664 307.212 20.1508C308.165 20.1351 308.88 20.1273 309.356 20.1273C309.95 20.1273 310.841 20.1703 312.028 20.2562C313.216 20.3344 314.106 20.3734 314.7 20.3734C315.169 20.3734 315.56 20.5258 315.872 20.8304C316.192 21.1351 316.353 21.5101 316.353 21.9554C316.353 22.4008 316.192 22.7797 315.872 23.0922C315.56 23.3969 315.169 23.5492 314.7 23.5492ZM333.813 21.3461C333.657 21.9164 333.579 22.4125 333.579 22.8344C333.579 23.0531 333.556 23.3929 333.509 23.8539C333.47 24.307 333.45 24.6429 333.45 24.8617C333.45 25.6039 333.411 26.7054 333.333 28.1664C333.255 29.6273 333.216 30.7289 333.216 31.4711C333.216 32.0414 333.259 32.8929 333.345 34.0258C333.431 35.1586 333.474 36.0101 333.474 36.5804C333.474 37.0101 333.321 37.3734 333.017 37.6703C332.712 37.9672 332.333 38.1156 331.88 38.1156C331.419 38.1156 331.021 37.9672 330.685 37.6703C330.349 37.3812 330.181 37.0258 330.181 36.6039C330.181 36.0336 330.153 35.1781 330.099 34.0375C330.052 32.8969 330.028 32.0414 330.028 31.4711C330.028 31.0258 330.036 30.6312 330.052 30.2875C328.825 30.3422 327.31 30.5336 325.505 30.8617C324.005 31.1351 322.505 31.4125 321.005 31.6937C320.989 32.225 320.935 33.1117 320.841 34.3539C320.763 35.4476 320.724 36.3422 320.724 37.0375C320.724 37.4672 320.571 37.8304 320.267 38.1273C319.962 38.4242 319.583 38.5726 319.13 38.5726C318.677 38.5726 318.298 38.4242 317.993 38.1273C317.688 37.8304 317.536 37.4672 317.536 37.0375C317.536 36.2484 317.603 35.0687 317.735 33.4984C317.876 31.9281 317.946 30.7484 317.946 29.9594C317.946 28.9594 317.97 27.4554 318.017 25.4476C318.063 23.432 318.087 21.9242 318.087 20.9242C318.087 20.4945 318.239 20.1312 318.544 19.8344C318.849 19.5375 319.228 19.389 319.681 19.389C320.134 19.389 320.513 19.5375 320.817 19.8344C321.122 20.1312 321.274 20.4945 321.274 20.9242C321.274 21.5179 321.251 22.4125 321.204 23.6078C321.165 24.7953 321.146 25.6859 321.146 26.2797C321.146 26.475 321.118 26.85 321.063 27.4047C321.017 27.9203 320.997 28.3148 321.005 28.5883L325.505 27.7445C327.263 27.432 328.778 27.2523 330.052 27.2054C330.083 26.682 330.134 25.2758 330.204 22.9867C330.22 22.3851 330.403 21.6937 330.755 20.9125C331.192 19.9515 331.688 19.4711 332.243 19.4711C332.657 19.4711 333.024 19.6078 333.345 19.8812C333.688 20.1781 333.86 20.5492 333.86 20.9945C333.86 21.1117 333.845 21.2289 333.813 21.3461ZM347.665 22.5765C347.509 22.5765 347.345 22.5531 347.173 22.5062C345.907 22.1625 344.677 21.9906 343.481 21.9906C342.896 21.9906 342.267 22.0375 341.595 22.1312C340.923 22.225 340.208 22.3656 339.45 22.5531C339.45 23.5922 339.415 25.1351 339.345 27.182C339.782 27.1508 341.31 27.0062 343.927 26.7484C345.419 26.6 346.364 26.5258 346.763 26.5258C347.224 26.5258 347.618 26.6742 347.946 26.9711C348.274 27.2601 348.438 27.6469 348.438 28.1312C348.438 29.0609 347.942 29.5883 346.95 29.7133C346.325 29.7601 345.392 29.8383 344.149 29.9476C343.04 30.0726 341.368 30.225 339.134 30.4047C339.079 31.3969 339.052 32.1976 339.052 32.807C339.052 34.3383 339.142 35.2094 339.321 35.4203C339.407 35.5219 339.899 35.5726 340.798 35.5726C341.282 35.5726 342.013 35.5609 342.989 35.5375C343.966 35.514 344.696 35.5023 345.181 35.5023C345.337 35.5023 345.567 35.4789 345.872 35.432C346.177 35.3851 346.403 35.3617 346.552 35.3617C347.005 35.3617 347.392 35.4906 347.712 35.7484C348.079 36.0375 348.263 36.4437 348.263 36.9672C348.263 37.8422 347.806 38.3656 346.892 38.5375C346.11 38.6859 344.489 38.7601 342.028 38.7601C339.481 38.7601 337.821 38.4164 337.048 37.7289C336.196 36.9711 335.771 35.3304 335.771 32.807C335.771 31.7601 335.845 30.1898 335.993 28.0961C336.149 25.9945 336.228 24.4242 336.228 23.3851C336.228 23.1117 336.188 22.7094 336.11 22.1781C336.032 21.639 335.993 21.2328 335.993 20.9594C335.993 19.7719 336.54 19.1781 337.634 19.1781C337.978 19.1781 338.294 19.2758 338.583 19.4711C339.489 19.2445 340.349 19.0765 341.161 18.9672C341.981 18.85 342.755 18.7914 343.481 18.7914C345.45 18.7914 347.024 19.0179 348.204 19.4711C348.923 19.7445 349.282 20.2406 349.282 20.9594C349.282 21.3656 349.142 21.725 348.86 22.0375C348.548 22.3969 348.149 22.5765 347.665 22.5765ZM366.274 28.3422C365.923 29.6078 365.431 31.5179 364.798 34.0726C364.649 34.9554 364.505 35.8344 364.364 36.7094C364.044 37.8187 363.454 38.3734 362.595 38.3734C362.056 38.3734 361.63 38.1898 361.317 37.8226C361.052 37.5101 360.919 37.139 360.919 36.7094C360.919 35.4437 361.188 33.9008 361.728 32.0804C362.532 29.3539 362.966 27.8422 363.028 27.5453C363.255 26.3422 363.485 25.139 363.72 23.9359C364.071 22.2797 364.45 21.1781 364.856 20.6312C365.271 20.0765 365.79 19.7992 366.415 19.7992C367.126 19.7992 367.649 20.1586 367.985 20.8773C368.298 21.557 368.634 22.9476 368.993 25.0492C369.337 27.0883 369.849 29.2836 370.528 31.6351C371.419 29.3148 372.247 26.7679 373.013 23.9945L373.669 21.2992C374.091 20.182 374.743 19.6234 375.626 19.6234C376.478 19.6234 377.11 20.2719 377.524 21.5687C377.696 22.0922 377.88 23.0687 378.075 24.4984C378.528 27.8265 379.099 30.6781 379.786 33.0531C380.481 35.4672 380.829 36.7797 380.829 36.9906C380.829 37.4515 380.646 37.8383 380.278 38.1508C379.935 38.432 379.548 38.5726 379.118 38.5726C378.267 38.5726 377.634 37.9633 377.22 36.7445L376.563 33.9086C376.188 32.5023 375.782 30.4828 375.345 27.85C374.993 28.8969 374.411 30.5414 373.599 32.7836L372.896 34.9398C372.606 35.7914 372.306 36.4906 371.993 37.0375C371.579 37.764 371.001 38.1273 370.259 38.1273C369.524 38.1273 368.962 37.6937 368.571 36.8265L367.915 34.6469C367.306 32.6469 366.759 30.5453 366.274 28.3422ZM395.407 23.139C395.009 23.9594 394.208 25.7328 393.005 28.4594C392.005 30.7406 391.153 32.5297 390.45 33.8265C389.231 36.0765 388.579 37.2679 388.493 37.4008C388.032 38.0804 387.501 38.4203 386.899 38.4203C386.47 38.4203 386.091 38.2797 385.763 37.9984C385.403 37.6859 385.224 37.2992 385.224 36.8383C385.224 36.4554 386.04 34.8461 387.673 32.0101C387.071 31.1429 386.208 29.8265 385.083 28.0609C384.239 26.764 383.001 24.807 381.368 22.1898C381.212 21.9242 381.134 21.6469 381.134 21.3578C381.134 20.9047 381.31 20.5219 381.661 20.2094C381.989 19.9203 382.372 19.7758 382.81 19.7758C383.325 19.7758 383.794 20.0375 384.216 20.5609L385.095 21.9672C385.149 22.0609 385.821 23.2015 387.11 25.389C387.923 26.7875 388.642 27.8929 389.267 28.7054C389.86 27.5101 390.716 25.7015 391.833 23.2797C392.067 22.7406 392.419 21.9242 392.888 20.8304C393.185 20.1273 393.692 19.7758 394.411 19.7758C394.841 19.7758 395.22 19.9164 395.548 20.1976C395.907 20.5023 396.087 20.8851 396.087 21.3461C396.087 21.6117 395.86 22.2094 395.407 23.139ZM411.708 23.5492C411.099 23.5492 410.149 23.5062 408.86 23.4203C407.618 23.3344 406.669 23.2953 406.013 23.3031C406.044 24.1937 406.149 25.7797 406.329 28.0609C406.493 30.0765 406.575 31.6703 406.575 32.8422C406.575 33.1078 406.603 33.5023 406.657 34.0258C406.712 34.5492 406.739 34.9437 406.739 35.2094C406.739 35.7953 406.614 36.3226 406.364 36.7914C406.044 37.3929 405.587 37.6937 404.993 37.6937C404.563 37.6937 404.185 37.557 403.856 37.2836C403.489 36.9789 403.306 36.5961 403.306 36.1351C403.306 36.0258 403.325 35.8617 403.364 35.6429C403.403 35.4164 403.423 35.2445 403.423 35.1273C403.423 34.7679 403.396 34.225 403.341 33.4984C403.294 32.7719 403.271 32.225 403.271 31.8578C403.271 30.8109 403.188 29.3929 403.024 27.6039C402.837 25.5492 402.728 24.1312 402.696 23.35H402.087C400.345 23.35 398.962 23.225 397.938 22.975C397.071 22.764 396.638 22.2523 396.638 21.4398C396.638 21.0414 396.778 20.682 397.06 20.3617C397.388 19.9789 397.817 19.807 398.349 19.8461C398.622 19.8617 399.243 19.9281 400.212 20.0453C400.985 20.1312 401.61 20.1742 402.087 20.1742C402.563 20.1742 403.274 20.1664 404.22 20.1508C405.173 20.1351 405.888 20.1273 406.364 20.1273C406.958 20.1273 407.849 20.1703 409.036 20.2562C410.224 20.3344 411.114 20.3734 411.708 20.3734C412.177 20.3734 412.567 20.5258 412.88 20.8304C413.2 21.1351 413.36 21.5101 413.36 21.9554C413.36 22.4008 413.2 22.7797 412.88 23.0922C412.567 23.3969 412.177 23.5492 411.708 23.5492ZM430.821 21.3461C430.665 21.9164 430.587 22.4125 430.587 22.8344C430.587 23.0531 430.563 23.3929 430.517 23.8539C430.478 24.307 430.458 24.6429 430.458 24.8617C430.458 25.6039 430.419 26.7054 430.341 28.1664C430.263 29.6273 430.224 30.7289 430.224 31.4711C430.224 32.0414 430.267 32.8929 430.353 34.0258C430.438 35.1586 430.481 36.0101 430.481 36.5804C430.481 37.0101 430.329 37.3734 430.024 37.6703C429.72 37.9672 429.341 38.1156 428.888 38.1156C428.427 38.1156 428.028 37.9672 427.692 37.6703C427.356 37.3812 427.188 37.0258 427.188 36.6039C427.188 36.0336 427.161 35.1781 427.106 34.0375C427.06 32.8969 427.036 32.0414 427.036 31.4711C427.036 31.0258 427.044 30.6312 427.06 30.2875C425.833 30.3422 424.317 30.5336 422.513 30.8617C421.013 31.1351 419.513 31.4125 418.013 31.6937C417.997 32.225 417.942 33.1117 417.849 34.3539C417.771 35.4476 417.731 36.3422 417.731 37.0375C417.731 37.4672 417.579 37.8304 417.274 38.1273C416.97 38.4242 416.591 38.5726 416.138 38.5726C415.685 38.5726 415.306 38.4242 415.001 38.1273C414.696 37.8304 414.544 37.4672 414.544 37.0375C414.544 36.2484 414.61 35.0687 414.743 33.4984C414.884 31.9281 414.954 30.7484 414.954 29.9594C414.954 28.9594 414.978 27.4554 415.024 25.4476C415.071 23.432 415.095 21.9242 415.095 20.9242C415.095 20.4945 415.247 20.1312 415.552 19.8344C415.856 19.5375 416.235 19.389 416.688 19.389C417.142 19.389 417.521 19.5375 417.825 19.8344C418.13 20.1312 418.282 20.4945 418.282 20.9242C418.282 21.5179 418.259 22.4125 418.212 23.6078C418.173 24.7953 418.153 25.6859 418.153 26.2797C418.153 26.475 418.126 26.85 418.071 27.4047C418.024 27.9203 418.005 28.3148 418.013 28.5883L422.513 27.7445C424.271 27.432 425.786 27.2523 427.06 27.2054C427.091 26.682 427.142 25.2758 427.212 22.9867C427.228 22.3851 427.411 21.6937 427.763 20.9125C428.2 19.9515 428.696 19.4711 429.251 19.4711C429.665 19.4711 430.032 19.6078 430.353 19.8812C430.696 20.1781 430.868 20.5492 430.868 20.9945C430.868 21.1117 430.853 21.2289 430.821 21.3461ZM442.892 23.7484C442.485 23.7484 441.372 23.639 439.552 23.4203C439.442 24.8578 439.388 26.7679 439.388 29.1508L439.376 34.4125C440.415 34.389 441.474 34.3773 442.552 34.3773C443.021 34.3773 443.407 34.5336 443.712 34.8461C444.024 35.1586 444.181 35.5336 444.181 35.9711C444.181 36.4086 444.024 36.7836 443.712 37.0961C443.407 37.4008 443.021 37.5531 442.552 37.5531C442.114 37.5531 441.458 37.5648 440.583 37.5883C439.708 37.6039 439.052 37.6117 438.614 37.6117C438.099 37.6117 437.325 37.6781 436.294 37.8109C435.263 37.9515 434.489 38.0219 433.974 38.0219C433.505 38.0219 433.114 37.8695 432.802 37.5648C432.497 37.2523 432.345 36.8773 432.345 36.4398C432.345 36.0023 432.497 35.6273 432.802 35.3148C433.114 35.0023 433.505 34.8461 433.974 34.8461C434.505 34.8461 435.204 34.7875 436.071 34.6703C436.056 33.7484 436.048 31.9828 436.048 29.3734C436.048 27.2484 436.126 25.2211 436.282 23.2914L433.739 23.3617C433.271 23.3617 432.876 23.2094 432.556 22.9047C432.243 22.6 432.087 22.2211 432.087 21.7679C432.087 21.307 432.243 20.932 432.556 20.6429C432.845 20.3773 433.2 20.225 433.622 20.1859C434.31 20.1234 435.505 20.0922 437.208 20.0922C438.739 20.0922 440.712 20.2562 443.126 20.5844C444.087 20.7172 444.567 21.2562 444.567 22.2015C444.567 22.7015 444.372 23.0961 443.981 23.3851C443.661 23.6273 443.298 23.7484 442.892 23.7484ZM457.739 25.1195C457.036 25.1195 456.517 24.7484 456.181 24.0062C456.024 23.6547 455.868 23.4437 455.712 23.3734C455.595 23.3187 455.286 23.2914 454.786 23.2914C453.802 23.2914 452.665 24.057 451.376 25.5883C449.571 27.7289 448.669 29.7328 448.669 31.6C448.669 32.4515 448.954 33.182 449.524 33.7914C450.095 34.4008 450.778 34.7054 451.575 34.7054C452.349 34.7054 453.134 34.5023 453.931 34.0961C454.212 33.9476 454.806 33.5648 455.712 32.9476C456.321 32.5414 456.782 32.3383 457.095 32.3383C457.563 32.3383 457.962 32.5101 458.29 32.8539C458.595 33.1742 458.747 33.5414 458.747 33.9554C458.747 34.4164 458.544 34.8187 458.138 35.1625C455.989 36.975 453.802 37.8812 451.575 37.8812C449.817 37.8812 448.333 37.2406 447.122 35.9594C445.966 34.725 445.388 33.2719 445.388 31.6C445.388 28.9828 446.532 26.3109 448.821 23.5844C450.767 21.2719 452.755 20.1156 454.786 20.1156C455.13 20.1156 455.438 20.1273 455.712 20.1508C455.993 20.1742 456.239 20.2094 456.45 20.2562C456.794 19.9203 457.208 19.7523 457.692 19.7523C458.489 19.7523 458.981 20.2094 459.169 21.1234C459.302 21.7797 459.368 22.5453 459.368 23.4203C459.368 23.8109 459.255 24.1664 459.028 24.4867C458.731 24.9086 458.302 25.1195 457.739 25.1195ZM474.31 37.9515C473.692 37.9281 473.071 37.2015 472.446 35.7719C472.032 34.85 471.677 33.7875 471.38 32.5844C470.802 32.6703 469.856 32.7562 468.544 32.8422C467.31 32.9281 466.364 33.0297 465.708 33.1469C465.349 34.0062 464.724 35.2992 463.833 37.0258C463.489 37.5883 463.013 37.8695 462.403 37.8695C461.974 37.8695 461.587 37.725 461.243 37.4359C460.899 37.139 460.728 36.764 460.728 36.3109C460.728 35.9125 461.298 34.5609 462.438 32.2562C462.329 32.014 462.282 31.7875 462.298 31.5765C462.329 31.2015 462.708 30.9086 463.435 30.6976C464.544 28.7758 465.778 26.7836 467.138 24.7211C469.091 21.7601 470.294 20.2797 470.747 20.2797C471.606 20.2797 472.181 20.7992 472.47 21.8383C472.626 22.6742 472.872 23.9281 473.208 25.6C473.685 27.85 474.267 30.4242 474.954 33.3226C475.009 33.5414 475.208 34.057 475.552 34.8695C475.833 35.5414 475.974 36.0453 475.974 36.3812C475.974 36.8344 475.802 37.2133 475.458 37.5179C475.122 37.8226 474.739 37.9672 474.31 37.9515ZM469.938 25.9281C469.329 26.975 468.489 28.4008 467.419 30.2054C467.771 30.1273 468.317 30.0648 469.06 30.0179C469.935 29.9633 470.485 29.9203 470.712 29.889C470.524 28.8734 470.267 27.5531 469.938 25.9281ZM489.427 37.1547C488.505 37.5609 487.079 37.9242 485.149 38.2445C483.384 38.5414 481.935 38.6898 480.802 38.6898C478.888 38.6898 477.931 37.85 477.931 36.1703C477.931 36.3031 478.009 35.0648 478.165 32.4554C478.368 29.0648 478.47 25.2914 478.47 21.1351C478.47 20.6898 478.622 20.3109 478.927 19.9984C479.239 19.6859 479.63 19.5297 480.099 19.5297C480.567 19.5297 480.958 19.6859 481.271 19.9984C481.583 20.3109 481.739 20.6898 481.739 21.1351C481.739 25.2992 481.634 29.1351 481.423 32.6429C481.353 33.2679 481.278 34.225 481.2 35.514C483.052 35.4828 485.427 35.0297 488.325 34.1547C488.505 34.1 488.677 34.0726 488.841 34.0726C489.333 34.0726 489.731 34.2523 490.036 34.6117C490.31 34.932 490.446 35.2914 490.446 35.6898C490.446 36.3617 490.106 36.85 489.427 37.1547ZM513.216 22.9515C513.036 22.9515 512.837 22.9164 512.618 22.8461C511.61 22.5179 510.38 22.3539 508.927 22.3539C508.45 22.3539 507.899 22.3851 507.274 22.4476C506.657 22.5101 505.97 22.6039 505.212 22.7289C505.228 24.2289 505.228 25.5179 505.212 26.5961C506.399 26.307 507.384 26.1625 508.165 26.1625C509.618 26.1625 510.884 26.2289 511.962 26.3617C512.97 26.4867 513.474 27.0179 513.474 27.9554C513.474 28.4086 513.313 28.7875 512.993 29.0922C512.673 29.3969 512.282 29.5492 511.821 29.5492C511.415 29.5492 510.806 29.5179 509.993 29.4554C509.181 29.3929 508.571 29.3617 508.165 29.3617C507.595 29.3617 506.61 29.5414 505.212 29.9008V37.2484C505.212 37.7015 505.032 38.0804 504.673 38.3851C504.321 38.6898 503.915 38.8422 503.454 38.8422C503.001 38.8422 502.634 38.6898 502.353 38.3851C502.071 38.0883 501.931 37.7094 501.931 37.2484V23.8187C501.931 23.514 501.935 23.0531 501.942 22.4359C501.958 21.8187 501.966 21.3578 501.966 21.0531C501.966 20.5922 502.118 20.2094 502.423 19.9047C502.735 19.6 503.126 19.4476 503.595 19.4476C503.892 19.4476 504.153 19.5062 504.38 19.6234C505.286 19.4672 506.118 19.3539 506.876 19.2836C507.634 19.2054 508.317 19.1664 508.927 19.1664C509.817 19.1664 510.938 19.35 512.29 19.7172C513.985 20.1781 514.833 20.7133 514.833 21.3226C514.833 21.7679 514.673 22.1508 514.353 22.4711C514.04 22.7914 513.661 22.9515 513.216 22.9515ZM524.63 38.3148C522.317 38.3148 520.349 37.6508 518.724 36.3226C516.989 34.9008 516.122 33.0609 516.122 30.8031C516.122 28.1469 516.954 25.725 518.618 23.5375C520.485 21.0765 522.837 19.8461 525.673 19.8461C528.399 19.8461 530.442 20.4711 531.802 21.7211C533.161 22.9711 533.841 24.85 533.841 27.3578C533.841 30.014 533.075 32.4203 531.544 34.5765C529.778 37.0687 527.474 38.3148 524.63 38.3148ZM525.673 23.0219C523.931 23.0219 522.438 23.8656 521.196 25.5531C520.032 27.1312 519.45 28.8812 519.45 30.8031C519.45 32.1 519.954 33.1547 520.962 33.9672C521.931 34.7484 523.153 35.139 524.63 35.139C526.349 35.139 527.782 34.2953 528.931 32.6078C529.985 31.0687 530.513 29.3187 530.513 27.3578C530.513 25.7172 530.146 24.5765 529.411 23.9359C528.708 23.3265 527.462 23.0219 525.673 23.0219ZM547.786 37.7406C547.364 37.7406 546.978 37.5765 546.626 37.2484C544.259 35.0297 541.657 33.4906 538.821 32.6312C538.907 34.9047 538.95 36.1664 538.95 36.4164C538.95 36.8617 538.794 37.2406 538.481 37.5531C538.169 37.8578 537.778 38.0101 537.31 38.0101C536.841 38.0101 536.45 37.8578 536.138 37.5531C535.825 37.2406 535.669 36.8617 535.669 36.4164C535.669 35.8304 535.677 34.9554 535.692 33.7914C535.708 32.6195 535.716 31.7406 535.716 31.1547L535.739 21.6976C535.739 21.1898 535.892 20.7289 536.196 20.3148C536.595 19.7836 537.146 19.5453 537.849 19.6C539.747 19.7406 540.72 19.8148 540.767 19.8226C541.86 19.9554 542.79 20.2172 543.556 20.6078C546.892 22.2875 548.56 24.3695 548.56 26.8539C548.56 27.8773 548.208 28.7836 547.505 29.5726C546.81 30.3539 545.763 31.014 544.364 31.5531C546.435 32.7094 547.993 33.889 549.04 35.0922C549.313 35.4047 549.45 35.7523 549.45 36.1351C549.45 36.5726 549.286 36.9515 548.958 37.2719C548.63 37.5844 548.239 37.7406 547.786 37.7406ZM540.274 22.9984C540.212 22.9906 539.755 22.9594 538.903 22.9047V29.1273C539.099 29.1351 539.271 29.139 539.419 29.139C541.333 29.139 542.751 28.9008 543.673 28.4242C544.071 28.2211 544.435 27.9515 544.763 27.6156C545.099 27.2797 545.267 27.0258 545.267 26.8539C545.267 25.9789 544.712 25.1351 543.603 24.3226C542.548 23.557 541.438 23.1156 540.274 22.9984ZM562.962 22.5765C562.806 22.5765 562.642 22.5531 562.47 22.5062C561.204 22.1625 559.974 21.9906 558.778 21.9906C558.192 21.9906 557.563 22.0375 556.892 22.1312C556.22 22.225 555.505 22.3656 554.747 22.5531C554.747 23.5922 554.712 25.1351 554.642 27.182C555.079 27.1508 556.606 27.0062 559.224 26.7484C560.716 26.6 561.661 26.5258 562.06 26.5258C562.521 26.5258 562.915 26.6742 563.243 26.9711C563.571 27.2601 563.735 27.6469 563.735 28.1312C563.735 29.0609 563.239 29.5883 562.247 29.7133C561.622 29.7601 560.688 29.8383 559.446 29.9476C558.337 30.0726 556.665 30.225 554.431 30.4047C554.376 31.3969 554.349 32.1976 554.349 32.807C554.349 34.3383 554.438 35.2094 554.618 35.4203C554.704 35.5219 555.196 35.5726 556.095 35.5726C556.579 35.5726 557.31 35.5609 558.286 35.5375C559.263 35.514 559.993 35.5023 560.478 35.5023C560.634 35.5023 560.864 35.4789 561.169 35.432C561.474 35.3851 561.7 35.3617 561.849 35.3617C562.302 35.3617 562.688 35.4906 563.009 35.7484C563.376 36.0375 563.56 36.4437 563.56 36.9672C563.56 37.8422 563.103 38.3656 562.188 38.5375C561.407 38.6859 559.786 38.7601 557.325 38.7601C554.778 38.7601 553.118 38.4164 552.345 37.7289C551.493 36.9711 551.067 35.3304 551.067 32.807C551.067 31.7601 551.142 30.1898 551.29 28.0961C551.446 25.9945 551.524 24.4242 551.524 23.3851C551.524 23.1117 551.485 22.7094 551.407 22.1781C551.329 21.639 551.29 21.2328 551.29 20.9594C551.29 19.7719 551.837 19.1781 552.931 19.1781C553.274 19.1781 553.591 19.2758 553.88 19.4711C554.786 19.2445 555.646 19.0765 556.458 18.9672C557.278 18.85 558.052 18.7914 558.778 18.7914C560.747 18.7914 562.321 19.0179 563.501 19.4711C564.22 19.7445 564.579 20.2406 564.579 20.9594C564.579 21.3656 564.438 21.725 564.157 22.0375C563.845 22.3969 563.446 22.5765 562.962 22.5765ZM571.657 38.3148C569.673 38.3148 568.11 37.8734 566.97 36.9906C566.009 36.2562 565.528 35.4086 565.528 34.4476C565.528 33.9554 565.677 33.5492 565.974 33.2289C566.271 32.9008 566.681 32.7367 567.204 32.7367C567.907 32.7367 568.423 33.0961 568.751 33.8148C569.196 34.7758 570.204 35.2562 571.774 35.2562C573.118 35.2562 574.419 34.9633 575.677 34.3773C576.981 33.7758 577.634 33.1156 577.634 32.3969C577.634 31.4125 577.228 30.764 576.415 30.4515C575.837 30.225 574.677 30.0922 572.935 30.0531C571.583 30.0219 570.372 29.7679 569.302 29.2914C567.856 28.6429 567.146 27.7133 567.169 26.5023C567.192 24.9789 568.005 23.5844 569.606 22.3187C571.208 21.0453 572.974 20.4086 574.903 20.4086C575.669 20.4086 576.614 20.5844 577.739 20.9359C579.138 21.3734 579.837 21.8773 579.837 22.4476C579.837 22.8539 579.696 23.2133 579.415 23.5258C579.103 23.8773 578.7 24.0531 578.208 24.0531C577.841 24.0531 577.29 23.975 576.556 23.8187C575.829 23.6625 575.278 23.5844 574.903 23.5844C573.896 23.5922 572.938 23.8344 572.032 24.3109C571.095 24.7953 570.626 25.3226 570.626 25.8929C570.626 26.1898 570.767 26.4359 571.048 26.6312C571.337 26.8187 571.767 26.9515 572.337 27.0297C573.337 27.0844 574.333 27.139 575.325 27.1937C577.06 27.3265 578.431 27.8148 579.438 28.6586C580.548 29.5961 581.103 30.8929 581.103 32.5492C581.103 34.5648 579.954 36.0922 577.657 37.1312C575.907 37.9203 573.907 38.3148 571.657 38.3148ZM596.794 23.5492C596.185 23.5492 595.235 23.5062 593.946 23.4203C592.704 23.3344 591.755 23.2953 591.099 23.3031C591.13 24.1937 591.235 25.7797 591.415 28.0609C591.579 30.0765 591.661 31.6703 591.661 32.8422C591.661 33.1078 591.688 33.5023 591.743 34.0258C591.798 34.5492 591.825 34.9437 591.825 35.2094C591.825 35.7953 591.7 36.3226 591.45 36.7914C591.13 37.3929 590.673 37.6937 590.079 37.6937C589.649 37.6937 589.271 37.557 588.942 37.2836C588.575 36.9789 588.392 36.5961 588.392 36.1351C588.392 36.0258 588.411 35.8617 588.45 35.6429C588.489 35.4164 588.509 35.2445 588.509 35.1273C588.509 34.7679 588.481 34.225 588.427 33.4984C588.38 32.7719 588.356 32.225 588.356 31.8578C588.356 30.8109 588.274 29.3929 588.11 27.6039C587.923 25.5492 587.813 24.1312 587.782 23.35H587.173C585.431 23.35 584.048 23.225 583.024 22.975C582.157 22.764 581.724 22.2523 581.724 21.4398C581.724 21.0414 581.864 20.682 582.146 20.3617C582.474 19.9789 582.903 19.807 583.435 19.8461C583.708 19.8617 584.329 19.9281 585.298 20.0453C586.071 20.1312 586.696 20.1742 587.173 20.1742C587.649 20.1742 588.36 20.1664 589.306 20.1508C590.259 20.1351 590.974 20.1273 591.45 20.1273C592.044 20.1273 592.935 20.1703 594.122 20.2562C595.31 20.3344 596.2 20.3734 596.794 20.3734C597.263 20.3734 597.653 20.5258 597.966 20.8304C598.286 21.1351 598.446 21.5101 598.446 21.9554C598.446 22.4008 598.286 22.7797 597.966 23.0922C597.653 23.3969 597.263 23.5492 596.794 23.5492Z" fill="#353535"/>
</g>
<defs>
<filter id="filter0_bd_578_24" x="-4.8" y="-4.8" width="628" height="67.2" filterUnits="userSpaceOnUse" color-interpolation-filters="sRGB">
<feFlood flood-opacity="0" result="BackgroundImageFix"/>
<feGaussianBlur in="BackgroundImageFix" stdDeviation="2.4"/>
<feComposite in2="SourceAlpha" operator="in" result="effect1_backgroundBlur_578_24"/>
<feColorMatrix in="SourceAlpha" type="matrix" values="0 0 0 0 0 0 0 0 0 0 0 0 0 0 0 0 0 0 127 0" result="hardAlpha"/>
<feOffset dx="4.8" dy="7.2"/>
<feComposite in2="hardAlpha" operator="out"/>
<feColorMatrix type="matrix" values="0 0 0 0 0 0 0 0 0 0 0 0 0 0 0 0 0 0 1 0"/>
<feBlend mode="normal" in2="effect1_backgroundBlur_578_24" result="effect2_dropShadow_578_24"/>
<feBlend mode="normal" in="SourceGraphic" in2="effect2_dropShadow_578_24" result="shape"/>
</filter>
</defs>
</svg>
