<svg width="437" height="265" viewBox="0 0 437 265" fill="none" xmlns="http://www.w3.org/2000/svg">
<path d="M153.763 0.0816547C158.521 20.5243 165.509 40.1922 173.227 59.7734C174.16 62.1437 179.572 73.1802 179.714 73.9375C180.561 78.366 176.884 84.9855 176.007 85.7891C172.961 88.5815 162.457 71.862 161.023 69.457C162.939 76.383 166.485 82.754 170.137 88.9689C162.933 85.1359 167.227 90.8535 165.04 90.8478C164.415 90.8478 161.054 85.9626 155.153 83.9102L150.21 74.3711C152.651 84.6387 157.909 94.1084 159.633 104.578C156.815 101.526 148.035 99.1728 147.43 98.6525C147.195 98.4501 144.575 93.5939 144.495 93.3048C144.365 92.8365 144.507 89.362 143.877 86.9454C142.042 79.9327 139.663 73.0356 138.625 65.8437C138.52 65.5431 138.026 66.0403 138.007 66.1328C137.896 66.7803 139.027 75.0186 136.617 78.9961L126.576 71.3359C124.747 66.682 121.707 36.2262 120.706 34.6248C120.552 34.382 120.268 34.382 120.088 34.6248C121.139 38.2497 121.75 48.8988 120.706 51.6796C120.62 51.9051 120.292 51.8241 120.088 51.8241C119.681 47.6385 119.353 43.4297 118.853 39.2498C118.439 35.8042 115.324 25.0799 117.771 22.6286C118.803 21.5996 130.926 17.2521 133.373 16.2692L155.617 62.664C149.426 45.0889 143.265 27.5023 139.243 9.3317C141.041 7.66091 151.588 0.469001 153.763 0.0816547Z" fill="#605757"/>
<path d="M235.942 128.137C241.342 128.154 246.755 128.125 252.161 128.137C234.082 132.577 215.107 131.987 196.552 133.34L229.918 134.496C218.653 137.832 206.5 139.601 194.698 140.567C184.744 141.382 165.114 140.954 163.804 141.723C162.716 142.365 164.014 143.139 164.731 143.457C167.937 144.88 199.814 144.712 206.129 144.325L205.82 144.903C152.558 152.8 97.863 151.621 44.5518 144.614L44.2429 144.036C59.1154 142.07 82.5209 141.856 95.2184 140.278C108.793 138.59 92.5121 137.601 88.1128 137.387C68.7791 136.433 49.2972 137.561 30.0315 135.364V134.786C41.4562 134.248 52.8562 132.999 64.3242 132.762V132.184C47.9873 131.941 31.465 132.282 15.2022 130.739C-1.95026 129.114 -7.35676 127.484 13.6575 128.137L14.4299 127.559L14.5844 128.137C88.3661 128.287 162.16 127.935 235.942 128.137Z" fill="#777173"/>
<path d="M94.755 76.1055C95.6633 72.787 92.8643 66.2831 94.1371 62.375C94.3843 61.5598 103.202 52.4716 105.568 49.2225C112.828 62.242 121.268 74.7411 128.43 87.8126C130.265 91.16 142.394 114.655 142.95 116.141C143.395 117.338 143.982 118.581 143.877 119.899C134.942 121.575 130.395 114.909 125.495 121.199C122.195 118.031 122.14 113.343 120.397 109.492C116.325 100.491 101.669 84.5288 94.755 76.1055Z" fill="#605757"/>
<path d="M66.3323 104.145C68.532 96.103 73.4998 65.52 77.1453 60.496L78.3811 60.6406C81.0503 72.3708 83.3365 84.2744 86.4136 95.9064C87.4022 99.6469 93.4204 117.008 93.5193 118.164C93.6367 119.558 92.7593 123.102 90.8932 123.223C86.4259 123.512 80.1544 99.0977 79.1534 95.1837L78.9989 117.297C74.9271 121.679 76.7684 122.911 70.3485 119.61L66.3323 104.145Z" fill="#605757"/>
<path d="M51.503 89.4024C50.7863 98.4848 52.677 110.383 51.503 119.032C51.0025 122.726 50.6627 118.245 49.9583 117.297C48.6731 120.697 47.6721 124.356 44.8608 126.981C44.2058 122.905 34.3814 123.171 30.3404 123.512C25.9843 128.368 22.5242 123.159 21.999 123.223C21.3996 123.298 21.0969 124.969 20.4543 124.957C19.1135 124.94 17.3278 120.037 18.7551 118.887C19.8302 117.222 20.2689 115.73 22.3079 114.262C26.0585 113.198 28.4126 110.232 31.7307 108.481C31.9902 111.788 34.5359 122.338 34.2022 113.106C35.3639 109.29 38.7622 96.999 40.999 94.4611C41.4377 93.9639 51.5277 87.6565 51.503 89.4024Z" fill="#605757"/>
<path d="M211.844 85.6446C210.924 89.1076 215.175 120.101 213.235 120.621C209.466 117.922 205.944 114.782 203.503 110.938C202.632 104.33 197.015 98.086 198.869 91.4259C199.66 90.7437 200.29 89.7204 201.186 89.1134C202.805 88.015 210.528 84.1762 211.844 85.6446Z" fill="#605757"/>
<path d="M133.373 16.2692C134.497 15.8183 135.844 15.8472 136.771 14.9685C136.567 11.9448 137.228 11.1991 139.243 9.3317C143.265 27.5023 149.426 45.0889 155.617 62.664L133.373 16.2692Z" fill="#0E0B0A"/>
<path d="M224.202 104.145C223.121 108.955 226.538 115.274 223.893 119.61C221.595 123.379 216.411 119.691 216.17 119.321C215.842 118.823 214.538 108.336 214.625 107.758C215.187 104.087 220.946 103.549 222.966 101.543C223.566 101.734 223.899 103.439 224.202 104.145Z" fill="#605757"/>
<path d="M31.7307 108.481C31.9902 111.788 34.5359 122.338 34.2022 113.106C34.159 111.868 33.3681 106.157 31.7307 108.481Z" fill="#0E0B0A"/>
<path d="M198.869 91.4259C197.015 98.086 202.632 104.33 203.503 110.938C205.944 114.782 209.466 117.922 213.235 120.621C215.175 120.101 210.924 89.1076 211.844 85.6446C212.629 86.5234 215.385 99.1497 216.17 101.688C217.133 102.85 221.514 101.491 222.966 101.543C220.946 103.549 215.187 104.087 214.625 107.758C214.538 108.336 215.842 118.823 216.17 119.321C216.411 119.691 221.595 123.379 223.893 119.61C226.538 115.274 223.121 108.955 224.202 104.145C225.697 107.642 226.606 113.198 227.909 116.43C228.187 117.124 231.363 123.605 231.617 123.946C232.55 125.212 235.652 126.01 235.942 128.137C162.16 127.935 88.3661 128.287 14.5844 128.137L14.4299 127.559C15.5668 124.553 16.9941 121.61 18.7551 118.887C17.3278 120.037 19.1135 124.94 20.4543 124.957C21.0969 124.969 21.3996 123.298 21.999 123.223C22.5242 123.159 25.9843 128.368 30.3404 123.512C34.3814 123.171 44.2058 122.905 44.8608 126.981C47.6721 124.356 48.6731 120.697 49.9583 117.297C50.6627 118.245 51.0025 122.726 51.503 119.032C52.677 110.383 50.7863 98.4848 51.503 89.4024C54.784 97.3575 59.1648 104.729 63.3973 112.239C64.1635 109.55 65.5908 106.862 66.3323 104.145L70.3485 119.61C76.7684 122.911 74.9271 121.679 78.9989 117.297L79.1534 95.1837C80.1544 99.0977 86.4259 123.512 90.8932 123.223C92.7593 123.102 93.6367 119.558 93.5193 118.164C93.4204 117.008 87.4022 99.6469 86.4136 95.9064C83.3365 84.2744 81.0503 72.3708 78.3811 60.6406L77.1453 60.496C77.4728 60.0393 77.4048 59.4959 77.9176 59.6288C80.5498 63.6353 87.5011 69.0119 88.2672 70.1797C89.8799 72.6425 91.2022 81.1005 92.129 81.0196C92.4688 79.7593 94.6809 76.3714 94.755 76.1055C101.669 84.5288 116.325 100.491 120.397 109.492C122.14 113.343 122.195 118.031 125.495 121.199C130.395 114.909 134.942 121.575 143.877 119.899C143.982 118.581 143.395 117.338 142.95 116.141C142.394 114.655 130.265 91.16 128.43 87.8126C121.268 74.7411 112.828 62.242 105.568 49.2225C106.371 48.1241 109.689 41.9092 110.202 41.5623H110.82C114.188 49.448 116.653 57.5649 120.861 65.1211C121.701 60.6174 120.515 56.2179 120.088 51.8241C120.292 51.8241 120.62 51.9051 120.706 51.6796C121.75 48.8988 121.139 38.2497 120.088 34.6248C120.268 34.382 120.552 34.382 120.706 34.6248C121.707 36.2262 124.747 66.682 126.576 71.3359L136.617 78.9961C139.027 75.0186 137.896 66.7803 138.007 66.1328C138.026 66.0403 138.52 65.5431 138.625 65.8437C139.663 73.0356 142.042 79.9327 143.877 86.9454C144.507 89.362 144.365 92.8365 144.495 93.3048C144.575 93.5939 147.195 98.4501 147.43 98.6525C148.035 99.1728 156.815 101.526 159.633 104.578C157.909 94.1084 152.651 84.6387 150.21 74.3711L155.153 83.9102C161.054 85.9626 164.415 90.8478 165.04 90.8478C167.227 90.8535 162.933 85.1359 170.137 88.9689C166.485 82.754 162.939 76.383 161.023 69.457C162.457 71.862 172.961 88.5815 176.007 85.7891C176.884 84.9855 180.561 78.366 179.714 73.9375C179.572 73.1802 174.16 62.1437 173.227 59.7734C165.509 40.1922 158.521 20.5243 153.763 0.0816547C156.136 -0.340379 158.873 0.954621 161.023 2.1051C171.867 7.9095 170.57 19.2061 171.064 20.1716C173.776 21.7152 179.245 29.572 180.641 32.3123C185.238 41.3427 188.464 53.5527 186.511 63.5312C189.353 67.607 189.891 72.9605 193.926 76.25C194.389 81.8868 194.445 87.697 197.787 92.5822C197.874 92.5822 198.226 91.9751 198.869 91.4259Z" fill="#0E0B0A"/>
<path d="M190.682 79.5743C192.789 85.0607 199.116 109.914 198.56 113.539C198.418 114.482 194.822 120.806 194.389 120.91C193.957 121.014 192.369 119.107 191.3 119.176C189.668 119.28 187.067 125.032 181.722 118.598C178.392 122.772 175.173 119.974 175.08 119.61C174.969 119.176 177.064 115.222 178.17 111.227C180.542 102.647 182.569 93.9234 184.348 85.211L190.682 79.5743Z" fill="#605757"/>
<path d="M91.8201 84.7774C93.89 84.5751 113.31 109.851 113.601 111.516C113.94 113.458 111.216 117.939 110.048 119.754C107.613 116.783 106.909 118.87 105.105 117.731C103.702 118.002 104.376 124.61 97.9989 120.91C92.9446 117.979 91.956 94.4264 89.1941 88.3907C88.4526 86.9628 91.5667 84.8006 91.8201 84.7774Z" fill="#605757"/>
<path d="M307.841 139.567C303.284 142.454 274.733 160.166 273.386 161.698C271.421 163.939 281.522 160.775 286.467 159.179C287.177 159.456 286.375 160.48 285.96 160.692C283.128 162.168 264.115 167.574 257.786 171.255C247.989 182.952 220.942 207.324 213.774 216.024C209.743 215.756 205.674 214.963 201.698 214.511C204.78 210.71 206.643 206.033 210.757 203.192C211.302 188.81 227.63 183.579 236.919 174.52C245.434 158.33 256.264 143.248 268.866 130C250.01 134.927 254.696 136.356 246.477 145.342C243.248 148.875 229.355 163.967 227.611 165.212C223.875 167.888 214.291 171.07 211.514 173.256C207.944 176.07 194.291 196.061 190.14 201.679C208.442 191.928 190.066 203.441 187.123 211.485C186.302 212.564 184.531 212.804 183.35 212.998C175.924 214.188 139.291 214.354 137.068 215.009C136.127 215.286 136.441 216.928 136.063 217.02C131.57 217.61 127.124 216.19 122.732 216.014C128.95 200.138 136.182 195.692 146.376 183.57C144.402 148.506 159.789 153.681 176.053 132.261C183.009 123.091 195.056 97.8975 200.702 90.0101C203.82 85.6559 219.318 69.5214 224.346 62.8425C241.384 40.1859 242.501 28.0089 228.368 67.8701C219.752 78.7279 208.903 88.3127 203.221 101.071L203.977 101.827L225.102 85.2315L225.351 85.988C219.909 90.5175 216.145 98.1189 211.772 103.091C206.099 109.539 193.645 119.742 191.145 123.211C187.861 127.768 175.73 153.58 172.28 161.19C174.54 162.242 186.486 144.115 188.378 141.569C183.119 167.5 164.632 187.998 151.911 210.738L160.712 210.987C165.887 203.118 169.734 193.994 175.047 186.088C181.302 176.78 196.394 160.637 201.21 151.882C204.973 145.028 208.239 132.021 211.772 125.72C215.453 119.152 237.805 92.8514 241.956 85.9788C250.572 71.6985 250.858 55.8868 255.037 43.7283C257.362 36.9663 269.585 13.0551 273.653 3.7379C278.856 4.0331 279.834 8.19357 280.692 13.0459C281.513 17.7138 283.183 43.3869 282.703 47.7504C282.426 50.278 280.591 54.7337 279.687 57.3075L280.443 58.0639C294.391 48.9404 291.615 48.9865 295.535 64.6044L304.336 59.8259C306.587 62.1321 301.504 99.1336 301.319 105.102L314.898 101.08L307.86 139.558L307.841 139.567Z" fill="#0B090A"/>
<path d="M87.0132 198.422C79.6425 200.959 75.5927 201.347 86.5059 200.941C88.6737 200.858 91.6257 200.646 93.5445 201.448C93.3231 202.509 91.2475 209.188 91.7826 209.492L108.129 209.741C87.4653 217.961 101.312 214.714 115.675 215.525C117.982 215.655 120.334 215.931 122.714 216.033C127.105 216.208 131.552 217.629 136.044 217.038C136.422 216.946 136.109 215.304 137.05 215.027C139.273 214.363 175.905 214.206 183.331 213.016C184.512 212.832 186.283 212.583 187.104 211.503C190.49 214.123 197.077 213.994 201.689 214.52C205.656 214.972 209.733 215.756 213.765 216.033C212.842 217.149 211.551 219.686 210.241 220.811C210.398 221.319 215.914 222.011 216.781 222.066C219.42 224.132 219.65 226.559 221.809 229.105C225.102 232.998 226.08 233.413 230.361 235.138C230.434 235.165 230.075 235.95 231.117 236.651C241.984 237.444 252.888 236.226 263.81 236.651C265.674 235.276 267.814 234.086 269.594 232.629C269.548 233.21 273.432 231.466 275.129 230.618C274.382 233.071 279.521 236.079 279.908 236.153C282.583 236.614 325.35 234.76 334.234 235.645C336.494 234.843 331.061 232.324 332.223 231.116C339.944 229.529 346.909 225.636 354.354 223.071C362.25 224.741 395.977 218.431 401.641 216.033C406.77 213.865 387.407 211.448 386.798 210.747C384.769 203.736 384.021 196.503 382.776 189.373C394.602 190.978 460.995 211.079 427.296 227.103C400.829 239.686 318.164 241.881 313.109 244.713C312.638 244.972 312.131 245.617 312.601 245.719C313.579 247.601 335.018 249.603 308.579 257.794C277.712 267.361 216.781 265.47 183.83 262.324C160.583 260.101 107.76 253.56 151.634 242.702V241.697C126.201 238.634 46.2572 235.83 27.8902 223.588C3.50854 207.343 78.9506 187.823 88.0003 187.371C87.8804 188.063 89.0704 187.786 89.0058 188.127C88.3878 191.577 87.5852 194.963 86.9948 198.441L87.0132 198.422Z" fill="#3D3737"/>
<path d="M273.635 3.74712C269.576 13.0644 257.344 36.9756 255.019 43.7375C250.849 55.9053 250.554 71.7169 241.938 85.988C237.787 92.8606 215.434 119.161 211.754 125.729C208.221 132.03 204.955 145.037 201.191 151.891C196.376 160.646 181.284 176.79 175.029 186.098C169.715 194.004 165.869 203.127 160.693 210.996L151.893 210.747C164.623 188.016 183.101 167.509 188.359 141.578C186.468 144.115 174.522 162.242 172.261 161.199C175.712 153.589 187.842 127.777 191.127 123.22C193.627 119.751 206.08 109.539 211.754 103.1C216.126 98.1281 219.89 90.5267 225.333 85.9972L225.084 85.2408L203.959 101.837L203.202 101.08C208.894 88.3219 219.743 78.7464 228.349 67.8793C242.482 28.0089 241.366 40.1951 224.327 62.8517C219.309 69.5306 203.802 85.6651 200.684 90.0193C195.038 97.9067 182.99 123.109 176.034 132.27C159.771 153.69 144.384 148.515 146.358 183.579C136.164 195.71 128.932 200.147 122.714 216.024C120.334 215.931 117.982 215.655 115.675 215.516L144.854 135.028C147.169 133.248 158.95 119.659 159.439 118.681C160.712 116.145 165.278 95.7019 166.985 90.0101C172.806 82.9161 207.233 31.6804 210.748 30.3981C203.276 82.1688 190.536 99.5672 218.294 42.4737C220.084 38.7837 230.213 17.9167 231.624 16.8189C245.443 11.8928 258.377 2.8892 273.635 3.74712Z" fill="#776B68"/>
<path d="M382.794 189.363C384.04 196.494 384.787 203.736 386.817 210.738C387.425 211.439 406.779 213.846 401.66 216.024C395.995 218.422 362.278 224.732 354.372 223.062C346.918 225.627 339.963 229.52 332.241 231.106C331.088 232.315 336.513 234.833 334.252 235.636C325.369 234.75 282.602 236.605 279.926 236.143C279.539 236.079 274.401 233.062 275.148 230.608C283.847 226.245 297.897 213.044 305.83 206.208C291.476 203.911 274.373 228.708 269.613 232.619C267.832 234.086 265.692 235.267 263.829 236.641C252.897 236.217 242.002 237.435 231.135 236.641C230.093 235.94 230.462 235.165 230.379 235.129C242.722 227.97 250.729 215.775 260.812 205.95C264.963 215.858 261.495 229.031 269.613 220.286C272.823 216.835 278.856 200.996 286.965 197.896C296.983 196.218 311.439 192.417 316.144 182.804C284.539 183.183 297.555 182.103 318.155 177.777C320.756 175.111 336.55 165.609 337.269 164.696C339.114 162.362 336.319 158.238 336.513 155.388C344.584 151.384 380.682 121.892 383.293 117.657C383.403 117.482 383.237 116.883 383.293 116.403L384.298 117.159C384.409 137.51 382.748 157.906 379.769 178.026C379.842 181.882 382.684 188.754 382.785 189.345L382.794 189.363Z" fill="#0B090A"/>
<path d="M383.293 116.43C383.237 116.91 383.403 117.51 383.293 117.685C380.682 121.919 344.584 151.412 336.513 155.415C336.319 158.257 339.114 162.389 337.269 164.723C336.55 165.627 320.756 175.138 318.155 177.804C297.555 182.131 284.53 183.21 316.144 182.832C311.439 192.444 296.983 196.245 286.965 197.924C278.856 201.015 272.814 216.854 269.613 220.313C261.495 229.059 264.963 215.876 260.812 205.978C250.729 215.802 242.722 227.988 230.379 235.156C226.099 233.431 225.121 233.016 221.827 229.123L233.396 221.826C227.851 220.867 222.326 222.444 216.8 222.075C215.933 222.02 210.416 221.319 210.259 220.821C211.569 219.695 212.861 217.158 213.783 216.042C220.96 207.343 247.999 182.97 257.796 171.273C264.124 167.592 283.137 162.177 285.969 160.71C286.375 160.498 287.187 159.474 286.476 159.198C281.541 160.794 271.43 163.948 273.395 161.716C274.751 160.175 303.303 142.473 307.851 139.585C316.393 134.17 324.686 128.368 333.256 122.989L383.311 116.449L383.293 116.43Z" fill="#776B68"/>
<path d="M144.854 135.037L115.675 215.525C101.312 214.714 87.4653 217.961 108.129 209.741L91.7826 209.492C91.2475 209.188 93.3231 202.509 93.5445 201.448C94.5962 196.402 98.9781 173.967 99.5777 172.528C99.7714 172.066 100.842 169.659 101.589 170.517L106.616 181.587C107.88 176.236 117.548 149.17 117.686 147.38C117.751 146.532 117.816 145.978 116.93 146.126C101.478 161.624 108.341 149.557 117.179 139.336C121.183 134.705 126.339 131.716 127.243 130.277C130.122 120.831 134.522 111.883 134.79 101.855C137.465 108.202 140.61 125.692 144.854 135.056V135.037Z" fill="#0B090A"/>
<path d="M134.799 101.837C134.531 111.864 130.131 120.812 127.253 130.259C126.349 131.698 121.192 134.687 117.188 139.318C108.341 149.548 101.487 161.605 116.939 146.107C117.816 145.96 117.76 146.522 117.696 147.362C117.557 149.152 107.889 176.218 106.626 181.568L101.598 170.498C100.851 169.64 99.7806 172.048 99.5869 172.509C98.9781 173.948 94.6054 196.393 93.5538 201.43C91.6257 200.627 88.6737 200.848 86.5151 200.922C86.2383 199.317 86.9487 198.801 87.0225 198.404C87.6129 194.926 88.4154 191.54 89.0335 188.09C89.0889 187.758 87.9081 188.026 88.028 187.334C88.0557 187.177 89.0889 187.085 89.5409 184.566C92.4191 168.45 94.4947 152.15 98.5998 136.273C110.694 124.355 122.631 112.307 133.563 99.2997C134.891 99.272 134.633 101.385 134.817 101.818L134.799 101.837Z" fill="#776B68"/>
<path d="M218.303 42.4829C190.545 99.5764 203.285 82.1873 210.757 30.4074C214.733 28.9683 217.086 39.8907 218.303 42.4829Z" fill="#0B090A"/>
<path d="M201.698 214.52C197.077 213.994 190.499 214.123 187.114 211.503C190.066 203.459 208.442 191.946 190.13 201.697C194.291 196.079 207.944 176.089 211.505 173.275C214.281 171.079 223.866 167.906 227.602 165.231C229.346 163.985 243.239 148.893 246.467 145.36C254.678 136.375 250.001 134.945 268.856 130.019C256.264 143.257 245.425 158.349 236.91 174.539C227.621 183.598 211.292 188.828 210.748 203.21C206.643 206.051 204.78 210.728 201.689 214.529L201.698 214.52Z" fill="#776B68"/>
<path d="M275.139 230.618C273.441 231.466 269.558 233.21 269.604 232.629C274.364 228.717 291.467 203.92 305.821 206.217C297.888 213.053 283.838 226.254 275.139 230.618Z" fill="#776B68"/>
<path d="M221.818 229.105C219.66 226.559 219.429 224.132 216.791 222.066C222.326 222.426 227.842 220.848 233.386 221.817L221.818 229.114V229.105Z" fill="#0B090A"/>
</svg>
