<svg width="491" height="63" viewBox="0 0 491 63" fill="none" xmlns="http://www.w3.org/2000/svg">
<g filter="url(#filter0_bd_557_125)">
<rect width="485.4" height="55.2" fill="#FFF16F" shape-rendering="crispEdges"/>
<rect x="0.6" y="0.6" width="484.2" height="54" stroke="black" stroke-width="1.2" shape-rendering="crispEdges"/>
<path d="M28.4109 38.3148C26.0984 38.3148 24.1296 37.6508 22.5046 36.3226C20.7703 34.9008 19.9031 33.0609 19.9031 30.8031C19.9031 28.1469 20.7351 25.725 22.3992 23.5375C24.2664 21.0765 26.6179 19.8461 29.4539 19.8461C32.1804 19.8461 34.2234 20.4711 35.5828 21.7211C36.9421 22.9711 37.6218 24.85 37.6218 27.3578C37.6218 30.014 36.8562 32.4203 35.325 34.5765C33.5593 37.0687 31.2546 38.3148 28.4109 38.3148ZM29.4539 23.0219C27.7117 23.0219 26.2195 23.8656 24.9773 25.5531C23.8132 27.1312 23.2312 28.8812 23.2312 30.8031C23.2312 32.1 23.7351 33.1547 24.7429 33.9672C25.7117 34.7484 26.9343 35.139 28.4109 35.139C30.1296 35.139 31.5632 34.2953 32.7117 32.6078C33.7664 31.0687 34.2937 29.3187 34.2937 27.3578C34.2937 25.7172 33.9265 24.5765 33.1921 23.9359C32.489 23.3265 31.2429 23.0219 29.4539 23.0219ZM48.7312 37.1429C46.9109 37.8226 44.6101 38.1625 41.8289 38.1625C41.3601 38.1625 40.9382 37.9672 40.5632 37.5765C40.196 37.1859 40.0125 36.7679 40.0125 36.3226V23.9008C39.989 23.3695 39.9695 22.8383 39.9539 22.307C39.9304 21.7054 39.95 21.1976 40.0125 20.7836C40.1218 20.0492 40.8054 19.6039 42.0632 19.4476C42.657 19.2758 43.6414 19.1898 45.0164 19.1898C46.4929 19.1898 47.907 19.6664 49.2585 20.6195C50.8445 21.7289 51.6375 23.1156 51.6375 24.7797C51.6375 25.6781 51.4734 26.4359 51.1453 27.0531C50.8875 27.5531 50.4382 28.0883 49.7976 28.6586C50.5554 29.0258 51.2273 29.5804 51.8132 30.3226C52.4773 31.1508 52.8093 31.975 52.8093 32.7953C52.8093 33.8344 52.2429 34.8187 51.1101 35.7484C50.3523 36.3656 49.5593 36.8304 48.7312 37.1429ZM45.0164 22.3656C44.0085 22.3656 43.4031 22.3734 43.2 22.389L43.2117 24.8734L43.2 27.3344C43.9109 27.4203 44.446 27.4476 44.8054 27.4164C47.196 27.2289 48.3914 26.35 48.3914 24.7797C48.3914 24.225 48.0398 23.6898 47.3367 23.1742C46.6101 22.6351 45.8367 22.3656 45.0164 22.3656ZM46.3875 30.6508C45.6765 30.6508 44.614 30.6234 43.2 30.5687V34.9515C44.5437 34.8812 46.0007 34.6234 47.571 34.1781C48.946 33.7875 49.6257 33.3656 49.6101 32.9125C49.5867 32.3109 49.1453 31.7758 48.2859 31.307C47.614 30.932 46.9812 30.7133 46.3875 30.6508ZM67.5398 23.2094C67.3992 23.2094 67.1765 23.1976 66.8718 23.1742C66.5671 23.1429 66.321 23.1273 66.1335 23.1273H65.2195C65.2117 22.9945 65.2078 23.2719 65.2078 23.9594C65.2078 29.5531 64.8132 33.6273 64.0242 36.182C63.446 38.0648 62.3953 39.0062 60.8718 39.0062C59.4187 39.0062 57.9812 38.5062 56.5593 37.5062C54.95 36.389 54.1453 35.0765 54.1453 33.5687C54.1453 32.35 54.696 31.7406 55.7976 31.7406C56.8992 31.7406 57.45 32.3422 57.45 33.5453C57.45 34.0062 57.8445 34.5023 58.6335 35.0336C59.4304 35.557 60.1765 35.8187 60.8718 35.8187C61.1531 35.8187 61.3562 35.2992 61.4812 34.2601C61.5125 34.0101 61.5984 32.7953 61.739 30.6156C61.8562 28.8344 61.9148 26.6156 61.9148 23.9594C61.9148 23.85 61.9031 23.5961 61.8796 23.1976L61.6101 23.2094C61.2664 23.225 60.8054 23.2211 60.2273 23.1976C59.532 23.1664 59.071 23.1508 58.8445 23.1508C58.3835 23.1508 57.9929 23.0101 57.6726 22.7289C57.3289 22.4242 57.157 22.0297 57.157 21.5453C57.157 20.4828 57.8562 19.9515 59.2546 19.9515C59.5203 19.9515 59.9148 19.9633 60.4382 19.9867C60.9617 20.0023 61.3523 20.0101 61.6101 20.0101C62.1023 20.0101 62.8367 19.9828 63.8132 19.9281C64.7976 19.8734 65.5359 19.8461 66.0281 19.8461C68.1218 19.8461 69.1687 20.4281 69.1687 21.5922C69.1687 21.9984 69.0281 22.3617 68.7468 22.682C68.4265 23.0336 68.0242 23.2094 67.5398 23.2094ZM82.4695 22.5765C82.3132 22.5765 82.1492 22.5531 81.9773 22.5062C80.7117 22.1625 79.4812 21.9906 78.2859 21.9906C77.7 21.9906 77.071 22.0375 76.3992 22.1312C75.7273 22.225 75.0125 22.3656 74.2546 22.5531C74.2546 23.5922 74.2195 25.1351 74.1492 27.182C74.5867 27.1508 76.114 27.0062 78.7312 26.7484C80.2234 26.6 81.1687 26.5258 81.5671 26.5258C82.0281 26.5258 82.4226 26.6742 82.7507 26.9711C83.0789 27.2601 83.2429 27.6469 83.2429 28.1312C83.2429 29.0609 82.7468 29.5883 81.7546 29.7133C81.1296 29.7601 80.196 29.8383 78.9539 29.9476C77.8445 30.0726 76.1726 30.225 73.9382 30.4047C73.8835 31.3969 73.8562 32.1976 73.8562 32.807C73.8562 34.3383 73.946 35.2094 74.1257 35.4203C74.2117 35.5219 74.7039 35.5726 75.6023 35.5726C76.0867 35.5726 76.8171 35.5609 77.7937 35.5375C78.7703 35.514 79.5007 35.5023 79.9851 35.5023C80.1414 35.5023 80.3718 35.4789 80.6765 35.432C80.9812 35.3851 81.2078 35.3617 81.3562 35.3617C81.8093 35.3617 82.196 35.4906 82.5164 35.7484C82.8835 36.0375 83.0671 36.4437 83.0671 36.9672C83.0671 37.8422 82.6101 38.3656 81.696 38.5375C80.9148 38.6859 79.2937 38.7601 76.8328 38.7601C74.2859 38.7601 72.6257 38.4164 71.8523 37.7289C71.0007 36.9711 70.575 35.3304 70.575 32.807C70.575 31.7601 70.6492 30.1898 70.7976 28.0961C70.9539 25.9945 71.032 24.4242 71.032 23.3851C71.032 23.1117 70.9929 22.7094 70.9148 22.1781C70.8367 21.639 70.7976 21.2328 70.7976 20.9594C70.7976 19.7719 71.3445 19.1781 72.4382 19.1781C72.782 19.1781 73.0984 19.2758 73.3875 19.4711C74.2937 19.2445 75.1531 19.0765 75.9656 18.9672C76.7859 18.85 77.5593 18.7914 78.2859 18.7914C80.2546 18.7914 81.8289 19.0179 83.0085 19.4711C83.7273 19.7445 84.0867 20.2406 84.0867 20.9594C84.0867 21.3656 83.946 21.725 83.6648 22.0375C83.3523 22.3969 82.9539 22.5765 82.4695 22.5765ZM97.4109 25.1195C96.7078 25.1195 96.1882 24.7484 95.8523 24.0062C95.696 23.6547 95.5398 23.4437 95.3835 23.3734C95.2664 23.3187 94.9578 23.2914 94.4578 23.2914C93.4734 23.2914 92.3367 24.057 91.0476 25.5883C89.2429 27.7289 88.3406 29.7328 88.3406 31.6C88.3406 32.4515 88.6257 33.182 89.196 33.7914C89.7664 34.4008 90.45 34.7054 91.2468 34.7054C92.0203 34.7054 92.8054 34.5023 93.6023 34.0961C93.8835 33.9476 94.4773 33.5648 95.3835 32.9476C95.9929 32.5414 96.4539 32.3383 96.7664 32.3383C97.2351 32.3383 97.6335 32.5101 97.9617 32.8539C98.2664 33.1742 98.4187 33.5414 98.4187 33.9554C98.4187 34.4164 98.2156 34.8187 97.8093 35.1625C95.6609 36.975 93.4734 37.8812 91.2468 37.8812C89.489 37.8812 88.0046 37.2406 86.7937 35.9594C85.6375 34.725 85.0593 33.2719 85.0593 31.6C85.0593 28.9828 86.2039 26.3109 88.4929 23.5844C90.4382 21.2719 92.4265 20.1156 94.4578 20.1156C94.8015 20.1156 95.1101 20.1273 95.3835 20.1508C95.6648 20.1742 95.9109 20.2094 96.1218 20.2562C96.4656 19.9203 96.8796 19.7523 97.364 19.7523C98.1609 19.7523 98.6531 20.2094 98.8406 21.1234C98.9734 21.7797 99.0398 22.5453 99.0398 23.4203C99.0398 23.8109 98.9265 24.1664 98.7 24.4867C98.4031 24.9086 97.9734 25.1195 97.4109 25.1195ZM114.52 23.5492C113.911 23.5492 112.962 23.5062 111.673 23.4203C110.43 23.3344 109.481 23.2953 108.825 23.3031C108.856 24.1937 108.962 25.7797 109.141 28.0609C109.305 30.0765 109.387 31.6703 109.387 32.8422C109.387 33.1078 109.415 33.5023 109.469 34.0258C109.524 34.5492 109.552 34.9437 109.552 35.2094C109.552 35.7953 109.427 36.3226 109.177 36.7914C108.856 37.3929 108.399 37.6937 107.805 37.6937C107.376 37.6937 106.997 37.557 106.669 37.2836C106.302 36.9789 106.118 36.5961 106.118 36.1351C106.118 36.0258 106.137 35.8617 106.177 35.6429C106.216 35.4164 106.235 35.2445 106.235 35.1273C106.235 34.7679 106.208 34.225 106.153 33.4984C106.106 32.7719 106.083 32.225 106.083 31.8578C106.083 30.8109 106.001 29.3929 105.837 27.6039C105.649 25.5492 105.54 24.1312 105.509 23.35H104.899C103.157 23.35 101.774 23.225 100.751 22.975C99.8835 22.764 99.45 22.2523 99.45 21.4398C99.45 21.0414 99.5906 20.682 99.8718 20.3617C100.2 19.9789 100.63 19.807 101.161 19.8461C101.434 19.8617 102.055 19.9281 103.024 20.0453C103.798 20.1312 104.423 20.1742 104.899 20.1742C105.376 20.1742 106.087 20.1664 107.032 20.1508C107.985 20.1351 108.7 20.1273 109.177 20.1273C109.77 20.1273 110.661 20.1703 111.848 20.2562C113.036 20.3344 113.927 20.3734 114.52 20.3734C114.989 20.3734 115.38 20.5258 115.692 20.8304C116.012 21.1351 116.173 21.5101 116.173 21.9554C116.173 22.4008 116.012 22.7797 115.692 23.0922C115.38 23.3969 114.989 23.5492 114.52 23.5492ZM127.259 23.7484C126.852 23.7484 125.739 23.639 123.919 23.4203C123.809 24.8578 123.755 26.7679 123.755 29.1508L123.743 34.4125C124.782 34.389 125.841 34.3773 126.919 34.3773C127.387 34.3773 127.774 34.5336 128.079 34.8461C128.391 35.1586 128.548 35.5336 128.548 35.9711C128.548 36.4086 128.391 36.7836 128.079 37.0961C127.774 37.4008 127.387 37.5531 126.919 37.5531C126.481 37.5531 125.825 37.5648 124.95 37.5883C124.075 37.6039 123.419 37.6117 122.981 37.6117C122.466 37.6117 121.692 37.6781 120.661 37.8109C119.63 37.9515 118.856 38.0219 118.341 38.0219C117.872 38.0219 117.481 37.8695 117.169 37.5648C116.864 37.2523 116.712 36.8773 116.712 36.4398C116.712 36.0023 116.864 35.6273 117.169 35.3148C117.481 35.0023 117.872 34.8461 118.341 34.8461C118.872 34.8461 119.571 34.7875 120.438 34.6703C120.423 33.7484 120.415 31.9828 120.415 29.3734C120.415 27.2484 120.493 25.2211 120.649 23.2914L118.106 23.3617C117.637 23.3617 117.243 23.2094 116.923 22.9047C116.61 22.6 116.454 22.2211 116.454 21.7679C116.454 21.307 116.61 20.932 116.923 20.6429C117.212 20.3773 117.567 20.225 117.989 20.1859C118.677 20.1234 119.872 20.0922 121.575 20.0922C123.106 20.0922 125.079 20.2562 127.493 20.5844C128.454 20.7172 128.934 21.2562 128.934 22.2015C128.934 22.7015 128.739 23.0961 128.348 23.3851C128.028 23.6273 127.665 23.7484 127.259 23.7484ZM136.598 32.6781C137.778 29.7094 138.692 27.3461 139.341 25.5883C139.684 24.6586 140.024 23.725 140.36 22.7875C140.821 21.6781 141.317 20.8226 141.848 20.2211C142.2 19.8226 142.622 19.6234 143.114 19.6234C143.559 19.6234 143.95 19.7797 144.286 20.0922C144.622 20.3969 144.79 20.7719 144.79 21.2172C144.79 21.5297 144.684 21.8383 144.473 22.1429C144.052 22.7523 143.665 23.4867 143.313 24.3461C143.298 24.3773 143.009 25.1508 142.446 26.6664C141.743 28.4711 140.696 31.1781 139.305 34.7875C138.946 35.7328 138.505 36.6781 137.981 37.6234C137.645 38.2328 137.157 38.5375 136.516 38.5375C135.704 38.5375 135.137 38.1547 134.817 37.389C133.864 35.1156 132.805 31.8383 131.641 27.557C131.321 26.5023 130.997 25.4476 130.669 24.3929C130.231 22.9242 130.012 21.9047 130.012 21.3344C130.012 20.8734 130.184 20.4906 130.528 20.1859C130.856 19.9047 131.239 19.764 131.677 19.764C132.427 19.764 132.95 20.1547 133.247 20.9359C133.403 21.6156 133.559 22.2914 133.716 22.9633C133.973 23.807 134.344 25.0726 134.829 26.7601C135.438 28.9945 136.028 30.9672 136.598 32.6781ZM158.36 22.5765C158.204 22.5765 158.04 22.5531 157.868 22.5062C156.602 22.1625 155.372 21.9906 154.177 21.9906C153.591 21.9906 152.962 22.0375 152.29 22.1312C151.618 22.225 150.903 22.3656 150.145 22.5531C150.145 23.5922 150.11 25.1351 150.04 27.182C150.477 27.1508 152.005 27.0062 154.622 26.7484C156.114 26.6 157.059 26.5258 157.458 26.5258C157.919 26.5258 158.313 26.6742 158.641 26.9711C158.969 27.2601 159.134 27.6469 159.134 28.1312C159.134 29.0609 158.637 29.5883 157.645 29.7133C157.02 29.7601 156.087 29.8383 154.844 29.9476C153.735 30.0726 152.063 30.225 149.829 30.4047C149.774 31.3969 149.747 32.1976 149.747 32.807C149.747 34.3383 149.837 35.2094 150.016 35.4203C150.102 35.5219 150.594 35.5726 151.493 35.5726C151.977 35.5726 152.708 35.5609 153.684 35.5375C154.661 35.514 155.391 35.5023 155.876 35.5023C156.032 35.5023 156.262 35.4789 156.567 35.432C156.872 35.3851 157.098 35.3617 157.247 35.3617C157.7 35.3617 158.087 35.4906 158.407 35.7484C158.774 36.0375 158.958 36.4437 158.958 36.9672C158.958 37.8422 158.501 38.3656 157.587 38.5375C156.805 38.6859 155.184 38.7601 152.723 38.7601C150.177 38.7601 148.516 38.4164 147.743 37.7289C146.891 36.9711 146.466 35.3304 146.466 32.807C146.466 31.7601 146.54 30.1898 146.688 28.0961C146.844 25.9945 146.923 24.4242 146.923 23.3851C146.923 23.1117 146.884 22.7094 146.805 22.1781C146.727 21.639 146.688 21.2328 146.688 20.9594C146.688 19.7719 147.235 19.1781 148.329 19.1781C148.673 19.1781 148.989 19.2758 149.278 19.4711C150.184 19.2445 151.044 19.0765 151.856 18.9672C152.677 18.85 153.45 18.7914 154.177 18.7914C156.145 18.7914 157.719 19.0179 158.899 19.4711C159.618 19.7445 159.977 20.2406 159.977 20.9594C159.977 21.3656 159.837 21.725 159.555 22.0375C159.243 22.3969 158.844 22.5765 158.36 22.5765ZM165.684 28.225C165.2 28.225 164.798 28.0804 164.477 27.7914C164.165 27.5023 164.009 27.1351 164.009 26.6898C164.009 26.6039 163.989 26.4711 163.95 26.2914C163.919 26.1117 163.903 25.975 163.903 25.8812C163.903 25.4437 164.067 25.0844 164.395 24.8031C164.731 24.514 165.13 24.3695 165.591 24.3695C166.762 24.3695 167.348 25.1429 167.348 26.6898C167.348 27.1351 167.188 27.5023 166.868 27.7914C166.555 28.0804 166.161 28.225 165.684 28.225ZM165.872 36.1586C164.661 36.1586 164.055 35.2445 164.055 33.4164C164.055 32.9789 164.231 32.6117 164.583 32.3148C164.919 32.0414 165.313 31.9047 165.766 31.9047C166.954 31.9047 167.548 32.807 167.548 34.6117C167.548 35.057 167.387 35.4281 167.067 35.725C166.747 36.014 166.348 36.1586 165.872 36.1586ZM184.481 37.7172C184.02 37.7094 183.634 37.5531 183.321 37.2484C183.009 36.9359 182.852 36.5609 182.852 36.1234C182.852 35.3422 182.887 34.1703 182.958 32.6078C183.036 31.0453 183.075 29.8734 183.075 29.0922C183.075 28.225 183.055 26.9242 183.016 25.1898C182.985 23.4554 182.969 22.1547 182.969 21.2875C182.969 20.8578 183.177 20.432 183.591 20.0101C184.005 19.5804 184.446 19.3656 184.915 19.3656C185.173 19.3656 185.821 19.6078 186.86 20.0922C188.071 20.6703 188.79 20.9945 189.016 21.0648C191.305 21.807 193.259 22.9554 194.876 24.5101C196.805 26.3617 197.77 28.4086 197.77 30.6508C197.77 32.0023 197.438 33.2875 196.774 34.5062C196.11 35.7484 195.2 36.7445 194.044 37.4945C192.747 38.3383 190.923 38.7601 188.571 38.7601C188.001 38.7601 187.344 38.6781 186.602 38.514C185.704 38.3109 184.997 38.0453 184.481 37.7172ZM191.067 25.6703C190.309 25.1937 188.684 24.4437 186.192 23.4203V35.0219C186.497 35.2172 186.844 35.3656 187.235 35.4672C187.634 35.5609 188.075 35.6078 188.559 35.6078C190.247 35.6078 191.458 35.3734 192.192 34.9047C192.887 34.4594 193.438 33.8539 193.844 33.0883C194.259 32.3226 194.466 31.5258 194.466 30.6976C194.466 28.7601 193.333 27.0844 191.067 25.6703ZM211.493 22.5765C211.337 22.5765 211.173 22.5531 211.001 22.5062C209.735 22.1625 208.505 21.9906 207.309 21.9906C206.723 21.9906 206.094 22.0375 205.423 22.1312C204.751 22.225 204.036 22.3656 203.278 22.5531C203.278 23.5922 203.243 25.1351 203.173 27.182C203.61 27.1508 205.137 27.0062 207.755 26.7484C209.247 26.6 210.192 26.5258 210.591 26.5258C211.052 26.5258 211.446 26.6742 211.774 26.9711C212.102 27.2601 212.266 27.6469 212.266 28.1312C212.266 29.0609 211.77 29.5883 210.778 29.7133C210.153 29.7601 209.219 29.8383 207.977 29.9476C206.868 30.0726 205.196 30.225 202.962 30.4047C202.907 31.3969 202.88 32.1976 202.88 32.807C202.88 34.3383 202.969 35.2094 203.149 35.4203C203.235 35.5219 203.727 35.5726 204.626 35.5726C205.11 35.5726 205.841 35.5609 206.817 35.5375C207.794 35.514 208.524 35.5023 209.009 35.5023C209.165 35.5023 209.395 35.4789 209.7 35.432C210.005 35.3851 210.231 35.3617 210.38 35.3617C210.833 35.3617 211.219 35.4906 211.54 35.7484C211.907 36.0375 212.091 36.4437 212.091 36.9672C212.091 37.8422 211.634 38.3656 210.719 38.5375C209.938 38.6859 208.317 38.7601 205.856 38.7601C203.309 38.7601 201.649 38.4164 200.876 37.7289C200.024 36.9711 199.598 35.3304 199.598 32.807C199.598 31.7601 199.673 30.1898 199.821 28.0961C199.977 25.9945 200.055 24.4242 200.055 23.3851C200.055 23.1117 200.016 22.7094 199.938 22.1781C199.86 21.639 199.821 21.2328 199.821 20.9594C199.821 19.7719 200.368 19.1781 201.462 19.1781C201.805 19.1781 202.122 19.2758 202.411 19.4711C203.317 19.2445 204.177 19.0765 204.989 18.9672C205.809 18.85 206.583 18.7914 207.309 18.7914C209.278 18.7914 210.852 19.0179 212.032 19.4711C212.751 19.7445 213.11 20.2406 213.11 20.9594C213.11 21.3656 212.969 21.725 212.688 22.0375C212.376 22.3969 211.977 22.5765 211.493 22.5765ZM220.188 38.3148C218.204 38.3148 216.641 37.8734 215.501 36.9906C214.54 36.2562 214.059 35.4086 214.059 34.4476C214.059 33.9554 214.208 33.5492 214.505 33.2289C214.802 32.9008 215.212 32.7367 215.735 32.7367C216.438 32.7367 216.954 33.0961 217.282 33.8148C217.727 34.7758 218.735 35.2562 220.305 35.2562C221.649 35.2562 222.95 34.9633 224.208 34.3773C225.512 33.7758 226.165 33.1156 226.165 32.3969C226.165 31.4125 225.759 30.764 224.946 30.4515C224.368 30.225 223.208 30.0922 221.466 30.0531C220.114 30.0219 218.903 29.7679 217.833 29.2914C216.387 28.6429 215.677 27.7133 215.7 26.5023C215.723 24.9789 216.536 23.5844 218.137 22.3187C219.739 21.0453 221.505 20.4086 223.434 20.4086C224.2 20.4086 225.145 20.5844 226.27 20.9359C227.669 21.3734 228.368 21.8773 228.368 22.4476C228.368 22.8539 228.227 23.2133 227.946 23.5258C227.634 23.8773 227.231 24.0531 226.739 24.0531C226.372 24.0531 225.821 23.975 225.087 23.8187C224.36 23.6625 223.809 23.5844 223.434 23.5844C222.427 23.5922 221.469 23.8344 220.563 24.3109C219.626 24.7953 219.157 25.3226 219.157 25.8929C219.157 26.1898 219.298 26.4359 219.579 26.6312C219.868 26.8187 220.298 26.9515 220.868 27.0297C221.868 27.0844 222.864 27.139 223.856 27.1937C225.591 27.3265 226.962 27.8148 227.969 28.6586C229.079 29.5961 229.634 30.8929 229.634 32.5492C229.634 34.5648 228.485 36.0922 226.188 37.1312C224.438 37.9203 222.438 38.3148 220.188 38.3148ZM245.325 23.5492C244.716 23.5492 243.766 23.5062 242.477 23.4203C241.235 23.3344 240.286 23.2953 239.63 23.3031C239.661 24.1937 239.766 25.7797 239.946 28.0609C240.11 30.0765 240.192 31.6703 240.192 32.8422C240.192 33.1078 240.219 33.5023 240.274 34.0258C240.329 34.5492 240.356 34.9437 240.356 35.2094C240.356 35.7953 240.231 36.3226 239.981 36.7914C239.661 37.3929 239.204 37.6937 238.61 37.6937C238.18 37.6937 237.802 37.557 237.473 37.2836C237.106 36.9789 236.923 36.5961 236.923 36.1351C236.923 36.0258 236.942 35.8617 236.981 35.6429C237.02 35.4164 237.04 35.2445 237.04 35.1273C237.04 34.7679 237.012 34.225 236.958 33.4984C236.911 32.7719 236.887 32.225 236.887 31.8578C236.887 30.8109 236.805 29.3929 236.641 27.6039C236.454 25.5492 236.344 24.1312 236.313 23.35H235.704C233.962 23.35 232.579 23.225 231.555 22.975C230.688 22.764 230.255 22.2523 230.255 21.4398C230.255 21.0414 230.395 20.682 230.677 20.3617C231.005 19.9789 231.434 19.807 231.966 19.8461C232.239 19.8617 232.86 19.9281 233.829 20.0453C234.602 20.1312 235.227 20.1742 235.704 20.1742C236.18 20.1742 236.891 20.1664 237.837 20.1508C238.79 20.1351 239.505 20.1273 239.981 20.1273C240.575 20.1273 241.466 20.1703 242.653 20.2562C243.841 20.3344 244.731 20.3734 245.325 20.3734C245.794 20.3734 246.184 20.5258 246.497 20.8304C246.817 21.1351 246.977 21.5101 246.977 21.9554C246.977 22.4008 246.817 22.7797 246.497 23.0922C246.184 23.3969 245.794 23.5492 245.325 23.5492ZM260.044 37.7406C259.622 37.7406 259.235 37.5765 258.884 37.2484C256.516 35.0297 253.915 33.4906 251.079 32.6312C251.165 34.9047 251.208 36.1664 251.208 36.4164C251.208 36.8617 251.052 37.2406 250.739 37.5531C250.427 37.8578 250.036 38.0101 249.567 38.0101C249.098 38.0101 248.708 37.8578 248.395 37.5531C248.083 37.2406 247.927 36.8617 247.927 36.4164C247.927 35.8304 247.934 34.9554 247.95 33.7914C247.966 32.6195 247.973 31.7406 247.973 31.1547L247.997 21.6976C247.997 21.1898 248.149 20.7289 248.454 20.3148C248.852 19.7836 249.403 19.5453 250.106 19.6C252.005 19.7406 252.977 19.8148 253.024 19.8226C254.118 19.9554 255.048 20.2172 255.813 20.6078C259.149 22.2875 260.817 24.3695 260.817 26.8539C260.817 27.8773 260.466 28.7836 259.762 29.5726C259.067 30.3539 258.02 31.014 256.622 31.5531C258.692 32.7094 260.251 33.889 261.298 35.0922C261.571 35.4047 261.708 35.7523 261.708 36.1351C261.708 36.5726 261.544 36.9515 261.216 37.2719C260.887 37.5844 260.497 37.7406 260.044 37.7406ZM252.532 22.9984C252.469 22.9906 252.012 22.9594 251.161 22.9047V29.1273C251.356 29.1351 251.528 29.139 251.677 29.139C253.591 29.139 255.009 28.9008 255.93 28.4242C256.329 28.2211 256.692 27.9515 257.02 27.6156C257.356 27.2797 257.524 27.0258 257.524 26.8539C257.524 25.9789 256.969 25.1351 255.86 24.3226C254.805 23.557 253.696 23.1156 252.532 22.9984ZM271.434 38.3148C269.122 38.3148 267.153 37.6508 265.528 36.3226C263.794 34.9008 262.927 33.0609 262.927 30.8031C262.927 28.1469 263.759 25.725 265.423 23.5375C267.29 21.0765 269.641 19.8461 272.477 19.8461C275.204 19.8461 277.247 20.4711 278.606 21.7211C279.966 22.9711 280.645 24.85 280.645 27.3578C280.645 30.014 279.88 32.4203 278.348 34.5765C276.583 37.0687 274.278 38.3148 271.434 38.3148ZM272.477 23.0219C270.735 23.0219 269.243 23.8656 268.001 25.5531C266.837 27.1312 266.255 28.8812 266.255 30.8031C266.255 32.1 266.759 33.1547 267.766 33.9672C268.735 34.7484 269.958 35.139 271.434 35.139C273.153 35.139 274.587 34.2953 275.735 32.6078C276.79 31.0687 277.317 29.3187 277.317 27.3578C277.317 25.7172 276.95 24.5765 276.216 23.9359C275.512 23.3265 274.266 23.0219 272.477 23.0219ZM295.54 23.139C295.141 23.9594 294.341 25.7328 293.137 28.4594C292.137 30.7406 291.286 32.5297 290.583 33.8265C289.364 36.0765 288.712 37.2679 288.626 37.4008C288.165 38.0804 287.634 38.4203 287.032 38.4203C286.602 38.4203 286.223 38.2797 285.895 37.9984C285.536 37.6859 285.356 37.2992 285.356 36.8383C285.356 36.4554 286.173 34.8461 287.805 32.0101C287.204 31.1429 286.341 29.8265 285.216 28.0609C284.372 26.764 283.134 24.807 281.501 22.1898C281.344 21.9242 281.266 21.6469 281.266 21.3578C281.266 20.9047 281.442 20.5219 281.794 20.2094C282.122 19.9203 282.505 19.7758 282.942 19.7758C283.458 19.7758 283.927 20.0375 284.348 20.5609L285.227 21.9672C285.282 22.0609 285.954 23.2015 287.243 25.389C288.055 26.7875 288.774 27.8929 289.399 28.7054C289.993 27.5101 290.848 25.7015 291.966 23.2797C292.2 22.7406 292.552 21.9242 293.02 20.8304C293.317 20.1273 293.825 19.7758 294.544 19.7758C294.973 19.7758 295.352 19.9164 295.68 20.1976C296.04 20.5023 296.219 20.8851 296.219 21.3461C296.219 21.6117 295.993 22.2094 295.54 23.139ZM322.247 23.5492C321.637 23.5492 320.688 23.5062 319.399 23.4203C318.157 23.3344 317.208 23.2953 316.552 23.3031C316.583 24.1937 316.688 25.7797 316.868 28.0609C317.032 30.0765 317.114 31.6703 317.114 32.8422C317.114 33.1078 317.141 33.5023 317.196 34.0258C317.251 34.5492 317.278 34.9437 317.278 35.2094C317.278 35.7953 317.153 36.3226 316.903 36.7914C316.583 37.3929 316.126 37.6937 315.532 37.6937C315.102 37.6937 314.723 37.557 314.395 37.2836C314.028 36.9789 313.844 36.5961 313.844 36.1351C313.844 36.0258 313.864 35.8617 313.903 35.6429C313.942 35.4164 313.962 35.2445 313.962 35.1273C313.962 34.7679 313.934 34.225 313.88 33.4984C313.833 32.7719 313.809 32.225 313.809 31.8578C313.809 30.8109 313.727 29.3929 313.563 27.6039C313.376 25.5492 313.266 24.1312 313.235 23.35H312.626C310.884 23.35 309.501 23.225 308.477 22.975C307.61 22.764 307.177 22.2523 307.177 21.4398C307.177 21.0414 307.317 20.682 307.598 20.3617C307.927 19.9789 308.356 19.807 308.887 19.8461C309.161 19.8617 309.782 19.9281 310.751 20.0453C311.524 20.1312 312.149 20.1742 312.626 20.1742C313.102 20.1742 313.813 20.1664 314.759 20.1508C315.712 20.1351 316.427 20.1273 316.903 20.1273C317.497 20.1273 318.387 20.1703 319.575 20.2562C320.762 20.3344 321.653 20.3734 322.247 20.3734C322.716 20.3734 323.106 20.5258 323.419 20.8304C323.739 21.1351 323.899 21.5101 323.899 21.9554C323.899 22.4008 323.739 22.7797 323.419 23.0922C323.106 23.3969 322.716 23.5492 322.247 23.5492ZM341.36 21.3461C341.204 21.9164 341.126 22.4125 341.126 22.8344C341.126 23.0531 341.102 23.3929 341.055 23.8539C341.016 24.307 340.997 24.6429 340.997 24.8617C340.997 25.6039 340.958 26.7054 340.88 28.1664C340.802 29.6273 340.762 30.7289 340.762 31.4711C340.762 32.0414 340.805 32.8929 340.891 34.0258C340.977 35.1586 341.02 36.0101 341.02 36.5804C341.02 37.0101 340.868 37.3734 340.563 37.6703C340.259 37.9672 339.88 38.1156 339.427 38.1156C338.966 38.1156 338.567 37.9672 338.231 37.6703C337.895 37.3812 337.727 37.0258 337.727 36.6039C337.727 36.0336 337.7 35.1781 337.645 34.0375C337.598 32.8969 337.575 32.0414 337.575 31.4711C337.575 31.0258 337.583 30.6312 337.598 30.2875C336.372 30.3422 334.856 30.5336 333.052 30.8617C331.552 31.1351 330.052 31.4125 328.552 31.6937C328.536 32.225 328.481 33.1117 328.387 34.3539C328.309 35.4476 328.27 36.3422 328.27 37.0375C328.27 37.4672 328.118 37.8304 327.813 38.1273C327.509 38.4242 327.13 38.5726 326.677 38.5726C326.223 38.5726 325.844 38.4242 325.54 38.1273C325.235 37.8304 325.083 37.4672 325.083 37.0375C325.083 36.2484 325.149 35.0687 325.282 33.4984C325.423 31.9281 325.493 30.7484 325.493 29.9594C325.493 28.9594 325.516 27.4554 325.563 25.4476C325.61 23.432 325.634 21.9242 325.634 20.9242C325.634 20.4945 325.786 20.1312 326.091 19.8344C326.395 19.5375 326.774 19.389 327.227 19.389C327.68 19.389 328.059 19.5375 328.364 19.8344C328.669 20.1312 328.821 20.4945 328.821 20.9242C328.821 21.5179 328.798 22.4125 328.751 23.6078C328.712 24.7953 328.692 25.6859 328.692 26.2797C328.692 26.475 328.665 26.85 328.61 27.4047C328.563 27.9203 328.544 28.3148 328.552 28.5883L333.052 27.7445C334.809 27.432 336.325 27.2523 337.598 27.2054C337.63 26.682 337.68 25.2758 337.751 22.9867C337.766 22.3851 337.95 21.6937 338.302 20.9125C338.739 19.9515 339.235 19.4711 339.79 19.4711C340.204 19.4711 340.571 19.6078 340.891 19.8812C341.235 20.1781 341.407 20.5492 341.407 20.9945C341.407 21.1117 341.391 21.2289 341.36 21.3461ZM355.212 22.5765C355.055 22.5765 354.891 22.5531 354.719 22.5062C353.454 22.1625 352.223 21.9906 351.028 21.9906C350.442 21.9906 349.813 22.0375 349.141 22.1312C348.469 22.225 347.755 22.3656 346.997 22.5531C346.997 23.5922 346.962 25.1351 346.891 27.182C347.329 27.1508 348.856 27.0062 351.473 26.7484C352.966 26.6 353.911 26.5258 354.309 26.5258C354.77 26.5258 355.165 26.6742 355.493 26.9711C355.821 27.2601 355.985 27.6469 355.985 28.1312C355.985 29.0609 355.489 29.5883 354.497 29.7133C353.872 29.7601 352.938 29.8383 351.696 29.9476C350.587 30.0726 348.915 30.225 346.68 30.4047C346.626 31.3969 346.598 32.1976 346.598 32.807C346.598 34.3383 346.688 35.2094 346.868 35.4203C346.954 35.5219 347.446 35.5726 348.344 35.5726C348.829 35.5726 349.559 35.5609 350.536 35.5375C351.512 35.514 352.243 35.5023 352.727 35.5023C352.884 35.5023 353.114 35.4789 353.419 35.432C353.723 35.3851 353.95 35.3617 354.098 35.3617C354.552 35.3617 354.938 35.4906 355.259 35.7484C355.626 36.0375 355.809 36.4437 355.809 36.9672C355.809 37.8422 355.352 38.3656 354.438 38.5375C353.657 38.6859 352.036 38.7601 349.575 38.7601C347.028 38.7601 345.368 38.4164 344.594 37.7289C343.743 36.9711 343.317 35.3304 343.317 32.807C343.317 31.7601 343.391 30.1898 343.54 28.0961C343.696 25.9945 343.774 24.4242 343.774 23.3851C343.774 23.1117 343.735 22.7094 343.657 22.1781C343.579 21.639 343.54 21.2328 343.54 20.9594C343.54 19.7719 344.087 19.1781 345.18 19.1781C345.524 19.1781 345.841 19.2758 346.13 19.4711C347.036 19.2445 347.895 19.0765 348.708 18.9672C349.528 18.85 350.302 18.7914 351.028 18.7914C352.997 18.7914 354.571 19.0179 355.751 19.4711C356.469 19.7445 356.829 20.2406 356.829 20.9594C356.829 21.3656 356.688 21.725 356.407 22.0375C356.094 22.3969 355.696 22.5765 355.212 22.5765ZM374.313 38.3148C372.329 38.3148 370.766 37.8734 369.626 36.9906C368.665 36.2562 368.184 35.4086 368.184 34.4476C368.184 33.9554 368.333 33.5492 368.63 33.2289C368.927 32.9008 369.337 32.7367 369.86 32.7367C370.563 32.7367 371.079 33.0961 371.407 33.8148C371.852 34.7758 372.86 35.2562 374.43 35.2562C375.774 35.2562 377.075 34.9633 378.333 34.3773C379.637 33.7758 380.29 33.1156 380.29 32.3969C380.29 31.4125 379.884 30.764 379.071 30.4515C378.493 30.225 377.333 30.0922 375.591 30.0531C374.239 30.0219 373.028 29.7679 371.958 29.2914C370.512 28.6429 369.802 27.7133 369.825 26.5023C369.848 24.9789 370.661 23.5844 372.262 22.3187C373.864 21.0453 375.63 20.4086 377.559 20.4086C378.325 20.4086 379.27 20.5844 380.395 20.9359C381.794 21.3734 382.493 21.8773 382.493 22.4476C382.493 22.8539 382.352 23.2133 382.071 23.5258C381.759 23.8773 381.356 24.0531 380.864 24.0531C380.497 24.0531 379.946 23.975 379.212 23.8187C378.485 23.6625 377.934 23.5844 377.559 23.5844C376.552 23.5922 375.594 23.8344 374.688 24.3109C373.751 24.7953 373.282 25.3226 373.282 25.8929C373.282 26.1898 373.423 26.4359 373.704 26.6312C373.993 26.8187 374.423 26.9515 374.993 27.0297C375.993 27.0844 376.989 27.139 377.981 27.1937C379.716 27.3265 381.087 27.8148 382.094 28.6586C383.204 29.5961 383.759 30.8929 383.759 32.5492C383.759 34.5648 382.61 36.0922 380.313 37.1312C378.563 37.9203 376.563 38.3148 374.313 38.3148ZM401.852 21.3461C401.696 21.9164 401.618 22.4125 401.618 22.8344C401.618 23.0531 401.594 23.3929 401.548 23.8539C401.509 24.307 401.489 24.6429 401.489 24.8617C401.489 25.6039 401.45 26.7054 401.372 28.1664C401.294 29.6273 401.255 30.7289 401.255 31.4711C401.255 32.0414 401.298 32.8929 401.384 34.0258C401.469 35.1586 401.512 36.0101 401.512 36.5804C401.512 37.0101 401.36 37.3734 401.055 37.6703C400.751 37.9672 400.372 38.1156 399.919 38.1156C399.458 38.1156 399.059 37.9672 398.723 37.6703C398.387 37.3812 398.219 37.0258 398.219 36.6039C398.219 36.0336 398.192 35.1781 398.137 34.0375C398.091 32.8969 398.067 32.0414 398.067 31.4711C398.067 31.0258 398.075 30.6312 398.091 30.2875C396.864 30.3422 395.348 30.5336 393.544 30.8617C392.044 31.1351 390.544 31.4125 389.044 31.6937C389.028 32.225 388.973 33.1117 388.88 34.3539C388.802 35.4476 388.762 36.3422 388.762 37.0375C388.762 37.4672 388.61 37.8304 388.305 38.1273C388.001 38.4242 387.622 38.5726 387.169 38.5726C386.716 38.5726 386.337 38.4242 386.032 38.1273C385.727 37.8304 385.575 37.4672 385.575 37.0375C385.575 36.2484 385.641 35.0687 385.774 33.4984C385.915 31.9281 385.985 30.7484 385.985 29.9594C385.985 28.9594 386.009 27.4554 386.055 25.4476C386.102 23.432 386.126 21.9242 386.126 20.9242C386.126 20.4945 386.278 20.1312 386.583 19.8344C386.887 19.5375 387.266 19.389 387.719 19.389C388.173 19.389 388.552 19.5375 388.856 19.8344C389.161 20.1312 389.313 20.4945 389.313 20.9242C389.313 21.5179 389.29 22.4125 389.243 23.6078C389.204 24.7953 389.184 25.6859 389.184 26.2797C389.184 26.475 389.157 26.85 389.102 27.4047C389.055 27.9203 389.036 28.3148 389.044 28.5883L393.544 27.7445C395.302 27.432 396.817 27.2523 398.091 27.2054C398.122 26.682 398.173 25.2758 398.243 22.9867C398.259 22.3851 398.442 21.6937 398.794 20.9125C399.231 19.9515 399.727 19.4711 400.282 19.4711C400.696 19.4711 401.063 19.6078 401.384 19.8812C401.727 20.1781 401.899 20.5492 401.899 20.9945C401.899 21.1117 401.884 21.2289 401.852 21.3461ZM415.903 37.7406C415.481 37.7406 415.094 37.5765 414.743 37.2484C412.376 35.0297 409.774 33.4906 406.938 32.6312C407.024 34.9047 407.067 36.1664 407.067 36.4164C407.067 36.8617 406.911 37.2406 406.598 37.5531C406.286 37.8578 405.895 38.0101 405.427 38.0101C404.958 38.0101 404.567 37.8578 404.255 37.5531C403.942 37.2406 403.786 36.8617 403.786 36.4164C403.786 35.8304 403.794 34.9554 403.809 33.7914C403.825 32.6195 403.833 31.7406 403.833 31.1547L403.856 21.6976C403.856 21.1898 404.009 20.7289 404.313 20.3148C404.712 19.7836 405.262 19.5453 405.966 19.6C407.864 19.7406 408.837 19.8148 408.884 19.8226C409.977 19.9554 410.907 20.2172 411.673 20.6078C415.009 22.2875 416.677 24.3695 416.677 26.8539C416.677 27.8773 416.325 28.7836 415.622 29.5726C414.927 30.3539 413.88 31.014 412.481 31.5531C414.552 32.7094 416.11 33.889 417.157 35.0922C417.43 35.4047 417.567 35.7523 417.567 36.1351C417.567 36.5726 417.403 36.9515 417.075 37.2719C416.747 37.5844 416.356 37.7406 415.903 37.7406ZM408.391 22.9984C408.329 22.9906 407.872 22.9594 407.02 22.9047V29.1273C407.216 29.1351 407.387 29.139 407.536 29.139C409.45 29.139 410.868 28.9008 411.79 28.4242C412.188 28.2211 412.552 27.9515 412.88 27.6156C413.216 27.2797 413.384 27.0258 413.384 26.8539C413.384 25.9789 412.829 25.1351 411.719 24.3226C410.665 23.557 409.555 23.1156 408.391 22.9984ZM429.298 23.7484C428.891 23.7484 427.778 23.639 425.958 23.4203C425.848 24.8578 425.794 26.7679 425.794 29.1508L425.782 34.4125C426.821 34.389 427.88 34.3773 428.958 34.3773C429.427 34.3773 429.813 34.5336 430.118 34.8461C430.43 35.1586 430.587 35.5336 430.587 35.9711C430.587 36.4086 430.43 36.7836 430.118 37.0961C429.813 37.4008 429.427 37.5531 428.958 37.5531C428.52 37.5531 427.864 37.5648 426.989 37.5883C426.114 37.6039 425.458 37.6117 425.02 37.6117C424.505 37.6117 423.731 37.6781 422.7 37.8109C421.669 37.9515 420.895 38.0219 420.38 38.0219C419.911 38.0219 419.52 37.8695 419.208 37.5648C418.903 37.2523 418.751 36.8773 418.751 36.4398C418.751 36.0023 418.903 35.6273 419.208 35.3148C419.52 35.0023 419.911 34.8461 420.38 34.8461C420.911 34.8461 421.61 34.7875 422.477 34.6703C422.462 33.7484 422.454 31.9828 422.454 29.3734C422.454 27.2484 422.532 25.2211 422.688 23.2914L420.145 23.3617C419.677 23.3617 419.282 23.2094 418.962 22.9047C418.649 22.6 418.493 22.2211 418.493 21.7679C418.493 21.307 418.649 20.932 418.962 20.6429C419.251 20.3773 419.606 20.225 420.028 20.1859C420.716 20.1234 421.911 20.0922 423.614 20.0922C425.145 20.0922 427.118 20.2562 429.532 20.5844C430.493 20.7172 430.973 21.2562 430.973 22.2015C430.973 22.7015 430.778 23.0961 430.387 23.3851C430.067 23.6273 429.704 23.7484 429.298 23.7484ZM449.735 34.7172C449.735 35.1078 449.669 35.725 449.536 36.5687C449.38 37.5765 448.809 38.0804 447.825 38.0804C447.278 38.0804 446.661 37.7719 445.973 37.1547C442.966 34.4437 439.571 30.6429 435.79 25.7523C435.743 27.7836 435.719 29.0297 435.719 29.4906C435.719 30.1078 435.731 31.0375 435.755 32.2797C435.786 33.5219 435.802 34.4515 435.802 35.0687C435.802 37.3734 435.239 38.5258 434.114 38.5258C433.544 38.5258 433.087 38.35 432.743 37.9984C432.438 37.6859 432.286 37.307 432.286 36.8617C432.286 36.5492 432.309 36.0765 432.356 35.4437C432.411 34.8109 432.438 34.3383 432.438 34.0258C432.438 33.5648 432.454 32.8734 432.485 31.9515C432.516 31.0297 432.532 30.3383 432.532 29.8773C432.532 29.3851 432.52 28.6429 432.497 27.6508C432.473 26.6586 432.462 25.9164 432.462 25.4242C432.462 24.9554 432.415 24.2562 432.321 23.3265C432.227 22.3969 432.18 21.6976 432.18 21.2289C432.18 20.7601 432.38 20.3422 432.778 19.975C433.184 19.6078 433.645 19.4242 434.161 19.4242C434.739 19.4242 435.38 19.9242 436.083 20.9242C439.63 25.9867 443.13 30.1156 446.583 33.3109C446.591 33.0609 446.594 32.4672 446.594 31.5297C446.594 27.6781 446.555 25.0804 446.477 23.7367C446.462 23.5101 446.411 23.0883 446.325 22.4711C446.247 21.9242 446.208 21.4945 446.208 21.182C446.208 20.1039 446.778 19.5648 447.919 19.5648C449.192 19.5648 449.829 21.5297 449.829 25.4594C449.829 25.5453 449.821 26.1625 449.805 27.3109C449.759 31.2797 449.735 33.7484 449.735 34.7172ZM463.727 22.5765C463.571 22.5765 463.407 22.5531 463.235 22.5062C461.969 22.1625 460.739 21.9906 459.544 21.9906C458.958 21.9906 458.329 22.0375 457.657 22.1312C456.985 22.225 456.27 22.3656 455.512 22.5531C455.512 23.5922 455.477 25.1351 455.407 27.182C455.844 27.1508 457.372 27.0062 459.989 26.7484C461.481 26.6 462.427 26.5258 462.825 26.5258C463.286 26.5258 463.68 26.6742 464.009 26.9711C464.337 27.2601 464.501 27.6469 464.501 28.1312C464.501 29.0609 464.005 29.5883 463.012 29.7133C462.387 29.7601 461.454 29.8383 460.212 29.9476C459.102 30.0726 457.43 30.225 455.196 30.4047C455.141 31.3969 455.114 32.1976 455.114 32.807C455.114 34.3383 455.204 35.2094 455.384 35.4203C455.469 35.5219 455.962 35.5726 456.86 35.5726C457.344 35.5726 458.075 35.5609 459.052 35.5375C460.028 35.514 460.759 35.5023 461.243 35.5023C461.399 35.5023 461.63 35.4789 461.934 35.432C462.239 35.3851 462.466 35.3617 462.614 35.3617C463.067 35.3617 463.454 35.4906 463.774 35.7484C464.141 36.0375 464.325 36.4437 464.325 36.9672C464.325 37.8422 463.868 38.3656 462.954 38.5375C462.173 38.6859 460.552 38.7601 458.091 38.7601C455.544 38.7601 453.884 38.4164 453.11 37.7289C452.259 36.9711 451.833 35.3304 451.833 32.807C451.833 31.7601 451.907 30.1898 452.055 28.0961C452.212 25.9945 452.29 24.4242 452.29 23.3851C452.29 23.1117 452.251 22.7094 452.173 22.1781C452.094 21.639 452.055 21.2328 452.055 20.9594C452.055 19.7719 452.602 19.1781 453.696 19.1781C454.04 19.1781 454.356 19.2758 454.645 19.4711C455.552 19.2445 456.411 19.0765 457.223 18.9672C458.044 18.85 458.817 18.7914 459.544 18.7914C461.512 18.7914 463.087 19.0179 464.266 19.4711C464.985 19.7445 465.344 20.2406 465.344 20.9594C465.344 21.3656 465.204 21.725 464.923 22.0375C464.61 22.3969 464.212 22.5765 463.727 22.5765Z" fill="#353535"/>
</g>
<defs>
<filter id="filter0_bd_557_125" x="-4.8" y="-4.8" width="495" height="67.2" filterUnits="userSpaceOnUse" color-interpolation-filters="sRGB">
<feFlood flood-opacity="0" result="BackgroundImageFix"/>
<feGaussianBlur in="BackgroundImageFix" stdDeviation="2.4"/>
<feComposite in2="SourceAlpha" operator="in" result="effect1_backgroundBlur_557_125"/>
<feColorMatrix in="SourceAlpha" type="matrix" values="0 0 0 0 0 0 0 0 0 0 0 0 0 0 0 0 0 0 127 0" result="hardAlpha"/>
<feOffset dx="4.8" dy="7.2"/>
<feComposite in2="hardAlpha" operator="out"/>
<feColorMatrix type="matrix" values="0 0 0 0 0 0 0 0 0 0 0 0 0 0 0 0 0 0 1 0"/>
<feBlend mode="normal" in2="effect1_backgroundBlur_557_125" result="effect2_dropShadow_557_125"/>
<feBlend mode="normal" in="SourceGraphic" in2="effect2_dropShadow_557_125" result="shape"/>
</filter>
</defs>
</svg>
