<svg width="1152" height="652" viewBox="0 0 1152 652" fill="none" xmlns="http://www.w3.org/2000/svg">
<rect x="11.0293" y="121.349" width="1126.6" height="514.826" fill="white" fill-opacity="0.7"/>
<rect x="11.0293" y="11.0293" width="1123.26" height="106.977" fill="#E5E5E5" fill-opacity="0.7"/>
<path d="M7.68471 7.68671C7.68471 7.68671 254.528 12.7013 575.999 7.68671C897.469 2.67213 1144.31 7.68671 1144.31 7.68671M24.3998 642.861C24.3998 642.861 266.161 647.876 581.013 642.861C895.865 637.847 1137.63 642.861 1137.63 642.861M7.68476 646.204C7.68476 646.204 12.6993 508.262 7.68476 328.617C2.67018 148.972 7.68476 11.0297 7.68476 11.0297M1140.97 642.861C1140.97 642.861 1153.51 505.645 1140.97 326.945C1128.43 148.246 1140.97 11.0297 1140.97 11.0297" stroke="black" stroke-width="10.0291" stroke-linecap="round" stroke-linejoin="round"/>
<path d="M1127.6 118.23C983.927 121.182 905.835 119.692 759.354 118.23C611.498 116.754 529.201 116.754 385.529 118.23C241.728 119.707 160.956 119.706 17.2846 118.23" stroke="black" stroke-width="10.0291" stroke-linecap="round" stroke-linejoin="round"/>
<circle cx="64.5181" cy="64.5171" r="15.0436" fill="#A3EA98" fill-opacity="0.75" stroke="black" stroke-width="10.0291"/>
<circle cx="124.693" cy="64.5171" r="15.0436" fill="#DCCB71" fill-opacity="0.75" stroke="black" stroke-width="10.0291"/>
<circle cx="184.867" cy="64.5171" r="15.0436" fill="#CB6060" fill-opacity="0.75" stroke="black" stroke-width="10.0291"/>
<path d="M540.255 41.3814C541.004 41.3814 541.521 41.9162 541.806 42.986C541.592 46.5876 541.361 49.155 541.111 50.6883C540.861 52.186 540.647 53.5054 540.469 54.6465C540.327 55.7876 540.22 56.5721 540.148 57C540.113 57.4279 539.97 58.3015 539.72 59.6209C539.471 60.9403 539.203 62.2597 538.918 63.579C538.668 64.8628 538.508 65.6294 538.437 65.879C538.401 66.1286 538.08 67.7333 537.474 70.693C536.868 73.617 536.404 75.4178 536.083 76.0953C535.798 76.7372 535.281 77.0581 534.532 77.0581C533.819 77.0581 533.248 76.8442 532.82 76.4162C531.18 74.1697 529.629 71.3883 528.167 68.0721C527.81 67.2162 527.4 66.2891 526.937 65.2907C526.509 64.2922 526.188 63.5434 525.974 63.0442L525.492 61.9209C524.744 63.2046 523.71 65.3798 522.39 68.4465C521.071 71.5131 519.912 73.9736 518.913 75.8279C518.272 76.648 517.558 77.0581 516.774 77.0581C515.134 77.0581 513.885 72.6899 513.03 63.9535C513.03 63.9178 512.994 63.7217 512.923 63.3651C512.887 63.0085 512.816 62.3845 512.709 61.493C512.637 60.6015 512.53 59.6209 512.388 58.5511C512.281 57.4457 511.835 52.9348 511.051 45.0186C511.051 44.3054 511.318 43.6635 511.853 43.093C512.388 42.4868 512.976 42.1837 513.618 42.1837C514.403 42.1837 514.937 42.7007 515.223 43.7348C516.185 55.324 517.148 63.8821 518.111 69.4093C518.396 68.91 519.127 67.2697 520.304 64.4883C521.481 61.6713 522.551 59.4426 523.513 57.8023C524.476 56.1263 525.403 55.2883 526.295 55.2883C526.901 55.2883 527.418 55.6093 527.846 56.2511C530.092 62.6341 532.018 67.1271 533.623 69.7302C533.658 69.338 533.872 68.2682 534.265 66.5209L534.96 63.0976C534.96 62.8837 534.996 62.5806 535.067 62.1883C535.174 61.7961 535.245 61.4217 535.281 61.0651C535.352 60.6728 535.423 60.3162 535.495 59.9953L536.083 56.6255C536.939 51.348 537.474 47.0155 537.688 43.6279C537.83 43.0217 538.151 42.5046 538.651 42.0767C539.185 41.6131 539.72 41.3814 540.255 41.3814ZM548.022 43.2535C548.664 43.2535 549.27 43.5566 549.841 44.1628C550.411 44.769 550.697 45.4108 550.697 46.0883C550.697 46.7302 550.376 47.3899 549.734 48.0674C549.128 48.7449 548.486 49.0837 547.808 49.0837C547.131 49.0837 546.507 48.7984 545.936 48.2279C545.401 47.6573 545.134 46.9263 545.134 46.0348C545.134 44.3232 546.061 43.3961 547.915 43.2535C547.951 43.2535 547.987 43.2535 548.022 43.2535ZM550.269 71.2814L550.322 75.0255C550.322 75.7031 550.055 76.2736 549.52 76.7372C548.985 77.1651 548.415 77.379 547.808 77.379C546.917 77.379 546.453 76.9333 546.418 76.0418C545.954 64.6666 545.722 58.3728 545.722 57.1604C545.722 55.948 545.776 54.4682 545.883 52.7209C545.954 52.079 546.364 51.7581 547.113 51.7581C549.003 51.7581 550.073 52.5248 550.322 54.0581C550.429 54.8426 550.483 55.4666 550.483 55.9302L550.269 59.3V71.2814ZM558.486 75.4L557.898 53.6837C557.898 53.0062 558.13 52.4535 558.593 52.0255C559.057 51.5976 559.521 51.3837 559.984 51.3837C561.125 51.3837 561.785 51.8651 561.963 52.8279C562.106 53.7907 562.177 54.7891 562.177 55.8232C564.103 53.2914 566.51 52.0255 569.398 52.0255C573.82 52.0255 576.031 57.0713 576.031 67.1628C576.031 68.0899 576.031 69.4984 576.031 71.3883C576.031 73.2426 575.924 74.5976 575.71 75.4535C575.46 76.5232 574.693 77.0581 573.41 77.0581C572.554 77.0581 572.126 76.4876 572.126 75.3465L572.179 72.3511C572.179 68.2147 572.037 65.3976 571.752 63.9C571.502 62.3666 571.252 61.1542 571.003 60.2628C570.396 58.3372 569.416 57.3744 568.061 57.3744C566.278 57.3744 565.03 58.0162 564.317 59.3C563.532 60.6907 563.069 62.331 562.926 64.2209C562.676 67.5372 562.552 71.0496 562.552 74.7581C562.552 75.4713 562.284 76.0418 561.749 76.4697C561.214 76.8976 560.572 77.1116 559.824 77.1116C558.932 77.1116 558.486 76.5411 558.486 75.4ZM593.422 52.0255L593.369 41.7023C593.369 39.7767 593.975 38.8139 595.187 38.8139C596.435 38.8139 597.131 39.3488 597.273 40.4186C597.345 40.8821 597.434 43.6814 597.541 48.8162C597.648 53.9511 597.808 58.7651 598.022 63.2581C598.272 67.7511 598.397 71.9411 598.397 75.8279C598.397 76.8976 597.594 77.4325 595.99 77.4325C594.92 77.4325 594.385 76.6837 594.385 75.186C592.852 76.3984 591.033 77.0046 588.929 77.0046C586.255 77.0046 584.08 76.0062 582.404 74.0093C580.763 72.0124 579.943 69.5519 579.943 66.6279C579.943 63.7038 580.532 60.9759 581.708 58.4442C582.921 55.8767 584.793 54.0403 587.325 52.9348C588.894 52.2573 590.409 51.9186 591.871 51.9186C592.406 51.9186 592.923 51.9542 593.422 52.0255ZM593.69 59.3535C593.44 58.569 593.137 57.9806 592.78 57.5883C592.424 57.1604 592.032 56.9108 591.604 56.8395C591.211 56.7325 590.73 56.679 590.159 56.679C589.589 56.679 588.894 56.893 588.073 57.3209C587.253 57.7488 586.558 58.4442 585.987 59.4069C584.846 61.3325 584.276 63.3651 584.276 65.5046C584.276 67.6085 584.686 69.338 585.506 70.693C586.362 72.0124 587.556 72.6721 589.09 72.6721C590.659 72.6721 591.889 71.9054 592.78 70.3721C593.672 68.8387 594.118 66.8775 594.118 64.4883C594.118 61.8139 593.975 60.1023 593.69 59.3535ZM610.948 52.1325C613.515 52.1325 615.619 53.3628 617.259 55.8232C618.935 58.2837 619.773 61.2434 619.773 64.7023C619.773 68.1255 618.917 71.0496 617.206 73.4744C615.53 75.8992 613.283 77.1116 610.466 77.1116C607.685 77.1116 605.438 75.8814 603.727 73.4209C602.015 70.9248 601.159 68.1612 601.159 65.1302C601.159 61.2434 601.944 58.1411 603.513 55.8232C605.189 53.3628 607.667 52.1325 610.948 52.1325ZM610.306 56.5186C608.808 56.5186 607.578 57.3031 606.615 58.8721C605.652 60.4411 605.171 62.0992 605.171 63.8465C605.171 66.5566 605.706 68.6248 606.776 70.0511C607.845 71.4775 609.058 72.1907 610.413 72.1907C612.838 72.1907 614.389 71.1387 615.066 69.0348C615.352 68.0364 615.494 66.7883 615.494 65.2907C615.494 59.4426 613.765 56.5186 610.306 56.5186ZM627.493 77.0046C626.28 77.0046 625.104 74.6511 623.962 69.9442C622.857 65.2015 622.304 59.8883 622.304 54.0046C622.304 53.3984 622.554 52.9348 623.053 52.6139C623.588 52.2573 624.069 52.079 624.497 52.079C624.925 52.079 625.264 52.2217 625.514 52.5069C625.799 52.7566 625.942 53.0953 625.942 53.5232C625.942 59.086 626.886 64.4348 628.776 69.5697C629.062 69.1418 629.507 68.286 630.114 67.0023C630.72 65.6829 631.29 64.7201 631.825 64.1139C632.36 63.5077 633.002 63.2046 633.751 63.2046C634.5 63.2046 635.284 63.7573 636.104 64.8628C636.924 65.9682 637.62 67.1628 638.19 68.4465C638.797 69.6945 639.135 70.3542 639.207 70.4255C640.169 67.4302 640.651 64.6488 640.651 62.0814L640.33 53.9511C640.294 53.4162 640.544 52.9705 641.079 52.6139C641.614 52.2217 642.131 52.0255 642.63 52.0255C643.664 52.0255 644.181 54.0403 644.181 58.0697V61.0116C644.181 65.7899 643.45 70.0511 641.988 73.7953C641.204 75.9348 640.223 77.0046 639.046 77.0046C638.369 77.0046 637.745 76.5767 637.174 75.7209C636.604 74.8294 635.962 73.5814 635.249 71.9767C634.535 70.3721 633.983 69.2666 633.59 68.6604L631.986 71.8162C631.38 73.0643 630.916 73.9736 630.595 74.5442C630.274 75.079 629.828 75.6317 629.258 76.2023C628.687 76.7372 628.099 77.0046 627.493 77.0046Z" fill="black"/>
</svg>
